<svg xmlns="http://www.w3.org/2000/svg" xmlns:xlink="http://www.w3.org/1999/xlink" width="867" height="537" viewBox="0 0 867 537">
  <defs>
    <filter id="Rectángulo_5942" x="0" y="136" width="103" height="306" filterUnits="userSpaceOnUse">
      <feOffset dy="3" input="SourceAlpha"/>
      <feGaussianBlur stdDeviation="3" result="blur"/>
      <feFlood flood-opacity="0.161"/>
      <feComposite operator="in" in2="blur"/>
      <feComposite in="SourceGraphic"/>
    </filter>
    <filter id="Rectángulo_5942-2" x="0" y="448" width="860" height="89" filterUnits="userSpaceOnUse">
      <feOffset dy="3" input="SourceAlpha"/>
      <feGaussianBlur stdDeviation="3" result="blur-2"/>
      <feFlood flood-opacity="0.161"/>
      <feComposite operator="in" in2="blur-2"/>
      <feComposite in="SourceGraphic"/>
    </filter>
    <filter id="Rectángulo_5942-3" x="436" y="136" width="103" height="306" filterUnits="userSpaceOnUse">
      <feOffset dy="3" input="SourceAlpha"/>
      <feGaussianBlur stdDeviation="3" result="blur-3"/>
      <feFlood flood-opacity="0.161"/>
      <feComposite operator="in" in2="blur-3"/>
      <feComposite in="SourceGraphic"/>
    </filter>
    <filter id="Rectángulo_5942-4" x="219" y="136" width="103" height="306" filterUnits="userSpaceOnUse">
      <feOffset dy="3" input="SourceAlpha"/>
      <feGaussianBlur stdDeviation="3" result="blur-4"/>
      <feFlood flood-opacity="0.161"/>
      <feComposite operator="in" in2="blur-4"/>
      <feComposite in="SourceGraphic"/>
    </filter>
    <filter id="Rectángulo_5942-5" x="655" y="136" width="103" height="306" filterUnits="userSpaceOnUse">
      <feOffset dy="3" input="SourceAlpha"/>
      <feGaussianBlur stdDeviation="3" result="blur-5"/>
      <feFlood flood-opacity="0.161"/>
      <feComposite operator="in" in2="blur-5"/>
      <feComposite in="SourceGraphic"/>
    </filter>
    <filter id="Rectángulo_5942-6" x="109" y="136" width="103" height="306" filterUnits="userSpaceOnUse">
      <feOffset dy="3" input="SourceAlpha"/>
      <feGaussianBlur stdDeviation="3" result="blur-6"/>
      <feFlood flood-opacity="0.161"/>
      <feComposite operator="in" in2="blur-6"/>
      <feComposite in="SourceGraphic"/>
    </filter>
    <filter id="Rectángulo_5942-7" x="545" y="136" width="103" height="306" filterUnits="userSpaceOnUse">
      <feOffset dy="3" input="SourceAlpha"/>
      <feGaussianBlur stdDeviation="3" result="blur-7"/>
      <feFlood flood-opacity="0.161"/>
      <feComposite operator="in" in2="blur-7"/>
      <feComposite in="SourceGraphic"/>
    </filter>
    <filter id="Rectángulo_5942-8" x="327" y="136" width="104" height="306" filterUnits="userSpaceOnUse">
      <feOffset dy="3" input="SourceAlpha"/>
      <feGaussianBlur stdDeviation="3" result="blur-8"/>
      <feFlood flood-opacity="0.161"/>
      <feComposite operator="in" in2="blur-8"/>
      <feComposite in="SourceGraphic"/>
    </filter>
    <filter id="Rectángulo_5942-9" x="763" y="136" width="104" height="306" filterUnits="userSpaceOnUse">
      <feOffset dy="3" input="SourceAlpha"/>
      <feGaussianBlur stdDeviation="3" result="blur-9"/>
      <feFlood flood-opacity="0.161"/>
      <feComposite operator="in" in2="blur-9"/>
      <feComposite in="SourceGraphic"/>
    </filter>
    <filter id="Polígono_1" x="5" y="0" width="855" height="130" filterUnits="userSpaceOnUse">
      <feOffset dy="3" input="SourceAlpha"/>
      <feGaussianBlur stdDeviation="3" result="blur-10"/>
      <feFlood flood-opacity="0.161"/>
      <feComposite operator="in" in2="blur-10"/>
      <feComposite in="SourceGraphic"/>
    </filter>
    <filter id="Trazado_116386" x="369.936" y="50.453" width="122.248" height="53.547" filterUnits="userSpaceOnUse">
      <feOffset dy="3" input="SourceAlpha"/>
      <feGaussianBlur stdDeviation="3" result="blur-11"/>
      <feFlood flood-opacity="0.161"/>
      <feComposite operator="in" in2="blur-11"/>
      <feComposite in="SourceGraphic"/>
    </filter>
    <filter id="Trazado_116395" x="105.121" y="479" width="655.324" height="41.121" filterUnits="userSpaceOnUse">
      <feOffset dy="3" input="SourceAlpha"/>
      <feGaussianBlur stdDeviation="3" result="blur-12"/>
      <feFlood flood-opacity="0.161"/>
      <feComposite operator="in" in2="blur-12"/>
      <feComposite in="SourceGraphic"/>
    </filter>
  </defs>
  <g id="Grupo_59902" data-name="Grupo 59902" transform="translate(-324 -1272.601)">
    <g id="Grupo_59901" data-name="Grupo 59901" transform="translate(333 1414.997)">
      <g transform="matrix(1, 0, 0, 1, -9, -142.4)" filter="url(#Rectángulo_5942)">
        <g id="Rectángulo_5942-10" data-name="Rectángulo 5942" transform="translate(9 142)" fill="#0075a4" stroke="#fff" stroke-width="3">
          <rect width="85" height="288" stroke="none"/>
          <rect x="1.5" y="1.5" width="82" height="285" fill="none"/>
        </g>
      </g>
      <path id="Trazado_116387" data-name="Trazado 116387" d="M55.008,5.625l2.922,8.25,2.906-8.25h3.078V17H61.563V13.891L61.8,8.523,58.727,17H57.117L54.055,8.531l.234,5.359V17H51.945V5.625ZM72.8,12.07H68.3v3.047h5.281V17H65.961V5.625H73.57v1.9H68.3v2.711h4.5Zm6.742-6.445h2.344V13.5a3.766,3.766,0,0,1-.48,1.918A3.261,3.261,0,0,1,80.055,16.7a4.235,4.235,0,0,1-1.977.453,4.025,4.025,0,0,1-2.812-.918,3.335,3.335,0,0,1-1.008-2.6h2.359a1.829,1.829,0,0,0,.352,1.234,1.407,1.407,0,0,0,1.109.4,1.343,1.343,0,0,0,1.07-.461,1.948,1.948,0,0,0,.4-1.312Zm13.7,5.945a6.867,6.867,0,0,1-.594,2.945,4.472,4.472,0,0,1-1.7,1.953,5.021,5.021,0,0,1-5.059.008,4.515,4.515,0,0,1-1.719-1.941,6.67,6.67,0,0,1-.617-2.9V11.07a6.831,6.831,0,0,1,.605-2.957,4.508,4.508,0,0,1,1.711-1.961,5.014,5.014,0,0,1,5.055,0,4.508,4.508,0,0,1,1.711,1.961,6.811,6.811,0,0,1,.605,2.949Zm-2.375-.516a4.787,4.787,0,0,0-.641-2.719,2.263,2.263,0,0,0-3.648-.012,4.732,4.732,0,0,0-.648,2.691v.555a4.847,4.847,0,0,0,.641,2.7,2.243,2.243,0,0,0,3.656.035,4.819,4.819,0,0,0,.641-2.7Zm8.289,1.781H97.289V17H94.945V5.625h4.227a4.778,4.778,0,0,1,3.109.9,3.1,3.1,0,0,1,1.094,2.539,3.5,3.5,0,0,1-.5,1.941,3.437,3.437,0,0,1-1.527,1.238l2.461,4.648V17h-2.516Zm-1.867-1.9H99.18a1.936,1.936,0,0,0,1.367-.449,1.606,1.606,0,0,0,.484-1.238,1.719,1.719,0,0,0-.457-1.266,1.9,1.9,0,0,0-1.4-.461H97.289Zm14.289,3.719h-4.109L106.688,17H104.2L108.43,5.625H110.6L114.859,17h-2.492Zm-3.477-1.9h2.844L109.516,8.5Zm13.719,1.258a1.2,1.2,0,0,0-.469-1.02,6.148,6.148,0,0,0-1.687-.75,11.963,11.963,0,0,1-1.93-.777,3.153,3.153,0,0,1-1.937-2.82A2.747,2.747,0,0,1,116.316,7a3.389,3.389,0,0,1,1.492-1.129,5.616,5.616,0,0,1,2.184-.406,5.112,5.112,0,0,1,2.172.441,3.458,3.458,0,0,1,1.48,1.246,3.261,3.261,0,0,1,.527,1.828h-2.344a1.534,1.534,0,0,0-.492-1.215,2.023,2.023,0,0,0-1.383-.434,2.162,2.162,0,0,0-1.336.363,1.146,1.146,0,0,0-.477.957,1.1,1.1,0,0,0,.559.93,6.311,6.311,0,0,0,1.645.7,7.106,7.106,0,0,1,2.914,1.492A2.972,2.972,0,0,1,124.172,14a2.737,2.737,0,0,1-1.117,2.316,4.891,4.891,0,0,1-3.008.84,5.808,5.808,0,0,1-2.391-.48,3.783,3.783,0,0,1-1.645-1.316,3.371,3.371,0,0,1-.566-1.937H117.8q0,1.883,2.25,1.883a2.189,2.189,0,0,0,1.3-.34A1.106,1.106,0,0,0,121.82,14.016Zm14.766-1.945h-4.5v3.047h5.281V17h-7.625V5.625h7.609v1.9h-5.266v2.711h4.5ZM147.992,17h-2.344l-4.562-7.484V17h-2.344V5.625h2.344l4.57,7.5v-7.5h2.336Zm8.891-4.648h-4.5V17h-2.344V5.625h7.406v1.9h-5.062v2.938h4.5Zm11.266-.781a6.867,6.867,0,0,1-.594,2.945,4.471,4.471,0,0,1-1.7,1.953,5.021,5.021,0,0,1-5.059.008,4.515,4.515,0,0,1-1.719-1.941,6.67,6.67,0,0,1-.617-2.9V11.07a6.831,6.831,0,0,1,.605-2.957,4.508,4.508,0,0,1,1.711-1.961,5.014,5.014,0,0,1,5.055,0,4.508,4.508,0,0,1,1.711,1.961,6.811,6.811,0,0,1,.605,2.949Zm-2.375-.516a4.787,4.787,0,0,0-.641-2.719,2.263,2.263,0,0,0-3.648-.012,4.732,4.732,0,0,0-.648,2.691v.555a4.847,4.847,0,0,0,.641,2.7,2.243,2.243,0,0,0,3.656.035,4.819,4.819,0,0,0,.641-2.7Zm13.008,2.156a4.025,4.025,0,0,1-1.355,2.891,4.76,4.76,0,0,1-3.223,1.055,4.281,4.281,0,0,1-3.441-1.473,6.038,6.038,0,0,1-1.254-4.043v-.7a6.819,6.819,0,0,1,.578-2.891,4.332,4.332,0,0,1,1.652-1.918,5.164,5.164,0,0,1,5.668.387A4.326,4.326,0,0,1,178.8,9.484h-2.344a2.376,2.376,0,0,0-.613-1.6,2.271,2.271,0,0,0-1.605-.5,1.991,1.991,0,0,0-1.754.84,4.707,4.707,0,0,0-.6,2.605V11.7a5.038,5.038,0,0,0,.559,2.7,1.954,1.954,0,0,0,1.762.852,2.314,2.314,0,0,0,1.621-.5,2.241,2.241,0,0,0,.613-1.535Zm7.961,1.445h-4.109L181.852,17h-2.492l4.234-11.375h2.172L190.023,17h-2.492Zm-3.477-1.9h2.844L184.68,8.5ZM191.086,17V5.625h3.5a5.315,5.315,0,0,1,2.684.676,4.712,4.712,0,0,1,1.848,1.922,5.928,5.928,0,0,1,.664,2.832v.523a5.945,5.945,0,0,1-.652,2.82,4.672,4.672,0,0,1-1.84,1.914,5.355,5.355,0,0,1-2.68.688Zm2.344-9.477v7.594h1.133a2.545,2.545,0,0,0,2.1-.9,4.06,4.06,0,0,0,.742-2.57v-.6a4.124,4.124,0,0,0-.719-2.629,2.537,2.537,0,0,0-2.1-.895Zm14.477,7.133H203.8L203.016,17h-2.492l4.234-11.375h2.172L211.188,17H208.7Zm-3.477-1.9h2.844L205.844,8.5Zm13.719,1.258A1.2,1.2,0,0,0,217.68,13a6.148,6.148,0,0,0-1.687-.75,11.962,11.962,0,0,1-1.93-.777,3.153,3.153,0,0,1-1.937-2.82A2.747,2.747,0,0,1,212.645,7a3.389,3.389,0,0,1,1.492-1.129,5.616,5.616,0,0,1,2.184-.406,5.112,5.112,0,0,1,2.172.441,3.458,3.458,0,0,1,1.48,1.246,3.261,3.261,0,0,1,.527,1.828h-2.344a1.534,1.534,0,0,0-.492-1.215,2.023,2.023,0,0,0-1.383-.434,2.162,2.162,0,0,0-1.336.363,1.146,1.146,0,0,0-.477.957,1.1,1.1,0,0,0,.559.93,6.311,6.311,0,0,0,1.645.7,7.106,7.106,0,0,1,2.914,1.492A2.972,2.972,0,0,1,220.5,14a2.737,2.737,0,0,1-1.117,2.316,4.891,4.891,0,0,1-3.008.84,5.808,5.808,0,0,1-2.391-.48,3.783,3.783,0,0,1-1.645-1.316,3.371,3.371,0,0,1-.566-1.937h2.352q0,1.883,2.25,1.883a2.189,2.189,0,0,0,1.3-.34A1.106,1.106,0,0,0,218.148,14.016Z" transform="translate(34 279.603) rotate(-90)" fill="#fff"/>
    </g>
    <g transform="matrix(1, 0, 0, 1, 324, 1272.6)" filter="url(#Rectángulo_5942-2)">
      <g id="Rectángulo_5942-11" data-name="Rectángulo 5942" transform="translate(9 454)" fill="#ea526f" stroke="#fff" stroke-width="3">
        <rect width="842" height="71" stroke="none"/>
        <rect x="1.5" y="1.5" width="839" height="68" fill="none"/>
      </g>
    </g>
    <g transform="matrix(1, 0, 0, 1, 324, 1272.6)" filter="url(#Rectángulo_5942-3)">
      <g id="Rectángulo_5942-12" data-name="Rectángulo 5942" transform="translate(445 142)" fill="#0075a4" stroke="#fff" stroke-width="3">
        <rect width="85" height="288" stroke="none"/>
        <rect x="1.5" y="1.5" width="82" height="285" fill="none"/>
      </g>
    </g>
    <path id="Trazado_116391" data-name="Trazado 116391" d="M7.141,12.992V17H4.8V5.625H9.234a5.134,5.134,0,0,1,2.254.469,3.454,3.454,0,0,1,1.5,1.332,3.714,3.714,0,0,1,.523,1.965,3.266,3.266,0,0,1-1.145,2.637,4.767,4.767,0,0,1-3.168.965Zm0-1.9H9.234a2.059,2.059,0,0,0,1.418-.437,1.591,1.591,0,0,0,.488-1.25,1.876,1.876,0,0,0-.492-1.352,1.839,1.839,0,0,0-1.359-.531H7.141Zm12.188,1.742H17.461V17H15.117V5.625h4.227a4.778,4.778,0,0,1,3.109.9,3.1,3.1,0,0,1,1.094,2.539,3.5,3.5,0,0,1-.5,1.941,3.437,3.437,0,0,1-1.527,1.238l2.461,4.648V17H21.461Zm-1.867-1.9h1.891a1.936,1.936,0,0,0,1.367-.449A1.606,1.606,0,0,0,21.2,9.25a1.719,1.719,0,0,0-.457-1.266,1.9,1.9,0,0,0-1.4-.461H17.461ZM32.172,12.07h-4.5v3.047h5.281V17H25.328V5.625h7.609v1.9H27.672v2.711h4.5Zm6.359,2.109,2.578-8.555h2.609L39.758,17H37.313L33.367,5.625h2.6Zm13.1-2.109h-4.5v3.047h5.281V17H44.789V5.625H52.4v1.9H47.133v2.711h4.5ZM63.039,17H60.7L56.133,9.516V17H53.789V5.625h2.344l4.57,7.5v-7.5h2.336Zm10.977-3.789A4.025,4.025,0,0,1,72.66,16.1a4.76,4.76,0,0,1-3.223,1.055A4.28,4.28,0,0,1,66,15.684a6.038,6.038,0,0,1-1.254-4.043v-.7a6.819,6.819,0,0,1,.578-2.891,4.332,4.332,0,0,1,1.652-1.918,5.164,5.164,0,0,1,5.668.387,4.326,4.326,0,0,1,1.391,2.961H71.688a2.376,2.376,0,0,0-.613-1.6,2.271,2.271,0,0,0-1.605-.5,1.991,1.991,0,0,0-1.754.84,4.707,4.707,0,0,0-.6,2.605V11.7a5.038,5.038,0,0,0,.559,2.7,1.954,1.954,0,0,0,1.762.852,2.314,2.314,0,0,0,1.621-.5,2.241,2.241,0,0,0,.613-1.535ZM78.047,17H75.7V5.625h2.344Zm11.516-5.43a6.867,6.867,0,0,1-.594,2.945,4.472,4.472,0,0,1-1.7,1.953,5.021,5.021,0,0,1-5.059.008,4.515,4.515,0,0,1-1.719-1.941,6.67,6.67,0,0,1-.617-2.9V11.07a6.831,6.831,0,0,1,.605-2.957,4.508,4.508,0,0,1,1.711-1.961,5.014,5.014,0,0,1,5.055,0,4.508,4.508,0,0,1,1.711,1.961,6.811,6.811,0,0,1,.605,2.949Zm-2.375-.516a4.787,4.787,0,0,0-.641-2.719A2.263,2.263,0,0,0,82.9,8.324a4.732,4.732,0,0,0-.648,2.691v.555a4.847,4.847,0,0,0,.641,2.7,2.243,2.243,0,0,0,3.656.035,4.819,4.819,0,0,0,.641-2.7ZM85.172,2.578h2.461L85.469,5H83.633ZM100.516,17H98.172L93.609,9.516V17H91.266V5.625h2.344l4.57,7.5v-7.5h2.336Zm6.031,0V5.625h3.5a5.315,5.315,0,0,1,2.684.676,4.712,4.712,0,0,1,1.848,1.922,5.928,5.928,0,0,1,.664,2.832v.523a5.945,5.945,0,0,1-.652,2.82,4.672,4.672,0,0,1-1.84,1.914,5.355,5.355,0,0,1-2.68.688Zm2.344-9.477v7.594h1.133a2.545,2.545,0,0,0,2.1-.9,4.06,4.06,0,0,0,.742-2.57v-.6a4.124,4.124,0,0,0-.719-2.629,2.537,2.537,0,0,0-2.1-.895Zm14.9,4.547h-4.5v3.047h5.281V17h-7.625V5.625h7.609v1.9h-5.266v2.711h4.5Zm4.5,3.047h4.977V17h-7.32V5.625h2.344Zm13.367-9.492,2.922,8.25,2.906-8.25h3.078V17h-2.352V13.891l.234-5.367L145.375,17h-1.609L140.7,8.531l.234,5.359V17h-2.344V5.625Zm17.375,9.031h-4.109L154.141,17h-2.492l4.234-11.375h2.172L162.313,17H159.82Zm-3.477-1.9H158.4L156.969,8.5ZM172.625,17h-2.344l-4.562-7.484V17h-2.344V5.625h2.344l4.57,7.5v-7.5h2.336Zm10.609-9.477H179.75V17h-2.344V7.523h-3.437v-1.9h9.266Zm8.18,4.547h-4.5v3.047H192.2V17H184.57V5.625h7.609v1.9h-5.266v2.711h4.5ZM202.82,17h-2.344l-4.562-7.484V17H193.57V5.625h2.344l4.57,7.5v-7.5h2.336Zm4.539,0h-2.344V5.625h2.344Zm5.234-11.375,2.922,8.25,2.906-8.25H221.5V17h-2.352V13.891l.234-5.367L216.313,17H214.7l-3.062-8.469.234,5.359V17h-2.344V5.625ZM226.039,17H223.7V5.625h2.344Zm9.016-4.93h-4.5v3.047h5.281V17h-7.625V5.625h7.609v1.9h-5.266v2.711h4.5ZM246.461,17h-2.344l-4.562-7.484V17h-2.344V5.625h2.344l4.57,7.5v-7.5h2.336ZM257.07,7.523h-3.484V17h-2.344V7.523H247.8v-1.9h9.266Zm10.461,4.047a6.867,6.867,0,0,1-.594,2.945,4.472,4.472,0,0,1-1.7,1.953,5.021,5.021,0,0,1-5.059.008,4.515,4.515,0,0,1-1.719-1.941,6.67,6.67,0,0,1-.617-2.9V11.07a6.831,6.831,0,0,1,.605-2.957,4.508,4.508,0,0,1,1.711-1.961,5.014,5.014,0,0,1,5.055,0,4.508,4.508,0,0,1,1.711,1.961,6.811,6.811,0,0,1,.605,2.949Zm-2.375-.516a4.787,4.787,0,0,0-.641-2.719,2.263,2.263,0,0,0-3.648-.012,4.732,4.732,0,0,0-.648,2.691v.555a4.847,4.847,0,0,0,.641,2.7,2.243,2.243,0,0,0,3.656.035,4.819,4.819,0,0,0,.641-2.7Z" transform="translate(803 1694.601) rotate(-90)" fill="#fff"/>
    <g transform="matrix(1, 0, 0, 1, 324, 1272.6)" filter="url(#Rectángulo_5942-4)">
      <g id="Rectángulo_5942-13" data-name="Rectángulo 5942" transform="translate(228 142)" fill="#0075a4" stroke="#fff" stroke-width="3">
        <rect width="85" height="288" stroke="none"/>
        <rect x="1.5" y="1.5" width="82" height="285" fill="none"/>
      </g>
    </g>
    <path id="Trazado_116389" data-name="Trazado 116389" d="M19.789,5.625l2.922,8.25,2.906-8.25H28.7V17H26.344V13.891l.234-5.367L23.508,17H21.9L18.836,8.531l.234,5.359V17H16.727V5.625Zm17.375,9.031H33.055L32.273,17H29.781L34.016,5.625h2.172L40.445,17H37.953Zm-3.477-1.9h2.844L35.1,8.5ZM50.758,17H48.414L43.852,9.516V17H41.508V5.625h2.344l4.57,7.5v-7.5h2.336ZM61.367,7.523H57.883V17H55.539V7.523H52.1v-1.9h9.266Zm8.18,4.547h-4.5v3.047h5.281V17H62.7V5.625h7.609v1.9H65.047v2.711h4.5ZM80.953,17H78.609L74.047,9.516V17H71.7V5.625h2.344l4.57,7.5v-7.5h2.336Zm4.539,0H83.148V5.625h2.344ZM90.727,5.625l2.922,8.25,2.906-8.25h3.078V17H97.281V13.891l.234-5.367L94.445,17H92.836L89.773,8.531l.234,5.359V17H87.664V5.625ZM104.172,17h-2.344V5.625h2.344Zm9.016-4.93h-4.5v3.047h5.281V17h-7.625V5.625h7.609v1.9h-5.266v2.711h4.5ZM124.594,17H122.25l-4.562-7.484V17h-2.344V5.625h2.344l4.57,7.5v-7.5h2.336ZM135.2,7.523h-3.484V17h-2.344V7.523h-3.437v-1.9H135.2Zm10.461,4.047a6.867,6.867,0,0,1-.594,2.945,4.471,4.471,0,0,1-1.7,1.953,5.021,5.021,0,0,1-5.059.008,4.515,4.515,0,0,1-1.719-1.941,6.67,6.67,0,0,1-.617-2.9V11.07a6.831,6.831,0,0,1,.605-2.957,4.508,4.508,0,0,1,1.711-1.961,5.014,5.014,0,0,1,5.055,0,4.508,4.508,0,0,1,1.711,1.961,6.811,6.811,0,0,1,.605,2.949Zm-2.375-.516a4.787,4.787,0,0,0-.641-2.719A2.263,2.263,0,0,0,139,8.324a4.732,4.732,0,0,0-.648,2.691v.555a4.847,4.847,0,0,0,.641,2.7,2.243,2.243,0,0,0,3.656.035,4.819,4.819,0,0,0,.641-2.7Zm14.391,1.938V17h-2.344V5.625h4.438a5.134,5.134,0,0,1,2.254.469,3.454,3.454,0,0,1,1.5,1.332,3.714,3.714,0,0,1,.523,1.965,3.266,3.266,0,0,1-1.145,2.637,4.767,4.767,0,0,1-3.168.965Zm0-1.9h2.094a2.059,2.059,0,0,0,1.418-.437,1.591,1.591,0,0,0,.488-1.25,1.876,1.876,0,0,0-.492-1.352,1.839,1.839,0,0,0-1.359-.531H157.68ZM168,15.117h4.977V17h-7.32V5.625H168Zm12.891-.461h-4.109L176,17h-2.492l4.234-11.375h2.172L184.172,17H181.68Zm-3.477-1.9h2.844L178.828,8.5ZM194.484,17h-2.344l-4.562-7.484V17h-2.344V5.625h2.344l4.57,7.5v-7.5h2.336Zm4.539,0H196.68V5.625h2.344Zm9.016-4.648h-4.5V17H201.2V5.625H208.6v1.9h-5.062v2.938h4.5ZM212.453,17h-2.344V5.625h2.344Zm11.1-3.789A4.025,4.025,0,0,1,222.2,16.1a4.76,4.76,0,0,1-3.223,1.055,4.281,4.281,0,0,1-3.441-1.473,6.038,6.038,0,0,1-1.254-4.043v-.7a6.819,6.819,0,0,1,.578-2.891,4.332,4.332,0,0,1,1.652-1.918,5.164,5.164,0,0,1,5.668.387,4.326,4.326,0,0,1,1.391,2.961h-2.344a2.376,2.376,0,0,0-.613-1.6,2.271,2.271,0,0,0-1.605-.5,1.991,1.991,0,0,0-1.754.84,4.707,4.707,0,0,0-.6,2.605V11.7a5.038,5.038,0,0,0,.559,2.7,1.954,1.954,0,0,0,1.762.852,2.314,2.314,0,0,0,1.621-.5,2.241,2.241,0,0,0,.613-1.535Zm7.961,1.445h-4.109L226.625,17h-2.492l4.234-11.375h2.172L234.8,17H232.3Zm-3.477-1.9h2.844L229.453,8.5ZM235.859,17V5.625h3.5a5.315,5.315,0,0,1,2.684.676,4.712,4.712,0,0,1,1.848,1.922,5.928,5.928,0,0,1,.664,2.832v.523a5.945,5.945,0,0,1-.652,2.82,4.672,4.672,0,0,1-1.84,1.914,5.355,5.355,0,0,1-2.68.688ZM238.2,7.523v7.594h1.133a2.545,2.545,0,0,0,2.1-.9,4.06,4.06,0,0,0,.742-2.57v-.6a4.124,4.124,0,0,0-.719-2.629,2.537,2.537,0,0,0-2.1-.895Zm17.4,4.047a6.867,6.867,0,0,1-.594,2.945,4.471,4.471,0,0,1-1.7,1.953,5.021,5.021,0,0,1-5.059.008,4.515,4.515,0,0,1-1.719-1.941,6.67,6.67,0,0,1-.617-2.9V11.07a6.831,6.831,0,0,1,.605-2.957,4.508,4.508,0,0,1,1.711-1.961,5.014,5.014,0,0,1,5.055,0A4.508,4.508,0,0,1,255,8.113a6.811,6.811,0,0,1,.605,2.949Zm-2.375-.516a4.787,4.787,0,0,0-.641-2.719,2.263,2.263,0,0,0-3.648-.012,4.732,4.732,0,0,0-.648,2.691v.555a4.847,4.847,0,0,0,.641,2.7,2.243,2.243,0,0,0,3.656.035,4.819,4.819,0,0,0,.641-2.7Z" transform="translate(585 1694.601) rotate(-90)" fill="#fff"/>
    <g transform="matrix(1, 0, 0, 1, 324, 1272.6)" filter="url(#Rectángulo_5942-5)">
      <g id="Rectángulo_5942-14" data-name="Rectángulo 5942" transform="translate(664 142)" fill="#0075a4" stroke="#fff" stroke-width="3">
        <rect width="85" height="288" stroke="none"/>
        <rect x="1.5" y="1.5" width="82" height="285" fill="none"/>
      </g>
    </g>
    <path id="Trazado_116393" data-name="Trazado 116393" d="M25.66,12.992V17H23.316V5.625h4.438a5.134,5.134,0,0,1,2.254.469,3.454,3.454,0,0,1,1.5,1.332,3.714,3.714,0,0,1,.523,1.965,3.266,3.266,0,0,1-1.145,2.637,4.767,4.767,0,0,1-3.168.965Zm0-1.9h2.094a2.059,2.059,0,0,0,1.418-.437,1.591,1.591,0,0,0,.488-1.25,1.876,1.876,0,0,0-.492-1.352,1.839,1.839,0,0,0-1.359-.531H25.66Zm17.32.477a6.867,6.867,0,0,1-.594,2.945,4.472,4.472,0,0,1-1.7,1.953,5.021,5.021,0,0,1-5.059.008,4.515,4.515,0,0,1-1.719-1.941,6.67,6.67,0,0,1-.617-2.9V11.07A6.831,6.831,0,0,1,33.9,8.113a4.508,4.508,0,0,1,1.711-1.961,5.014,5.014,0,0,1,5.055,0,4.508,4.508,0,0,1,1.711,1.961,6.811,6.811,0,0,1,.605,2.949Zm-2.375-.516a4.787,4.787,0,0,0-.641-2.719,2.263,2.263,0,0,0-3.648-.012,4.732,4.732,0,0,0-.648,2.691v.555a4.847,4.847,0,0,0,.641,2.7,2.243,2.243,0,0,0,3.656.035,4.819,4.819,0,0,0,.641-2.7Zm6.422,4.063H52V17h-7.32V5.625h2.344ZM55.84,17H53.5V5.625H55.84Zm6.375-2.82,2.578-8.555H67.4L63.441,17H61L57.051,5.625h2.6Zm12.094.477H70.2L69.418,17H66.926L71.16,5.625h2.172L77.59,17H75.1Zm-3.477-1.9h2.844L72.246,8.5ZM81,15.117h4.977V17h-7.32V5.625H81ZM94.16,12.07h-4.5v3.047h5.281V17H87.316V5.625h7.609v1.9H89.66v2.711h4.5ZM105.566,17h-2.344L98.66,9.516V17H96.316V5.625H98.66l4.57,7.5v-7.5h2.336Zm10.977-3.789a4.025,4.025,0,0,1-1.355,2.891,4.76,4.76,0,0,1-3.223,1.055,4.28,4.28,0,0,1-3.441-1.473,6.038,6.038,0,0,1-1.254-4.043v-.7a6.819,6.819,0,0,1,.578-2.891A4.332,4.332,0,0,1,109.5,6.137a5.164,5.164,0,0,1,5.668.387,4.326,4.326,0,0,1,1.391,2.961h-2.344a2.376,2.376,0,0,0-.613-1.6,2.271,2.271,0,0,0-1.605-.5,1.991,1.991,0,0,0-1.754.84,4.707,4.707,0,0,0-.6,2.605V11.7a5.038,5.038,0,0,0,.559,2.7,1.954,1.954,0,0,0,1.762.852,2.314,2.314,0,0,0,1.621-.5,2.241,2.241,0,0,0,.613-1.535ZM120.574,17H118.23V5.625h2.344Zm8.594-2.344h-4.109L124.277,17h-2.492L126.02,5.625h2.172L132.449,17h-2.492Zm-3.477-1.9h2.844L127.105,8.5Zm15.727-2.008,2.367-5.125h2.563l-3.734,7.25V17H140.23V12.875L136.5,5.625h2.57ZM151.371,17V5.625h3.5a5.315,5.315,0,0,1,2.684.676A4.712,4.712,0,0,1,159.4,8.223a5.928,5.928,0,0,1,.664,2.832v.523a5.945,5.945,0,0,1-.652,2.82,4.672,4.672,0,0,1-1.84,1.914,5.355,5.355,0,0,1-2.68.688Zm2.344-9.477v7.594h1.133a2.545,2.545,0,0,0,2.1-.9,4.06,4.06,0,0,0,.742-2.57v-.6a4.124,4.124,0,0,0-.719-2.629,2.537,2.537,0,0,0-2.1-.895Zm14.9,4.547h-4.5v3.047h5.281V17H161.77V5.625h7.609v1.9h-5.266v2.711h4.5Zm8.055,1.945A1.2,1.2,0,0,0,176.2,13a6.148,6.148,0,0,0-1.687-.75,11.962,11.962,0,0,1-1.93-.777,3.153,3.153,0,0,1-1.937-2.82A2.747,2.747,0,0,1,171.164,7a3.389,3.389,0,0,1,1.492-1.129,5.616,5.616,0,0,1,2.184-.406,5.112,5.112,0,0,1,2.172.441,3.458,3.458,0,0,1,1.48,1.246,3.261,3.261,0,0,1,.527,1.828h-2.344a1.534,1.534,0,0,0-.492-1.215,2.023,2.023,0,0,0-1.383-.434,2.162,2.162,0,0,0-1.336.363,1.146,1.146,0,0,0-.477.957,1.1,1.1,0,0,0,.559.93,6.311,6.311,0,0,0,1.645.7,7.106,7.106,0,0,1,2.914,1.492A2.972,2.972,0,0,1,179.02,14a2.737,2.737,0,0,1-1.117,2.316,4.891,4.891,0,0,1-3.008.84,5.808,5.808,0,0,1-2.391-.48,3.783,3.783,0,0,1-1.645-1.316,3.371,3.371,0,0,1-.566-1.937h2.352q0,1.883,2.25,1.883a2.189,2.189,0,0,0,1.3-.34A1.106,1.106,0,0,0,176.668,14.016Zm10.359.641h-4.109L182.137,17h-2.492l4.234-11.375h2.172L190.309,17h-2.492Zm-3.477-1.9h2.844L184.965,8.5Zm12.031.078h-1.867V17h-2.344V5.625H195.6a4.778,4.778,0,0,1,3.109.9A3.1,3.1,0,0,1,199.8,9.063,3.5,3.5,0,0,1,199.3,11a3.437,3.437,0,0,1-1.527,1.238l2.461,4.648V17h-2.516Zm-1.867-1.9h1.891a1.936,1.936,0,0,0,1.367-.449,1.606,1.606,0,0,0,.484-1.238A1.719,1.719,0,0,0,197,7.984a1.9,1.9,0,0,0-1.4-.461h-1.883Zm12.078,1.9h-1.867V17h-2.344V5.625h4.227a4.778,4.778,0,0,1,3.109.9,3.1,3.1,0,0,1,1.094,2.539,3.5,3.5,0,0,1-.5,1.941,3.437,3.437,0,0,1-1.527,1.238l2.461,4.648V17h-2.516Zm-1.867-1.9h1.891a1.936,1.936,0,0,0,1.367-.449,1.606,1.606,0,0,0,.484-1.238,1.719,1.719,0,0,0-.457-1.266,1.9,1.9,0,0,0-1.4-.461h-1.883Zm17.211.633a6.867,6.867,0,0,1-.594,2.945,4.471,4.471,0,0,1-1.7,1.953,5.021,5.021,0,0,1-5.059.008,4.515,4.515,0,0,1-1.719-1.941,6.67,6.67,0,0,1-.617-2.9V11.07a6.831,6.831,0,0,1,.605-2.957,4.508,4.508,0,0,1,1.711-1.961,5.014,5.014,0,0,1,5.055,0,4.508,4.508,0,0,1,1.711,1.961,6.811,6.811,0,0,1,.605,2.949Zm-2.375-.516a4.787,4.787,0,0,0-.641-2.719,2.263,2.263,0,0,0-3.648-.012,4.732,4.732,0,0,0-.648,2.691v.555a4.847,4.847,0,0,0,.641,2.7,2.243,2.243,0,0,0,3.656.035,4.819,4.819,0,0,0,.641-2.7Zm6.422,4.063h4.977V17h-7.32V5.625h2.344Zm8.664,0h4.977V17H231.5V5.625h2.344Zm15.164-3.547a6.867,6.867,0,0,1-.594,2.945,4.471,4.471,0,0,1-1.7,1.953,5.021,5.021,0,0,1-5.059.008,4.515,4.515,0,0,1-1.719-1.941,6.67,6.67,0,0,1-.617-2.9V11.07a6.831,6.831,0,0,1,.605-2.957,4.508,4.508,0,0,1,1.711-1.961,5.014,5.014,0,0,1,5.055,0,4.508,4.508,0,0,1,1.711,1.961,6.811,6.811,0,0,1,.605,2.949Zm-2.375-.516A4.787,4.787,0,0,0,246,8.336a2.263,2.263,0,0,0-3.648-.012,4.732,4.732,0,0,0-.648,2.691v.555a4.847,4.847,0,0,0,.641,2.7,2.243,2.243,0,0,0,3.656.035,4.819,4.819,0,0,0,.641-2.7ZM74.918,41V29.625h3.5A5.315,5.315,0,0,1,81.1,30.3a4.712,4.712,0,0,1,1.848,1.922,5.928,5.928,0,0,1,.664,2.832v.523a5.945,5.945,0,0,1-.652,2.82,4.672,4.672,0,0,1-1.84,1.914,5.355,5.355,0,0,1-2.68.688Zm2.344-9.477v7.594h1.133a2.545,2.545,0,0,0,2.1-.9,4.06,4.06,0,0,0,.742-2.57v-.6a4.124,4.124,0,0,0-.719-2.629,2.537,2.537,0,0,0-2.1-.895Zm14.9,4.547h-4.5v3.047h5.281V41H85.316V29.625h7.609v1.9H87.66v2.711h4.5Zm15.4,4.93h-2.344V36.125h-4.57V41H98.3V29.625h2.344v4.609h4.57V29.625h2.344Zm8.609-2.344h-4.109L111.277,41h-2.492l4.234-11.375h2.172L119.449,41h-2.492Zm-3.477-1.9h2.844l-1.43-4.258ZM120.512,41V29.625H124.5a5.232,5.232,0,0,1,3.141.793,2.711,2.711,0,0,1,1.07,2.324,2.57,2.57,0,0,1-.43,1.473,2.482,2.482,0,0,1-1.2.934,2.4,2.4,0,0,1,1.379.883,2.61,2.61,0,0,1,.5,1.625,3,3,0,0,1-1.047,2.484,4.713,4.713,0,0,1-2.984.859Zm2.344-4.953v3.07h2.008a1.938,1.938,0,0,0,1.293-.395,1.353,1.353,0,0,0,.465-1.09A1.428,1.428,0,0,0,125,36.047Zm0-1.656h1.734q1.773-.031,1.773-1.414a1.307,1.307,0,0,0-.449-1.113,2.363,2.363,0,0,0-1.418-.34h-1.641ZM133.215,41h-2.344V29.625h2.344Zm4.516-1.883h4.977V41h-7.32V29.625h2.344ZM146.543,41H144.2V29.625h2.344Zm2.172,0V29.625h3.5a5.315,5.315,0,0,1,2.684.676,4.712,4.712,0,0,1,1.848,1.922,5.928,5.928,0,0,1,.664,2.832v.523a5.945,5.945,0,0,1-.652,2.82,4.672,4.672,0,0,1-1.84,1.914,5.355,5.355,0,0,1-2.68.688Zm2.344-9.477v7.594h1.133a2.545,2.545,0,0,0,2.1-.9,4.06,4.06,0,0,0,.742-2.57v-.6a4.124,4.124,0,0,0-.719-2.629,2.537,2.537,0,0,0-2.1-.895Zm14.477,7.133h-4.109L160.645,41h-2.492l4.234-11.375h2.172L168.816,41h-2.492Zm-3.477-1.9H164.9l-1.43-4.258ZM169.879,41V29.625h3.5a5.315,5.315,0,0,1,2.684.676,4.712,4.712,0,0,1,1.848,1.922,5.928,5.928,0,0,1,.664,2.832v.523a5.945,5.945,0,0,1-.652,2.82,4.672,4.672,0,0,1-1.84,1.914A5.355,5.355,0,0,1,173.4,41Zm2.344-9.477v7.594h1.133a2.545,2.545,0,0,0,2.1-.9,4.06,4.06,0,0,0,.742-2.57v-.6a4.124,4.124,0,0,0-.719-2.629,2.537,2.537,0,0,0-2.1-.895Zm14.9,4.547h-4.5v3.047H187.9V41h-7.625V29.625h7.609v1.9h-5.266v2.711h4.5Zm8.055,1.945a1.2,1.2,0,0,0-.469-1.02,6.148,6.148,0,0,0-1.687-.75,11.962,11.962,0,0,1-1.93-.777,3.153,3.153,0,0,1-1.937-2.82,2.747,2.747,0,0,1,.52-1.645,3.389,3.389,0,0,1,1.492-1.129,5.616,5.616,0,0,1,2.184-.406,5.112,5.112,0,0,1,2.172.441A3.458,3.458,0,0,1,197,31.156a3.261,3.261,0,0,1,.527,1.828h-2.344a1.534,1.534,0,0,0-.492-1.215,2.023,2.023,0,0,0-1.383-.434,2.162,2.162,0,0,0-1.336.363,1.146,1.146,0,0,0-.477.957,1.1,1.1,0,0,0,.559.93,6.311,6.311,0,0,0,1.645.7,7.106,7.106,0,0,1,2.914,1.492A2.972,2.972,0,0,1,197.527,38a2.737,2.737,0,0,1-1.117,2.316,4.891,4.891,0,0,1-3.008.84,5.808,5.808,0,0,1-2.391-.48,3.783,3.783,0,0,1-1.645-1.316,3.371,3.371,0,0,1-.566-1.937h2.352q0,1.883,2.25,1.883a2.189,2.189,0,0,0,1.3-.34A1.106,1.106,0,0,0,195.176,38.016Z" transform="translate(1012 1694.601) rotate(-90)" fill="#fff"/>
    <g transform="matrix(1, 0, 0, 1, 324, 1272.6)" filter="url(#Rectángulo_5942-6)">
      <g id="Rectángulo_5942-15" data-name="Rectángulo 5942" transform="translate(118 142)" fill="#0075a4" stroke="#fff" stroke-width="3">
        <rect width="85" height="288" stroke="none"/>
        <rect x="1.5" y="1.5" width="82" height="285" fill="none"/>
      </g>
    </g>
    <path id="Trazado_116388" data-name="Trazado 116388" d="M28.008,5.625l2.922,8.25,2.906-8.25h3.078V17H34.563V13.891L34.8,8.523,31.727,17H30.117L27.055,8.531l.234,5.359V17H24.945V5.625Zm17.375,9.031H41.273L40.492,17H38L42.234,5.625h2.172L48.664,17H46.172Zm-3.477-1.9H44.75L43.32,8.5ZM58.977,17H56.633L52.07,9.516V17H49.727V5.625H52.07l4.57,7.5v-7.5h2.336ZM69.586,7.523H66.1V17H63.758V7.523H60.32v-1.9h9.266Zm8.18,4.547h-4.5v3.047h5.281V17H70.922V5.625h7.609v1.9H73.266v2.711h4.5ZM89.172,17H86.828L82.266,9.516V17H79.922V5.625h2.344l4.57,7.5v-7.5h2.336Zm4.539,0H91.367V5.625h2.344ZM98.945,5.625l2.922,8.25,2.906-8.25h3.078V17H105.5V13.891l.234-5.367L102.664,17h-1.609L97.992,8.531l.234,5.359V17H95.883V5.625ZM112.391,17h-2.344V5.625h2.344Zm9.016-4.93h-4.5v3.047h5.281V17h-7.625V5.625h7.609v1.9h-5.266v2.711h4.5ZM132.813,17h-2.344l-4.562-7.484V17h-2.344V5.625h2.344l4.57,7.5v-7.5h2.336Zm10.609-9.477h-3.484V17h-2.344V7.523h-3.437v-1.9h9.266Zm10.461,4.047a6.867,6.867,0,0,1-.594,2.945,4.471,4.471,0,0,1-1.7,1.953,5.021,5.021,0,0,1-5.059.008,4.515,4.515,0,0,1-1.719-1.941,6.67,6.67,0,0,1-.617-2.9V11.07a6.831,6.831,0,0,1,.605-2.957,4.508,4.508,0,0,1,1.711-1.961,5.014,5.014,0,0,1,5.055,0,4.508,4.508,0,0,1,1.711,1.961,6.811,6.811,0,0,1,.605,2.949Zm-2.375-.516a4.787,4.787,0,0,0-.641-2.719,2.263,2.263,0,0,0-3.648-.012,4.732,4.732,0,0,0-.648,2.691v.555a4.847,4.847,0,0,0,.641,2.7,2.243,2.243,0,0,0,3.656.035,4.819,4.819,0,0,0,.641-2.7Zm14.484,3.6h-4.109L161.1,17h-2.492l4.234-11.375h2.172L169.273,17h-2.492Zm-3.477-1.9h2.844L163.93,8.5Zm16.3-7.133v7.492a3.836,3.836,0,0,1-1.168,2.953,4.5,4.5,0,0,1-3.191,1.086,4.553,4.553,0,0,1-3.164-1.055,3.77,3.77,0,0,1-1.2-2.9V5.625h2.344v7.508a2.167,2.167,0,0,0,.535,1.629,2.054,2.054,0,0,0,1.48.512q1.977,0,2.008-2.078V5.625Zm10.484,1.9h-3.484V17h-2.344V7.523h-3.437v-1.9H189.3Zm10.68,4.047a6.867,6.867,0,0,1-.594,2.945,4.471,4.471,0,0,1-1.7,1.953,5.021,5.021,0,0,1-5.059.008,4.515,4.515,0,0,1-1.719-1.941,6.67,6.67,0,0,1-.617-2.9V11.07a6.831,6.831,0,0,1,.605-2.957,4.508,4.508,0,0,1,1.711-1.961,5.014,5.014,0,0,1,5.055,0,4.508,4.508,0,0,1,1.711,1.961,6.811,6.811,0,0,1,.605,2.949Zm-2.375-.516a4.787,4.787,0,0,0-.641-2.719,2.263,2.263,0,0,0-3.648-.012,4.732,4.732,0,0,0-.648,2.691v.555a4.847,4.847,0,0,0,.641,2.7,2.243,2.243,0,0,0,3.656.035,4.819,4.819,0,0,0,.641-2.7Zm-2.016-8.477h2.461L195.883,5h-1.836ZM210.93,17h-2.344l-4.562-7.484V17H201.68V5.625h2.344l4.57,7.5v-7.5h2.336Zm11.391-5.43a6.867,6.867,0,0,1-.594,2.945,4.471,4.471,0,0,1-1.7,1.953,5.021,5.021,0,0,1-5.059.008,4.515,4.515,0,0,1-1.719-1.941,6.67,6.67,0,0,1-.617-2.9V11.07a6.831,6.831,0,0,1,.605-2.957,4.508,4.508,0,0,1,1.711-1.961,5.014,5.014,0,0,1,5.055,0,4.508,4.508,0,0,1,1.711,1.961,6.811,6.811,0,0,1,.605,2.949Zm-2.375-.516a4.787,4.787,0,0,0-.641-2.719,2.263,2.263,0,0,0-3.648-.012,4.732,4.732,0,0,0-.648,2.691v.555a4.847,4.847,0,0,0,.641,2.7,2.243,2.243,0,0,0,3.656.035,4.819,4.819,0,0,0,.641-2.7Zm7.141-5.43,2.922,8.25,2.906-8.25h3.078V17h-2.352V13.891l.234-5.367L230.8,17H229.2l-3.062-8.469.234,5.359V17h-2.344V5.625Zm20.3,5.945a6.867,6.867,0,0,1-.594,2.945,4.471,4.471,0,0,1-1.7,1.953,5.021,5.021,0,0,1-5.059.008,4.515,4.515,0,0,1-1.719-1.941,6.67,6.67,0,0,1-.617-2.9V11.07a6.831,6.831,0,0,1,.605-2.957,4.508,4.508,0,0,1,1.711-1.961,5.014,5.014,0,0,1,5.055,0,4.508,4.508,0,0,1,1.711,1.961,6.811,6.811,0,0,1,.605,2.949Zm-2.375-.516a4.787,4.787,0,0,0-.641-2.719,2.263,2.263,0,0,0-3.648-.012,4.732,4.732,0,0,0-.648,2.691v.555a4.847,4.847,0,0,0,.641,2.7,2.243,2.243,0,0,0,3.656.035,4.819,4.819,0,0,0,.641-2.7Z" transform="translate(475 1694.601) rotate(-90)" fill="#fff"/>
    <g transform="matrix(1, 0, 0, 1, 324, 1272.6)" filter="url(#Rectángulo_5942-7)">
      <g id="Rectángulo_5942-16" data-name="Rectángulo 5942" transform="translate(554 142)" fill="#0075a4" stroke="#fff" stroke-width="3">
        <rect width="85" height="288" stroke="none"/>
        <rect x="1.5" y="1.5" width="82" height="285" fill="none"/>
      </g>
    </g>
    <path id="Trazado_116392" data-name="Trazado 116392" d="M6.016,5.625l2.922,8.25,2.906-8.25h3.078V17H12.57V13.891L12.8,8.523,9.734,17H8.125L5.063,8.531,5.3,13.891V17H2.953V5.625Zm17.375,9.031H19.281L18.5,17H16.008L20.242,5.625h2.172L26.672,17H24.18Zm-3.477-1.9h2.844L21.328,8.5ZM36.984,17H34.641L30.078,9.516V17H27.734V5.625h2.344l4.57,7.5v-7.5h2.336ZM47.594,7.523H44.109V17H41.766V7.523H38.328v-1.9h9.266Zm8.18,4.547h-4.5v3.047h5.281V17H48.93V5.625h7.609v1.9H51.273v2.711h4.5ZM67.18,17H64.836L60.273,9.516V17H57.93V5.625h2.344l4.57,7.5v-7.5H67.18Zm4.539,0H69.375V5.625h2.344ZM76.953,5.625l2.922,8.25,2.906-8.25h3.078V17H83.508V13.891l.234-5.367L80.672,17H79.063L76,8.531l.234,5.359V17H73.891V5.625ZM90.4,17H88.055V5.625H90.4Zm9.016-4.93h-4.5v3.047H100.2V17H92.57V5.625h7.609v1.9H94.914v2.711h4.5ZM110.82,17h-2.344l-4.562-7.484V17H101.57V5.625h2.344l4.57,7.5v-7.5h2.336ZM121.43,7.523h-3.484V17H115.6V7.523h-3.437v-1.9h9.266Zm10.461,4.047a6.867,6.867,0,0,1-.594,2.945,4.471,4.471,0,0,1-1.7,1.953,5.021,5.021,0,0,1-5.059.008,4.515,4.515,0,0,1-1.719-1.941,6.67,6.67,0,0,1-.617-2.9V11.07a6.831,6.831,0,0,1,.605-2.957,4.508,4.508,0,0,1,1.711-1.961,5.014,5.014,0,0,1,5.055,0,4.508,4.508,0,0,1,1.711,1.961,6.811,6.811,0,0,1,.605,2.949Zm-2.375-.516a4.787,4.787,0,0,0-.641-2.719,2.263,2.263,0,0,0-3.648-.012,4.732,4.732,0,0,0-.648,2.691v.555a4.847,4.847,0,0,0,.641,2.7,2.243,2.243,0,0,0,3.656.035,4.819,4.819,0,0,0,.641-2.7Zm18.469,3.6h-4.109L143.094,17H140.6l4.234-11.375h2.172L151.266,17h-2.492Zm-3.477-1.9h2.844L145.922,8.5Zm1.9-10.18h2.461L146.7,5h-1.836Zm10.133,10.258h-1.867V17h-2.344V5.625h4.227a4.778,4.778,0,0,1,3.109.9,3.1,3.1,0,0,1,1.094,2.539,3.5,3.5,0,0,1-.5,1.941,3.437,3.437,0,0,1-1.527,1.238l2.461,4.648V17h-2.516Zm-1.867-1.9h1.891a1.936,1.936,0,0,0,1.367-.449,1.606,1.606,0,0,0,.484-1.238,1.719,1.719,0,0,0-.457-1.266,1.9,1.9,0,0,0-1.4-.461h-1.883Zm14.711,1.133h-4.5v3.047h5.281V17h-7.625V5.625h7.609v1.9h-5.266v2.711h4.5Zm8.578,2.586h-4.109L173.07,17h-2.492l4.234-11.375h2.172L181.242,17H178.75Zm-3.477-1.9h2.844L175.9,8.5ZM188.2,14.016a1.2,1.2,0,0,0-.469-1.02,6.148,6.148,0,0,0-1.687-.75,11.962,11.962,0,0,1-1.93-.777,3.153,3.153,0,0,1-1.937-2.82A2.747,2.747,0,0,1,182.7,7a3.389,3.389,0,0,1,1.492-1.129,5.616,5.616,0,0,1,2.184-.406,5.112,5.112,0,0,1,2.172.441,3.458,3.458,0,0,1,1.48,1.246,3.261,3.261,0,0,1,.527,1.828h-2.344a1.534,1.534,0,0,0-.492-1.215,2.023,2.023,0,0,0-1.383-.434A2.162,2.162,0,0,0,185,7.7a1.146,1.146,0,0,0-.477.957,1.1,1.1,0,0,0,.559.93,6.311,6.311,0,0,0,1.645.7,7.106,7.106,0,0,1,2.914,1.492A2.972,2.972,0,0,1,190.555,14a2.737,2.737,0,0,1-1.117,2.316,4.891,4.891,0,0,1-3.008.84,5.808,5.808,0,0,1-2.391-.48,3.783,3.783,0,0,1-1.645-1.316,3.371,3.371,0,0,1-.566-1.937h2.352q0,1.883,2.25,1.883a2.189,2.189,0,0,0,1.3-.34A1.106,1.106,0,0,0,188.2,14.016Zm17.8,0a1.2,1.2,0,0,0-.469-1.02,6.148,6.148,0,0,0-1.687-.75,11.962,11.962,0,0,1-1.93-.777,3.153,3.153,0,0,1-1.937-2.82A2.747,2.747,0,0,1,200.5,7,3.389,3.389,0,0,1,202,5.875a5.616,5.616,0,0,1,2.184-.406,5.112,5.112,0,0,1,2.172.441,3.458,3.458,0,0,1,1.48,1.246,3.261,3.261,0,0,1,.527,1.828h-2.344a1.534,1.534,0,0,0-.492-1.215,2.023,2.023,0,0,0-1.383-.434A2.162,2.162,0,0,0,202.8,7.7a1.146,1.146,0,0,0-.477.957,1.1,1.1,0,0,0,.559.93,6.311,6.311,0,0,0,1.645.7,7.106,7.106,0,0,1,2.914,1.492A2.972,2.972,0,0,1,208.359,14a2.737,2.737,0,0,1-1.117,2.316,4.891,4.891,0,0,1-3.008.84,5.808,5.808,0,0,1-2.391-.48,3.783,3.783,0,0,1-1.645-1.316,3.371,3.371,0,0,1-.566-1.937h2.352q0,1.883,2.25,1.883a2.189,2.189,0,0,0,1.3-.34A1.106,1.106,0,0,0,206.008,14.016Zm13.281-2.445a6.867,6.867,0,0,1-.594,2.945,4.471,4.471,0,0,1-1.7,1.953,5.021,5.021,0,0,1-5.059.008,4.515,4.515,0,0,1-1.719-1.941,6.67,6.67,0,0,1-.617-2.9V11.07a6.831,6.831,0,0,1,.605-2.957,4.508,4.508,0,0,1,1.711-1.961,5.014,5.014,0,0,1,5.055,0,4.508,4.508,0,0,1,1.711,1.961,6.811,6.811,0,0,1,.605,2.949Zm-2.375-.516a4.787,4.787,0,0,0-.641-2.719,2.263,2.263,0,0,0-3.648-.012,4.732,4.732,0,0,0-.648,2.691v.555a4.847,4.847,0,0,0,.641,2.7,2.243,2.243,0,0,0,3.656.035,4.819,4.819,0,0,0,.641-2.7Zm6.422,1.938V17h-2.344V5.625h4.438a5.134,5.134,0,0,1,2.254.469,3.454,3.454,0,0,1,1.5,1.332,3.714,3.714,0,0,1,.523,1.965,3.266,3.266,0,0,1-1.145,2.637,4.767,4.767,0,0,1-3.168.965Zm0-1.9h2.094a2.059,2.059,0,0,0,1.418-.437,1.591,1.591,0,0,0,.488-1.25,1.876,1.876,0,0,0-.492-1.352,1.839,1.839,0,0,0-1.359-.531h-2.148Zm17.32.477a6.867,6.867,0,0,1-.594,2.945,4.471,4.471,0,0,1-1.7,1.953,5.021,5.021,0,0,1-5.059.008,4.515,4.515,0,0,1-1.719-1.941,6.67,6.67,0,0,1-.617-2.9V11.07a6.831,6.831,0,0,1,.605-2.957,4.508,4.508,0,0,1,1.711-1.961,5.014,5.014,0,0,1,5.055,0,4.508,4.508,0,0,1,1.711,1.961,6.811,6.811,0,0,1,.605,2.949Zm-2.375-.516a4.787,4.787,0,0,0-.641-2.719,2.263,2.263,0,0,0-3.648-.012,4.732,4.732,0,0,0-.648,2.691v.555a4.847,4.847,0,0,0,.641,2.7,2.243,2.243,0,0,0,3.656.035,4.819,4.819,0,0,0,.641-2.7Zm8.289,1.781H244.7V17h-2.344V5.625h4.227a4.778,4.778,0,0,1,3.109.9,3.1,3.1,0,0,1,1.094,2.539,3.5,3.5,0,0,1-.5,1.941,3.437,3.437,0,0,1-1.527,1.238l2.461,4.648V17H248.7Zm-1.867-1.9h1.891a1.936,1.936,0,0,0,1.367-.449,1.606,1.606,0,0,0,.484-1.238,1.719,1.719,0,0,0-.457-1.266,1.9,1.9,0,0,0-1.4-.461H244.7Zm16.039-3.414h-3.484V17h-2.344V7.523h-3.437v-1.9h9.266Zm8.18,4.547h-4.5v3.047H269.7V17h-7.625V5.625h7.609v1.9h-5.266v2.711h4.5Z" transform="translate(911 1694.601) rotate(-90)" fill="#fff"/>
    <g transform="matrix(1, 0, 0, 1, 324, 1272.6)" filter="url(#Rectángulo_5942-8)">
      <g id="Rectángulo_5942-17" data-name="Rectángulo 5942" transform="translate(336 142)" fill="#0075a4" stroke="#fff" stroke-width="3">
        <rect width="86" height="288" stroke="none"/>
        <rect x="1.5" y="1.5" width="83" height="285" fill="none"/>
      </g>
    </g>
    <path id="Trazado_116390" data-name="Trazado 116390" d="M26.02,5.625l2.922,8.25,2.906-8.25h3.078V17H32.574V13.891l.234-5.367L29.738,17H28.129L25.066,8.531l.234,5.359V17H22.957V5.625Zm17.375,9.031H39.285L38.5,17H36.012L40.246,5.625h2.172L46.676,17H44.184Zm-3.477-1.9h2.844L41.332,8.5ZM56.988,17H54.645L50.082,9.516V17H47.738V5.625h2.344l4.57,7.5v-7.5h2.336ZM67.6,7.523H64.113V17H61.77V7.523H58.332v-1.9H67.6Zm8.18,4.547h-4.5v3.047h5.281V17H68.934V5.625h7.609v1.9H71.277v2.711h4.5ZM87.184,17H84.84L80.277,9.516V17H77.934V5.625h2.344l4.57,7.5v-7.5h2.336Zm4.539,0H89.379V5.625h2.344ZM96.957,5.625l2.922,8.25,2.906-8.25h3.078V17h-2.352V13.891l.234-5.367L100.676,17H99.066L96,8.531l.234,5.359V17H93.895V5.625ZM110.4,17h-2.344V5.625H110.4Zm9.016-4.93h-4.5v3.047H120.2V17h-7.625V5.625h7.609v1.9h-5.266v2.711h4.5ZM130.824,17H128.48l-4.562-7.484V17h-2.344V5.625h2.344l4.57,7.5v-7.5h2.336Zm10.609-9.477h-3.484V17h-2.344V7.523h-3.437v-1.9h9.266Zm10.461,4.047a6.867,6.867,0,0,1-.594,2.945,4.471,4.471,0,0,1-1.7,1.953,5.021,5.021,0,0,1-5.059.008,4.515,4.515,0,0,1-1.719-1.941,6.67,6.67,0,0,1-.617-2.9V11.07a6.831,6.831,0,0,1,.605-2.957,4.508,4.508,0,0,1,1.711-1.961,5.014,5.014,0,0,1,5.055,0,4.508,4.508,0,0,1,1.711,1.961,6.811,6.811,0,0,1,.605,2.949Zm-2.375-.516a4.787,4.787,0,0,0-.641-2.719,2.263,2.263,0,0,0-3.648-.012,4.732,4.732,0,0,0-.648,2.691v.555a4.847,4.847,0,0,0,.641,2.7,2.243,2.243,0,0,0,3.656.035,4.819,4.819,0,0,0,.641-2.7ZM161.566,17V5.625h3.5a5.315,5.315,0,0,1,2.684.676A4.712,4.712,0,0,1,169.6,8.223a5.928,5.928,0,0,1,.664,2.832v.523a5.945,5.945,0,0,1-.652,2.82,4.672,4.672,0,0,1-1.84,1.914,5.355,5.355,0,0,1-2.68.688Zm2.344-9.477v7.594h1.133a2.545,2.545,0,0,0,2.1-.9,4.06,4.06,0,0,0,.742-2.57v-.6a4.124,4.124,0,0,0-.719-2.629,2.537,2.537,0,0,0-2.1-.895Zm14.9,4.547h-4.5v3.047h5.281V17h-7.625V5.625h7.609v1.9h-5.266v2.711h4.5Zm15.07,1.141a4.025,4.025,0,0,1-1.355,2.891,4.76,4.76,0,0,1-3.223,1.055,4.281,4.281,0,0,1-3.441-1.473,6.038,6.038,0,0,1-1.254-4.043v-.7a6.819,6.819,0,0,1,.578-2.891,4.332,4.332,0,0,1,1.652-1.918,5.164,5.164,0,0,1,5.668.387,4.326,4.326,0,0,1,1.391,2.961h-2.344a2.376,2.376,0,0,0-.613-1.6,2.271,2.271,0,0,0-1.605-.5,1.991,1.991,0,0,0-1.754.84,4.707,4.707,0,0,0-.6,2.605V11.7a5.038,5.038,0,0,0,.559,2.7,1.954,1.954,0,0,0,1.762.852,2.314,2.314,0,0,0,1.621-.5,2.241,2.241,0,0,0,.613-1.535Zm7.961,1.445H197.73L196.949,17h-2.492l4.234-11.375h2.172L205.121,17h-2.492Zm-3.477-1.9h2.844L199.777,8.5Zm10.164,2.359H213.5V17h-7.32V5.625h2.344ZM217.34,17H215V5.625h2.344Zm2.172,0V5.625h3.5A5.315,5.315,0,0,1,225.7,6.3a4.712,4.712,0,0,1,1.848,1.922,5.928,5.928,0,0,1,.664,2.832v.523a5.945,5.945,0,0,1-.652,2.82,4.672,4.672,0,0,1-1.84,1.914,5.355,5.355,0,0,1-2.68.688Zm2.344-9.477v7.594h1.133a2.545,2.545,0,0,0,2.1-.9,4.06,4.06,0,0,0,.742-2.57v-.6a4.124,4.124,0,0,0-.719-2.629,2.537,2.537,0,0,0-2.1-.895Zm14.477,7.133h-4.109L231.441,17h-2.492l4.234-11.375h2.172L239.613,17h-2.492Zm-3.477-1.9H235.7L234.27,8.5ZM240.676,17V5.625h3.5a5.315,5.315,0,0,1,2.684.676,4.712,4.712,0,0,1,1.848,1.922,5.928,5.928,0,0,1,.664,2.832v.523a5.945,5.945,0,0,1-.652,2.82,4.672,4.672,0,0,1-1.84,1.914A5.355,5.355,0,0,1,244.2,17Zm2.344-9.477v7.594h1.133a2.545,2.545,0,0,0,2.1-.9,4.06,4.06,0,0,0,.742-2.57v-.6a4.124,4.124,0,0,0-.719-2.629,2.537,2.537,0,0,0-2.1-.895Z" transform="translate(694 1694.601) rotate(-90)" fill="#fff"/>
    <g transform="matrix(1, 0, 0, 1, 324, 1272.6)" filter="url(#Rectángulo_5942-9)">
      <g id="Rectángulo_5942-18" data-name="Rectángulo 5942" transform="translate(772 142)" fill="#0075a4" stroke="#fff" stroke-width="3">
        <rect width="86" height="288" stroke="none"/>
        <rect x="1.5" y="1.5" width="83" height="285" fill="none"/>
      </g>
    </g>
    <path id="Trazado_116394" data-name="Trazado 116394" d="M53.844,14.016A1.2,1.2,0,0,0,53.375,13a6.148,6.148,0,0,0-1.687-.75,11.963,11.963,0,0,1-1.93-.777,3.153,3.153,0,0,1-1.937-2.82A2.747,2.747,0,0,1,48.34,7a3.389,3.389,0,0,1,1.492-1.129,5.616,5.616,0,0,1,2.184-.406,5.112,5.112,0,0,1,2.172.441,3.458,3.458,0,0,1,1.48,1.246A3.261,3.261,0,0,1,56.2,8.984H53.852a1.534,1.534,0,0,0-.492-1.215,2.023,2.023,0,0,0-1.383-.434,2.162,2.162,0,0,0-1.336.363,1.146,1.146,0,0,0-.477.957,1.1,1.1,0,0,0,.559.93,6.311,6.311,0,0,0,1.645.7,7.106,7.106,0,0,1,2.914,1.492A2.972,2.972,0,0,1,56.2,14a2.737,2.737,0,0,1-1.117,2.316,4.891,4.891,0,0,1-3.008.84,5.808,5.808,0,0,1-2.391-.48,3.783,3.783,0,0,1-1.645-1.316,3.371,3.371,0,0,1-.566-1.937H49.82q0,1.883,2.25,1.883a2.189,2.189,0,0,0,1.3-.34A1.106,1.106,0,0,0,53.844,14.016ZM64.625,12.07h-4.5v3.047h5.281V17H57.781V5.625h7.609v1.9H60.125v2.711h4.5Zm11.156,3.492a4.068,4.068,0,0,1-1.789,1.176,7.492,7.492,0,0,1-2.562.418,5.076,5.076,0,0,1-2.59-.645,4.3,4.3,0,0,1-1.719-1.871,6.585,6.585,0,0,1-.621-2.883v-.773a6.994,6.994,0,0,1,.574-2.949A4.248,4.248,0,0,1,68.73,6.129a5.453,5.453,0,0,1,5.7.3,4.123,4.123,0,0,1,1.352,2.809H73.5a2.268,2.268,0,0,0-.691-1.43,2.208,2.208,0,0,0-1.473-.453,2.078,2.078,0,0,0-1.82.9,4.724,4.724,0,0,0-.633,2.672v.727a4.5,4.5,0,0,0,.68,2.7,2.327,2.327,0,0,0,1.992.914,2.6,2.6,0,0,0,1.883-.562V12.75H71.3V11.023h4.477ZM86.289,5.625v7.492a3.836,3.836,0,0,1-1.168,2.953,4.5,4.5,0,0,1-3.191,1.086A4.553,4.553,0,0,1,78.766,16.1a3.77,3.77,0,0,1-1.2-2.9V5.625h2.344v7.508a2.167,2.167,0,0,0,.535,1.629,2.054,2.054,0,0,0,1.48.512q1.977,0,2.008-2.078V5.625Zm6.133,7.211H90.555V17H88.211V5.625h4.227a4.778,4.778,0,0,1,3.109.9,3.1,3.1,0,0,1,1.094,2.539,3.5,3.5,0,0,1-.5,1.941,3.437,3.437,0,0,1-1.527,1.238l2.461,4.648V17H94.555Zm-1.867-1.9h1.891a1.936,1.936,0,0,0,1.367-.449A1.606,1.606,0,0,0,94.3,9.25a1.719,1.719,0,0,0-.457-1.266,1.9,1.9,0,0,0-1.4-.461H90.555ZM100.914,17H98.57V5.625h2.344Zm2.172,0V5.625h3.5a5.315,5.315,0,0,1,2.684.676,4.712,4.712,0,0,1,1.848,1.922,5.928,5.928,0,0,1,.664,2.832v.523a5.945,5.945,0,0,1-.652,2.82,4.672,4.672,0,0,1-1.84,1.914,5.355,5.355,0,0,1-2.68.688Zm2.344-9.477v7.594h1.133a2.545,2.545,0,0,0,2.1-.9,4.06,4.06,0,0,0,.742-2.57v-.6a4.124,4.124,0,0,0-.719-2.629,2.537,2.537,0,0,0-2.1-.895Zm14.477,7.133H115.8L115.016,17h-2.492l4.234-11.375h2.172L123.188,17H120.7Zm-3.477-1.9h2.844L117.844,8.5ZM124.25,17V5.625h3.5a5.315,5.315,0,0,1,2.684.676,4.712,4.712,0,0,1,1.848,1.922,5.928,5.928,0,0,1,.664,2.832v.523a5.945,5.945,0,0,1-.652,2.82,4.672,4.672,0,0,1-1.84,1.914,5.355,5.355,0,0,1-2.68.688Zm2.344-9.477v7.594h1.133a2.545,2.545,0,0,0,2.1-.9,4.06,4.06,0,0,0,.742-2.57v-.6a4.124,4.124,0,0,0-.719-2.629,2.537,2.537,0,0,0-2.1-.895Zm15.961,3.227,2.367-5.125h2.563l-3.734,7.25V17h-2.383V12.875l-3.734-7.25h2.57Zm16.8,1.32h-4.5v3.047h5.281V17h-7.625V5.625h7.609v1.9h-5.266v2.711h4.5ZM170.758,17h-2.344l-4.562-7.484V17h-2.344V5.625h2.344l4.57,7.5v-7.5h2.336Zm10.609-9.477h-3.484V17h-2.344V7.523H172.1v-1.9h9.266Zm10.461,4.047a6.867,6.867,0,0,1-.594,2.945,4.471,4.471,0,0,1-1.7,1.953,5.021,5.021,0,0,1-5.059.008,4.515,4.515,0,0,1-1.719-1.941,6.67,6.67,0,0,1-.617-2.9V11.07a6.831,6.831,0,0,1,.605-2.957,4.508,4.508,0,0,1,1.711-1.961,5.014,5.014,0,0,1,5.055,0,4.508,4.508,0,0,1,1.711,1.961,6.811,6.811,0,0,1,.605,2.949Zm-2.375-.516a4.787,4.787,0,0,0-.641-2.719,2.263,2.263,0,0,0-3.648-.012,4.732,4.732,0,0,0-.648,2.691v.555a4.847,4.847,0,0,0,.641,2.7,2.243,2.243,0,0,0,3.656.035,4.819,4.819,0,0,0,.641-2.7Zm8.289,1.781h-1.867V17h-2.344V5.625h4.227a4.778,4.778,0,0,1,3.109.9,3.1,3.1,0,0,1,1.094,2.539,3.5,3.5,0,0,1-.5,1.941,3.437,3.437,0,0,1-1.527,1.238l2.461,4.648V17h-2.516Zm-1.867-1.9h1.891a1.936,1.936,0,0,0,1.367-.449,1.606,1.606,0,0,0,.484-1.238,1.719,1.719,0,0,0-.457-1.266,1.9,1.9,0,0,0-1.4-.461h-1.883ZM212.992,17h-2.344l-4.562-7.484V17h-2.344V5.625h2.344l4.57,7.5v-7.5h2.336Zm11.391-5.43a6.867,6.867,0,0,1-.594,2.945,4.471,4.471,0,0,1-1.7,1.953,5.021,5.021,0,0,1-5.059.008,4.515,4.515,0,0,1-1.719-1.941,6.67,6.67,0,0,1-.617-2.9V11.07a6.831,6.831,0,0,1,.605-2.957,4.508,4.508,0,0,1,1.711-1.961,5.014,5.014,0,0,1,5.055,0,4.508,4.508,0,0,1,1.711,1.961,6.811,6.811,0,0,1,.605,2.949Zm-2.375-.516a4.787,4.787,0,0,0-.641-2.719,2.263,2.263,0,0,0-3.648-.012,4.732,4.732,0,0,0-.648,2.691v.555a4.847,4.847,0,0,0,.641,2.7,2.243,2.243,0,0,0,3.656.035,4.819,4.819,0,0,0,.641-2.7Z" transform="translate(1130 1694.601) rotate(-90)" fill="#fff"/>
    <g transform="matrix(1, 0, 0, 1, 324, 1272.6)" filter="url(#Polígono_1)">
      <g id="Polígono_1-2" data-name="Polígono 1" transform="translate(14 6)" fill="#ea526f">
        <path d="M 825.5929565429688 110.5 L 11.40703201293945 110.5 L 418.5 1.552778005599976 L 825.5929565429688 110.5 Z" stroke="none"/>
        <path d="M 418.5 3.105552673339844 L 22.8140869140625 109 L 814.1859130859375 109 L 418.5 3.105552673339844 M 418.5 0 L 837 112 L 0 112 L 418.5 0 Z" stroke="none" fill="#fff"/>
      </g>
    </g>
    <g transform="matrix(1, 0, 0, 1, 324, 1272.6)" filter="url(#Trazado_116386)">
      <path id="Trazado_116386-2" data-name="Trazado 116386" d="M103.648,23.069H92.979V52H84.41V23.069H73.936V16.453h29.712Zm12.183,16.87V52h-8.569V16.453h14.185a16.521,16.521,0,0,1,7.214,1.5,11.316,11.316,0,0,1,4.858,4.272,11.668,11.668,0,0,1,1.721,6.287,10.286,10.286,0,0,1-3.723,8.313q-3.723,3.113-10.217,3.113Zm0-6.616h5.615a5.3,5.3,0,0,0,3.8-1.245,4.626,4.626,0,0,0,1.306-3.516,5.718,5.718,0,0,0-1.343-3.979,4.755,4.755,0,0,0-3.662-1.514h-5.713Zm35.229-16.87,7.935,24.731,7.91-24.731h11.279V52H169.59V43.7l.83-16.992L161.827,52h-5.664l-8.618-25.317.83,17.017V52h-8.569V16.453Z" transform="translate(305 40)" fill="#fff"/>
    </g>
    <g transform="matrix(1, 0, 0, 1, 324, 1272.6)" filter="url(#Trazado_116395)">
      <path id="Trazado_116395-2" data-name="Trazado 116395" d="M72.555,16.609l.984-8.672H83.1v2.824H76.316l-.422,3.668a5.369,5.369,0,0,1,2.566-.645,4.918,4.918,0,0,1,3.82,1.512,6.038,6.038,0,0,1,1.383,4.23,6.186,6.186,0,0,1-.7,2.959,4.921,4.921,0,0,1-2,2.027,6.237,6.237,0,0,1-3.07.721,6.624,6.624,0,0,1-2.871-.627,5.093,5.093,0,0,1-2.092-1.764,4.807,4.807,0,0,1-.814-2.59h3.352a2.5,2.5,0,0,0,.744,1.658,2.359,2.359,0,0,0,1.67.592,2.082,2.082,0,0,0,1.77-.826,3.827,3.827,0,0,0,.621-2.338,3.165,3.165,0,0,0-.715-2.227,2.623,2.623,0,0,0-2.027-.773,2.932,2.932,0,0,0-1.957.633l-.328.3Zm22.477,3.914a1.8,1.8,0,0,0-.7-1.529A9.222,9.222,0,0,0,91.8,17.869,17.944,17.944,0,0,1,88.9,16.7Q86,15.133,86,12.473a4.12,4.12,0,0,1,.779-2.467,5.083,5.083,0,0,1,2.238-1.693A8.425,8.425,0,0,1,92.289,7.7a7.668,7.668,0,0,1,3.258.662,5.187,5.187,0,0,1,2.221,1.869,4.891,4.891,0,0,1,.791,2.742H95.043a2.3,2.3,0,0,0-.738-1.822,3.035,3.035,0,0,0-2.074-.65,3.242,3.242,0,0,0-2,.545,1.719,1.719,0,0,0-.715,1.436,1.646,1.646,0,0,0,.838,1.395,9.466,9.466,0,0,0,2.467,1.055,10.658,10.658,0,0,1,4.371,2.238A4.458,4.458,0,0,1,98.559,20.5a4.106,4.106,0,0,1-1.676,3.475,7.336,7.336,0,0,1-4.512,1.26,8.712,8.712,0,0,1-3.586-.721,5.674,5.674,0,0,1-2.467-1.975,5.057,5.057,0,0,1-.85-2.906H89q0,2.824,3.375,2.824a3.283,3.283,0,0,0,1.957-.51A1.658,1.658,0,0,0,95.031,20.523Zm18.246-1.465h-6.6v-2.73h6.6Zm22.934-2.2a10.3,10.3,0,0,1-.891,4.418,6.707,6.707,0,0,1-2.549,2.93,7.532,7.532,0,0,1-7.588.012,6.773,6.773,0,0,1-2.578-2.912,10.005,10.005,0,0,1-.926-4.354v-.844a10.246,10.246,0,0,1,.908-4.436,6.762,6.762,0,0,1,2.566-2.941,7.521,7.521,0,0,1,7.582,0A6.762,6.762,0,0,1,135.3,11.67a10.217,10.217,0,0,1,.908,4.424Zm-3.562-.773A7.18,7.18,0,0,0,131.688,12a3.395,3.395,0,0,0-5.473-.018,7.1,7.1,0,0,0-.973,4.037v.832a7.27,7.27,0,0,0,.961,4.055,3.365,3.365,0,0,0,5.484.053,7.228,7.228,0,0,0,.961-4.049Zm13.02-.586a9.2,9.2,0,0,0-1.219-.094,2.481,2.481,0,0,0-2.52,1.3V25h-3.387V12.32h3.2l.094,1.512a3.138,3.138,0,0,1,2.824-1.746,3.549,3.549,0,0,1,1.055.152Zm1.137,3.07a7.431,7.431,0,0,1,1.389-4.7,4.5,4.5,0,0,1,3.744-1.781,3.946,3.946,0,0,1,3.246,1.43l.141-1.2h3.07V24.578a5.419,5.419,0,0,1-.756,2.895,4.854,4.854,0,0,1-2.127,1.875,7.477,7.477,0,0,1-3.211.645,6.953,6.953,0,0,1-2.719-.557,4.825,4.825,0,0,1-2-1.436l1.5-2.062a3.967,3.967,0,0,0,3.07,1.418,2.9,2.9,0,0,0,2.1-.721A2.7,2.7,0,0,0,155,24.59v-.68a3.917,3.917,0,0,1-3.082,1.324,4.488,4.488,0,0,1-3.7-1.787,7.429,7.429,0,0,1-1.412-4.74Zm3.387.252a4.627,4.627,0,0,0,.691,2.705,2.2,2.2,0,0,0,1.9.98A2.352,2.352,0,0,0,155,21.342V16A2.346,2.346,0,0,0,152.8,14.84a2.213,2.213,0,0,0-1.916,1A5.215,5.215,0,0,0,150.191,18.819ZM168.344,25a3.761,3.761,0,0,1-.34-1.137,4.1,4.1,0,0,1-3.2,1.371,4.5,4.5,0,0,1-3.088-1.078,3.467,3.467,0,0,1-1.225-2.719,3.583,3.583,0,0,1,1.494-3.094,7.373,7.373,0,0,1,4.318-1.09h1.559v-.727a2.089,2.089,0,0,0-.451-1.406,1.775,1.775,0,0,0-1.424-.527,2.018,2.018,0,0,0-1.342.41,1.393,1.393,0,0,0-.486,1.125h-3.387a3.4,3.4,0,0,1,.68-2.039,4.493,4.493,0,0,1,1.922-1.471,7,7,0,0,1,2.789-.533,5.534,5.534,0,0,1,3.721,1.178,4.12,4.12,0,0,1,1.377,3.311v5.5a6.062,6.062,0,0,0,.5,2.73V25Zm-2.8-2.355a2.917,2.917,0,0,0,1.383-.334,2.194,2.194,0,0,0,.938-.9v-2.18H166.6q-2.543,0-2.707,1.758l-.012.2a1.356,1.356,0,0,0,.445,1.043A1.73,1.73,0,0,0,165.543,22.645ZM176.98,12.32l.105,1.465a4.427,4.427,0,0,1,3.645-1.7,3.679,3.679,0,0,1,3,1.184,5.522,5.522,0,0,1,1.008,3.539V25h-3.387V16.891a2.2,2.2,0,0,0-.469-1.564,2.1,2.1,0,0,0-1.559-.486,2.33,2.33,0,0,0-2.145,1.219V25h-3.387V12.32ZM190.879,25h-3.4V12.32h3.4Zm-3.6-15.961a1.668,1.668,0,0,1,.51-1.254,2.2,2.2,0,0,1,2.771,0,1.658,1.658,0,0,1,.516,1.254,1.663,1.663,0,0,1-.521,1.266,2.172,2.172,0,0,1-2.754,0A1.663,1.663,0,0,1,187.281,9.039Zm10.277,13.23h6.2V25H193.234V22.938l5.965-7.887H193.41V12.32h10.16v2ZM213.227,25a3.761,3.761,0,0,1-.34-1.137,4.1,4.1,0,0,1-3.2,1.371,4.5,4.5,0,0,1-3.088-1.078,3.467,3.467,0,0,1-1.225-2.719,3.583,3.583,0,0,1,1.494-3.094,7.373,7.373,0,0,1,4.318-1.09h1.559v-.727a2.089,2.089,0,0,0-.451-1.406,1.775,1.775,0,0,0-1.424-.527,2.018,2.018,0,0,0-1.342.41,1.393,1.393,0,0,0-.486,1.125h-3.387a3.4,3.4,0,0,1,.68-2.039,4.493,4.493,0,0,1,1.922-1.471,7,7,0,0,1,2.789-.533,5.534,5.534,0,0,1,3.721,1.178,4.12,4.12,0,0,1,1.377,3.311v5.5a6.062,6.062,0,0,0,.5,2.73V25Zm-2.8-2.355a2.917,2.917,0,0,0,1.383-.334,2.194,2.194,0,0,0,.938-.9v-2.18H211.48q-2.543,0-2.707,1.758l-.012.2a1.356,1.356,0,0,0,.445,1.043A1.73,1.73,0,0,0,210.426,22.645ZM224.02,22.5a2.221,2.221,0,0,0,1.523-.516,1.807,1.807,0,0,0,.609-1.371h3.176a4.344,4.344,0,0,1-.7,2.361,4.64,4.64,0,0,1-1.893,1.664,5.923,5.923,0,0,1-2.654.592,5.5,5.5,0,0,1-4.289-1.729,6.84,6.84,0,0,1-1.57-4.775v-.223a6.762,6.762,0,0,1,1.559-4.676,5.441,5.441,0,0,1,4.277-1.746,5.333,5.333,0,0,1,3.814,1.354,4.792,4.792,0,0,1,1.459,3.6h-3.176a2.327,2.327,0,0,0-.609-1.608,2.265,2.265,0,0,0-3.334.244,5,5,0,0,0-.6,2.8v.352a5.063,5.063,0,0,0,.6,2.817A2.065,2.065,0,0,0,224.02,22.5ZM234.836,25h-3.4V12.32h3.4Zm-3.6-15.961a1.668,1.668,0,0,1,.51-1.254,2.2,2.2,0,0,1,2.771,0,1.658,1.658,0,0,1,.516,1.254,1.663,1.663,0,0,1-.521,1.266,2.172,2.172,0,0,1-2.754,0A1.663,1.663,0,0,1,231.238,9.039Zm5.859,9.5a7.52,7.52,0,0,1,.727-3.363,5.319,5.319,0,0,1,2.092-2.285,6.1,6.1,0,0,1,3.17-.809,5.774,5.774,0,0,1,4.189,1.57,6.3,6.3,0,0,1,1.811,4.266l.023.867a6.627,6.627,0,0,1-1.629,4.682,6.313,6.313,0,0,1-8.748.006A6.744,6.744,0,0,1,237.1,18.7Zm3.387.24a4.74,4.74,0,0,0,.68,2.764,2.442,2.442,0,0,0,3.867.012,5.186,5.186,0,0,0,.691-3.022,4.692,4.692,0,0,0-.691-2.746,2.248,2.248,0,0,0-1.945-.974,2.211,2.211,0,0,0-1.922.968A5.274,5.274,0,0,0,240.484,18.783ZM243.754,7h3.691L244.2,10.633h-2.754Zm10.559,5.32.105,1.465a4.427,4.427,0,0,1,3.645-1.7,3.679,3.679,0,0,1,3,1.184,5.522,5.522,0,0,1,1.008,3.539V25h-3.387V16.891a2.2,2.2,0,0,0-.469-1.564,2.1,2.1,0,0,0-1.559-.486,2.33,2.33,0,0,0-2.145,1.219V25h-3.387V12.32Zm11.2,16.957-1.77-.926.422-.762a6.089,6.089,0,0,0,.809-2.848V22.117h2.859l-.012,2.344a6.088,6.088,0,0,1-.656,2.625A6.729,6.729,0,0,1,265.516,29.277Zm10.43-10.734a7.52,7.52,0,0,1,.727-3.363,5.319,5.319,0,0,1,2.092-2.285,6.1,6.1,0,0,1,3.17-.809,5.774,5.774,0,0,1,4.189,1.57,6.3,6.3,0,0,1,1.811,4.266l.023.867a6.627,6.627,0,0,1-1.629,4.682,6.313,6.313,0,0,1-8.748.006,6.744,6.744,0,0,1-1.635-4.781Zm3.387.24a4.74,4.74,0,0,0,.68,2.764,2.442,2.442,0,0,0,3.867.012,5.186,5.186,0,0,0,.691-3.022,4.692,4.692,0,0,0-.691-2.746,2.248,2.248,0,0,0-1.945-.974,2.211,2.211,0,0,0-1.922.968A5.274,5.274,0,0,0,279.332,18.783ZM297.168,15.5a9.2,9.2,0,0,0-1.219-.094,2.481,2.481,0,0,0-2.52,1.3V25h-3.387V12.32h3.2l.094,1.512a3.138,3.138,0,0,1,2.824-1.746,3.549,3.549,0,0,1,1.055.152Zm1.1,3.07a7.641,7.641,0,0,1,1.33-4.723,4.316,4.316,0,0,1,3.639-1.758,3.884,3.884,0,0,1,3.059,1.383V7h3.4V25h-3.059l-.164-1.348a3.985,3.985,0,0,1-3.258,1.582,4.3,4.3,0,0,1-3.592-1.764A7.887,7.887,0,0,1,298.27,18.566Zm3.387.252a5.005,5.005,0,0,0,.621,2.735,2.023,2.023,0,0,0,1.8.951,2.266,2.266,0,0,0,2.215-1.326V16.166a2.234,2.234,0,0,0-2.191-1.326Q301.656,14.84,301.656,18.819Zm16.5,6.416a6.225,6.225,0,0,1-4.541-1.711,6.082,6.082,0,0,1-1.752-4.559v-.328a7.66,7.66,0,0,1,.738-3.416,5.418,5.418,0,0,1,2.092-2.32,5.871,5.871,0,0,1,3.088-.814,5.262,5.262,0,0,1,4.1,1.641,6.667,6.667,0,0,1,1.494,4.652v1.383H315.3a3.146,3.146,0,0,0,.99,1.992,2.993,2.993,0,0,0,2.092.75,3.656,3.656,0,0,0,3.059-1.418l1.664,1.863a5.084,5.084,0,0,1-2.062,1.682A6.767,6.767,0,0,1,318.156,25.234Zm-.387-10.418a2.116,2.116,0,0,0-1.635.683,3.535,3.535,0,0,0-.8,1.954h4.711v-.271a2.521,2.521,0,0,0-.609-1.748A2.183,2.183,0,0,0,317.77,14.816Zm10.641-2.5.105,1.465a4.427,4.427,0,0,1,3.645-1.7,3.679,3.679,0,0,1,3,1.184,5.522,5.522,0,0,1,1.008,3.539V25h-3.387V16.891a2.2,2.2,0,0,0-.469-1.564,2.1,2.1,0,0,0-1.559-.486,2.33,2.33,0,0,0-2.145,1.219V25h-3.387V12.32Zm21.035,7.887,2.344-7.887h3.633l-5.1,14.648-.281.668a3.865,3.865,0,0,1-3.75,2.484,5.329,5.329,0,0,1-1.5-.223V27.332l.516.012a2.786,2.786,0,0,0,1.436-.293,1.925,1.925,0,0,0,.744-.973l.4-1.043L343.445,12.32h3.645ZM366.309,25h-3.4V7h3.4Zm6.363,0h-3.4V12.32h3.4Zm-3.6-15.961a1.668,1.668,0,0,1,.51-1.254,2.2,2.2,0,0,1,2.771,0,1.658,1.658,0,0,1,.516,1.254,1.663,1.663,0,0,1-.521,1.266,2.172,2.172,0,0,1-2.754,0A1.663,1.663,0,0,1,369.074,9.039Zm9.563,3.281.105,1.418a4.456,4.456,0,0,1,3.645-1.652,3.382,3.382,0,0,1,3.363,1.934,4.354,4.354,0,0,1,3.809-1.934,3.782,3.782,0,0,1,3.07,1.2,5.521,5.521,0,0,1,1.008,3.615V25h-3.4V16.914a2.414,2.414,0,0,0-.422-1.576,1.87,1.87,0,0,0-1.488-.5,2.114,2.114,0,0,0-2.109,1.453L386.23,25h-3.387V16.926a2.385,2.385,0,0,0-.434-1.594,1.888,1.888,0,0,0-1.477-.492,2.195,2.195,0,0,0-2.086,1.2V25h-3.387V12.32Zm29.016,6.457a7.6,7.6,0,0,1-1.33,4.693,4.264,4.264,0,0,1-3.592,1.764,3.95,3.95,0,0,1-3.105-1.336v5.977h-3.387V12.32h3.141l.117,1.242a3.98,3.98,0,0,1,3.211-1.477,4.294,4.294,0,0,1,3.645,1.734,7.811,7.811,0,0,1,1.3,4.781Zm-3.387-.246a4.99,4.99,0,0,0-.627-2.73,2.042,2.042,0,0,0-1.822-.961,2.218,2.218,0,0,0-2.191,1.219V21.25A2.255,2.255,0,0,0,401.84,22.5Q404.266,22.5,404.266,18.531ZM413.324,25h-3.4V12.32h3.4Zm-3.6-15.961a1.668,1.668,0,0,1,.51-1.254,2.2,2.2,0,0,1,2.771,0,1.658,1.658,0,0,1,.516,1.254A1.663,1.663,0,0,1,413,10.3a2.172,2.172,0,0,1-2.754,0A1.663,1.663,0,0,1,409.727,9.039Zm12.223,16.2a6.225,6.225,0,0,1-4.541-1.711,6.082,6.082,0,0,1-1.752-4.559v-.328a7.66,7.66,0,0,1,.738-3.416,5.418,5.418,0,0,1,2.092-2.32,5.871,5.871,0,0,1,3.088-.814,5.262,5.262,0,0,1,4.1,1.641,6.667,6.667,0,0,1,1.494,4.652v1.383H419.09a3.146,3.146,0,0,0,.99,1.992,2.993,2.993,0,0,0,2.092.75,3.656,3.656,0,0,0,3.059-1.418l1.664,1.863a5.084,5.084,0,0,1-2.062,1.682A6.767,6.767,0,0,1,421.949,25.234Zm-.387-10.418a2.116,2.116,0,0,0-1.635.683,3.535,3.535,0,0,0-.8,1.954h4.711v-.271a2.521,2.521,0,0,0-.609-1.748A2.183,2.183,0,0,0,421.563,14.816Zm11.414,7.453h6.2V25H428.652V22.938l5.965-7.887h-5.789V12.32h10.16v2ZM448.645,25a3.761,3.761,0,0,1-.34-1.137,4.1,4.1,0,0,1-3.2,1.371,4.5,4.5,0,0,1-3.088-1.078,3.467,3.467,0,0,1-1.225-2.719,3.583,3.583,0,0,1,1.494-3.094,7.373,7.373,0,0,1,4.318-1.09h1.559v-.727a2.089,2.089,0,0,0-.451-1.406,1.775,1.775,0,0,0-1.424-.527,2.018,2.018,0,0,0-1.342.41,1.393,1.393,0,0,0-.486,1.125h-3.387a3.4,3.4,0,0,1,.68-2.039,4.493,4.493,0,0,1,1.922-1.471,7,7,0,0,1,2.789-.533,5.534,5.534,0,0,1,3.721,1.178,4.12,4.12,0,0,1,1.377,3.311v5.5a6.062,6.062,0,0,0,.5,2.73V25Zm-2.8-2.355a2.917,2.917,0,0,0,1.383-.334,2.194,2.194,0,0,0,.938-.9v-2.18H446.9q-2.543,0-2.707,1.758l-.012.2a1.356,1.356,0,0,0,.445,1.043A1.73,1.73,0,0,0,445.844,22.645Zm20.133,2.59a6.225,6.225,0,0,1-4.541-1.711,6.082,6.082,0,0,1-1.752-4.559v-.328a7.66,7.66,0,0,1,.738-3.416,5.418,5.418,0,0,1,2.092-2.32,5.871,5.871,0,0,1,3.088-.814,5.262,5.262,0,0,1,4.1,1.641,6.667,6.667,0,0,1,1.494,4.652v1.383h-8.074a3.146,3.146,0,0,0,.99,1.992,2.993,2.993,0,0,0,2.092.75,3.656,3.656,0,0,0,3.059-1.418l1.664,1.863a5.084,5.084,0,0,1-2.062,1.682A6.767,6.767,0,0,1,465.977,25.234Zm-.387-10.418a2.116,2.116,0,0,0-1.635.683,3.535,3.535,0,0,0-.8,1.954h4.711v-.271a2.521,2.521,0,0,0-.609-1.748A2.183,2.183,0,0,0,465.59,14.816Zm10.641-2.5.105,1.465a4.427,4.427,0,0,1,3.645-1.7,3.679,3.679,0,0,1,3,1.184,5.522,5.522,0,0,1,1.008,3.539V25H480.6V16.891a2.2,2.2,0,0,0-.469-1.564,2.1,2.1,0,0,0-1.559-.486,2.33,2.33,0,0,0-2.145,1.219V25h-3.387V12.32Zm22.137,12.914a6.225,6.225,0,0,1-4.541-1.711,6.082,6.082,0,0,1-1.752-4.559v-.328a7.66,7.66,0,0,1,.738-3.416A5.418,5.418,0,0,1,494.9,12.9a5.871,5.871,0,0,1,3.088-.814,5.262,5.262,0,0,1,4.1,1.641,6.667,6.667,0,0,1,1.494,4.652v1.383h-8.074a3.146,3.146,0,0,0,.99,1.992,2.993,2.993,0,0,0,2.092.75,3.656,3.656,0,0,0,3.059-1.418l1.664,1.863a5.084,5.084,0,0,1-2.062,1.682A6.767,6.767,0,0,1,498.367,25.234Zm-.387-10.418a2.116,2.116,0,0,0-1.635.683,3.535,3.535,0,0,0-.8,1.954h4.711v-.271a2.521,2.521,0,0,0-.609-1.748A2.183,2.183,0,0,0,497.98,14.816ZM509.078,25h-3.4V7h3.4Zm20.18-6.223a7.6,7.6,0,0,1-1.33,4.693,4.264,4.264,0,0,1-3.592,1.764A3.95,3.95,0,0,1,521.23,23.9v5.977h-3.387V12.32h3.141l.117,1.242a3.98,3.98,0,0,1,3.211-1.477,4.294,4.294,0,0,1,3.645,1.734,7.811,7.811,0,0,1,1.3,4.781Zm-3.387-.246a4.99,4.99,0,0,0-.627-2.73,2.042,2.042,0,0,0-1.822-.961,2.218,2.218,0,0,0-2.191,1.219V21.25a2.255,2.255,0,0,0,2.215,1.254Q525.871,22.5,525.871,18.531Zm13.078,5.18a4.247,4.247,0,0,1-3.469,1.523,4.005,4.005,0,0,1-3.111-1.172,5,5,0,0,1-1.1-3.434V12.32h3.387v8.2q0,1.983,1.8,1.983a2.445,2.445,0,0,0,2.367-1.2V12.32h3.4V25h-3.187Zm11.672,1.523a6.225,6.225,0,0,1-4.541-1.711,6.082,6.082,0,0,1-1.752-4.559v-.328a7.66,7.66,0,0,1,.738-3.416,5.418,5.418,0,0,1,2.092-2.32,5.871,5.871,0,0,1,3.088-.814,5.262,5.262,0,0,1,4.1,1.641,6.667,6.667,0,0,1,1.494,4.652v1.383h-8.074a3.146,3.146,0,0,0,.99,1.992,2.993,2.993,0,0,0,2.092.75,3.656,3.656,0,0,0,3.059-1.418l1.664,1.863a5.084,5.084,0,0,1-2.062,1.682A6.767,6.767,0,0,1,550.621,25.234Zm-.387-10.418a2.116,2.116,0,0,0-1.635.683,3.535,3.535,0,0,0-.8,1.954h4.711v-.271a2.521,2.521,0,0,0-.609-1.748A2.183,2.183,0,0,0,550.234,14.816Zm14.391,6.68a1.091,1.091,0,0,0-.615-.979,6.989,6.989,0,0,0-1.975-.639q-4.523-.949-4.523-3.844a3.484,3.484,0,0,1,1.4-2.818,5.649,5.649,0,0,1,3.662-1.131,6.08,6.08,0,0,1,3.861,1.137,3.582,3.582,0,0,1,1.447,2.953H564.5a1.639,1.639,0,0,0-.469-1.2,1.984,1.984,0,0,0-1.465-.475,2.027,2.027,0,0,0-1.324.387,1.221,1.221,0,0,0-.469.984,1.044,1.044,0,0,0,.533.908,5.485,5.485,0,0,0,1.8.6,14.692,14.692,0,0,1,2.133.568q2.684.984,2.684,3.41a3.307,3.307,0,0,1-1.488,2.807,6.42,6.42,0,0,1-3.844,1.072,6.706,6.706,0,0,1-2.83-.568,4.748,4.748,0,0,1-1.939-1.559,3.621,3.621,0,0,1-.7-2.139h3.211a1.768,1.768,0,0,0,.668,1.383,2.649,2.649,0,0,0,1.664.48,2.452,2.452,0,0,0,1.471-.369A1.149,1.149,0,0,0,564.625,21.5ZM574.152,9.2V12.32h2.168V14.8h-2.168v6.328a1.511,1.511,0,0,0,.27,1.008,1.354,1.354,0,0,0,1.031.3,5.4,5.4,0,0,0,1-.082V24.93a6.972,6.972,0,0,1-2.051.3q-3.562,0-3.633-3.6V14.8h-1.852V12.32h1.852V9.2Zm3.176,9.34a7.52,7.52,0,0,1,.727-3.363,5.319,5.319,0,0,1,2.092-2.285,6.1,6.1,0,0,1,3.17-.809,5.774,5.774,0,0,1,4.189,1.57,6.3,6.3,0,0,1,1.811,4.266l.023.867a6.627,6.627,0,0,1-1.629,4.682,6.313,6.313,0,0,1-8.748.006,6.744,6.744,0,0,1-1.635-4.781Zm3.387.24a4.74,4.74,0,0,0,.68,2.764,2.442,2.442,0,0,0,3.867.012,5.186,5.186,0,0,0,.691-3.022,4.692,4.692,0,0,0-.691-2.746,2.248,2.248,0,0,0-1.945-.974,2.211,2.211,0,0,0-1.922.968A5.274,5.274,0,0,0,580.715,18.783Zm16.16-.217a7.641,7.641,0,0,1,1.33-4.723,4.316,4.316,0,0,1,3.639-1.758,3.884,3.884,0,0,1,3.059,1.383V7h3.4V25h-3.059l-.164-1.348a3.985,3.985,0,0,1-3.258,1.582,4.3,4.3,0,0,1-3.592-1.764A7.887,7.887,0,0,1,596.875,18.566Zm3.387.252a5.005,5.005,0,0,0,.621,2.735,2.023,2.023,0,0,0,1.8.951,2.266,2.266,0,0,0,2.215-1.326V16.166a2.234,2.234,0,0,0-2.191-1.326Q600.262,14.84,600.262,18.819Zm16.5,6.416a6.225,6.225,0,0,1-4.541-1.711,6.082,6.082,0,0,1-1.752-4.559v-.328a7.66,7.66,0,0,1,.738-3.416A5.418,5.418,0,0,1,613.3,12.9a5.871,5.871,0,0,1,3.088-.814,5.262,5.262,0,0,1,4.1,1.641,6.667,6.667,0,0,1,1.494,4.652v1.383H613.9a3.146,3.146,0,0,0,.99,1.992,2.993,2.993,0,0,0,2.092.75,3.656,3.656,0,0,0,3.059-1.418l1.664,1.863a5.084,5.084,0,0,1-2.062,1.682A6.767,6.767,0,0,1,616.762,25.234Zm-.387-10.418a2.116,2.116,0,0,0-1.635.683,3.535,3.535,0,0,0-.8,1.954h4.711v-.271a2.521,2.521,0,0,0-.609-1.748A2.183,2.183,0,0,0,616.375,14.816ZM633.93,9.2V12.32H636.1V14.8H633.93v6.328a1.511,1.511,0,0,0,.27,1.008,1.354,1.354,0,0,0,1.031.3,5.4,5.4,0,0,0,1-.082V24.93a6.972,6.972,0,0,1-2.051.3q-3.562,0-3.633-3.6V14.8h-1.852V12.32h1.852V9.2Zm11.18,6.293a9.2,9.2,0,0,0-1.219-.094,2.481,2.481,0,0,0-2.52,1.3V25h-3.387V12.32h3.2l.094,1.512a3.138,3.138,0,0,1,2.824-1.746,3.549,3.549,0,0,1,1.055.152Zm8.625,9.5a3.761,3.761,0,0,1-.34-1.137,4.1,4.1,0,0,1-3.2,1.371,4.5,4.5,0,0,1-3.088-1.078,3.467,3.467,0,0,1-1.225-2.719,3.583,3.583,0,0,1,1.494-3.094,7.373,7.373,0,0,1,4.318-1.09h1.559v-.727a2.089,2.089,0,0,0-.451-1.406,1.775,1.775,0,0,0-1.424-.527,2.018,2.018,0,0,0-1.342.41,1.393,1.393,0,0,0-.486,1.125h-3.387a3.4,3.4,0,0,1,.68-2.039,4.493,4.493,0,0,1,1.922-1.471,7,7,0,0,1,2.789-.533,5.534,5.534,0,0,1,3.721,1.178,4.12,4.12,0,0,1,1.377,3.311v5.5a6.062,6.062,0,0,0,.5,2.73V25Zm-2.8-2.355a2.917,2.917,0,0,0,1.383-.334,2.194,2.194,0,0,0,.938-.9v-2.18h-1.266q-2.543,0-2.707,1.758l-.012.2a1.356,1.356,0,0,0,.445,1.043A1.73,1.73,0,0,0,650.934,22.645Zm19.746-3.867a7.678,7.678,0,0,1-1.3,4.752,4.309,4.309,0,0,1-3.633,1.705,3.959,3.959,0,0,1-3.293-1.582L662.3,25h-3.047V7h3.387v6.457a3.857,3.857,0,0,1,3.082-1.371,4.344,4.344,0,0,1,3.639,1.705,7.689,7.689,0,0,1,1.318,4.8Zm-3.387-.246a5.044,5.044,0,0,0-.609-2.807,2.061,2.061,0,0,0-1.816-.885,2.234,2.234,0,0,0-2.227,1.324v5a2.264,2.264,0,0,0,2.25,1.336,2.091,2.091,0,0,0,2.156-1.617A8.342,8.342,0,0,0,667.293,18.531ZM680.113,25a3.761,3.761,0,0,1-.34-1.137,4.1,4.1,0,0,1-3.2,1.371,4.5,4.5,0,0,1-3.088-1.078,3.467,3.467,0,0,1-1.225-2.719,3.583,3.583,0,0,1,1.494-3.094,7.373,7.373,0,0,1,4.318-1.09h1.559v-.727a2.089,2.089,0,0,0-.451-1.406,1.775,1.775,0,0,0-1.424-.527,2.018,2.018,0,0,0-1.342.41,1.393,1.393,0,0,0-.486,1.125h-3.387a3.4,3.4,0,0,1,.68-2.039,4.493,4.493,0,0,1,1.922-1.471,7,7,0,0,1,2.789-.533,5.534,5.534,0,0,1,3.721,1.178,4.12,4.12,0,0,1,1.377,3.311v5.5a6.062,6.062,0,0,0,.5,2.73V25Zm-2.8-2.355a2.917,2.917,0,0,0,1.383-.334,2.194,2.194,0,0,0,.938-.9v-2.18h-1.266q-2.543,0-2.707,1.758l-.012.2a1.356,1.356,0,0,0,.445,1.043A1.73,1.73,0,0,0,677.313,22.645ZM689.219,12.32V25.691a4.536,4.536,0,0,1-1.113,3.264,4.231,4.231,0,0,1-3.211,1.166,6.886,6.886,0,0,1-1.676-.2V27.238a6.357,6.357,0,0,0,1.066.105q1.535,0,1.535-1.629V12.32Zm-3.668-3.281a1.668,1.668,0,0,1,.51-1.254,2.205,2.205,0,0,1,2.777,0,1.668,1.668,0,0,1,.51,1.254,1.663,1.663,0,0,1-.521,1.266,2.172,2.172,0,0,1-2.754,0A1.663,1.663,0,0,1,685.551,9.039Zm5.789,9.5a7.52,7.52,0,0,1,.727-3.363,5.319,5.319,0,0,1,2.092-2.285,6.1,6.1,0,0,1,3.17-.809,5.774,5.774,0,0,1,4.189,1.57,6.3,6.3,0,0,1,1.811,4.266l.023.867a6.627,6.627,0,0,1-1.629,4.682,6.313,6.313,0,0,1-8.748.006A6.744,6.744,0,0,1,691.34,18.7Zm3.387.24a4.74,4.74,0,0,0,.68,2.764,2.442,2.442,0,0,0,3.867.012,5.186,5.186,0,0,0,.691-3.022,4.692,4.692,0,0,0-.691-2.746,2.248,2.248,0,0,0-1.945-.974,2.211,2.211,0,0,0-1.922.968A5.274,5.274,0,0,0,694.727,18.783Zm10.887,4.553a1.7,1.7,0,0,1,.545-1.312,2.117,2.117,0,0,1,2.742,0,1.7,1.7,0,0,1,.545,1.313,1.682,1.682,0,0,1-.539,1.295,2.152,2.152,0,0,1-2.754,0A1.682,1.682,0,0,1,705.613,23.336Z" transform="translate(42 478)" fill="#fff"/>
    </g>
  </g>
</svg>
