<svg xmlns="http://www.w3.org/2000/svg" width="1240" height="413" viewBox="0 0 1240 413">
  <g id="Grupo_1015064" data-name="Grupo 1015064" transform="translate(-180 -1328.5)">
    <path id="Trazado_737413" data-name="Trazado 737413" d="M13,0H282a13,13,0,0,1,13,13V84a13,13,0,0,1-13,13H13A13,13,0,0,1,0,84V13A13,13,0,0,1,13,0Z" transform="translate(180 1489)" fill="#9b1f36"/>
    <path id="Trazado_737418" data-name="Trazado 737418" d="M59.172,27.242V54h-10.6V27.242h-9.79V18.99h30.3v8.252Zm42.725,3.3a11.386,11.386,0,0,1-1.819,6.372,11.852,11.852,0,0,1-5.188,4.309,18.833,18.833,0,0,1-7.837,1.526H83.831V54H73.284V18.99H87.639q7.4,0,10.828,2.808T101.9,30.538ZM90.74,30.9a4.1,4.1,0,0,0-1.245-3.247,5.381,5.381,0,0,0-3.662-1.1h-2V35.2H86.2Q90.74,35.2,90.74,30.9ZM138.127,54V34.811q0-2.71.171-5.957l.073-1.611h-.293q-.781,4.126-1.2,5.713L131.731,54h-9.912l-5.4-20.8q-.22-.781-1.147-5.957h-.293q.342,8.2.342,10.254V54h-9.253V18.99h15.8l4.81,19.019a23.475,23.475,0,0,1,.452,2.38q.281,1.794.354,2.771h.146q.269-2.222.854-5.249l4.492-18.921h15.552V54Z" transform="translate(233 1509)" fill="#fff"/>
    <g id="Trazado_737399" data-name="Trazado 737399" transform="translate(338 1348)" fill="none">
      <path d="M17,0H907a17,17,0,0,1,17,17V362a17,17,0,0,1-17,17H17A17,17,0,0,1,0,362V17A17,17,0,0,1,17,0Z" stroke="none"/>
      <path d="M 17 1 C 12.72625732421875 1 8.7083740234375 2.66424560546875 5.68634033203125 5.68634033203125 C 2.66424560546875 8.708343505859375 1 12.72622680664062 1 17 L 1 362 C 1 366.2737731933594 2.66424560546875 370.2916564941406 5.68634033203125 373.3136596679688 C 8.7083740234375 376.3357543945312 12.72625732421875 378 17 378 L 907 378 C 911.2737426757812 378 915.2916259765625 376.3357543945312 918.3136596679688 373.3136596679688 C 921.3357543945312 370.2916564941406 923 366.2737731933594 923 362 L 923 17 C 923 12.72622680664062 921.3357543945312 8.708343505859375 918.3136596679688 5.68634033203125 C 915.2916259765625 2.66424560546875 911.2737426757812 1 907 1 L 17 1 M 17 0 L 907 0 C 916.3887939453125 0 924 7.611175537109375 924 17 L 924 362 C 924 371.3888244628906 916.3887939453125 379 907 379 L 17 379 C 7.6112060546875 379 0 371.3888244628906 0 362 L 0 17 C 0 7.611175537109375 7.6112060546875 0 17 0 Z" stroke="none" fill="#9b1f36"/>
    </g>
    <g id="Trazado_737400" data-name="Trazado 737400" transform="translate(338 1460)" fill="none">
      <path d="M17,0H907a17,17,0,0,1,17,17V138a17,17,0,0,1-17,17H17A17,17,0,0,1,0,138V17A17,17,0,0,1,17,0Z" stroke="none"/>
      <path d="M 17 1 C 12.72625732421875 1 8.7083740234375 2.664230346679688 5.68634033203125 5.686355590820312 C 2.66424560546875 8.708358764648438 1 12.72624206542969 1 17 L 1 138 C 1 142.2737579345703 2.66424560546875 146.2916412353516 5.68634033203125 149.3136444091797 C 8.7083740234375 152.3357696533203 12.72625732421875 154 17 154 L 907 154 C 911.2737426757812 154 915.2916259765625 152.3357696533203 918.3136596679688 149.3136444091797 C 921.3357543945312 146.2916412353516 923 142.2737579345703 923 138 L 923 17 C 923 12.72624206542969 921.3357543945312 8.708358764648438 918.3136596679688 5.686355590820312 C 915.2916259765625 2.664230346679688 911.2737426757812 1 907 1 L 17 1 M 17 0 L 907 0 C 916.3887939453125 0 924 7.611175537109375 924 17 L 924 138 C 924 147.3888244628906 916.3887939453125 155 907 155 L 17 155 C 7.6112060546875 155 0 147.3888244628906 0 138 L 0 17 C 0 7.611175537109375 7.6112060546875 0 17 0 Z" stroke="none" fill="#9b1f36"/>
    </g>
    <path id="Trazado_737407" data-name="Trazado 737407" d="M9,0H76a9,9,0,0,1,9,9V286a9,9,0,0,1-9,9H9a9,9,0,0,1-9-9V9A9,9,0,0,1,9,0Z" transform="translate(790 1328.5) rotate(90)" fill="#b3eeef"/>
    <path id="Trazado_737408" data-name="Trazado 737408" d="M66.965,17H64.473V10.3q0-1.086.094-2.4H64.5a11.8,11.8,0,0,1-.352,1.484L61.527,17H59.465L56.793,9.461A14.67,14.67,0,0,1,56.441,7.9h-.07q.1,1.656.1,2.906V17H54.2V5.8h3.7l2.289,6.641a9.35,9.35,0,0,1,.4,1.6h.047a16.127,16.127,0,0,1,.445-1.617L63.363,5.8h3.6Zm9.266,0H69.512V5.8h6.461V7.852H72.035v2.492H75.7v2.047H72.035v2.563h4.2Zm6.852-4.445A5.087,5.087,0,0,1,82.039,16a3.792,3.792,0,0,1-3.02,1.2,4.3,4.3,0,0,1-1.633-.3V14.523a2.344,2.344,0,0,0,1.453.492q1.727,0,1.727-2.562V5.8h2.516ZM90.27,17.2a5.215,5.215,0,0,1-3.922-1.566,5.624,5.624,0,0,1-1.516-4.082,6.026,6.026,0,0,1,1.539-4.3,5.328,5.328,0,0,1,4.078-1.641,5.085,5.085,0,0,1,3.879,1.57,5.79,5.79,0,0,1,1.48,4.141,5.929,5.929,0,0,1-1.535,4.258A5.269,5.269,0,0,1,90.27,17.2Zm.109-9.414a2.54,2.54,0,0,0-2.109,1,4.153,4.153,0,0,0-.781,2.637,4.077,4.077,0,0,0,.781,2.633,2.7,2.7,0,0,0,4.117.027,4.032,4.032,0,0,0,.766-2.613A4.369,4.369,0,0,0,92.41,8.75,2.42,2.42,0,0,0,90.379,7.781ZM107.066,17h-2.9l-1.742-2.883q-.2-.328-.375-.586a3.255,3.255,0,0,0-.363-.441,1.445,1.445,0,0,0-.383-.281.972.972,0,0,0-.434-.1h-.68V17H97.668V5.8h4q4.078,0,4.078,3.047a3.155,3.155,0,0,1-.18,1.082,3.006,3.006,0,0,1-.508.895,3.219,3.219,0,0,1-.793.688,4.089,4.089,0,0,1-1.035.453v.031a1.606,1.606,0,0,1,.484.254,3.469,3.469,0,0,1,.453.41,5.722,5.722,0,0,1,.418.5q.2.27.363.527Zm-6.875-9.312V10.8h1.094a1.813,1.813,0,0,0,1.3-.469,1.564,1.564,0,0,0,.5-1.18q0-1.469-1.758-1.469ZM117.965,17h-2.75l-.8-2.492h-3.984L109.645,17H106.91l4.078-11.2h2.992Zm-4.125-4.43-1.2-3.766a4.908,4.908,0,0,1-.187-1.008h-.062a4.273,4.273,0,0,1-.2.977l-1.219,3.8Zm5.008,4v-2.5a4.8,4.8,0,0,0,1.477.855,4.746,4.746,0,0,0,1.609.285,3.569,3.569,0,0,0,.832-.086,1.949,1.949,0,0,0,.594-.238,1.039,1.039,0,0,0,.355-.359.9.9,0,0,0,.117-.449.971.971,0,0,0-.187-.586,2.018,2.018,0,0,0-.512-.477,5.347,5.347,0,0,0-.77-.422q-.445-.2-.961-.414a4.9,4.9,0,0,1-1.957-1.336,2.917,2.917,0,0,1-.645-1.906,3.036,3.036,0,0,1,.352-1.5,2.986,2.986,0,0,1,.957-1.035,4.291,4.291,0,0,1,1.4-.6,7.206,7.206,0,0,1,1.688-.191,10.15,10.15,0,0,1,1.551.105A6.1,6.1,0,0,1,126,6.039V8.375a3.768,3.768,0,0,0-.613-.344,4.859,4.859,0,0,0-.684-.246,5.214,5.214,0,0,0-.7-.145,4.949,4.949,0,0,0-.66-.047,3.443,3.443,0,0,0-.781.082,2,2,0,0,0-.594.23,1.147,1.147,0,0,0-.375.355.843.843,0,0,0-.133.465.888.888,0,0,0,.148.5,1.7,1.7,0,0,0,.422.422,4.477,4.477,0,0,0,.664.391q.391.191.883.395a9.838,9.838,0,0,1,1.207.6,4.291,4.291,0,0,1,.918.715,2.785,2.785,0,0,1,.586.91,3.216,3.216,0,0,1,.2,1.191,3.191,3.191,0,0,1-.355,1.574,2.886,2.886,0,0,1-.965,1.031,4.184,4.184,0,0,1-1.418.566,8.2,8.2,0,0,1-1.707.172,9.492,9.492,0,0,1-1.754-.156A5.3,5.3,0,0,1,118.848,16.57Zm20.617.43h-6.719V5.8h6.461V7.852H135.27v2.492h3.664v2.047H135.27v2.563h4.2Zm11.875,0h-2.547l-4.617-7.039a10.181,10.181,0,0,1-.562-.93h-.031q.063.594.063,1.813V17h-2.383V5.8h2.719l4.445,6.82q.3.461.563.914h.031a11.977,11.977,0,0,1-.062-1.539V5.8h2.383Zm9.039-9.148h-3.953V10.6h3.633v2.047h-3.633V17H153.9V5.8h6.477Zm6.578,9.344a5.215,5.215,0,0,1-3.922-1.566,5.624,5.624,0,0,1-1.516-4.082,6.026,6.026,0,0,1,1.539-4.3,5.328,5.328,0,0,1,4.078-1.641,5.085,5.085,0,0,1,3.879,1.57,5.789,5.789,0,0,1,1.48,4.141,5.929,5.929,0,0,1-1.535,4.258A5.269,5.269,0,0,1,166.957,17.2Zm.109-9.414a2.54,2.54,0,0,0-2.109,1,4.153,4.153,0,0,0-.781,2.637,4.077,4.077,0,0,0,.781,2.633,2.7,2.7,0,0,0,4.117.027,4.032,4.032,0,0,0,.766-2.613A4.369,4.369,0,0,0,169.1,8.75,2.42,2.42,0,0,0,167.066,7.781Zm15.32,8.82a7.388,7.388,0,0,1-3.2.594,5.4,5.4,0,0,1-4.055-1.516,5.54,5.54,0,0,1-1.477-4.039,5.919,5.919,0,0,1,1.66-4.359,5.807,5.807,0,0,1,4.309-1.672,8.058,8.058,0,0,1,2.766.414v2.43a4.9,4.9,0,0,0-2.562-.672,3.4,3.4,0,0,0-2.547.992,3.682,3.682,0,0,0-.969,2.688,3.611,3.611,0,0,0,.914,2.59,3.229,3.229,0,0,0,2.461.965,5.249,5.249,0,0,0,2.7-.719Zm11.8.4h-2.75l-.8-2.492H186.66L185.871,17h-2.734l4.078-11.2h2.992Zm-4.125-4.43-1.2-3.766a4.906,4.906,0,0,1-.187-1.008h-.062a4.273,4.273,0,0,1-.2.977l-1.219,3.8ZM195.59,17V5.8h3.969q5.969,0,5.969,5.461a5.522,5.522,0,0,1-1.629,4.18A6.007,6.007,0,0,1,199.559,17Zm2.523-9.148v7.1h1.25a3.378,3.378,0,0,0,2.574-.984,3.735,3.735,0,0,0,.934-2.68,3.388,3.388,0,0,0-.926-2.52,3.529,3.529,0,0,0-2.6-.918ZM217,17h-2.75l-.8-2.492h-3.984L208.676,17h-2.734L210.02,5.8h2.992Zm-4.125-4.43-1.2-3.766A4.906,4.906,0,0,1,211.48,7.8h-.062a4.273,4.273,0,0,1-.2.977L210,12.57Zm5.008,4v-2.5a4.8,4.8,0,0,0,1.477.855,4.746,4.746,0,0,0,1.609.285,3.569,3.569,0,0,0,.832-.086,1.949,1.949,0,0,0,.594-.238,1.039,1.039,0,0,0,.355-.359.9.9,0,0,0,.117-.449.971.971,0,0,0-.187-.586,2.018,2.018,0,0,0-.512-.477,5.347,5.347,0,0,0-.77-.422q-.445-.2-.961-.414a4.9,4.9,0,0,1-1.957-1.336,2.917,2.917,0,0,1-.645-1.906,3.036,3.036,0,0,1,.352-1.5,2.986,2.986,0,0,1,.957-1.035,4.291,4.291,0,0,1,1.4-.6,7.206,7.206,0,0,1,1.688-.191,10.15,10.15,0,0,1,1.551.105,6.1,6.1,0,0,1,1.246.324V8.375a3.768,3.768,0,0,0-.613-.344,4.859,4.859,0,0,0-.684-.246,5.214,5.214,0,0,0-.7-.145,4.949,4.949,0,0,0-.66-.047,3.443,3.443,0,0,0-.781.082,2,2,0,0,0-.594.23,1.147,1.147,0,0,0-.375.355.843.843,0,0,0-.133.465.888.888,0,0,0,.148.5,1.7,1.7,0,0,0,.422.422,4.477,4.477,0,0,0,.664.391q.391.191.883.395a9.837,9.837,0,0,1,1.207.6,4.291,4.291,0,0,1,.918.715,2.785,2.785,0,0,1,.586.91,3.216,3.216,0,0,1,.2,1.191,3.191,3.191,0,0,1-.355,1.574,2.886,2.886,0,0,1-.965,1.031,4.184,4.184,0,0,1-1.418.566,8.2,8.2,0,0,1-1.707.172,9.492,9.492,0,0,1-1.754-.156A5.3,5.3,0,0,1,217.879,16.57Z" transform="translate(503 1362.5)" fill="#12263f"/>
    <path id="Trazado_737401" data-name="Trazado 737401" d="M10,0H75A10,10,0,0,1,85,10V285a10,10,0,0,1-10,10H10A10,10,0,0,1,0,285V10A10,10,0,0,1,10,0Z" transform="translate(1105 1328.5) rotate(90)" fill="#b3eeef"/>
    <path id="Trazado_737402" data-name="Trazado 737402" d="M5.758,13.141V17H3.234V5.8H7.188q4.234,0,4.234,3.57a3.426,3.426,0,0,1-1.215,2.73,4.813,4.813,0,0,1-3.246,1.043Zm0-5.406v3.492H6.75q2.016,0,2.016-1.766,0-1.727-2.016-1.727ZM22.461,17h-2.9L17.82,14.117q-.2-.328-.375-.586a3.255,3.255,0,0,0-.363-.441,1.445,1.445,0,0,0-.383-.281.972.972,0,0,0-.434-.1h-.68V17H13.063V5.8h4q4.078,0,4.078,3.047a3.155,3.155,0,0,1-.18,1.082,3.006,3.006,0,0,1-.508.895,3.219,3.219,0,0,1-.793.688,4.089,4.089,0,0,1-1.035.453v.031a1.606,1.606,0,0,1,.484.254,3.469,3.469,0,0,1,.453.41,5.722,5.722,0,0,1,.418.5q.2.27.363.527ZM15.586,7.688V10.8H16.68a1.813,1.813,0,0,0,1.3-.469,1.564,1.564,0,0,0,.5-1.18q0-1.469-1.758-1.469ZM30.227,17H23.508V5.8h6.461V7.852H26.031v2.492H29.7v2.047H26.031v2.563h4.2ZM41.43,5.8,37.57,17H34.711L30.9,5.8h2.719l2.336,7.8a5.584,5.584,0,0,1,.227,1.117h.047a6.314,6.314,0,0,1,.242-1.148L38.789,5.8ZM49.492,17H42.773V5.8h6.461V7.852H45.3v2.492h3.664v2.047H45.3v2.563h4.2Zm11.875,0H58.82L54.2,9.961a10.18,10.18,0,0,1-.562-.93h-.031q.063.594.063,1.813V17H51.289V5.8h2.719l4.445,6.82q.3.461.563.914h.031a11.978,11.978,0,0,1-.062-1.539V5.8h2.383Zm10.594-.4a7.388,7.388,0,0,1-3.2.594A5.4,5.4,0,0,1,64.7,15.68a5.54,5.54,0,0,1-1.477-4.039,5.919,5.919,0,0,1,1.66-4.359A5.807,5.807,0,0,1,69.2,5.609a8.058,8.058,0,0,1,2.766.414v2.43A4.9,4.9,0,0,0,69.4,7.781a3.4,3.4,0,0,0-2.547.992,3.682,3.682,0,0,0-.969,2.688,3.611,3.611,0,0,0,.914,2.59,3.229,3.229,0,0,0,2.461.965,5.249,5.249,0,0,0,2.7-.719Zm4.477.4H73.914V5.8h2.523Zm7.281.2A5.215,5.215,0,0,1,79.8,15.629a5.624,5.624,0,0,1-1.516-4.082,6.026,6.026,0,0,1,1.539-4.3A5.328,5.328,0,0,1,83.9,5.609a5.085,5.085,0,0,1,3.879,1.57,5.79,5.79,0,0,1,1.48,4.141,5.929,5.929,0,0,1-1.535,4.258A5.269,5.269,0,0,1,83.719,17.2Zm.109-9.414a2.54,2.54,0,0,0-2.109,1,4.153,4.153,0,0,0-.781,2.637,4.077,4.077,0,0,0,.781,2.633,2.7,2.7,0,0,0,4.117.027,4.032,4.032,0,0,0,.766-2.613,4.369,4.369,0,0,0-.742-2.711A2.42,2.42,0,0,0,83.828,7.781Zm2.547-5.547L83.93,4.758H82.148L84.18,2.234ZM101.188,17H98.641L94.023,9.961a10.178,10.178,0,0,1-.562-.93H93.43q.062.594.063,1.813V17H91.109V5.8h2.719l4.445,6.82q.3.461.563.914h.031a11.979,11.979,0,0,1-.062-1.539V5.8h2.383Zm6.977,0V5.8h3.969q5.969,0,5.969,5.461a5.522,5.522,0,0,1-1.629,4.18A6.007,6.007,0,0,1,112.133,17Zm2.523-9.148v7.1h1.25a3.378,3.378,0,0,0,2.574-.984,3.735,3.735,0,0,0,.934-2.68,3.388,3.388,0,0,0-.926-2.52,3.529,3.529,0,0,0-2.6-.918ZM126.68,17h-6.719V5.8h6.461V7.852h-3.937v2.492h3.664v2.047h-3.664v2.563h4.2Zm8.469,0h-6.672V5.8H131v9.156h4.148Zm18.688,0h-2.492V10.3q0-1.086.094-2.4h-.062a11.8,11.8,0,0,1-.352,1.484L148.4,17h-2.062l-2.672-7.539a14.668,14.668,0,0,1-.352-1.562h-.07q.1,1.656.1,2.906V17H141.07V5.8h3.7l2.289,6.641a9.349,9.349,0,0,1,.4,1.6h.047a16.127,16.127,0,0,1,.445-1.617L150.234,5.8h3.6Zm12.4,0h-2.75l-.8-2.492H158.7L157.914,17H155.18l4.078-11.2h2.992Zm-4.125-4.43-1.2-3.766a4.906,4.906,0,0,1-.187-1.008h-.062a4.273,4.273,0,0,1-.2.977l-1.219,3.8Zm15.6,4.43h-2.547l-4.617-7.039a10.181,10.181,0,0,1-.562-.93h-.031q.063.594.063,1.813V17h-2.383V5.8h2.719l4.445,6.82q.3.461.563.914h.031a11.977,11.977,0,0,1-.062-1.539V5.8h2.383Zm10.43-9.148h-3.2V17h-2.531V7.852h-3.18V5.8h8.906ZM196.367,17h-6.719V5.8h6.461V7.852h-3.937v2.492h3.664v2.047h-3.664v2.563h4.2Zm11.875,0H205.7l-4.617-7.039a10.181,10.181,0,0,1-.562-.93h-.031q.063.594.063,1.813V17h-2.383V5.8h2.719l4.445,6.82q.3.461.563.914h.031a11.977,11.977,0,0,1-.062-1.539V5.8h2.383Zm5.086,0H210.8V5.8h2.523Zm15.313,0h-2.492V10.3q0-1.086.094-2.4h-.062a11.8,11.8,0,0,1-.352,1.484L223.2,17h-2.062l-2.672-7.539a14.668,14.668,0,0,1-.352-1.562h-.07q.1,1.656.1,2.906V17h-2.273V5.8h3.7l2.289,6.641a9.349,9.349,0,0,1,.4,1.6h.047a16.127,16.127,0,0,1,.445-1.617L225.039,5.8h3.6Zm5.07,0h-2.523V5.8h2.523Zm9.266,0h-6.719V5.8h6.461V7.852h-3.937v2.492h3.664v2.047h-3.664v2.563h4.2Zm11.875,0H252.3l-4.617-7.039a10.181,10.181,0,0,1-.562-.93h-.031q.063.594.063,1.813V17h-2.383V5.8h2.719l4.445,6.82q.3.461.563.914h.031a11.977,11.977,0,0,1-.062-1.539V5.8h2.383Zm10.43-9.148h-3.2V17h-2.531V7.852h-3.18V5.8h8.906ZM270.93,17.2a5.215,5.215,0,0,1-3.922-1.566,5.624,5.624,0,0,1-1.516-4.082,6.026,6.026,0,0,1,1.539-4.3,5.328,5.328,0,0,1,4.078-1.641,5.085,5.085,0,0,1,3.879,1.57,5.79,5.79,0,0,1,1.48,4.141,5.929,5.929,0,0,1-1.535,4.258A5.269,5.269,0,0,1,270.93,17.2Zm.109-9.414a2.54,2.54,0,0,0-2.109,1,4.153,4.153,0,0,0-.781,2.637,4.077,4.077,0,0,0,.781,2.633,2.7,2.7,0,0,0,4.117.027,4.032,4.032,0,0,0,.766-2.613,4.369,4.369,0,0,0-.742-2.711A2.42,2.42,0,0,0,271.039,7.781Z" transform="translate(818 1362.5)" fill="#12263f"/>
    <path id="Trazado_737409" data-name="Trazado 737409" d="M10,0H75A10,10,0,0,1,85,10V285a10,10,0,0,1-10,10H10A10,10,0,0,1,0,285V10A10,10,0,0,1,10,0Z" transform="translate(790 1547.5) rotate(90)" fill="#b3eeef"/>
    <path id="Trazado_737410" data-name="Trazado 737410" d="M27.566,17H25.074V10.3q0-1.086.094-2.4h-.062a11.8,11.8,0,0,1-.352,1.484L22.129,17H20.066L17.395,9.461A14.671,14.671,0,0,1,17.043,7.9h-.07q.1,1.656.1,2.906V17H14.8V5.8h3.7l2.289,6.641a9.35,9.35,0,0,1,.4,1.6h.047a16.127,16.127,0,0,1,.445-1.617L23.965,5.8h3.6Zm12.4,0h-2.75l-.8-2.492H32.434L31.645,17H28.91L32.988,5.8H35.98ZM35.84,12.57,34.637,8.8A4.907,4.907,0,0,1,34.449,7.8h-.062a4.273,4.273,0,0,1-.2.977l-1.219,3.8ZM51.441,17H48.895L44.277,9.961a10.18,10.18,0,0,1-.562-.93h-.031q.063.594.063,1.813V17H41.363V5.8h2.719l4.445,6.82q.3.461.563.914h.031a11.978,11.978,0,0,1-.062-1.539V5.8h2.383Zm10.43-9.148h-3.2V17H56.145V7.852h-3.18V5.8h8.906ZM70.1,17H63.379V5.8H69.84V7.852H65.9v2.492h3.664v2.047H65.9v2.563h4.2Zm11.875,0H79.426L74.809,9.961a10.178,10.178,0,0,1-.562-.93h-.031q.062.594.063,1.813V17H71.895V5.8h2.719l4.445,6.82q.3.461.563.914h.031a11.979,11.979,0,0,1-.062-1.539V5.8h2.383Zm5.086,0H84.535V5.8h2.523Zm15.313,0H99.879V10.3q0-1.086.094-2.4H99.91a11.8,11.8,0,0,1-.352,1.484L96.934,17H94.871L92.2,9.461A14.672,14.672,0,0,1,91.848,7.9h-.07q.1,1.656.1,2.906V17H89.605V5.8h3.7l2.289,6.641a9.35,9.35,0,0,1,.4,1.6h.047a16.127,16.127,0,0,1,.445-1.617L98.77,5.8h3.6Zm5.07,0h-2.523V5.8h2.523Zm9.266,0h-6.719V5.8h6.461V7.852h-3.937v2.492h3.664v2.047h-3.664v2.563h4.2Zm11.875,0h-2.547l-4.617-7.039a10.178,10.178,0,0,1-.562-.93h-.031q.062.594.063,1.813V17H118.5V5.8h2.719l4.445,6.82q.3.461.563.914h.031a11.979,11.979,0,0,1-.062-1.539V5.8h2.383Zm10.43-9.148h-3.2V17h-2.531V7.852h-3.18V5.8h8.906ZM144.66,17.2a5.215,5.215,0,0,1-3.922-1.566,5.624,5.624,0,0,1-1.516-4.082,6.026,6.026,0,0,1,1.539-4.3,5.328,5.328,0,0,1,4.078-1.641,5.085,5.085,0,0,1,3.879,1.57,5.789,5.789,0,0,1,1.48,4.141,5.929,5.929,0,0,1-1.535,4.258A5.269,5.269,0,0,1,144.66,17.2Zm.109-9.414a2.54,2.54,0,0,0-2.109,1,4.153,4.153,0,0,0-.781,2.637,4.077,4.077,0,0,0,.781,2.633,2.7,2.7,0,0,0,4.117.027,4.032,4.032,0,0,0,.766-2.613A4.369,4.369,0,0,0,146.8,8.75,2.42,2.42,0,0,0,144.77,7.781Zm18.641,5.359V17h-2.523V5.8h3.953q4.234,0,4.234,3.57a3.426,3.426,0,0,1-1.215,2.73,4.813,4.813,0,0,1-3.246,1.043Zm0-5.406v3.492h.992q2.016,0,2.016-1.766,0-1.727-2.016-1.727ZM177.387,17h-6.672V5.8h2.523v9.156h4.148ZM189.1,17h-2.75l-.8-2.492h-3.984L180.777,17h-2.734l4.078-11.2h2.992Zm-4.125-4.43L183.77,8.8a4.906,4.906,0,0,1-.187-1.008h-.062a4.273,4.273,0,0,1-.2.977l-1.219,3.8Zm15.6,4.43h-2.547L193.41,9.961a10.181,10.181,0,0,1-.562-.93h-.031q.063.594.063,1.813V17H190.5V5.8h2.719l4.445,6.82q.3.461.563.914h.031a11.977,11.977,0,0,1-.062-1.539V5.8h2.383Zm5.086,0h-2.523V5.8h2.523Zm9.023-9.148H210.73V10.6h3.633v2.047H210.73V17h-2.523V5.8h6.477ZM219.051,17h-2.523V5.8h2.523Zm10.578-.4a7.388,7.388,0,0,1-3.2.594,5.4,5.4,0,0,1-4.055-1.516,5.54,5.54,0,0,1-1.477-4.039,5.919,5.919,0,0,1,1.66-4.359,5.807,5.807,0,0,1,4.309-1.672,8.058,8.058,0,0,1,2.766.414v2.43a4.9,4.9,0,0,0-2.562-.672,3.4,3.4,0,0,0-2.547.992,3.682,3.682,0,0,0-.969,2.688,3.611,3.611,0,0,0,.914,2.59,3.229,3.229,0,0,0,2.461.965,5.249,5.249,0,0,0,2.7-.719Zm11.8.4h-2.75l-.8-2.492H233.9L233.113,17h-2.734l4.078-11.2h2.992Zm-4.125-4.43-1.2-3.766a4.906,4.906,0,0,1-.187-1.008h-.062a4.273,4.273,0,0,1-.2.977l-1.219,3.8ZM242.832,17V5.8H246.8q5.969,0,5.969,5.461a5.522,5.522,0,0,1-1.629,4.18A6.007,6.007,0,0,1,246.8,17Zm2.523-9.148v7.1h1.25a3.378,3.378,0,0,0,2.574-.984,3.735,3.735,0,0,0,.934-2.68,3.388,3.388,0,0,0-.926-2.52,3.529,3.529,0,0,0-2.6-.918ZM259.363,17.2a5.215,5.215,0,0,1-3.922-1.566,5.624,5.624,0,0,1-1.516-4.082,6.026,6.026,0,0,1,1.539-4.3,5.328,5.328,0,0,1,4.078-1.641,5.085,5.085,0,0,1,3.879,1.57,5.79,5.79,0,0,1,1.48,4.141,5.929,5.929,0,0,1-1.535,4.258A5.269,5.269,0,0,1,259.363,17.2Zm.109-9.414a2.54,2.54,0,0,0-2.109,1,4.153,4.153,0,0,0-.781,2.637,4.077,4.077,0,0,0,.781,2.633,2.7,2.7,0,0,0,4.117.027,4.032,4.032,0,0,0,.766-2.613A4.369,4.369,0,0,0,261.5,8.75,2.42,2.42,0,0,0,259.473,7.781Z" transform="translate(503 1580.5)" fill="#12263f"/>
    <path id="Trazado_737403" data-name="Trazado 737403" d="M11,0H74A11,11,0,0,1,85,11V284a11,11,0,0,1-11,11H11A11,11,0,0,1,0,284V11A11,11,0,0,1,11,0Z" transform="translate(1105 1547.5) rotate(90)" fill="#b3eeef"/>
    <path id="Trazado_737404" data-name="Trazado 737404" d="M27.316,13.141V17H24.793V5.8h3.953q4.234,0,4.234,3.57a3.426,3.426,0,0,1-1.215,2.73,4.813,4.813,0,0,1-3.246,1.043Zm0-5.406v3.492h.992q2.016,0,2.016-1.766,0-1.727-2.016-1.727ZM39.355,17.2a5.215,5.215,0,0,1-3.922-1.566,5.624,5.624,0,0,1-1.516-4.082,6.026,6.026,0,0,1,1.539-4.3,5.328,5.328,0,0,1,4.078-1.641,5.085,5.085,0,0,1,3.879,1.57,5.79,5.79,0,0,1,1.48,4.141,5.929,5.929,0,0,1-1.535,4.258A5.269,5.269,0,0,1,39.355,17.2Zm.109-9.414a2.54,2.54,0,0,0-2.109,1,4.153,4.153,0,0,0-.781,2.637,4.077,4.077,0,0,0,.781,2.633,2.7,2.7,0,0,0,4.117.027,4.032,4.032,0,0,0,.766-2.613A4.369,4.369,0,0,0,41.5,8.75,2.42,2.42,0,0,0,39.465,7.781ZM53.426,17H46.754V5.8h2.523v9.156h4.148Zm4.031,0H54.934V5.8h2.523ZM69.332,5.8,65.473,17H62.613L58.8,5.8H61.52l2.336,7.8a5.584,5.584,0,0,1,.227,1.117h.047a6.315,6.315,0,0,1,.242-1.148L66.691,5.8ZM79.7,17h-2.75l-.8-2.492H72.168L71.379,17H68.645L72.723,5.8h2.992Zm-4.125-4.43L74.371,8.8A4.908,4.908,0,0,1,74.184,7.8h-.062a4.273,4.273,0,0,1-.2.977l-1.219,3.8ZM87.77,17H81.1V5.8h2.523v9.156H87.77ZM96,17H89.277V5.8h6.461V7.852H91.8v2.492h3.664v2.047H91.8v2.563H96Zm11.875,0h-2.547l-4.617-7.039a10.178,10.178,0,0,1-.562-.93h-.031q.062.594.063,1.813V17H97.793V5.8h2.719l4.445,6.82q.3.461.563.914h.031a11.979,11.979,0,0,1-.062-1.539V5.8h2.383Zm10.594-.4a7.388,7.388,0,0,1-3.2.594,5.4,5.4,0,0,1-4.055-1.516,5.54,5.54,0,0,1-1.477-4.039,5.919,5.919,0,0,1,1.66-4.359A5.807,5.807,0,0,1,115.7,5.609a8.058,8.058,0,0,1,2.766.414v2.43a4.9,4.9,0,0,0-2.562-.672,3.4,3.4,0,0,0-2.547.992,3.682,3.682,0,0,0-.969,2.688,3.611,3.611,0,0,0,.914,2.59,3.229,3.229,0,0,0,2.461.965,5.249,5.249,0,0,0,2.7-.719Zm4.477.4h-2.523V5.8h2.523Zm12.4,0h-2.75l-.8-2.492h-3.984L127.02,17h-2.734l4.078-11.2h2.992Zm-4.125-4.43-1.2-3.766a4.906,4.906,0,0,1-.187-1.008h-.062a4.273,4.273,0,0,1-.2.977l-1.219,3.8ZM149.6,5.8l-3.648,7.219V17h-2.523V13.063L139.871,5.8h2.883l1.8,4.18q.047.117.258.914h.031a4.07,4.07,0,0,1,.242-.883L146.926,5.8Zm5.68,11.2V5.8h3.969q5.969,0,5.969,5.461a5.522,5.522,0,0,1-1.629,4.18A6.007,6.007,0,0,1,159.246,17ZM157.8,7.852v7.1h1.25a3.378,3.378,0,0,0,2.574-.984,3.735,3.735,0,0,0,.934-2.68,3.388,3.388,0,0,0-.926-2.52,3.529,3.529,0,0,0-2.6-.918ZM173.793,17h-6.719V5.8h6.461V7.852H169.6v2.492h3.664v2.047H169.6v2.563h4.2Zm1.281-.43v-2.5a4.8,4.8,0,0,0,1.477.855,4.746,4.746,0,0,0,1.609.285,3.569,3.569,0,0,0,.832-.086,1.949,1.949,0,0,0,.594-.238,1.039,1.039,0,0,0,.355-.359.9.9,0,0,0,.117-.449.971.971,0,0,0-.187-.586,2.018,2.018,0,0,0-.512-.477,5.347,5.347,0,0,0-.77-.422q-.445-.2-.961-.414a4.9,4.9,0,0,1-1.957-1.336,2.917,2.917,0,0,1-.645-1.906,3.036,3.036,0,0,1,.352-1.5,2.986,2.986,0,0,1,.957-1.035,4.291,4.291,0,0,1,1.4-.6,7.206,7.206,0,0,1,1.688-.191,10.15,10.15,0,0,1,1.551.105,6.1,6.1,0,0,1,1.246.324V8.375a3.768,3.768,0,0,0-.613-.344,4.859,4.859,0,0,0-.684-.246,5.214,5.214,0,0,0-.7-.145,4.949,4.949,0,0,0-.66-.047,3.443,3.443,0,0,0-.781.082,2,2,0,0,0-.594.23,1.147,1.147,0,0,0-.375.355.843.843,0,0,0-.133.465.888.888,0,0,0,.148.5,1.7,1.7,0,0,0,.422.422,4.477,4.477,0,0,0,.664.391q.391.191.883.395a9.837,9.837,0,0,1,1.207.6,4.291,4.291,0,0,1,.918.715,2.785,2.785,0,0,1,.586.91,3.216,3.216,0,0,1,.2,1.191,3.191,3.191,0,0,1-.355,1.574,2.886,2.886,0,0,1-.965,1.031,4.184,4.184,0,0,1-1.418.566,8.2,8.2,0,0,1-1.707.172,9.492,9.492,0,0,1-1.754-.156A5.3,5.3,0,0,1,175.074,16.57ZM194.41,17h-2.75l-.8-2.492h-3.984L186.09,17h-2.734l4.078-11.2h2.992Zm-4.125-4.43-1.2-3.766a4.906,4.906,0,0,1-.187-1.008h-.062a4.273,4.273,0,0,1-.2.977l-1.219,3.8ZM205.207,17h-2.9l-1.742-2.883q-.2-.328-.375-.586a3.256,3.256,0,0,0-.363-.441,1.445,1.445,0,0,0-.383-.281.972.972,0,0,0-.434-.1h-.68V17h-2.523V5.8h4q4.078,0,4.078,3.047a3.155,3.155,0,0,1-.18,1.082,3.006,3.006,0,0,1-.508.895,3.219,3.219,0,0,1-.793.688,4.089,4.089,0,0,1-1.035.453v.031a1.606,1.606,0,0,1,.484.254,3.468,3.468,0,0,1,.453.41,5.723,5.723,0,0,1,.418.5q.2.27.363.527Zm-6.875-9.312V10.8h1.094a1.813,1.813,0,0,0,1.3-.469,1.564,1.564,0,0,0,.5-1.18q0-1.469-1.758-1.469ZM215.652,17h-2.9l-1.742-2.883q-.2-.328-.375-.586a3.256,3.256,0,0,0-.363-.441,1.445,1.445,0,0,0-.383-.281.972.972,0,0,0-.434-.1h-.68V17h-2.523V5.8h4q4.078,0,4.078,3.047a3.155,3.155,0,0,1-.18,1.082,3.006,3.006,0,0,1-.508.895,3.219,3.219,0,0,1-.793.688,4.089,4.089,0,0,1-1.035.453v.031a1.606,1.606,0,0,1,.484.254,3.468,3.468,0,0,1,.453.41,5.723,5.723,0,0,1,.418.5q.2.27.363.527Zm-6.875-9.312V10.8h1.094a1.813,1.813,0,0,0,1.3-.469,1.564,1.564,0,0,0,.5-1.18q0-1.469-1.758-1.469Zm12.5,9.508a5.215,5.215,0,0,1-3.922-1.566,5.624,5.624,0,0,1-1.516-4.082,6.026,6.026,0,0,1,1.539-4.3,5.328,5.328,0,0,1,4.078-1.641,5.085,5.085,0,0,1,3.879,1.57,5.789,5.789,0,0,1,1.48,4.141,5.929,5.929,0,0,1-1.535,4.258A5.269,5.269,0,0,1,221.277,17.2Zm.109-9.414a2.54,2.54,0,0,0-2.109,1,4.153,4.153,0,0,0-.781,2.637,4.077,4.077,0,0,0,.781,2.633,2.7,2.7,0,0,0,4.117.027,4.032,4.032,0,0,0,.766-2.613,4.369,4.369,0,0,0-.742-2.711A2.42,2.42,0,0,0,221.387,7.781ZM235.348,17h-6.672V5.8H231.2v9.156h4.148Zm8.18,0h-6.672V5.8h2.523v9.156h4.148Zm5.844.2a5.215,5.215,0,0,1-3.922-1.566,5.624,5.624,0,0,1-1.516-4.082,6.026,6.026,0,0,1,1.539-4.3,5.328,5.328,0,0,1,4.078-1.641,5.085,5.085,0,0,1,3.879,1.57,5.789,5.789,0,0,1,1.48,4.141,5.929,5.929,0,0,1-1.535,4.258A5.269,5.269,0,0,1,249.371,17.2Zm.109-9.414a2.54,2.54,0,0,0-2.109,1,4.153,4.153,0,0,0-.781,2.637,4.077,4.077,0,0,0,.781,2.633,2.7,2.7,0,0,0,4.117.027,4.032,4.032,0,0,0,.766-2.613,4.369,4.369,0,0,0-.742-2.711A2.42,2.42,0,0,0,249.48,7.781ZM76.332,41V29.8H80.3q5.969,0,5.969,5.461a5.522,5.522,0,0,1-1.629,4.18A6.007,6.007,0,0,1,80.3,41Zm2.523-9.148v7.1h1.25a3.378,3.378,0,0,0,2.574-.984,3.735,3.735,0,0,0,.934-2.68,3.388,3.388,0,0,0-.926-2.52,3.529,3.529,0,0,0-2.6-.918ZM94.848,41H88.129V29.8H94.59v2.055H90.652v2.492h3.664v2.047H90.652v2.563h4.2Zm15.906,0h-2.531V36.438h-4.641V41h-2.523V29.8h2.523v4.469h4.641V29.8h2.531Zm12.414,0h-2.75l-.8-2.492h-3.984L114.848,41h-2.734l4.078-11.2h2.992Zm-4.125-4.43-1.2-3.766a4.908,4.908,0,0,1-.187-1.008h-.062a4.273,4.273,0,0,1-.2.977l-1.219,3.8ZM124.566,41V29.8h4.078a5.093,5.093,0,0,1,2.883.688,2.211,2.211,0,0,1,1.008,1.938,2.293,2.293,0,0,1-.613,1.586,3.222,3.222,0,0,1-1.566.945v.031a3.1,3.1,0,0,1,1.91.883,2.469,2.469,0,0,1,.715,1.789,2.99,2.99,0,0,1-1.1,2.441,4.61,4.61,0,0,1-3.008.9Zm2.523-9.344v2.656H128.2a1.849,1.849,0,0,0,1.23-.379,1.291,1.291,0,0,0,.449-1.043q0-1.234-1.844-1.234Zm0,4.531v2.953h1.367a2.1,2.1,0,0,0,1.371-.406,1.357,1.357,0,0,0,.5-1.109,1.266,1.266,0,0,0-.488-1.055,2.16,2.16,0,0,0-1.363-.383ZM137.348,41h-2.523V29.8h2.523Zm9.219,0h-6.672V29.8h2.523v9.156h4.148Zm4.031,0h-2.523V29.8H150.6Zm2.547,0V29.8h3.969q5.969,0,5.969,5.461a5.522,5.522,0,0,1-1.629,4.18A6.007,6.007,0,0,1,157.113,41Zm2.523-9.148v7.1h1.25a3.378,3.378,0,0,0,2.574-.984,3.735,3.735,0,0,0,.934-2.68,3.388,3.388,0,0,0-.926-2.52,3.529,3.529,0,0,0-2.6-.918ZM174.551,41H171.8l-.8-2.492H167.02L166.23,41H163.5l4.078-11.2h2.992Zm-4.125-4.43-1.2-3.766a4.906,4.906,0,0,1-.187-1.008h-.062a4.273,4.273,0,0,1-.2.977l-1.219,3.8ZM175.949,41V29.8h3.969q5.969,0,5.969,5.461a5.522,5.522,0,0,1-1.629,4.18A6.007,6.007,0,0,1,179.918,41Zm2.523-9.148v7.1h1.25a3.378,3.378,0,0,0,2.574-.984,3.735,3.735,0,0,0,.934-2.68,3.388,3.388,0,0,0-.926-2.52,3.529,3.529,0,0,0-2.6-.918ZM194.465,41h-6.719V29.8h6.461v2.055H190.27v2.492h3.664v2.047H190.27v2.563h4.2Zm1.281-.43v-2.5a4.8,4.8,0,0,0,1.477.855,4.746,4.746,0,0,0,1.609.285,3.569,3.569,0,0,0,.832-.086,1.949,1.949,0,0,0,.594-.238,1.039,1.039,0,0,0,.355-.359.9.9,0,0,0,.117-.449.971.971,0,0,0-.187-.586,2.018,2.018,0,0,0-.512-.477,5.347,5.347,0,0,0-.77-.422q-.445-.2-.961-.414a4.9,4.9,0,0,1-1.957-1.336,2.917,2.917,0,0,1-.645-1.906,3.036,3.036,0,0,1,.352-1.5,2.986,2.986,0,0,1,.957-1.035,4.291,4.291,0,0,1,1.4-.6,7.206,7.206,0,0,1,1.688-.191,10.15,10.15,0,0,1,1.551.105,6.1,6.1,0,0,1,1.246.324v2.336a3.768,3.768,0,0,0-.613-.344,4.859,4.859,0,0,0-.684-.246,5.214,5.214,0,0,0-.7-.145,4.949,4.949,0,0,0-.66-.047,3.443,3.443,0,0,0-.781.082,2,2,0,0,0-.594.23,1.147,1.147,0,0,0-.375.355.843.843,0,0,0-.133.465.888.888,0,0,0,.148.5,1.7,1.7,0,0,0,.422.422,4.477,4.477,0,0,0,.664.391q.391.191.883.395a9.836,9.836,0,0,1,1.207.6,4.291,4.291,0,0,1,.918.715,2.785,2.785,0,0,1,.586.91,3.634,3.634,0,0,1-.152,2.766,2.886,2.886,0,0,1-.965,1.031,4.184,4.184,0,0,1-1.418.566,8.2,8.2,0,0,1-1.707.172,9.492,9.492,0,0,1-1.754-.156A5.3,5.3,0,0,1,195.746,40.57Z" transform="translate(818 1571.5)" fill="#12263f"/>
    <path id="Trazado_737411" data-name="Trazado 737411" d="M11,0H74A11,11,0,0,1,85,11V284a11,11,0,0,1-11,11H11A11,11,0,0,1,0,284V11A11,11,0,0,1,11,0Z" transform="translate(790 1437.5) rotate(90)" fill="#b3eeef"/>
    <path id="Trazado_737412" data-name="Trazado 737412" d="M34.859,17H32.367V10.3q0-1.086.094-2.4H32.4a11.8,11.8,0,0,1-.352,1.484L29.422,17H27.359L24.688,9.461A14.671,14.671,0,0,1,24.336,7.9h-.07q.1,1.656.1,2.906V17H22.094V5.8h3.7l2.289,6.641a9.35,9.35,0,0,1,.4,1.6h.047a16.127,16.127,0,0,1,.445-1.617L31.258,5.8h3.6Zm12.4,0h-2.75l-.8-2.492H39.727L38.938,17H36.2L40.281,5.8h2.992Zm-4.125-4.43L41.93,8.8A4.907,4.907,0,0,1,41.742,7.8H41.68a4.273,4.273,0,0,1-.2.977l-1.219,3.8ZM58.734,17H56.188L51.57,9.961a10.18,10.18,0,0,1-.562-.93h-.031q.063.594.063,1.813V17H48.656V5.8h2.719l4.445,6.82q.3.461.563.914h.031a11.978,11.978,0,0,1-.062-1.539V5.8h2.383Zm10.43-9.148h-3.2V17H63.438V7.852h-3.18V5.8h8.906ZM77.391,17H70.672V5.8h6.461V7.852H73.2v2.492h3.664v2.047H73.2v2.563h4.2Zm11.875,0H86.719L82.1,9.961a10.178,10.178,0,0,1-.562-.93h-.031q.062.594.063,1.813V17H79.188V5.8h2.719l4.445,6.82q.3.461.563.914h.031a11.979,11.979,0,0,1-.062-1.539V5.8h2.383Zm5.086,0H91.828V5.8h2.523Zm15.313,0h-2.492V10.3q0-1.086.094-2.4H107.2a11.8,11.8,0,0,1-.352,1.484L104.227,17h-2.062L99.492,9.461A14.672,14.672,0,0,1,99.141,7.9h-.07q.1,1.656.1,2.906V17H96.9V5.8h3.7l2.289,6.641a9.35,9.35,0,0,1,.4,1.6h.047a16.127,16.127,0,0,1,.445-1.617L106.063,5.8h3.6Zm5.07,0h-2.523V5.8h2.523ZM124,17h-6.719V5.8h6.461V7.852H119.8v2.492h3.664v2.047H119.8v2.563H124Zm11.875,0h-2.547l-4.617-7.039a10.181,10.181,0,0,1-.562-.93h-.031q.063.594.063,1.813V17H125.8V5.8h2.719l4.445,6.82q.3.461.563.914h.031a11.977,11.977,0,0,1-.062-1.539V5.8h2.383ZM146.3,7.852h-3.2V17h-2.531V7.852H137.4V5.8H146.3Zm5.648,9.344a5.215,5.215,0,0,1-3.922-1.566,5.624,5.624,0,0,1-1.516-4.082,6.026,6.026,0,0,1,1.539-4.3,5.328,5.328,0,0,1,4.078-1.641,5.085,5.085,0,0,1,3.879,1.57,5.789,5.789,0,0,1,1.48,4.141,5.929,5.929,0,0,1-1.535,4.258A5.269,5.269,0,0,1,151.953,17.2Zm.109-9.414a2.54,2.54,0,0,0-2.109,1,4.153,4.153,0,0,0-.781,2.637,4.077,4.077,0,0,0,.781,2.633,2.7,2.7,0,0,0,4.117.027,4.032,4.032,0,0,0,.766-2.613,4.369,4.369,0,0,0-.742-2.711A2.42,2.42,0,0,0,152.063,7.781ZM173.617,17h-2.75l-.8-2.492h-3.984L165.3,17h-2.734l4.078-11.2h2.992Zm-4.125-4.43-1.2-3.766A4.906,4.906,0,0,1,168.1,7.8h-.062a4.273,4.273,0,0,1-.2.977l-1.219,3.8Zm14.383-.422q0,5.047-4.7,5.047-4.563,0-4.562-4.93V5.8h2.531v6.5q0,2.719,2.125,2.719,2.086,0,2.086-2.625V5.8h2.523Zm10.3-4.3h-3.2V17h-2.531V7.852h-3.18V5.8h8.906Zm5.68,9.344a5.215,5.215,0,0,1-3.922-1.566,5.624,5.624,0,0,1-1.516-4.082,6.026,6.026,0,0,1,1.539-4.3,5.328,5.328,0,0,1,4.078-1.641,5.085,5.085,0,0,1,3.879,1.57,5.789,5.789,0,0,1,1.48,4.141,5.929,5.929,0,0,1-1.535,4.258A5.269,5.269,0,0,1,199.859,17.2Zm.109-9.414a2.54,2.54,0,0,0-2.109,1,4.153,4.153,0,0,0-.781,2.637,4.077,4.077,0,0,0,.781,2.633,2.7,2.7,0,0,0,4.117.027,4.032,4.032,0,0,0,.766-2.613A4.369,4.369,0,0,0,202,8.75,2.42,2.42,0,0,0,199.969,7.781Zm2.547-5.547L200.07,4.758h-1.781l2.031-2.523ZM217.328,17h-2.547l-4.617-7.039a10.181,10.181,0,0,1-.562-.93h-.031q.063.594.063,1.813V17H207.25V5.8h2.719l4.445,6.82q.3.461.563.914h.031a11.977,11.977,0,0,1-.062-1.539V5.8h2.383Zm7.3.2a5.215,5.215,0,0,1-3.922-1.566,5.624,5.624,0,0,1-1.516-4.082,6.026,6.026,0,0,1,1.539-4.3A5.328,5.328,0,0,1,224.8,5.609a5.085,5.085,0,0,1,3.879,1.57,5.789,5.789,0,0,1,1.48,4.141,5.929,5.929,0,0,1-1.535,4.258A5.269,5.269,0,0,1,224.625,17.2Zm.109-9.414a2.54,2.54,0,0,0-2.109,1,4.153,4.153,0,0,0-.781,2.637,4.077,4.077,0,0,0,.781,2.633,2.7,2.7,0,0,0,4.117.027,4.032,4.032,0,0,0,.766-2.613,4.369,4.369,0,0,0-.742-2.711A2.42,2.42,0,0,0,224.734,7.781ZM244.789,17H242.3V10.3q0-1.086.094-2.4h-.062a11.8,11.8,0,0,1-.352,1.484L239.352,17h-2.062l-2.672-7.539a14.668,14.668,0,0,1-.352-1.562h-.07q.1,1.656.1,2.906V17h-2.273V5.8h3.7l2.289,6.641a9.349,9.349,0,0,1,.4,1.6h.047a16.127,16.127,0,0,1,.445-1.617L241.188,5.8h3.6Zm7.281.2a5.215,5.215,0,0,1-3.922-1.566,5.624,5.624,0,0,1-1.516-4.082,6.026,6.026,0,0,1,1.539-4.3,5.328,5.328,0,0,1,4.078-1.641,5.085,5.085,0,0,1,3.879,1.57,5.79,5.79,0,0,1,1.48,4.141,5.929,5.929,0,0,1-1.535,4.258A5.269,5.269,0,0,1,252.07,17.2Zm.109-9.414a2.54,2.54,0,0,0-2.109,1,4.153,4.153,0,0,0-.781,2.637,4.077,4.077,0,0,0,.781,2.633,2.7,2.7,0,0,0,4.117.027,4.032,4.032,0,0,0,.766-2.613,4.369,4.369,0,0,0-.742-2.711A2.42,2.42,0,0,0,252.18,7.781Z" transform="translate(503 1470.5)" fill="#12263f"/>
    <path id="Trazado_737405" data-name="Trazado 737405" d="M10,0H75A10,10,0,0,1,85,10V285a10,10,0,0,1-10,10H10A10,10,0,0,1,0,285V10A10,10,0,0,1,10,0Z" transform="translate(1105 1437.5) rotate(90)" fill="#b3eeef"/>
    <path id="Trazado_737406" data-name="Trazado 737406" d="M15.223,17H12.73V10.3q0-1.086.094-2.4h-.062a11.8,11.8,0,0,1-.352,1.484L9.785,17H7.723L5.051,9.461A14.67,14.67,0,0,1,4.7,7.9h-.07q.1,1.656.1,2.906V17H2.457V5.8h3.7l2.289,6.641a9.35,9.35,0,0,1,.4,1.6h.047a16.126,16.126,0,0,1,.445-1.617L11.621,5.8h3.6Zm12.4,0h-2.75l-.8-2.492H20.09L19.3,17H16.566L20.645,5.8h2.992ZM23.5,12.57,22.293,8.8A4.907,4.907,0,0,1,22.105,7.8h-.062a4.273,4.273,0,0,1-.2.977l-1.219,3.8ZM39.1,17H36.551L31.934,9.961a10.179,10.179,0,0,1-.562-.93H31.34q.062.594.063,1.813V17H29.02V5.8h2.719l4.445,6.82q.3.461.563.914h.031a11.978,11.978,0,0,1-.062-1.539V5.8H39.1Zm10.43-9.148h-3.2V17H43.8V7.852h-3.18V5.8h8.906ZM57.754,17H51.035V5.8H57.5V7.852H53.559v2.492h3.664v2.047H53.559v2.563h4.2Zm11.875,0H67.082L62.465,9.961a10.18,10.18,0,0,1-.562-.93h-.031q.063.594.063,1.813V17H59.551V5.8H62.27l4.445,6.82q.3.461.563.914h.031a11.979,11.979,0,0,1-.062-1.539V5.8h2.383Zm5.086,0H72.191V5.8h2.523Zm15.313,0H87.535V10.3q0-1.086.094-2.4h-.062a11.8,11.8,0,0,1-.352,1.484L84.59,17H82.527L79.855,9.461A14.672,14.672,0,0,1,79.5,7.9h-.07q.1,1.656.1,2.906V17H77.262V5.8h3.7l2.289,6.641a9.35,9.35,0,0,1,.4,1.6h.047a16.127,16.127,0,0,1,.445-1.617L86.426,5.8h3.6Zm5.07,0H92.574V5.8H95.1Zm9.266,0H97.645V5.8h6.461V7.852h-3.937v2.492h3.664v2.047h-3.664v2.563h4.2Zm11.875,0h-2.547l-4.617-7.039a10.178,10.178,0,0,1-.562-.93h-.031q.062.594.063,1.813V17H106.16V5.8h2.719l4.445,6.82q.3.461.563.914h.031a11.979,11.979,0,0,1-.062-1.539V5.8h2.383Zm10.43-9.148h-3.2V17h-2.531V7.852h-3.18V5.8h8.906Zm5.648,9.344a5.215,5.215,0,0,1-3.922-1.566,5.624,5.624,0,0,1-1.516-4.082,6.026,6.026,0,0,1,1.539-4.3A5.328,5.328,0,0,1,132.5,5.609a5.085,5.085,0,0,1,3.879,1.57,5.789,5.789,0,0,1,1.48,4.141,5.929,5.929,0,0,1-1.535,4.258A5.269,5.269,0,0,1,132.316,17.2Zm.109-9.414a2.54,2.54,0,0,0-2.109,1,4.153,4.153,0,0,0-.781,2.637,4.077,4.077,0,0,0,.781,2.633,2.7,2.7,0,0,0,4.117.027,4.032,4.032,0,0,0,.766-2.613,4.369,4.369,0,0,0-.742-2.711A2.42,2.42,0,0,0,132.426,7.781ZM158.395,17h-2.75l-.8-2.492h-3.984L150.074,17H147.34l4.078-11.2h2.992Zm-4.125-4.43-1.2-3.766a4.906,4.906,0,0,1-.187-1.008h-.062a4.273,4.273,0,0,1-.2.977l-1.219,3.8Zm1.086-10.336L152.91,4.758h-1.781l2.031-2.523ZM169.191,17h-2.9l-1.742-2.883q-.2-.328-.375-.586a3.256,3.256,0,0,0-.363-.441,1.445,1.445,0,0,0-.383-.281.972.972,0,0,0-.434-.1h-.68V17h-2.523V5.8h4q4.078,0,4.078,3.047a3.155,3.155,0,0,1-.18,1.082,3.006,3.006,0,0,1-.508.895,3.219,3.219,0,0,1-.793.688,4.089,4.089,0,0,1-1.035.453v.031a1.606,1.606,0,0,1,.484.254,3.468,3.468,0,0,1,.453.41,5.723,5.723,0,0,1,.418.5q.2.27.363.527Zm-6.875-9.312V10.8h1.094a1.813,1.813,0,0,0,1.3-.469,1.564,1.564,0,0,0,.5-1.18q0-1.469-1.758-1.469ZM176.957,17h-6.719V5.8H176.7V7.852h-3.937v2.492h3.664v2.047h-3.664v2.563h4.2Zm11.875,0h-2.75l-.8-2.492H181.3L180.512,17h-2.734l4.078-11.2h2.992Zm-4.125-4.43L183.5,8.8a4.906,4.906,0,0,1-.187-1.008h-.062a4.273,4.273,0,0,1-.2.977l-1.219,3.8Zm5.008,4v-2.5a4.8,4.8,0,0,0,1.477.855,4.746,4.746,0,0,0,1.609.285,3.569,3.569,0,0,0,.832-.086,1.949,1.949,0,0,0,.594-.238,1.039,1.039,0,0,0,.355-.359.9.9,0,0,0,.117-.449.971.971,0,0,0-.187-.586,2.018,2.018,0,0,0-.512-.477,5.347,5.347,0,0,0-.77-.422q-.445-.2-.961-.414a4.9,4.9,0,0,1-1.957-1.336,2.917,2.917,0,0,1-.645-1.906,3.036,3.036,0,0,1,.352-1.5,2.986,2.986,0,0,1,.957-1.035,4.291,4.291,0,0,1,1.4-.6,7.206,7.206,0,0,1,1.688-.191,10.15,10.15,0,0,1,1.551.105,6.1,6.1,0,0,1,1.246.324V8.375a3.768,3.768,0,0,0-.613-.344,4.859,4.859,0,0,0-.684-.246,5.214,5.214,0,0,0-.7-.145,4.949,4.949,0,0,0-.66-.047,3.443,3.443,0,0,0-.781.082,2,2,0,0,0-.594.23,1.147,1.147,0,0,0-.375.355.843.843,0,0,0-.133.465.888.888,0,0,0,.148.5,1.7,1.7,0,0,0,.422.422,4.477,4.477,0,0,0,.664.391q.391.191.883.395a9.837,9.837,0,0,1,1.207.6,4.291,4.291,0,0,1,.918.715,2.785,2.785,0,0,1,.586.91,3.216,3.216,0,0,1,.2,1.191A3.191,3.191,0,0,1,197,15.426a2.886,2.886,0,0,1-.965,1.031,4.184,4.184,0,0,1-1.418.566,8.2,8.2,0,0,1-1.707.172,9.492,9.492,0,0,1-1.754-.156A5.3,5.3,0,0,1,189.715,16.57Zm17.8,0v-2.5a4.8,4.8,0,0,0,1.477.855,4.746,4.746,0,0,0,1.609.285,3.569,3.569,0,0,0,.832-.086,1.949,1.949,0,0,0,.594-.238,1.039,1.039,0,0,0,.355-.359.9.9,0,0,0,.117-.449.971.971,0,0,0-.187-.586,2.018,2.018,0,0,0-.512-.477,5.347,5.347,0,0,0-.77-.422q-.445-.2-.961-.414a4.9,4.9,0,0,1-1.957-1.336,2.917,2.917,0,0,1-.645-1.906,3.036,3.036,0,0,1,.352-1.5,2.986,2.986,0,0,1,.957-1.035,4.291,4.291,0,0,1,1.4-.6,7.206,7.206,0,0,1,1.688-.191,10.15,10.15,0,0,1,1.551.105,6.1,6.1,0,0,1,1.246.324V8.375a3.768,3.768,0,0,0-.613-.344,4.859,4.859,0,0,0-.684-.246,5.214,5.214,0,0,0-.7-.145,4.949,4.949,0,0,0-.66-.047,3.443,3.443,0,0,0-.781.082,2,2,0,0,0-.594.23,1.147,1.147,0,0,0-.375.355.843.843,0,0,0-.133.465.888.888,0,0,0,.148.5,1.7,1.7,0,0,0,.422.422,4.477,4.477,0,0,0,.664.391q.391.191.883.395a9.837,9.837,0,0,1,1.207.6,4.291,4.291,0,0,1,.918.715,2.785,2.785,0,0,1,.586.91,3.216,3.216,0,0,1,.2,1.191,3.191,3.191,0,0,1-.355,1.574,2.886,2.886,0,0,1-.965,1.031,4.184,4.184,0,0,1-1.418.566,8.2,8.2,0,0,1-1.707.172,9.492,9.492,0,0,1-1.754-.156A5.3,5.3,0,0,1,207.512,16.57Zm14.219.625a5.215,5.215,0,0,1-3.922-1.566,5.624,5.624,0,0,1-1.516-4.082,6.026,6.026,0,0,1,1.539-4.3,5.328,5.328,0,0,1,4.078-1.641,5.085,5.085,0,0,1,3.879,1.57,5.789,5.789,0,0,1,1.48,4.141,5.929,5.929,0,0,1-1.535,4.258A5.269,5.269,0,0,1,221.73,17.2Zm.109-9.414a2.54,2.54,0,0,0-2.109,1,4.153,4.153,0,0,0-.781,2.637,4.077,4.077,0,0,0,.781,2.633,2.7,2.7,0,0,0,4.117.027,4.032,4.032,0,0,0,.766-2.613,4.369,4.369,0,0,0-.742-2.711A2.42,2.42,0,0,0,221.84,7.781Zm9.813,5.359V17h-2.523V5.8h3.953q4.234,0,4.234,3.57A3.426,3.426,0,0,1,236.1,12.1a4.813,4.813,0,0,1-3.246,1.043Zm0-5.406v3.492h.992q2.016,0,2.016-1.766,0-1.727-2.016-1.727ZM243.691,17.2a5.215,5.215,0,0,1-3.922-1.566,5.624,5.624,0,0,1-1.516-4.082,6.026,6.026,0,0,1,1.539-4.3,5.328,5.328,0,0,1,4.078-1.641,5.085,5.085,0,0,1,3.879,1.57,5.789,5.789,0,0,1,1.48,4.141,5.929,5.929,0,0,1-1.535,4.258A5.269,5.269,0,0,1,243.691,17.2Zm.109-9.414a2.54,2.54,0,0,0-2.109,1,4.153,4.153,0,0,0-.781,2.637,4.077,4.077,0,0,0,.781,2.633,2.7,2.7,0,0,0,4.117.027,4.032,4.032,0,0,0,.766-2.613,4.369,4.369,0,0,0-.742-2.711A2.42,2.42,0,0,0,243.8,7.781ZM260.488,17h-2.9l-1.742-2.883q-.2-.328-.375-.586a3.256,3.256,0,0,0-.363-.441,1.445,1.445,0,0,0-.383-.281.972.972,0,0,0-.434-.1h-.68V17H251.09V5.8h4q4.078,0,4.078,3.047a3.155,3.155,0,0,1-.18,1.082,3.006,3.006,0,0,1-.508.895,3.219,3.219,0,0,1-.793.688,4.089,4.089,0,0,1-1.035.453v.031a1.606,1.606,0,0,1,.484.254,3.469,3.469,0,0,1,.453.41,5.721,5.721,0,0,1,.418.5q.2.27.363.527Zm-6.875-9.312V10.8h1.094a1.813,1.813,0,0,0,1.3-.469,1.564,1.564,0,0,0,.5-1.18q0-1.469-1.758-1.469Zm15.469.164h-3.2V17h-2.531V7.852h-3.18V5.8h8.906ZM277.309,17H270.59V5.8h6.461V7.852h-3.937v2.492h3.664v2.047h-3.664v2.563h4.2Z" transform="translate(818 1470.5)" fill="#12263f"/>
    <path id="Trazado_737416" data-name="Trazado 737416" d="M10,0H76A10,10,0,0,1,86,10V285a10,10,0,0,1-10,10H10A10,10,0,0,1,0,285V10A10,10,0,0,1,10,0Z" transform="translate(790 1655.5) rotate(90)" fill="#b3eeef"/>
    <path id="Trazado_737417" data-name="Trazado 737417" d="M33.6,17H31.105V10.3q0-1.086.094-2.4h-.062a11.8,11.8,0,0,1-.352,1.484L28.16,17H26.1L23.426,9.461A14.671,14.671,0,0,1,23.074,7.9H23q.1,1.656.1,2.906V17H20.832V5.8h3.7l2.289,6.641a9.35,9.35,0,0,1,.4,1.6h.047a16.127,16.127,0,0,1,.445-1.617L30,5.8h3.6ZM46,17h-2.75l-.8-2.492H38.465L37.676,17H34.941L39.02,5.8h2.992Zm-4.125-4.43L40.668,8.8A4.907,4.907,0,0,1,40.48,7.8h-.062a4.273,4.273,0,0,1-.2.977L39,12.57ZM57.473,17H54.926L50.309,9.961a10.18,10.18,0,0,1-.562-.93h-.031q.063.594.063,1.813V17H47.395V5.8h2.719l4.445,6.82q.3.461.563.914h.031a11.978,11.978,0,0,1-.062-1.539V5.8h2.383ZM67.9,7.852h-3.2V17H62.176V7.852H59V5.8H67.9ZM76.129,17H69.41V5.8h6.461V7.852H71.934v2.492H75.6v2.047H71.934v2.563h4.2ZM88,17H85.457L80.84,9.961a10.178,10.178,0,0,1-.562-.93h-.031q.062.594.063,1.813V17H77.926V5.8h2.719l4.445,6.82q.3.461.563.914h.031a11.979,11.979,0,0,1-.062-1.539V5.8H88Zm5.086,0H90.566V5.8H93.09ZM108.4,17H105.91V10.3q0-1.086.094-2.4h-.062a11.8,11.8,0,0,1-.352,1.484L102.965,17H100.9L98.23,9.461A14.672,14.672,0,0,1,97.879,7.9h-.07q.1,1.656.1,2.906V17H95.637V5.8h3.7l2.289,6.641a9.35,9.35,0,0,1,.4,1.6h.047a16.127,16.127,0,0,1,.445-1.617L104.8,5.8h3.6Zm5.07,0h-2.523V5.8h2.523Zm9.266,0H116.02V5.8h6.461V7.852h-3.937v2.492h3.664v2.047h-3.664v2.563h4.2Zm11.875,0h-2.547l-4.617-7.039a10.178,10.178,0,0,1-.562-.93h-.031q.062.594.063,1.813V17h-2.383V5.8h2.719l4.445,6.82q.3.461.563.914h.031a11.977,11.977,0,0,1-.062-1.539V5.8h2.383Zm10.43-9.148h-3.2V17h-2.531V7.852h-3.18V5.8h8.906Zm5.648,9.344a5.215,5.215,0,0,1-3.922-1.566,5.624,5.624,0,0,1-1.516-4.082,6.026,6.026,0,0,1,1.539-4.3,5.328,5.328,0,0,1,4.078-1.641,5.085,5.085,0,0,1,3.879,1.57,5.789,5.789,0,0,1,1.48,4.141,5.929,5.929,0,0,1-1.535,4.258A5.269,5.269,0,0,1,150.691,17.2Zm.109-9.414a2.54,2.54,0,0,0-2.109,1,4.153,4.153,0,0,0-.781,2.637,4.077,4.077,0,0,0,.781,2.633,2.7,2.7,0,0,0,4.117.027,4.032,4.032,0,0,0,.766-2.613,4.369,4.369,0,0,0-.742-2.711A2.42,2.42,0,0,0,150.8,7.781ZM166.918,17V5.8h3.969q5.969,0,5.969,5.461a5.522,5.522,0,0,1-1.629,4.18A6.007,6.007,0,0,1,170.887,17Zm2.523-9.148v7.1h1.25a3.378,3.378,0,0,0,2.574-.984,3.735,3.735,0,0,0,.934-2.68,3.388,3.388,0,0,0-.926-2.52,3.529,3.529,0,0,0-2.6-.918ZM185.434,17h-6.719V5.8h6.461V7.852h-3.937v2.492H184.9v2.047h-3.664v2.563h4.2Zm14.242-.4a7.388,7.388,0,0,1-3.2.594,5.4,5.4,0,0,1-4.055-1.516,5.54,5.54,0,0,1-1.477-4.039,5.919,5.919,0,0,1,1.66-4.359,5.807,5.807,0,0,1,4.309-1.672,8.058,8.058,0,0,1,2.766.414v2.43a4.9,4.9,0,0,0-2.562-.672,3.4,3.4,0,0,0-2.547.992,3.682,3.682,0,0,0-.969,2.688,3.611,3.611,0,0,0,.914,2.59,3.229,3.229,0,0,0,2.461.965,5.249,5.249,0,0,0,2.7-.719Zm11.8.4h-2.75l-.8-2.492h-3.984L203.16,17h-2.734L204.5,5.8H207.5Zm-4.125-4.43-1.2-3.766a4.906,4.906,0,0,1-.187-1.008H205.9a4.273,4.273,0,0,1-.2.977l-1.219,3.8Zm12.2,4.43h-6.672V5.8H215.4v9.156h4.148Zm4.031,0h-2.523V5.8h2.523Zm2.547,0V5.8H230.1q5.969,0,5.969,5.461a5.522,5.522,0,0,1-1.629,4.18A6.007,6.007,0,0,1,230.1,17Zm2.523-9.148v7.1h1.25a3.378,3.378,0,0,0,2.574-.984,3.735,3.735,0,0,0,.934-2.68,3.388,3.388,0,0,0-.926-2.52,3.529,3.529,0,0,0-2.6-.918ZM247.535,17h-2.75l-.8-2.492H240L239.215,17H236.48l4.078-11.2h2.992Zm-4.125-4.43-1.2-3.766A4.906,4.906,0,0,1,242.02,7.8h-.062a4.273,4.273,0,0,1-.2.977l-1.219,3.8ZM248.934,17V5.8H252.9q5.969,0,5.969,5.461a5.522,5.522,0,0,1-1.629,4.18A6.007,6.007,0,0,1,252.9,17Zm2.523-9.148v7.1h1.25a3.378,3.378,0,0,0,2.574-.984,3.735,3.735,0,0,0,.934-2.68,3.388,3.388,0,0,0-.926-2.52,3.529,3.529,0,0,0-2.6-.918Z" transform="translate(503 1689.5)" fill="#12263f"/>
    <path id="Trazado_737414" data-name="Trazado 737414" d="M8,0H78a8,8,0,0,1,8,8V287a8,8,0,0,1-8,8H8a8,8,0,0,1-8-8V8A8,8,0,0,1,8,0Z" transform="translate(1105 1655.5) rotate(90)" fill="#b3eeef"/>
    <path id="Trazado_737415" data-name="Trazado 737415" d="M47.078,16.57v-2.5a4.8,4.8,0,0,0,1.477.855,4.746,4.746,0,0,0,1.609.285A3.569,3.569,0,0,0,51,15.125a1.949,1.949,0,0,0,.594-.238,1.039,1.039,0,0,0,.355-.359.9.9,0,0,0,.117-.449.971.971,0,0,0-.187-.586,2.018,2.018,0,0,0-.512-.477,5.347,5.347,0,0,0-.77-.422q-.445-.2-.961-.414a4.9,4.9,0,0,1-1.957-1.336,2.917,2.917,0,0,1-.645-1.906,3.036,3.036,0,0,1,.352-1.5A2.986,2.986,0,0,1,48.34,6.4a4.291,4.291,0,0,1,1.4-.6,7.206,7.206,0,0,1,1.688-.191,10.15,10.15,0,0,1,1.551.105,6.1,6.1,0,0,1,1.246.324V8.375a3.768,3.768,0,0,0-.613-.344,4.859,4.859,0,0,0-.684-.246,5.214,5.214,0,0,0-.7-.145,4.949,4.949,0,0,0-.66-.047,3.443,3.443,0,0,0-.781.082,2,2,0,0,0-.594.23,1.147,1.147,0,0,0-.375.355.843.843,0,0,0-.133.465.888.888,0,0,0,.148.5,1.7,1.7,0,0,0,.422.422,4.477,4.477,0,0,0,.664.391q.391.191.883.395a9.837,9.837,0,0,1,1.207.6,4.291,4.291,0,0,1,.918.715,2.785,2.785,0,0,1,.586.91,3.216,3.216,0,0,1,.2,1.191,3.191,3.191,0,0,1-.355,1.574,2.886,2.886,0,0,1-.965,1.031,4.184,4.184,0,0,1-1.418.566,8.2,8.2,0,0,1-1.707.172,9.492,9.492,0,0,1-1.754-.156A5.3,5.3,0,0,1,47.078,16.57Zm16.2.43H56.563V5.8h6.461V7.852H59.086v2.492H62.75v2.047H59.086v2.563h4.2Zm10.992-.75A8.063,8.063,0,0,1,70.2,17.2a5.9,5.9,0,0,1-4.262-1.5,5.443,5.443,0,0,1-1.559-4.121,5.753,5.753,0,0,1,1.7-4.3,6.205,6.205,0,0,1,4.531-1.664A9.2,9.2,0,0,1,73.75,6.1V8.469a6.242,6.242,0,0,0-3.172-.75,3.405,3.405,0,0,0-2.559,1.02,3.745,3.745,0,0,0-.988,2.723,3.756,3.756,0,0,0,.887,2.672,3.125,3.125,0,0,0,2.395.945,3.333,3.333,0,0,0,1.438-.258V12.633H69.508V10.617h4.766Zm11.313-4.1q0,5.047-4.7,5.047-4.562,0-4.562-4.93V5.8h2.531v6.5q0,2.719,2.125,2.719,2.086,0,2.086-2.625V5.8h2.523ZM97.422,17h-2.9l-1.742-2.883q-.2-.328-.375-.586a3.255,3.255,0,0,0-.363-.441,1.445,1.445,0,0,0-.383-.281.972.972,0,0,0-.434-.1h-.68V17H88.023V5.8h4Q96.1,5.8,96.1,8.844a3.155,3.155,0,0,1-.18,1.082,3.006,3.006,0,0,1-.508.895,3.219,3.219,0,0,1-.793.688,4.089,4.089,0,0,1-1.035.453v.031a1.606,1.606,0,0,1,.484.254,3.469,3.469,0,0,1,.453.41,5.722,5.722,0,0,1,.418.5q.2.27.363.527ZM90.547,7.688V10.8h1.094a1.813,1.813,0,0,0,1.3-.469,1.564,1.564,0,0,0,.5-1.18q0-1.469-1.758-1.469ZM100.992,17H98.469V5.8h2.523Zm2.547,0V5.8h3.969q5.969,0,5.969,5.461a5.522,5.522,0,0,1-1.629,4.18A6.007,6.007,0,0,1,107.508,17Zm2.523-9.148v7.1h1.25a3.378,3.378,0,0,0,2.574-.984,3.735,3.735,0,0,0,.934-2.68,3.388,3.388,0,0,0-.926-2.52,3.529,3.529,0,0,0-2.6-.918ZM124.945,17H122.2l-.8-2.492h-3.984L116.625,17h-2.734l4.078-11.2h2.992Zm-4.125-4.43-1.2-3.766A4.908,4.908,0,0,1,119.43,7.8h-.062a4.273,4.273,0,0,1-.2.977l-1.219,3.8ZM126.344,17V5.8h3.969q5.969,0,5.969,5.461a5.522,5.522,0,0,1-1.629,4.18A6.007,6.007,0,0,1,130.313,17Zm2.523-9.148v7.1h1.25a3.378,3.378,0,0,0,2.574-.984,3.735,3.735,0,0,0,.934-2.68,3.388,3.388,0,0,0-.926-2.52,3.529,3.529,0,0,0-2.6-.918ZM151,5.8l-3.648,7.219V17h-2.523V13.063L141.273,5.8h2.883l1.8,4.18q.047.117.258.914h.031a4.07,4.07,0,0,1,.242-.883L148.328,5.8ZM163.4,17H156.68V5.8h6.461V7.852H159.2v2.492h3.664v2.047H159.2v2.563h4.2Zm11.875,0h-2.547l-4.617-7.039a10.181,10.181,0,0,1-.562-.93h-.031q.063.594.063,1.813V17H165.2V5.8h2.719l4.445,6.82q.3.461.563.914h.031a11.977,11.977,0,0,1-.062-1.539V5.8h2.383ZM185.7,7.852h-3.2V17h-2.531V7.852H176.8V5.8H185.7Zm5.648,9.344a5.215,5.215,0,0,1-3.922-1.566,5.624,5.624,0,0,1-1.516-4.082,6.026,6.026,0,0,1,1.539-4.3,5.328,5.328,0,0,1,4.078-1.641,5.085,5.085,0,0,1,3.879,1.57,5.789,5.789,0,0,1,1.48,4.141,5.929,5.929,0,0,1-1.535,4.258A5.269,5.269,0,0,1,191.352,17.2Zm.109-9.414a2.54,2.54,0,0,0-2.109,1,4.153,4.153,0,0,0-.781,2.637,4.077,4.077,0,0,0,.781,2.633,2.7,2.7,0,0,0,4.117.027,4.032,4.032,0,0,0,.766-2.613,4.369,4.369,0,0,0-.742-2.711A2.42,2.42,0,0,0,191.461,7.781ZM208.148,17h-2.9l-1.742-2.883q-.2-.328-.375-.586a3.256,3.256,0,0,0-.363-.441,1.445,1.445,0,0,0-.383-.281.972.972,0,0,0-.434-.1h-.68V17H198.75V5.8h4q4.078,0,4.078,3.047a3.155,3.155,0,0,1-.18,1.082,3.006,3.006,0,0,1-.508.895,3.219,3.219,0,0,1-.793.688,4.089,4.089,0,0,1-1.035.453v.031a1.606,1.606,0,0,1,.484.254,3.468,3.468,0,0,1,.453.41,5.723,5.723,0,0,1,.418.5q.2.27.363.527Zm-6.875-9.312V10.8h1.094a1.813,1.813,0,0,0,1.3-.469,1.564,1.564,0,0,0,.5-1.18q0-1.469-1.758-1.469Zm18,9.313h-2.547l-4.617-7.039a10.181,10.181,0,0,1-.562-.93h-.031q.063.594.063,1.813V17H209.2V5.8h2.719l4.445,6.82q.3.461.563.914h.031a11.977,11.977,0,0,1-.062-1.539V5.8h2.383Zm7.3.2a5.215,5.215,0,0,1-3.922-1.566,5.624,5.624,0,0,1-1.516-4.082,6.026,6.026,0,0,1,1.539-4.3,5.328,5.328,0,0,1,4.078-1.641,5.085,5.085,0,0,1,3.879,1.57,5.789,5.789,0,0,1,1.48,4.141,5.929,5.929,0,0,1-1.535,4.258A5.269,5.269,0,0,1,226.57,17.2Zm.109-9.414a2.54,2.54,0,0,0-2.109,1,4.153,4.153,0,0,0-.781,2.637,4.077,4.077,0,0,0,.781,2.633,2.7,2.7,0,0,0,4.117.027,4.032,4.032,0,0,0,.766-2.613,4.369,4.369,0,0,0-.742-2.711A2.42,2.42,0,0,0,226.68,7.781Z" transform="translate(818 1689.5)" fill="#12263f"/>
    <path id="Trazado_737397" data-name="Trazado 737397" d="M13,0H282a13,13,0,0,1,13,13V97a13,13,0,0,1-13,13H13A13,13,0,0,1,0,97V13A13,13,0,0,1,13,0Z" transform="translate(1125 1483)" fill="#9b1f36"/>
    <path id="Trazado_737398" data-name="Trazado 737398" d="M1.664,25.566V22.4a6.908,6.908,0,0,0,3.668,1.055,3.445,3.445,0,0,0,2.291-.7,2.347,2.347,0,0,0,.826-1.893q0-2.5-3.527-2.5a26.12,26.12,0,0,0-3,.2L2.555,9.2h8.895v3.023H5.379l-.234,3.363q.9-.07,1.559-.07a5.731,5.731,0,0,1,4.055,1.359,4.747,4.747,0,0,1,1.465,3.656,5.4,5.4,0,0,1-1.746,4.154,6.709,6.709,0,0,1-4.734,1.611A10.131,10.131,0,0,1,1.664,25.566Zm13.289-.211v-3.75a7.206,7.206,0,0,0,2.215,1.283,7.119,7.119,0,0,0,2.414.428,5.353,5.353,0,0,0,1.248-.129,2.923,2.923,0,0,0,.891-.357,1.559,1.559,0,0,0,.533-.539,1.345,1.345,0,0,0,.176-.674,1.457,1.457,0,0,0-.281-.879,3.026,3.026,0,0,0-.768-.715,8.02,8.02,0,0,0-1.154-.633q-.668-.3-1.441-.621a7.357,7.357,0,0,1-2.936-2,4.375,4.375,0,0,1-.967-2.859,4.554,4.554,0,0,1,.527-2.256A4.479,4.479,0,0,1,16.846,10.1a6.437,6.437,0,0,1,2.1-.9,10.809,10.809,0,0,1,2.531-.287,15.225,15.225,0,0,1,2.326.158,9.148,9.148,0,0,1,1.869.486v3.5a5.652,5.652,0,0,0-.92-.516,7.288,7.288,0,0,0-1.025-.369,7.821,7.821,0,0,0-1.049-.217,7.423,7.423,0,0,0-.99-.07,5.164,5.164,0,0,0-1.172.123,3.006,3.006,0,0,0-.891.346,1.72,1.72,0,0,0-.562.533,1.264,1.264,0,0,0-.2.7,1.332,1.332,0,0,0,.223.756,2.554,2.554,0,0,0,.633.633,6.715,6.715,0,0,0,1,.586q.586.287,1.324.592a14.756,14.756,0,0,1,1.811.9,6.437,6.437,0,0,1,1.377,1.072,4.177,4.177,0,0,1,.879,1.365,4.824,4.824,0,0,1,.3,1.787,4.787,4.787,0,0,1-.533,2.361,4.329,4.329,0,0,1-1.447,1.547,6.276,6.276,0,0,1-2.127.85,12.292,12.292,0,0,1-2.561.258,14.238,14.238,0,0,1-2.631-.234A7.942,7.942,0,0,1,14.953,25.355Zm27.012-4.465h-6.41V18.3h6.41Zm17.262,5.4a7.822,7.822,0,0,1-5.883-2.35A8.435,8.435,0,0,1,51.07,17.82a9.039,9.039,0,0,1,2.309-6.445A7.993,7.993,0,0,1,59.5,8.914a7.627,7.627,0,0,1,5.818,2.355,8.684,8.684,0,0,1,2.221,6.211,8.894,8.894,0,0,1-2.3,6.387A7.9,7.9,0,0,1,59.227,26.293Zm.164-14.121a3.81,3.81,0,0,0-3.164,1.494,6.23,6.23,0,0,0-1.172,3.955,6.115,6.115,0,0,0,1.172,3.949,4.044,4.044,0,0,0,6.176.041,6.048,6.048,0,0,0,1.148-3.92,6.554,6.554,0,0,0-1.113-4.066A3.63,3.63,0,0,0,59.391,12.172Zm18.4,5.168a3.212,3.212,0,0,0-1.559-.363,2.245,2.245,0,0,0-1.887.885,3.86,3.86,0,0,0-.68,2.408V26h-3.7V14h3.7v2.227h.047a3.2,3.2,0,0,1,3.164-2.437,2.385,2.385,0,0,1,.914.141Zm13.395,7.289A6.789,6.789,0,0,1,89.25,29.8a7.836,7.836,0,0,1-5.6,1.834,8.879,8.879,0,0,1-3.844-.691V27.828a7.361,7.361,0,0,0,3.738,1.078,4.026,4.026,0,0,0,2.906-.99,3.553,3.553,0,0,0,1.031-2.689v-.949h-.047A4.136,4.136,0,0,1,83.7,26.293a4.5,4.5,0,0,1-3.645-1.617A6.558,6.558,0,0,1,78.7,20.34a7.3,7.3,0,0,1,1.5-4.84,4.9,4.9,0,0,1,3.949-1.793,3.644,3.644,0,0,1,3.281,1.688h.047V14h3.7Zm-3.656-4.395v-.949a2.917,2.917,0,0,0-.674-1.939,2.179,2.179,0,0,0-1.752-.8,2.265,2.265,0,0,0-1.934.961,4.519,4.519,0,0,0-.7,2.707,3.814,3.814,0,0,0,.668,2.373,2.177,2.177,0,0,0,1.828.873,2.266,2.266,0,0,0,1.857-.885A3.628,3.628,0,0,0,87.527,20.234ZM104.262,26h-3.5V24.277h-.047a3.911,3.911,0,0,1-3.574,2.016,3.739,3.739,0,0,1-2.748-.99,3.548,3.548,0,0,1-1-2.643q0-3.492,4.137-4.031l3.258-.434q0-1.969-2.133-1.969A7.28,7.28,0,0,0,94.57,17.5V14.715a9.175,9.175,0,0,1,2.115-.7,11.119,11.119,0,0,1,2.443-.3q5.133,0,5.133,5.121Zm-3.48-4.875v-.809L98.6,20.6q-1.8.234-1.8,1.629a1.346,1.346,0,0,0,.439,1.037,1.689,1.689,0,0,0,1.189.4,2.192,2.192,0,0,0,1.7-.721A2.6,2.6,0,0,0,100.781,21.125Zm18,4.875H115.09V19.332q0-2.789-1.992-2.789a1.977,1.977,0,0,0-1.582.738,2.813,2.813,0,0,0-.621,1.875V26h-3.7V14h3.7v1.9h.047a4.243,4.243,0,0,1,3.855-2.191q3.984,0,3.984,4.945Zm4.8-13.9a2.163,2.163,0,0,1-1.535-.557,1.793,1.793,0,0,1-.6-1.365,1.73,1.73,0,0,1,.6-1.359,2.507,2.507,0,0,1,3.076,0,1.737,1.737,0,0,1,.592,1.359,1.786,1.786,0,0,1-.592,1.383A2.2,2.2,0,0,1,123.586,12.1ZM125.414,26h-3.7V14h3.7Zm12.621,0h-10.77V24.465l6.023-7.734h-5.426V14h10.125v1.828l-5.707,7.441h5.754Zm11.977,0h-3.5V24.277h-.047a3.911,3.911,0,0,1-3.574,2.016,3.739,3.739,0,0,1-2.748-.99,3.548,3.548,0,0,1-1-2.643q0-3.492,4.137-4.031l3.258-.434q0-1.969-2.133-1.969A7.28,7.28,0,0,0,140.32,17.5V14.715a9.175,9.175,0,0,1,2.115-.7,11.119,11.119,0,0,1,2.443-.3q5.133,0,5.133,5.121Zm-3.48-4.875v-.809l-2.18.281q-1.8.234-1.8,1.629a1.346,1.346,0,0,0,.439,1.037,1.689,1.689,0,0,0,1.189.4,2.192,2.192,0,0,0,1.7-.721A2.6,2.6,0,0,0,146.531,21.125Zm15.5,4.441a7.322,7.322,0,0,1-3.621.727,6.124,6.124,0,0,1-4.477-1.676,5.788,5.788,0,0,1-1.711-4.324,6.376,6.376,0,0,1,1.834-4.822,6.778,6.778,0,0,1,4.9-1.764,6.293,6.293,0,0,1,3.07.563V17.41a4.221,4.221,0,0,0-2.59-.867,3.412,3.412,0,0,0-2.525.932,3.476,3.476,0,0,0-.932,2.572,3.42,3.42,0,0,0,.891,2.5,3.273,3.273,0,0,0,2.449.908,4.888,4.888,0,0,0,2.707-.867Zm4.3-13.465a2.163,2.163,0,0,1-1.535-.557,1.793,1.793,0,0,1-.6-1.365,1.73,1.73,0,0,1,.6-1.359,2.507,2.507,0,0,1,3.076,0,1.737,1.737,0,0,1,.592,1.359,1.786,1.786,0,0,1-.592,1.383A2.2,2.2,0,0,1,166.336,12.1ZM168.164,26h-3.7V14h3.7Zm8.836.293a6.451,6.451,0,0,1-4.717-1.682,6.1,6.1,0,0,1-1.717-4.564,6.1,6.1,0,0,1,1.781-4.658,6.73,6.73,0,0,1,4.816-1.682,6.373,6.373,0,0,1,4.688,1.682,5.978,5.978,0,0,1,1.7,4.447,6.345,6.345,0,0,1-1.752,4.723A6.522,6.522,0,0,1,177,26.293Zm.094-9.75a2.47,2.47,0,0,0-2.039.9A3.979,3.979,0,0,0,174.328,20q0,3.457,2.789,3.457,2.66,0,2.66-3.551Q179.777,16.543,177.094,16.543Zm3.973-8.227L177.4,12.1h-2.672l3.047-3.785ZM197.531,26H193.84V19.332q0-2.789-1.992-2.789a1.977,1.977,0,0,0-1.582.738,2.813,2.813,0,0,0-.621,1.875V26h-3.7V14h3.7v1.9h.047a4.243,4.243,0,0,1,3.855-2.191q3.984,0,3.984,4.945Zm6.434-2.953-1.723,5.93h-2.883l1.2-5.93ZM7.277,50.293a6.451,6.451,0,0,1-4.717-1.682A6.1,6.1,0,0,1,.844,44.047a6.1,6.1,0,0,1,1.781-4.658,6.73,6.73,0,0,1,4.816-1.682,6.373,6.373,0,0,1,4.688,1.682,5.978,5.978,0,0,1,1.7,4.447,6.345,6.345,0,0,1-1.752,4.723A6.522,6.522,0,0,1,7.277,50.293Zm.094-9.75a2.47,2.47,0,0,0-2.039.9A3.979,3.979,0,0,0,4.605,44q0,3.457,2.789,3.457,2.66,0,2.66-3.551Q10.055,40.543,7.371,40.543Zm16.688.8a3.212,3.212,0,0,0-1.559-.363,2.245,2.245,0,0,0-1.887.885,3.86,3.86,0,0,0-.68,2.408V50h-3.7V38h3.7v2.227h.047a3.2,3.2,0,0,1,3.164-2.437,2.385,2.385,0,0,1,.914.141ZM37.43,50h-3.7V48.348H33.68a4.152,4.152,0,0,1-3.715,1.945,4.55,4.55,0,0,1-3.621-1.588,6.573,6.573,0,0,1-1.371-4.436,7.154,7.154,0,0,1,1.512-4.77,4.931,4.931,0,0,1,3.961-1.793,3.369,3.369,0,0,1,3.234,1.664h.047V32.234h3.7ZM33.8,44.164v-.9a2.839,2.839,0,0,0-.68-1.945,2.4,2.4,0,0,0-3.691.193,4.49,4.49,0,0,0-.691,2.654A3.885,3.885,0,0,0,29.4,46.6a2.372,2.372,0,0,0,3.686-.047A3.761,3.761,0,0,0,33.8,44.164Zm17.531.891H43.5q.188,2.613,3.293,2.613a6.429,6.429,0,0,0,3.48-.937V49.4a9.143,9.143,0,0,1-4.324.891,5.585,5.585,0,0,1-6.117-6.105,6.422,6.422,0,0,1,1.734-4.734,5.778,5.778,0,0,1,4.266-1.746,5.244,5.244,0,0,1,4.061,1.559,6,6,0,0,1,1.436,4.23Zm-3.434-2.273q0-2.578-2.086-2.578a1.992,1.992,0,0,0-1.541.738,3.351,3.351,0,0,0-.791,1.84ZM65.121,50H61.43V43.332q0-2.789-1.992-2.789a1.977,1.977,0,0,0-1.582.738,2.813,2.813,0,0,0-.621,1.875V50h-3.7V38h3.7v1.9h.047a4.243,4.243,0,0,1,3.855-2.191q3.984,0,3.984,4.945ZM86.1,38,81.223,50.961q-1.758,4.676-5.3,4.676a6.786,6.786,0,0,1-2.215-.3V52.379a3.114,3.114,0,0,0,1.605.434,2.006,2.006,0,0,0,1.992-1.348l.633-1.488L73.066,38h4.1l2.238,7.3a9.487,9.487,0,0,1,.328,1.605h.047a11.194,11.194,0,0,1,.387-1.582L82.43,38ZM97.91,50h-3.7V32.234h3.7ZM102.9,36.1a2.163,2.163,0,0,1-1.535-.557,1.793,1.793,0,0,1-.6-1.365,1.73,1.73,0,0,1,.6-1.359,2.507,2.507,0,0,1,3.076,0,1.737,1.737,0,0,1,.592,1.359,1.786,1.786,0,0,1-.592,1.383A2.2,2.2,0,0,1,102.9,36.1ZM104.73,50h-3.7V38h3.7ZM126.9,50h-3.691V43.156q0-2.613-1.922-2.613a1.766,1.766,0,0,0-1.488.785,3.227,3.227,0,0,0-.574,1.957V50h-3.7V43.086q0-2.543-1.887-2.543a1.809,1.809,0,0,0-1.518.75,3.3,3.3,0,0,0-.568,2.039V50h-3.7V38h3.7v1.875h.047a4.547,4.547,0,0,1,3.879-2.168,3.455,3.455,0,0,1,3.48,2.238,4.439,4.439,0,0,1,4.031-2.238q3.914,0,3.914,4.828Zm6.68-1.395h-.047V55.52h-3.7V38h3.7v1.8h.047a4.712,4.712,0,0,1,7.459-.5,6.811,6.811,0,0,1,1.271,4.354,7.383,7.383,0,0,1-1.482,4.816,4.833,4.833,0,0,1-3.943,1.816A3.736,3.736,0,0,1,133.582,48.605Zm-.105-4.922v.961a3.055,3.055,0,0,0,.656,2.027,2.136,2.136,0,0,0,1.723.785,2.27,2.27,0,0,0,1.963-.979,4.725,4.725,0,0,0,.7-2.771q0-3.164-2.461-3.164a2.311,2.311,0,0,0-1.857.861A3.435,3.435,0,0,0,133.477,43.684ZM146.59,36.1a2.163,2.163,0,0,1-1.535-.557,1.793,1.793,0,0,1-.6-1.365,1.73,1.73,0,0,1,.6-1.359,2.507,2.507,0,0,1,3.076,0,1.737,1.737,0,0,1,.592,1.359,1.786,1.786,0,0,1-.592,1.383A2.2,2.2,0,0,1,146.59,36.1ZM148.418,50h-3.7V38h3.7Zm13.9-4.945h-7.828q.188,2.613,3.293,2.613a6.429,6.429,0,0,0,3.48-.937V49.4a9.143,9.143,0,0,1-4.324.891,5.585,5.585,0,0,1-6.117-6.105,6.422,6.422,0,0,1,1.734-4.734,5.778,5.778,0,0,1,4.266-1.746,5.244,5.244,0,0,1,4.061,1.559,6,6,0,0,1,1.436,4.23Zm-3.434-2.273q0-2.578-2.086-2.578a1.992,1.992,0,0,0-1.541.738,3.351,3.351,0,0,0-.791,1.84ZM174.023,50h-10.77V48.465l6.023-7.734h-5.426V38h10.125v1.828L168.27,47.27h5.754ZM186,50h-3.5V48.277h-.047a3.911,3.911,0,0,1-3.574,2.016,3.739,3.739,0,0,1-2.748-.99,3.548,3.548,0,0,1-1-2.643q0-3.492,4.137-4.031l3.258-.434q0-1.969-2.133-1.969a7.28,7.28,0,0,0-4.078,1.277V38.715a9.175,9.175,0,0,1,2.115-.7,11.119,11.119,0,0,1,2.443-.3q5.133,0,5.133,5.121Zm-3.48-4.875v-.809l-2.18.281q-1.8.234-1.8,1.629a1.346,1.346,0,0,0,.439,1.037,1.689,1.689,0,0,0,1.189.4,2.192,2.192,0,0,0,1.7-.721A2.6,2.6,0,0,0,182.52,45.125Zm23.813-.07H198.5q.188,2.613,3.293,2.613a6.429,6.429,0,0,0,3.48-.937V49.4a9.143,9.143,0,0,1-4.324.891,5.585,5.585,0,0,1-6.117-6.105,6.422,6.422,0,0,1,1.734-4.734,5.778,5.778,0,0,1,4.266-1.746,5.244,5.244,0,0,1,4.061,1.559,6,6,0,0,1,1.436,4.23ZM202.9,42.781q0-2.578-2.086-2.578a1.992,1.992,0,0,0-1.541.738,3.351,3.351,0,0,0-.791,1.84ZM220.125,50h-3.691V43.332q0-2.789-1.992-2.789a1.977,1.977,0,0,0-1.582.738,2.813,2.813,0,0,0-.621,1.875V50h-3.7V38h3.7v1.9h.047a4.243,4.243,0,0,1,3.855-2.191q3.984,0,3.984,4.945ZM12.34,69.055H4.512Q4.7,71.668,7.8,71.668a6.429,6.429,0,0,0,3.48-.937V73.4a9.143,9.143,0,0,1-4.324.891,6.087,6.087,0,0,1-4.512-1.611A6.088,6.088,0,0,1,.844,68.188a6.422,6.422,0,0,1,1.734-4.734,5.778,5.778,0,0,1,4.266-1.746A5.244,5.244,0,0,1,10.9,63.266,6,6,0,0,1,12.34,67.5ZM8.906,66.781q0-2.578-2.086-2.578a1.992,1.992,0,0,0-1.541.738,3.351,3.351,0,0,0-.791,1.84ZM18.246,74h-3.7V56.234h3.7Zm13.488-1.395h-.047V79.52h-3.7V62h3.7v1.8h.047a4.353,4.353,0,0,1,3.855-2.1,4.338,4.338,0,0,1,3.6,1.6,6.811,6.811,0,0,1,1.271,4.354,7.383,7.383,0,0,1-1.482,4.816,4.833,4.833,0,0,1-3.943,1.816A3.736,3.736,0,0,1,31.734,72.605Zm-.105-4.922v.961a3.055,3.055,0,0,0,.656,2.027,2.136,2.136,0,0,0,1.723.785,2.27,2.27,0,0,0,1.963-.979,4.725,4.725,0,0,0,.7-2.771q0-3.164-2.461-3.164a2.311,2.311,0,0,0-1.857.861A3.435,3.435,0,0,0,31.629,67.684ZM54.27,74H50.578V72.172H50.52a4.188,4.188,0,0,1-3.668,2.121q-4.172,0-4.172-5.051V62h3.691v6.914q0,2.543,2.016,2.543a1.994,1.994,0,0,0,1.594-.7,2.812,2.812,0,0,0,.6-1.893V62H54.27Zm13.9-4.945H60.34q.188,2.613,3.293,2.613a6.429,6.429,0,0,0,3.48-.937V73.4a9.143,9.143,0,0,1-4.324.891,5.585,5.585,0,0,1-6.117-6.105,6.422,6.422,0,0,1,1.734-4.734,5.778,5.778,0,0,1,4.266-1.746,5.244,5.244,0,0,1,4.061,1.559,6,6,0,0,1,1.436,4.23Zm-3.434-2.273q0-2.578-2.086-2.578a1.992,1.992,0,0,0-1.541.738,3.351,3.351,0,0,0-.791,1.84Zm4.852,6.9v-3a7.884,7.884,0,0,0,1.822.82,6.042,6.042,0,0,0,1.717.27,3.682,3.682,0,0,0,1.553-.27.871.871,0,0,0,.568-.82.759.759,0,0,0-.258-.586,2.4,2.4,0,0,0-.662-.41,7.514,7.514,0,0,0-.885-.316q-.48-.141-.926-.316a8.87,8.87,0,0,1-1.26-.58,3.641,3.641,0,0,1-.914-.721,2.833,2.833,0,0,1-.562-.949,3.788,3.788,0,0,1-.193-1.277,3.288,3.288,0,0,1,.439-1.734A3.59,3.59,0,0,1,71.2,62.6a5.355,5.355,0,0,1,1.676-.68,8.738,8.738,0,0,1,1.963-.217,10.891,10.891,0,0,1,1.617.123,12.07,12.07,0,0,1,1.617.357v2.859a5.844,5.844,0,0,0-1.506-.615,6.352,6.352,0,0,0-1.576-.205,3.492,3.492,0,0,0-.686.064,2.258,2.258,0,0,0-.568.188,1.044,1.044,0,0,0-.387.316.728.728,0,0,0-.141.439.812.812,0,0,0,.211.563,1.832,1.832,0,0,0,.551.4,5.437,5.437,0,0,0,.756.3q.416.135.826.275a10.741,10.741,0,0,1,1.336.563,4.272,4.272,0,0,1,1.025.715,2.807,2.807,0,0,1,.656.961,3.845,3.845,0,0,1-.234,3.135,3.706,3.706,0,0,1-1.23,1.23,5.58,5.58,0,0,1-1.77.691,9.81,9.81,0,0,1-2.08.217A10.723,10.723,0,0,1,69.586,73.684Zm18.6.176a5.474,5.474,0,0,1-2.473.434q-3.914,0-3.914-4.066v-5.5H79.852V62H81.8V59.41l3.691-1.055V62h2.7v2.73h-2.7v4.852q0,1.875,1.488,1.875a2.509,2.509,0,0,0,1.207-.34Zm7.711.434a6.451,6.451,0,0,1-4.717-1.682,6.954,6.954,0,0,1,.064-9.223,6.73,6.73,0,0,1,4.816-1.682,6.373,6.373,0,0,1,4.688,1.682,5.978,5.978,0,0,1,1.7,4.447,6.345,6.345,0,0,1-1.752,4.723A6.522,6.522,0,0,1,95.895,74.293Zm.094-9.75a2.47,2.47,0,0,0-2.039.9A3.979,3.979,0,0,0,93.223,68q0,3.457,2.789,3.457,2.66,0,2.66-3.551Q98.672,64.543,95.988,64.543ZM123.211,74h-3.7V72.348h-.047a4.152,4.152,0,0,1-3.715,1.945,4.55,4.55,0,0,1-3.621-1.588,6.573,6.573,0,0,1-1.371-4.436,7.154,7.154,0,0,1,1.512-4.77,4.931,4.931,0,0,1,3.961-1.793,3.369,3.369,0,0,1,3.234,1.664h.047V56.234h3.7Zm-3.633-5.836v-.9a2.839,2.839,0,0,0-.68-1.945,2.4,2.4,0,0,0-3.691.193,4.49,4.49,0,0,0-.691,2.654,3.885,3.885,0,0,0,.668,2.438,2.372,2.372,0,0,0,3.686-.047A3.761,3.761,0,0,0,119.578,68.164Zm17.531.891h-7.828q.188,2.613,3.293,2.613a6.429,6.429,0,0,0,3.48-.937V73.4a9.143,9.143,0,0,1-4.324.891,5.585,5.585,0,0,1-6.117-6.105,6.422,6.422,0,0,1,1.734-4.734,5.778,5.778,0,0,1,4.266-1.746,5.244,5.244,0,0,1,4.061,1.559,6,6,0,0,1,1.436,4.23Zm-3.434-2.273q0-2.578-2.086-2.578a1.992,1.992,0,0,0-1.541.738,3.351,3.351,0,0,0-.791,1.84Zm19.512,7.078a5.474,5.474,0,0,1-2.473.434q-3.914,0-3.914-4.066v-5.5h-1.945V62H146.8V59.41l3.691-1.055V62h2.7v2.73h-2.7v4.852q0,1.875,1.488,1.875a2.509,2.509,0,0,0,1.207-.34Zm9.914-8.52a3.212,3.212,0,0,0-1.559-.363,2.245,2.245,0,0,0-1.887.885,3.86,3.86,0,0,0-.68,2.408V74h-3.7V62h3.7v2.227h.047a3.2,3.2,0,0,1,3.164-2.437,2.385,2.385,0,0,1,.914.141ZM174.809,74h-3.5V72.277h-.047a3.911,3.911,0,0,1-3.574,2.016,3.739,3.739,0,0,1-2.748-.99,3.548,3.548,0,0,1-1-2.643q0-3.492,4.137-4.031l3.258-.434q0-1.969-2.133-1.969a7.28,7.28,0,0,0-4.078,1.277V62.715a9.175,9.175,0,0,1,2.115-.7,11.119,11.119,0,0,1,2.443-.3q5.133,0,5.133,5.121Zm-3.48-4.875v-.809l-2.18.281q-1.8.234-1.8,1.629a1.346,1.346,0,0,0,.439,1.037,1.689,1.689,0,0,0,1.189.4,2.192,2.192,0,0,0,1.7-.721A2.6,2.6,0,0,0,171.328,69.125Zm10.16,3.48h-.047V74h-3.7V56.234h3.7V63.8h.047a4.394,4.394,0,0,1,3.9-2.1,4.282,4.282,0,0,1,3.574,1.594,6.873,6.873,0,0,1,1.254,4.359,7.443,7.443,0,0,1-1.465,4.816,4.772,4.772,0,0,1-3.914,1.816A3.781,3.781,0,0,1,181.488,72.605Zm-.105-5.062v1.23a2.809,2.809,0,0,0,.668,1.922,2.173,2.173,0,0,0,1.711.762,2.27,2.27,0,0,0,1.963-.979,4.725,4.725,0,0,0,.7-2.771,3.759,3.759,0,0,0-.639-2.326,2.155,2.155,0,0,0-1.822-.838,2.354,2.354,0,0,0-1.846.832A3.161,3.161,0,0,0,181.383,67.543ZM202.371,74h-3.5V72.277h-.047a3.911,3.911,0,0,1-3.574,2.016,3.739,3.739,0,0,1-2.748-.99,3.548,3.548,0,0,1-1-2.643q0-3.492,4.137-4.031l3.258-.434q0-1.969-2.133-1.969A7.28,7.28,0,0,0,192.68,65.5V62.715a9.175,9.175,0,0,1,2.115-.7,11.119,11.119,0,0,1,2.443-.3q5.133,0,5.133,5.121Zm-3.48-4.875v-.809l-2.18.281q-1.8.234-1.8,1.629a1.346,1.346,0,0,0,.439,1.037,1.689,1.689,0,0,0,1.189.4,2.192,2.192,0,0,0,1.7-.721A2.6,2.6,0,0,0,198.891,69.125Zm8.285-9.023a2.163,2.163,0,0,1-1.535-.557,1.793,1.793,0,0,1-.6-1.365,1.73,1.73,0,0,1,.6-1.359,2.507,2.507,0,0,1,3.076,0,1.737,1.737,0,0,1,.592,1.359,1.786,1.786,0,0,1-.592,1.383A2.2,2.2,0,0,1,207.176,60.1ZM209,73.789a6.523,6.523,0,0,1-1.3,4.254,4.561,4.561,0,0,1-3.75,1.594,5.185,5.185,0,0,1-1.77-.352V76.379a2.884,2.884,0,0,0,1.371.434q1.746,0,1.746-2.742V62H209Zm8.836.5a6.451,6.451,0,0,1-4.717-1.682,6.954,6.954,0,0,1,.064-9.223A6.73,6.73,0,0,1,218,61.707a6.373,6.373,0,0,1,4.688,1.682,5.978,5.978,0,0,1,1.7,4.447,6.345,6.345,0,0,1-1.752,4.723A6.522,6.522,0,0,1,217.84,74.293Zm.094-9.75a2.47,2.47,0,0,0-2.039.9A3.979,3.979,0,0,0,215.168,68q0,3.457,2.789,3.457,2.66,0,2.66-3.551Q220.617,64.543,217.934,64.543Zm10.512,9.75a2.16,2.16,0,0,1-1.523-.562,1.808,1.808,0,0,1-.609-1.383,1.741,1.741,0,0,1,.627-1.383,2.315,2.315,0,0,1,1.564-.539,2.228,2.228,0,0,1,1.553.545,1.887,1.887,0,0,1-.012,2.777A2.323,2.323,0,0,1,228.445,74.293Z" transform="translate(1165 1497)" fill="#fff"/>
  </g>
</svg>
