<svg xmlns="http://www.w3.org/2000/svg" width="414.45" height="306.32" viewBox="0 0 414.45 306.32">
  <g id="Grupo_1015063" data-name="Grupo 1015063" transform="translate(-165.55 -391)">
    <path id="Rectángulo_346719" data-name="Rectángulo 346719" d="M104.133,0h0A104.133,104.133,0,0,1,208.265,104.133V301.527a0,0,0,0,1,0,0H0a0,0,0,0,1,0,0V104.133A104.133,104.133,0,0,1,104.133,0Z" transform="translate(348.196 391)" fill="#f6f6f6"/>
    <g id="TEAM" transform="translate(-536.892 171.84)">
      <path id="Trazado_735325" data-name="Trazado 735325" d="M1823,504.794V490.711l-12.353-5.33-5.334-12.5,5.732-12.667-9.7-10.045-12.56,5.427-12.539-4.711-5.285-12.893h-14.19l-5.225,12.911-12.516,4.939-12.906-5.588-9.818,9.778,5.448,12.6-5.448,12.386-13.869,5.62v13.941l13.095,5.062,6.222,12.611-5.5,13.1,6.055,5.962,5.659-2.117,2.194,4.544,8.651-3.974,12.792,5.725,5.246,13.123h13.883l4.876-13.079,12.7-5.771,13.16,5.936,9.7-10.538-5.3-13.069,5.037-12.281Zm-59.194,15.454a22.506,22.506,0,1,1,22.506-22.506A22.505,22.505,0,0,1,1763.81,520.248Z" transform="translate(-782.381 -134.855)" fill="#9d1e34"/>
      <path id="Trazado_735326" data-name="Trazado 735326" d="M2059.7,985.8a132.248,132.248,0,0,1-3.923-25.316c-.537-12.79-.59-19.833-.59-19.833s13.739-.3,17.271-4.072,6.847-6.971,6.7-13.983-7.914-20.151-11.11-25.551-11.063-18.485-16.993-23.8-12.934-10.987-18.926-10.438-27.315.432-27.315.432-11.742,1.141-19.861,9.181-8.639,13.3-8.639,13.3l.079,79.622s.079,18.685.033,20.456H2059.7Z" transform="translate(-997.788 -460.906)" fill="#00e6eb"/>
      <circle id="Elipse_5961" data-name="Elipse 5961" cx="35.738" cy="35.738" r="35.738" transform="translate(702.443 387.643) rotate(-45)" fill="#fff"/>
      <path id="Trazado_735327" data-name="Trazado 735327" d="M1440.328,846.45s-12.562.674-22.441,3.826a40.983,40.983,0,0,0-15.963,9.615l-2.338-6.719s-3.177,6.531-15.428,7.479-14.877-.76-14.877-.76,3.331,21.125,4.065,25.639,3.3,20.135,4.855,24.377,7.035,21.1,22.629,18.231c0,0,11.268-1.806,13.432-12.951l1.388-8.43s.351,12.958-.7,21.381-5.406,36.781-8.061,44.4l-.33.844,85.523-.1s-5.557-25.75-6.838-32.337-2.134-22.5-2.531-26.162.93-10.013,1.169-12.379.767-9.762.1-14.131a101.355,101.355,0,0,1,8.4,9.065c3.765,4.707,7.856,10.336,8.82,14.287s.151,8.709-7.126,14.136c0,0,4.5.112,7.456,8.57s4.177,11.012,4.023,14.829a16.124,16.124,0,0,1-.842,5.346s8.082-3.751,11.945-5.852,10.6-8.916,12.779-13.162,4.13-11.517,1.936-21.6a78.861,78.861,0,0,0-8.993-23.728c-3.319-5.427-10.311-15.719-15.324-19.789s-8.939-8.888-10.694-10.475-8.911-7.424-14.5-9.181a95.129,95.129,0,0,0-15.036-3.668c-3.382-.365-9.079-.59-9.079-.59Z" transform="translate(-523.268 -448.378)" fill="#00e6eb"/>
      <path id="Trazado_735328" data-name="Trazado 735328" d="M1632.885,684.732A5.34,5.34,0,0,0,1626,689.09s-.007,4.007,2.966,4.8a6.58,6.58,0,0,0,4.688-.17s1.136,7.521,5.039,9.527c0,0-.125,7.226-1.016,9.418s-2.234,8,7.928,9.395c0,0,6.424.088,8.091-1.948s2.464-3.4,2.034-4.477a51.6,51.6,0,0,1-1.6-8.1c-.135-1.862-.256-4.288-.256-4.288a7.486,7.486,0,0,0,3.493-4.123c.683-2.652,1.548-5.378,1.548-5.378s3.6,1.648,5.564-.251,2.436-4.012,2.106-5.411-2.922-3.619-4.6-3.714a6.262,6.262,0,0,0-2.75.4l-.209-1.411s-7.124-.514-11.745-3.637-9.957-7.568-9.957-7.568-2.508,7.768-4.019,9.167Z" transform="translate(-719.802 -314.598)" fill="#fff"/>
      <path id="Trazado_735329" data-name="Trazado 735329" d="M2100.59,701.363l-.934,13.65,14.8,15.917,4.385-15.756-.385-2.522s5.811.258,6.71-6.42.088-22.466.088-22.466l-16.633-6.406-11.924,13.023a6.951,6.951,0,0,0-4.332,5.076C2091.43,699.494,2096.7,703.966,2100.59,701.363Z" transform="translate(-1082.889 -318.589)" fill="#fff"/>
      <path id="Trazado_735330" data-name="Trazado 735330" d="M2101.06,651.1l-.881,8.3s-.6,6.936,2.473,8.472,8.607,2.122,11.215,1.876,5.952.135,7.5-2.708a16.241,16.241,0,0,0,1.569-7.115,19.013,19.013,0,0,0-.235-2.113,12.659,12.659,0,0,0-3.6-.453c-1.578.116-3.924-.107-4.467-.065a5.393,5.393,0,0,1-2.691-1.1c-1.1-.734-3.7-1.009-4.849-1.146s-2.6.026-3.2-1.739a65.734,65.734,0,0,1-1.4-6.494s2.794-2.705,3.482-5.076,1.218-5.432,1.218-5.432a17.2,17.2,0,0,0,7.86,4.632c4.8,1.211,7.649-.081,7.649-.081l.279,6.266s3.586-2.826,3.791-4.858.237-5.183-2.152-5.622c0,0,2.552-4.051.586-8.3s-5.9-6.733-8.393-6.857a14.422,14.422,0,0,0-8.279,1.931c-2.492,1.632-5.374,5.581-5.488,6.464,0,0-5.518-.028-7.679.546a8.067,8.067,0,0,0-5.787,4.6c-1.281,2.915-.414,8.667.36,10.708s1.195,2.989,1.195,2.989a6.72,6.72,0,0,1,5.4-1.141A8.382,8.382,0,0,1,2101.06,651.1Z" transform="translate(-1080.486 -275.685)" fill="#00e6eb"/>
      <path id="Trazado_735331" data-name="Trazado 735331" d="M2110.814,869.943l-11.875-24.674,5.848-5.908,14.8,15.917,4.388-15.756,3.447,5.478.279,21.332-.774-.867,1.1,11,.539,9.085-.869-.795-2.908,1.573h-5.59l-6.754-19.117Z" transform="translate(-1087.951 -442.936)" fill="#fff"/>
      <path id="Trazado_735332" data-name="Trazado 735332" d="M1372.648,881.84l3.377,6.608s-7.189-.17-7.666-2.213S1372.648,881.84,1372.648,881.84Z" transform="translate(-518.368 -475.543)" fill="#9d1e34"/>
      <path id="Trazado_735333" data-name="Trazado 735333" d="M1476.013,867.47l-2.6,6.645s4.953-1.606,5.5-4.3C1478.911,869.808,1479.472,867.965,1476.013,867.47Z" transform="translate(-600.13 -464.513)" fill="#9d1e34"/>
      <path id="Trazado_735334" data-name="Trazado 735334" d="M2165.14,773.752s2.526,1.329,2.643,3.056a6.334,6.334,0,0,1-.507,2.982s2.612,1.139,4.679.242,1.915-2.808.725-3.224-3.333.56-3.8-.548-.121-3.054-1.634-3.352A1.89,1.89,0,0,0,2165.14,773.752Z" transform="translate(-1138.688 -391.893)" fill="#9d1e34"/>
      <path id="Trazado_735335" data-name="Trazado 735335" d="M1908.39,1190.038l-3.73-1.592s.249-1,1.013-.753A13.234,13.234,0,0,1,1908.39,1190.038Z" transform="translate(-935.766 -710.278)" fill="#3a3a3a"/>
      <path id="Trazado_735336" data-name="Trazado 735336" d="M1926.3,1287.175s5.016-.737,6.64-1.925c0,0,.893,6.554-1.488,6.327S1926.484,1287.818,1926.3,1287.175Z" transform="translate(-952.705 -785.19)" fill="#9d1e34"/>
      <path id="Trazado_735337" data-name="Trazado 735337" d="M2102.27,1047.174s2.715.284,3.219,1.325a6.869,6.869,0,0,1,4.207-1.325c2.471.081,4.444,1.6,4.67,2.945l2.189-1.078s-3.1-4.851-6.629-4.667S2105.454,1044.531,2102.27,1047.174Z" transform="translate(-1089.958 -600.295)" fill="#9d1e34"/>
      <path id="Trazado_735338" data-name="Trazado 735338" d="M2165.14,917.016l4.212,5.455-.7,11.8,1.362,4.625h5.59l2.592-1.216.753.181-.046-8.523-3.875-7.382.825-6.889-5.455-7.226Z" transform="translate(-1138.893 -495.5)" fill="#9d1e34"/>
      <path id="Trazado_735339" data-name="Trazado 735339" d="M2163.965,776.7s-.333,4.953,2.269,5.783h.43a6.572,6.572,0,0,0,0-3.24C2166.166,778,2163.965,776.7,2163.965,776.7Z" transform="translate(-1137.56 -394.84)" fill="#fff"/>
      <path id="Trazado_735340" data-name="Trazado 735340" d="M1604.948,765.637s.974,2.505-.825,2.512-6.989.458-9.027,3.552-2.831,4.807-2.617,8.193,3.682,5.832,3.682,5.832a67.391,67.391,0,0,1,15.466-1.848s.549-.644.779-3.342.33-6.192.33-6.192a11.037,11.037,0,0,1-3.851-5.471c-.874-3.338-.983-3.942-.983-3.942A4.01,4.01,0,0,1,1604.948,765.637Z" transform="translate(-693.132 -385.806)" fill="#9d1e34"/>
      <path id="Trazado_735341" data-name="Trazado 735341" d="M1753.677,765.644s-.537,2.505,1.262,2.512,6.912.741,8.953,3.837,2.408,4.3,2.194,7.684-3.579,6.01-3.579,6.01a63.335,63.335,0,0,0-15.068-1.8s-.548-.644-.779-3.342-.33-6.192-.33-6.192a11.038,11.038,0,0,0,3.851-5.471c.874-3.338.983-3.942.983-3.942A2.716,2.716,0,0,0,1753.677,765.644Z" transform="translate(-812.964 -385.813)" fill="#9d1e34"/>
      <path id="Trazado_735342" data-name="Trazado 735342" d="M1641.852,651.309l2.745.4.091-3.449s3.189-5.629,4.019-9.167c0,0,6.763,6.415,11.112,8.219s9.048,3.277,10.589,2.987l.149,1.009,1.962-.246s.718-6.5.827-9.653-1.5-8.56-5.838-10.183a28.935,28.935,0,0,0-13.946-1.971,11.068,11.068,0,0,0-7.821,4.979,6.066,6.066,0,0,0-4.7,5.306C1640.25,644.248,1641.852,651.309,1641.852,651.309Z" transform="translate(-731.129 -281.531)" fill="#9d1e34"/>
      <path id="Trazado_735343" data-name="Trazado 735343" d="M2070.921,1059.384s-1.56-2.98-4.425-2.945a10.6,10.6,0,0,0-4.279.746s-3.716-1.037-5.929-.247-3.3,1.118-3.3,1.118-5.063-.79-7.315,1.59a91.486,91.486,0,0,1,3.331,9.227c1.113,4.016,1.929,7.912,1.929,7.912a6.674,6.674,0,0,0,3.349-1.7,16.28,16.28,0,0,0,2.008-3.807s.646,4.607,4.786,3.921c2.873-.476,3.577-3.582,3.577-4.648s.353-6.575,2.183-8.5A11.182,11.182,0,0,1,2070.921,1059.384Z" transform="translate(-1046.286 -609.56)" fill="#fff"/>
      <path id="Trazado_735344" data-name="Trazado 735344" d="M2233.176,1021.712s4.89-4.391,9.255-5.35a31.538,31.538,0,0,1,8.712-.53,4.5,4.5,0,0,0-1.59-4.458,14.886,14.886,0,0,0-5.771-2.687s-2.062-3.11-7.412-3.138-13.7,7.2-13.7,7.2S2229.662,1017.092,2233.176,1021.712Z" transform="translate(-1186.887 -570.499)" fill="#fff"/>
      <path id="Trazado_735345" data-name="Trazado 735345" d="M1400.4,806.809s2.782-6.731,3.991-10.215,2.854-7.691,1.148-10.129-5.771-4.969-9.106-6.052-5.055-.96-5.353,1.906,2.933,6.28,7.324,8.721l-20.11,8.067s4.469,9.894,5.674,11.005C1383.961,810.112,1396.784,809.4,1400.4,806.809Z" transform="translate(-526.492 -397.207)" fill="#fff"/>
      <path id="Trazado_735346" data-name="Trazado 735346" d="M1290.277,664.185l38.587-14.369-18.415-48.947-38.4,14.369Z" transform="translate(-444.228 -259.878)" fill="#fff"/>
      <path id="Trazado_735347" data-name="Trazado 735347" d="M1827.131,1183.79a31.84,31.84,0,0,0-11.323-4.9c-6.6-1.383-13.077.53-14.387,1.667s-3.4,3.017-1.309,5.441c0,0-4.123,3.031-1.566,6.661,0,0-1.79,1.941-.83,3.34s3.089,2.543,6.132,2.485,9.39-1.281,12.379-.427c0,0,.569,5.018,6.81,6.656a14.612,14.612,0,0,0,10.989-1.474s-1.573-9.074-3.238-12.623S1827.131,1183.79,1827.131,1183.79Z" transform="translate(-853.279 -703.177)" fill="#fff"/>
      <circle id="Elipse_5962" data-name="Elipse 5962" cx="1.948" cy="1.948" r="1.948" transform="matrix(0.253, -0.967, 0.967, 0.253, 931.029, 426.628)" fill="#fff"/>
      <circle id="Elipse_5963" data-name="Elipse 5963" cx="1.948" cy="1.948" r="1.948" transform="matrix(0.253, -0.967, 0.967, 0.253, 931.03, 450.875)" fill="#fff"/>
      <circle id="Elipse_5964" data-name="Elipse 5964" cx="1.948" cy="1.948" r="1.948" transform="matrix(0.253, -0.967, 0.967, 0.253, 931.031, 475.188)" fill="#fff"/>
      <circle id="Elipse_5965" data-name="Elipse 5965" cx="1.948" cy="1.948" r="1.948" transform="translate(931.474 496.118)" fill="#fff"/>
      <path id="Trazado_735348" data-name="Trazado 735348" d="M1801.57,1259.03s1.75,3.9,9.081,3.533l7.331-.37-.26-2.382a33.657,33.657,0,0,0-6.2.167C1807.023,1260.367,1802.249,1260.176,1801.57,1259.03Z" transform="translate(-855.884 -765.064)" fill="#9d1e34"/>
      <path id="Trazado_735349" data-name="Trazado 735349" d="M1432.373,787.8a9.743,9.743,0,0,0,4.762,10.885l3.008-1.081S1432.826,793.38,1432.373,787.8Z" transform="translate(-568.017 -403.36)" fill="#b5b5b5"/>
      <path id="Trazado_735350" data-name="Trazado 735350" d="M1005.284,894.275s-20.8,2.52-27.654,13.681c0,0-3.9,5.013-4.679,9.49l45.4,4.253,2.831,2.122,21.862,45.788-.525,3.768-5.592,5.3-1.515.442-13.841-1.269-45.546-3.923s-3.533-.365-5-1.578-8.1-16.96-8.1-16.96a23.506,23.506,0,0,1-5.557.732c-2.268-.109-6.778-.583-6.778-.583s2.385,7.758,4.558,11.742,7.9,13.627,13.374,16,9.106,2,9.106,2-.179,7.563-.688,11.261-2.071,11.363-2.963,12.765l83.387.237V989.993s6.078-4.623,7.937-10.589,1.871-13.883,1.822-15.043-.123-2.336-.123-2.336-7.7-6.145-9.927-15.068-4.265-19.84-4.711-22.659-3.1-18.478-3.1-18.478a23.658,23.658,0,0,0-12.89-10.406c-8.953-2.887-13.825-1.176-13.825-1.176a19.354,19.354,0,0,1-5.186,6.338c-3.6,2.866-7.375,8.36-9.667,7.352s-1.925-7.229-1.8-8.084.221-3.491.221-3.491Z" transform="translate(-190.472 -484.673)" fill="#9d1e34"/>
      <path id="Trazado_735351" data-name="Trazado 735351" d="M1466.061,311.391v-10.35l-9.079-3.916-3.921-9.188,4.212-9.309-7.129-7.382-9.229,3.988-9.216-3.461-3.884-9.474h-10.427l-3.84,9.488-9.2,3.628-9.485-4.107-7.215,7.184,4,9.26-4,9.1-10.192,4.13v10.245l9.622,3.719,4.574,9.269-4.044,9.625,4.449,4.381,4.158-1.557,1.613,3.34,6.359-2.922,9.4,4.207,3.854,9.643h10.2l3.584-9.611,9.33-4.239,9.671,4.363,7.131-7.744-3.893-9.6,3.7-9.027Zm-43.5,11.356a16.539,16.539,0,1,1,16.54-16.539A16.54,16.54,0,0,1,1422.557,322.747Z" transform="translate(-527.199)" fill="#00e6eb"/>
      <path id="Trazado_735352" data-name="Trazado 735352" d="M903.028,724.689c-.727,5.227-4.9,9.088-11.008,10.2-.66.121-1.313.277-2.117.449v5.718h-5.218v-5.746c-7.512-.832-11.782-4.748-13.364-11.494l8.184-1.973c.214.556.428,1.058.6,1.569a7.767,7.767,0,0,0,10.313,4.451,4.459,4.459,0,0,0,3.052-4.1,3.636,3.636,0,0,0-2.38-3.828c-2.224-.937-4.521-1.732-6.787-2.582-1.2-.449-2.427-.837-3.6-1.339-5.885-2.52-8.477-6.74-7.74-12.532.718-5.641,4.293-9.127,10.622-10.364.258-.051.507-.135.916-.246v-4.4h5.158l.119,4.337a22.265,22.265,0,0,1,4.107,1.162c4.214,1.476,6.578,4.4,7.926,8.458l-7.242,2.761a38.564,38.564,0,0,0-2.633-3.826,5.816,5.816,0,0,0-6.1-1.678,4.155,4.155,0,0,0-3.324,3.449,3.53,3.53,0,0,0,2.2,4.221c1.9.832,3.87,1.539,5.811,2.294,1.629.635,3.3,1.195,4.888,1.9C901.508,714.241,903.9,718.413,903.028,724.689Z" transform="translate(-129.626 -327.117)" fill="#00e6eb"/>
      <path id="Trazado_735353" data-name="Trazado 735353" d="M1791.62,779.52c.011.007,6.129,4.139,4.36,10.308-1.557,5.434-4.36,5.915-4.36,5.915l5.964.869c.839-.746,3.094-2.994,3.266-5.746.212-3.386-.156-4.588-2.2-7.684C1797.133,780.877,1793.912,779.883,1791.62,779.52Z" transform="translate(-847.933 -397.005)" fill="#fefefe"/>
      <g id="Grupo_1009872" data-name="Grupo 1009872" transform="translate(1026.543 346.201)">
        <path id="Trazado_735354" data-name="Trazado 735354" d="M2184.937,638.039s2.552-4.051.586-8.3a12.662,12.662,0,0,0-6.633-6.454c.03.037,7.293,10.055,2.447,14.208-2.624,2.25-7.963,5.041-13.827.216a17.2,17.2,0,0,0,7.86,4.632c4.8,1.211,7.649-.081,7.649-.081l.279,6.266s3.584-2.826,3.791-4.858S2187.324,638.478,2184.937,638.039Z" transform="translate(-2167.51 -623.28)" fill="#fff"/>
      </g>
      <g id="Grupo_1009873" data-name="Grupo 1009873" transform="translate(1027.641 381.723)">
        <path id="Trazado_735355" data-name="Trazado 735355" d="M2189.726,776.512a15.667,15.667,0,0,0-2.108-.4c-.011,1.271,1.071,14.322-11.368,12.174a18.153,18.153,0,0,0,4.639.163c2.607-.246,5.952.135,7.5-2.708a16.316,16.316,0,0,0,1.569-7.115A18.846,18.846,0,0,0,2189.726,776.512Z" transform="translate(-2175.172 -776.11)" fill="#fff"/>
        <path id="Trazado_735356" data-name="Trazado 735356" d="M2172.593,827.99q-.478-.052-.983-.139Q2172.1,827.927,2172.593,827.99Z" transform="translate(-2171.61 -815.824)" fill="#fff"/>
      </g>
      <path id="Trazado_735357" data-name="Trazado 735357" d="M1697.168,653.678l.149,1.009,1.962-.246s.718-6.5.827-9.653-1.5-8.56-5.839-10.182c-1.15-.43-2.3-.807-3.468-1.125,2.689,3.289,6.6,9.278,3.066,12.9-5.067,5.19-18.176-3.907-18.176-3.907l.1.3c1.395,1.29,7,6.345,10.784,7.914C1690.928,652.493,1695.628,653.966,1697.168,653.678Z" transform="translate(-758.073 -284.908)" fill="#fefefe"/>
      <path id="Trazado_735358" data-name="Trazado 735358" d="M2179,910.938l3.684,5.548.342,5.915,6.3,14.364.214-7.122-3.877-7.689.825-6.889-5.838-7.226Z" transform="translate(-1149.559 -495.5)" fill="#fff"/>
      <path id="Trazado_735359" data-name="Trazado 735359" d="M1138.28,816.349a6.014,6.014,0,0,0,2.924-1.843l-1.185-1.346A6.245,6.245,0,0,1,1138.28,816.349Z" transform="translate(-339.233 -422.826)" fill="#ccc"/>
      <path id="Trazado_735360" data-name="Trazado 735360" d="M1145.46,808.86v.918l.072.081a8.065,8.065,0,0,0,.16-.978Z" transform="translate(-344.791 -419.525)" fill="#ccc"/>
      <path id="Trazado_735361" data-name="Trazado 735361" d="M1018.71,1024.656l13.625,28.832s2.415,4.721.318,7.01a6.329,6.329,0,0,1-4.625,2.159l-60.861-5.13s-1.769-.418-3.926-4.1-6.517-14.4-6.517-14.4l-14.12-29.228s-.972-5.525,3.493-7.1l62.027,5.267s2.385-.081,4.244,3.263S1018.71,1024.656,1018.71,1024.656Z" transform="translate(-184.274 -568.32)" fill="#00e6eb"/>
      <path id="Trazado_735362" data-name="Trazado 735362" d="M923.257,1034.67l3.431,6.459s.867.946,5.09.865,5.827-.356,6.977.679,2.891,3.21.983,6.815a3.788,3.788,0,0,1,1.911,3.314,4.325,4.325,0,0,1-1.25,3.163s2.106,1.437,1.6,3.552-3.038,3.593-4.913,4.256-10.287.767-11.81-.054-3.977-1.292-5.68-5.685a34.158,34.158,0,0,1-1.973-11.77,23.434,23.434,0,0,1,1.518-6.773C919.9,1037.661,923.257,1034.67,923.257,1034.67Z" transform="translate(-165.156 -592.851)" fill="#fff"/>
      <path id="Trazado_735363" data-name="Trazado 735363" d="M1102.2,1117.107c1.522,2.638,1.35,5.587-.386,6.591s-4.376-.323-5.9-2.961-1.35-5.588.386-6.592S1100.674,1114.469,1102.2,1117.107Z" transform="translate(-305.501 -653.598)" fill="#fff"/>
      <path id="Trazado_735364" data-name="Trazado 735364" d="M957.08,993.418l2.856-2.278,53.906,4.356,9.488.972a8.208,8.208,0,0,1,3.886,4.237l20.807,43.673s.632,2.882-.769,4.1l-2.566,2.327s1.092-.546,0-3.57l-21.75-45.979a9.456,9.456,0,0,0-3.184-2.171Z" transform="translate(-195.453 -559.439)" fill="#fff"/>
      <g id="Grupo_1009874" data-name="Grupo 1009874" transform="translate(836.576 466.151)">
        <path id="Trazado_735365" data-name="Trazado 735365" d="M1321.708,1154.423a.478.478,0,0,1-.4-.209c-2.859-4.146-9.913-11.191-12.811-14.027a.482.482,0,1,1,.674-.688c2.922,2.854,10.029,9.952,12.932,14.169a.485.485,0,0,1-.123.672A.494.494,0,0,1,1321.708,1154.423Z" transform="translate(-1308.354 -1139.36)"/>
      </g>
      <g id="Grupo_1009875" data-name="Grupo 1009875" transform="translate(823.646 476.87)">
        <path id="Trazado_735366" data-name="Trazado 735366" d="M1280.472,1216.091c-8.14,0-17.881-4.683-28.014-13.576a.483.483,0,0,1,.637-.725c12.023,10.552,23.412,15.082,32.061,12.737,12.837-3.472,13.615-19.363,12.939-28.528a.48.48,0,0,1,.446-.516.457.457,0,0,1,.516.446c.7,9.462-.142,25.878-13.648,29.532A18.972,18.972,0,0,1,1280.472,1216.091Z" transform="translate(-1252.293 -1185.478)"/>
      </g>
      <g id="Grupo_1009876" data-name="Grupo 1009876" transform="translate(759.56 470.113)">
        <path id="Trazado_735367" data-name="Trazado 735367" d="M974.773,1187.411a19.118,19.118,0,0,1-4.06-.441c-10.255-2.21-18.692-16.635-22.506-29.95a.482.482,0,0,1,.33-.6.487.487,0,0,1,.6.33c3.735,13.039,11.919,27.145,21.783,29.272a18.359,18.359,0,0,0,4.844.39.513.513,0,0,1,.509.456.484.484,0,0,1-.456.509C975.468,1187.4,975.122,1187.411,974.773,1187.411Z" transform="translate(-948.188 -1156.405)"/>
      </g>
      <g id="Grupo_1009877" data-name="Grupo 1009877" transform="translate(824.944 408.876)">
        <path id="Trazado_735368" data-name="Trazado 735368" d="M1284.285,906.329a.482.482,0,0,1-.437-.274c-6.069-12.76-20.584-12.577-26.536-11.912a.458.458,0,0,1-.532-.425.48.48,0,0,1,.425-.532c6.164-.693,21.183-.865,27.517,12.458a.485.485,0,0,1-.228.644A.549.549,0,0,1,1284.285,906.329Z" transform="translate(-1256.776 -892.936)"/>
      </g>
      <g id="Grupo_1009878" data-name="Grupo 1009878" transform="translate(778.026 409.298)">
        <path id="Trazado_735369" data-name="Trazado 735369" d="M1045.2,918.221a.514.514,0,0,1-.144-.021.479.479,0,0,1-.316-.6c4.713-15.091,16.174-19.473,25.629-21.6.219-.044,5.13-1.046,7.621-1.234a.471.471,0,0,1,.518.444.482.482,0,0,1-.444.518c-2.434.186-7.442,1.206-7.491,1.216-9.195,2.071-20.346,6.324-24.914,20.946A.476.476,0,0,1,1045.2,918.221Z" transform="translate(-1044.721 -894.754)"/>
      </g>
      <g id="Grupo_1009879" data-name="Grupo 1009879" transform="translate(798.68 392.894)">
        <path id="Trazado_735370" data-name="Trazado 735370" d="M1145.624,835.326a8.147,8.147,0,0,1-1.053-.067,6.475,6.475,0,0,1-4.942-3.8,24.86,24.86,0,0,1-2.273-6.7.483.483,0,1,1,.946-.2,23.894,23.894,0,0,0,2.18,6.445,5.564,5.564,0,0,0,4.219,3.3,9.914,9.914,0,0,0,3.884-.384c1.548-.409,3.8-1.085,5.327-1.683a.483.483,0,1,1,.351.9,56.761,56.761,0,0,1-5.429,1.715A12.533,12.533,0,0,1,1145.624,835.326Z" transform="translate(-1137.347 -824.173)"/>
      </g>
      <g id="Grupo_1009880" data-name="Grupo 1009880" transform="translate(816.383 380.723)">
        <path id="Trazado_735371" data-name="Trazado 735371" d="M1221.078,782.841a5.52,5.52,0,0,1-1.659-.256.484.484,0,1,1,.291-.923,4.548,4.548,0,1,0-1.98-7.412.484.484,0,1,1-.713-.653,5.513,5.513,0,1,1,4.063,9.244Z" transform="translate(-1216.889 -771.811)"/>
      </g>
      <g id="Grupo_1009881" data-name="Grupo 1009881" transform="translate(817.82 382.708)">
        <path id="Trazado_735372" data-name="Trazado 735372" d="M1227.359,786.691a.463.463,0,0,1-.225-.056l-3.8-2a.487.487,0,0,1-.251-.349.473.473,0,0,1,.128-.411l3.219-3.375a.483.483,0,1,1,.7.667l-2.78,2.915,3.231,1.7a.481.481,0,0,1-.226.906Z" transform="translate(-1223.081 -780.351)"/>
      </g>
      <g id="Grupo_1009882" data-name="Grupo 1009882" transform="translate(858.845 504.839)">
        <path id="Trazado_735373" data-name="Trazado 735373" d="M1408.4,1326.324a.486.486,0,0,1-.481-.507c.321-6.633,0-19.384,0-19.512a.482.482,0,1,1,.964-.026c0,.128.321,12.916,0,19.584A.485.485,0,0,1,1408.4,1326.324Z" transform="translate(-1407.917 -1305.81)"/>
      </g>
      <g id="Grupo_1009883" data-name="Grupo 1009883" transform="translate(833.252 433.842)">
        <path id="Trazado_735374" data-name="Trazado 735374" d="M1296.422,1032.806a.483.483,0,0,1-.465-.351c-3.582-12.656-3.27-31.443-3.266-31.631a.514.514,0,0,1,.49-.474.483.483,0,0,1,.474.493c0,.186-.314,18.833,3.231,31.35a.486.486,0,0,1-.335.6A.506.506,0,0,1,1296.422,1032.806Z" transform="translate(-1292.683 -1000.35)"/>
      </g>
      <g id="Grupo_1009884" data-name="Grupo 1009884" transform="translate(799.938 382.931)">
        <path id="Trazado_735375" data-name="Trazado 735375" d="M1145.555,791.739a.463.463,0,0,1-.2-.044,6.441,6.441,0,0,1-2.915-2.933,1.363,1.363,0,0,1,.1-1.139c.56-.941,1.887-.621,2.766-.414.1.021.2.049.307.072-.012-1.018-.1-3.716-.17-5.471a.483.483,0,0,1,.965-.035c.035.916.2,5.508.163,5.98a.685.685,0,0,1-.237.418c-.293.207-.677.116-1.25-.023-.528-.125-1.515-.363-1.713-.03-.019.03-.074.125,0,.358a5.631,5.631,0,0,0,2.392,2.34.482.482,0,0,1,.237.639A.476.476,0,0,1,1145.555,791.739Z" transform="translate(-1142.362 -781.31)"/>
      </g>
      <g id="Grupo_1009885" data-name="Grupo 1009885" transform="translate(805.373 391.927)">
        <path id="Trazado_735376" data-name="Trazado 735376" d="M1167.972,824.757c-.2,0-.4-.012-.614-.03a.483.483,0,1,1,.093-.962,3.088,3.088,0,0,0,2.545-.676,3.639,3.639,0,0,0,.853-2.554.481.481,0,0,1,.444-.516.453.453,0,0,1,.516.444,4.545,4.545,0,0,1-1.134,3.312A3.712,3.712,0,0,1,1167.972,824.757Z" transform="translate(-1166.922 -820.014)"/>
      </g>
      <g id="Grupo_1009886" data-name="Grupo 1009886" transform="translate(736.563 360.865)">
        <path id="Trazado_735377" data-name="Trazado 735377" d="M868.31,739.921h-5.218a.483.483,0,0,1-.483-.484V734.12c-7.338-.939-11.707-4.807-13.35-11.812a.483.483,0,0,1,.358-.579l8.182-1.976a.478.478,0,0,1,.562.3l.207.523c.144.363.281.709.4,1.06a6.845,6.845,0,0,0,3.6,4,7.754,7.754,0,0,0,6.08.16A3.992,3.992,0,0,0,871.4,722.1a3.142,3.142,0,0,0-2.085-3.347c-1.571-.662-3.212-1.264-4.8-1.845q-.987-.363-1.973-.73c-.414-.153-.832-.3-1.25-.449-.781-.274-1.592-.56-2.368-.895-6.1-2.61-8.8-7-8.028-13.037.746-5.871,4.451-9.5,11.008-10.778.156-.03.309-.074.5-.132.023-.007.023-4.035.023-4.035a.483.483,0,0,1,.484-.484h5.157a.486.486,0,0,1,.484.469l.107,3.942a30.133,30.133,0,0,1,3.793,1.113c4.1,1.436,6.717,4.221,8.223,8.762a.482.482,0,0,1-.286.6l-7.242,2.761a.482.482,0,0,1-.572-.181c-.286-.423-.555-.846-.823-1.267a20.5,20.5,0,0,0-1.773-2.512,5.363,5.363,0,0,0-5.622-1.527A3.672,3.672,0,0,0,861.4,701.6a3.05,3.05,0,0,0,1.918,3.7c1.355.593,2.771,1.132,4.142,1.655.551.209,1.1.418,1.65.632s1.1.418,1.652.621c1.076.4,2.189.811,3.256,1.285,6.3,2.787,8.811,7.124,7.9,13.653-.753,5.4-5.12,9.464-11.4,10.606-.439.081-.876.177-1.357.283l-.362.081v5.327A.483.483,0,0,1,868.31,739.921Zm-4.737-.965h4.253v-5.234a.48.48,0,0,1,.383-.472l.739-.163c.493-.109.941-.207,1.392-.288,5.943-1.081,9.913-4.739,10.615-9.79.841-6.036-1.49-10.05-7.335-12.635-1.041-.463-2.138-.869-3.2-1.262-.556-.2-1.113-.414-1.667-.628s-1.095-.423-1.643-.63c-1.381-.525-2.81-1.069-4.186-1.671a4,4,0,0,1-2.482-4.746,4.638,4.638,0,0,1,3.684-3.837,6.289,6.289,0,0,1,6.585,1.829,21.033,21.033,0,0,1,1.862,2.629c.2.307.391.616.6.925l6.447-2.457a11.7,11.7,0,0,0-7.475-7.719,22.744,22.744,0,0,0-4-1.139.482.482,0,0,1-.428-.467l-.107-3.865h-4.2v3.912a.481.481,0,0,1-.356.465l-.365.1c-.225.065-.4.116-.586.151-6.1,1.192-9.546,4.542-10.236,9.953-.709,5.562,1.8,9.611,7.452,12.028.748.321,1.543.6,2.31.872.423.149.848.3,1.267.455.653.246,1.311.486,1.966.728,1.6.586,3.247,1.19,4.839,1.862a4.138,4.138,0,0,1,2.675,4.312A4.951,4.951,0,0,1,869,726.694a8.691,8.691,0,0,1-6.831-.191,7.807,7.807,0,0,1-4.109-4.556c-.116-.337-.249-.672-.388-1.02l-.056-.139-7.3,1.764c1.657,6.4,5.859,9.887,12.832,10.659a.481.481,0,0,1,.43.479v5.267Z" transform="translate(-849.245 -686.37)"/>
      </g>
      <g id="Grupo_1009887" data-name="Grupo 1009887" transform="translate(721.175 355.472)">
        <path id="Trazado_735378" data-name="Trazado 735378" d="M814.847,727.508a32.349,32.349,0,0,1-31.805-27.326.485.485,0,0,1,.407-.551.491.491,0,0,1,.548.4,31.205,31.205,0,1,0,30.85-35.9A31.011,31.011,0,0,0,790.124,676.3a.483.483,0,0,1-.765-.59,32.169,32.169,0,1,1,25.488,51.8Z" transform="translate(-783.037 -663.17)"/>
      </g>
      <g id="Grupo_1009891" data-name="Grupo 1009891" transform="translate(851.316 381.985)">
        <g id="Grupo_1009888" data-name="Grupo 1009888" transform="translate(12.895 0)">
          <path id="Trazado_735379" data-name="Trazado 735379" d="M1441.329,805.52a.5.5,0,0,1-.142-.021.481.481,0,0,1-.321-.6,71.208,71.208,0,0,1,4.53-11.317c2.348-4.186,1.88-7.928.247-9.325-2.185-1.871-9.392-6.954-12.01-5.918a1.675,1.675,0,0,0-.95,1.56c-.567,5.253,8.774,9.992,8.869,10.039a.483.483,0,0,1-.435.862c-.409-.2-10.034-5.093-9.4-11a2.579,2.579,0,0,1,1.555-2.354c3.8-1.52,12.9,6.006,12.993,6.083,2.3,1.966,2.285,6.4-.035,10.531a71.661,71.661,0,0,0-4.447,11.126A.474.474,0,0,1,1441.329,805.52Z" transform="translate(-1431.69 -777.238)"/>
        </g>
        <g id="Grupo_1009889" data-name="Grupo 1009889" transform="translate(0 19.436)">
          <path id="Trazado_735380" data-name="Trazado 735380" d="M1382.229,872.827a.479.479,0,0,1-.407-.223,101.217,101.217,0,0,1-5.571-11.073.482.482,0,0,1,.885-.384,102.857,102.857,0,0,0,5.5,10.938.482.482,0,0,1-.146.667A.511.511,0,0,1,1382.229,872.827Z" transform="translate(-1376.211 -860.86)"/>
        </g>
        <g id="Grupo_1009890" data-name="Grupo 1009890" transform="translate(10.276 15.603)">
          <path id="Trazado_735381" data-name="Trazado 735381" d="M1424.207,851.291a.484.484,0,0,1-.467-.358,15.665,15.665,0,0,0-3.189-5.753.484.484,0,0,1,.028-.681.477.477,0,0,1,.681.026,16.45,16.45,0,0,1,3.412,6.157.487.487,0,0,1-.342.593A.44.44,0,0,1,1424.207,851.291Z" transform="translate(-1420.425 -844.369)"/>
        </g>
      </g>
      <g id="Grupo_1009892" data-name="Grupo 1009892" transform="translate(931.871 397.59)">
        <path id="Trazado_735382" data-name="Trazado 735382" d="M1794.567,953.657a.481.481,0,0,1-.17-.932c33.311-12.556,30.62-33.358,23.6-52.049-7.463-19.861-18.343-29.834-26.288-37.116-1.355-1.241-2.622-2.4-3.767-3.519-9.458-9.2-24.279-14.7-39.647-14.7a.482.482,0,0,1,0-.965c15.614,0,30.685,5.594,40.321,14.968,1.139,1.109,2.4,2.264,3.747,3.5,8.014,7.347,18.991,17.409,26.536,37.488,7.191,19.14,9.948,40.437-24.161,53.293A.506.506,0,0,1,1794.567,953.657Z" transform="translate(-1747.81 -844.38)"/>
      </g>
      <g id="Grupo_1009893" data-name="Grupo 1009893" transform="translate(880.113 397.59)">
        <path id="Trazado_735383" data-name="Trazado 735383" d="M1508.134,858.786a.494.494,0,0,1-.367-.167.485.485,0,0,1,.051-.681c13.034-11.208,28.409-13.557,39.015-13.557a.482.482,0,1,1,0,.965c-10.441,0-25.576,2.313-38.383,13.325A.5.5,0,0,1,1508.134,858.786Z" transform="translate(-1507.651 -844.38)"/>
      </g>
      <g id="Grupo_1009894" data-name="Grupo 1009894" transform="translate(983.428 401.85)">
        <path id="Trazado_735384" data-name="Trazado 735384" d="M1974.71,886.158a.532.532,0,0,1-.146-.021.486.486,0,0,1-.316-.607c4.755-15.082,20.284-22.536,29.283-22.822a.506.506,0,0,1,.5.467.481.481,0,0,1-.467.5c-8.723.279-23.777,7.512-28.391,22.148A.48.48,0,0,1,1974.71,886.158Z" transform="translate(-1974.226 -862.708)"/>
      </g>
      <g id="Grupo_1009895" data-name="Grupo 1009895" transform="translate(716.764 524.516)">
        <path id="Trazado_735385" data-name="Trazado 735385" d="M1163.73,1391.435H764.521a.483.483,0,0,1,0-.964h399.21a.483.483,0,0,1,0,.964Z" transform="translate(-764.06 -1390.47)"/>
      </g>
      <g id="Grupo_1009896" data-name="Grupo 1009896" transform="translate(1004.401 429.992)">
        <path id="Trazado_735386" data-name="Trazado 735386" d="M2065.8,1001.9a.494.494,0,0,1-.479-.537c.867-7.482-.711-16.921-.725-17.016a.482.482,0,1,1,.95-.16c.017.1,1.618,9.669.732,17.288A.479.479,0,0,1,2065.8,1001.9Z" transform="translate(-2064.591 -983.788)"/>
      </g>
      <g id="Grupo_1009897" data-name="Grupo 1009897" transform="translate(932.435 271.369)">
        <path id="Trazado_735387" data-name="Trazado 735387" d="M1914.43,366.79a.485.485,0,0,1-.483-.472,49.726,49.726,0,0,0-.442-5.49.483.483,0,0,1,.958-.13,51.114,51.114,0,0,1,.446,5.6.48.48,0,0,1-.472.493S1914.432,366.79,1914.43,366.79Zm-1.471-11.005a.484.484,0,0,1-.469-.37,54.936,54.936,0,0,0-1.56-5.281.484.484,0,0,1,.914-.321c.618,1.766,1.153,3.575,1.587,5.376a.482.482,0,0,1-.358.581A.49.49,0,0,1,1912.959,355.785Zm-3.667-10.475a.481.481,0,0,1-.437-.279c-.765-1.646-1.625-3.284-2.559-4.874a.483.483,0,0,1,.832-.49c.953,1.618,1.827,3.284,2.6,4.958a.482.482,0,0,1-.235.641A.5.5,0,0,1,1909.291,345.309Zm-5.618-9.562a.477.477,0,0,1-.39-.2c-1.062-1.471-2.213-2.924-3.424-4.316a.483.483,0,1,1,.73-.632c1.229,1.415,2.4,2.889,3.477,4.384a.481.481,0,0,1-.109.674A.494.494,0,0,1,1903.673,335.747Zm-7.263-8.384a.488.488,0,0,1-.337-.137c-1.3-1.262-2.68-2.5-4.1-3.682a.483.483,0,0,1,.616-.744c1.443,1.2,2.843,2.452,4.16,3.733a.484.484,0,0,1,.01.683A.491.491,0,0,1,1896.41,327.364Zm-8.528-7.094a.487.487,0,0,1-.281-.091c-1.464-1.048-3.012-2.076-4.6-3.056a.482.482,0,1,1,.507-.82c1.6.99,3.168,2.031,4.651,3.091a.483.483,0,0,1-.281.876Zm-109.377-.772a.483.483,0,0,1-.3-.862,53.777,53.777,0,0,1,4.649-3.166.483.483,0,1,1,.509.82,53.2,53.2,0,0,0-4.558,3.1A.485.485,0,0,1,1778.505,319.5Zm99.946-5.076a.473.473,0,0,1-.228-.058c-1.578-.851-3.24-1.685-4.934-2.482a.483.483,0,1,1,.411-.874c1.711.8,3.389,1.646,4.981,2.506a.484.484,0,0,1-.23.909Zm-90.523-.837a.483.483,0,0,1-.228-.909c1.627-.872,3.307-1.708,5-2.492a.488.488,0,0,1,.641.235.483.483,0,0,1-.237.642c-1.676.774-3.342,1.6-4.953,2.466A.46.46,0,0,1,1787.928,313.586Zm80.482-3.886a.464.464,0,0,1-.184-.037c-1.374-.565-2.8-1.118-4.235-1.643-.309-.114-.618-.225-.925-.335a.482.482,0,0,1-.293-.616.487.487,0,0,1,.616-.293c.312.112.625.223.934.339,1.448.53,2.882,1.088,4.272,1.657a.484.484,0,0,1,.262.63A.492.492,0,0,1,1868.41,309.7Zm-70.4-.781a.489.489,0,0,1-.451-.307.483.483,0,0,1,.272-.625c1.732-.683,3.5-1.325,5.253-1.9a.483.483,0,1,1,.3.916c-1.734.572-3.484,1.206-5.2,1.885A.439.439,0,0,1,1798.013,308.919ZM1857.939,306a.541.541,0,0,1-.135-.019c-1.771-.518-3.57-.988-5.348-1.4a.483.483,0,0,1,.216-.941c1.8.414,3.614.888,5.4,1.411a.483.483,0,0,1-.137.946Zm-49.376-.565a.482.482,0,0,1-.126-.948c1.794-.479,3.624-.911,5.437-1.283a.471.471,0,0,1,.569.377.482.482,0,0,1-.376.569c-1.8.37-3.607.795-5.381,1.269A.545.545,0,0,1,1808.563,305.437Zm38.552-1.92a.456.456,0,0,1-.079-.007c-1.815-.3-3.656-.553-5.476-.744a.483.483,0,0,1-.43-.53.457.457,0,0,1,.532-.43c1.838.193,3.7.444,5.531.751a.483.483,0,0,1-.079.96Zm-27.67-.311a.482.482,0,0,1-.07-.96c1.834-.263,3.7-.474,5.55-.625a.483.483,0,0,1,.077.962c-1.824.149-3.672.356-5.49.616A.331.331,0,0,1,1819.445,303.206Zm16.625-.841c-1.9-.081-3.74-.1-5.546-.063a.529.529,0,0,1-.49-.474.481.481,0,0,1,.472-.493c1.845-.035,3.74-.016,5.585.063a.484.484,0,0,1-.021.967Z" transform="translate(-1778.022 -301.318)"/>
      </g>
      <g id="Grupo_1009898" data-name="Grupo 1009898" transform="translate(757.15 282.101)">
        <path id="Trazado_735388" data-name="Trazado 735388" d="M938.31,416a.485.485,0,0,1-.483-.472c0-.13-.007-.3-.007-.507a44.183,44.183,0,0,1,.332-5.116.488.488,0,0,1,.535-.423.481.481,0,0,1,.423.535,43.509,43.509,0,0,0-.325,5l0,.484a.48.48,0,0,1-.472.493S938.315,416,938.31,416Zm1.246-11.038a.49.49,0,0,1-.1-.012.481.481,0,0,1-.37-.574c.391-1.806.872-3.628,1.427-5.416a.482.482,0,0,1,.92.288c-.546,1.76-1.02,3.554-1.406,5.332A.483.483,0,0,1,939.556,404.963Zm3.3-10.606a.452.452,0,0,1-.181-.037.485.485,0,0,1-.265-.63c.7-1.715,1.488-3.426,2.336-5.085a.483.483,0,1,1,.86.442c-.837,1.634-1.611,3.319-2.3,5.009A.487.487,0,0,1,942.852,394.357Zm5.055-9.88a.465.465,0,0,1-.253-.074.485.485,0,0,1-.156-.665c.979-1.571,2.038-3.126,3.149-4.623a.483.483,0,0,1,.776.576c-1.095,1.474-2.141,3.008-3.105,4.556A.485.485,0,0,1,947.907,384.477Zm6.617-8.909a.479.479,0,0,1-.318-.121.484.484,0,0,1-.047-.681c1.211-1.385,2.5-2.75,3.842-4.06a.483.483,0,1,1,.676.69c-1.32,1.292-2.594,2.64-3.791,4A.473.473,0,0,1,954.524,375.568Zm7.921-7.77a.483.483,0,0,1-.311-.853c1.4-1.185,2.877-2.35,4.386-3.456a.482.482,0,0,1,.572.776c-1.49,1.095-2.95,2.245-4.335,3.417A.472.472,0,0,1,962.445,367.8Zm8.939-6.575a.483.483,0,0,1-.26-.89c1.543-.988,3.156-1.952,4.788-2.863a.483.483,0,1,1,.472.844c-1.615.9-3.21,1.857-4.737,2.836A.523.523,0,0,1,971.385,361.222Zm68.078-4.674a.48.48,0,0,1-.293-.1,31.688,31.688,0,0,0-4.714-2.768.482.482,0,0,1,.428-.865,32.064,32.064,0,0,1,4.872,2.866.484.484,0,0,1,.091.676A.478.478,0,0,1,1039.462,356.548Zm-58.395-.748a.483.483,0,0,1-.211-.918c1.687-.818,3.4-1.585,5.1-2.273a.483.483,0,0,1,.363.895c-1.678.681-3.375,1.436-5.046,2.248A.453.453,0,0,1,981.067,355.8Zm10.292-4.16a.478.478,0,0,1-.458-.335.482.482,0,0,1,.312-.607c1.787-.576,3.6-1.085,5.388-1.508a.483.483,0,1,1,.223.939c-1.759.418-3.549.918-5.313,1.488A.5.5,0,0,1,991.359,351.64Zm38.192-.072a.5.5,0,0,1-.163-.028,52.7,52.7,0,0,0-5.271-1.578.48.48,0,0,1-.353-.583.486.486,0,0,1,.583-.356,53.874,53.874,0,0,1,5.369,1.608.482.482,0,0,1-.165.937Zm-27.387-2.482a.483.483,0,0,1-.07-.96c1.855-.277,3.728-.469,5.567-.576a.483.483,0,1,1,.053.964c-1.811.1-3.656.3-5.48.567C1002.211,349.083,1002.188,349.085,1002.165,349.085Zm16.609-.144c-1.869-.253-3.714-.414-5.553-.481a.484.484,0,0,1-.465-.5.491.491,0,0,1,.5-.465c1.869.07,3.744.232,5.581.486a.482.482,0,0,1-.063.96Z" transform="translate(-937.82 -347.494)"/>
      </g>
      <path id="Trazado_735389" data-name="Trazado 735389" d="M1682.217,726.455c.386-.06.644.1.755,1.492.123,1.548-.279,1.822-.625,1.808s-.7-.493-.679-1.6S1681.71,726.535,1682.217,726.455Z" transform="translate(-762.137 -356.266)"/>
      <path id="Trazado_735390" data-name="Trazado 735390" d="M1738.968,727c.388-.051.641.121.716,1.513.084,1.55-.325,1.813-.672,1.79s-.683-.509-.637-1.615S1738.462,727.072,1738.968,727Z" transform="translate(-806.27 -356.69)"/>
      <path id="Trazado_735391" data-name="Trazado 735391" d="M2170.977,733.856c.385-.06.644.1.755,1.492.123,1.548-.279,1.822-.625,1.808s-.7-.493-.678-1.6S2170.47,733.937,2170.977,733.856Z" transform="translate(-1142.543 -361.946)"/>
      <path id="Trazado_735392" data-name="Trazado 735392" d="M2219.349,734.415c.388-.051.642.121.716,1.513.084,1.55-.325,1.813-.671,1.79s-.684-.509-.637-1.615S2218.842,734.48,2219.349,734.415Z" transform="translate(-1183.879 -362.377)"/>
      <g id="Grupo_1009899" data-name="Grupo 1009899" transform="translate(906.553 369.296)">
        <path id="Trazado_735393" data-name="Trazado 735393" d="M1629.378,733.673c-.114,0-.228,0-.344-.012a5.513,5.513,0,0,1-3.3-9.639,5.515,5.515,0,0,1,5.69-.988.483.483,0,0,1-.358.9,4.548,4.548,0,1,0-1.971,8.762,4.614,4.614,0,0,0,2.38-.5.482.482,0,0,1,.446.855A5.457,5.457,0,0,1,1629.378,733.673Z" transform="translate(-1623.864 -722.645)"/>
      </g>
      <g id="Grupo_1009900" data-name="Grupo 1009900" transform="translate(910.045 371.485)">
        <path id="Trazado_735394" data-name="Trazado 735394" d="M1640.075,738.422a.476.476,0,0,1-.381-.186.484.484,0,0,1,.086-.676l2.891-2.231-3.238-2.394a.483.483,0,0,1,.576-.776l3.749,2.775a.488.488,0,0,1,.2.383.476.476,0,0,1-.188.386l-3.4,2.622A.5.5,0,0,1,1640.075,738.422Z" transform="translate(-1639.238 -732.064)"/>
      </g>
      <g id="Grupo_1009901" data-name="Grupo 1009901" transform="translate(938.243 369.301)">
        <path id="Trazado_735395" data-name="Trazado 735395" d="M1769.72,733.688a5.487,5.487,0,0,1-2.541-.621.482.482,0,1,1,.446-.855,4.548,4.548,0,1,0,.318-8.221.491.491,0,0,1-.634-.256.486.486,0,0,1,.255-.635,5.51,5.51,0,0,1,5.8.941,5.515,5.515,0,0,1-3.3,9.639C1769.948,733.684,1769.834,733.688,1769.72,733.688Z" transform="translate(-1766.919 -722.665)"/>
      </g>
      <g id="Grupo_1009902" data-name="Grupo 1009902" transform="translate(938.365 371.483)">
        <path id="Trazado_735396" data-name="Trazado 735396" d="M1770.909,738.414a.481.481,0,0,1-.3-.1l-3.4-2.622a.481.481,0,0,1,.007-.769l3.749-2.775a.483.483,0,0,1,.576.776l-3.238,2.394,2.891,2.231a.482.482,0,0,1,.086.676A.471.471,0,0,1,1770.909,738.414Z" transform="translate(-1767.03 -732.054)"/>
      </g>
      <g id="Grupo_1009903" data-name="Grupo 1009903" transform="translate(1017.365 382.292)">
        <path id="Trazado_735397" data-name="Trazado 735397" d="M2123.511,793.426a.487.487,0,0,1-.483-.507l.7-13.9a.458.458,0,0,1,.506-.458.483.483,0,0,1,.458.507l-.7,13.9A.481.481,0,0,1,2123.511,793.426Z" transform="translate(-2123.027 -778.56)"/>
      </g>
      <g id="Grupo_1009904" data-name="Grupo 1009904" transform="translate(1008.947 364.7)">
        <path id="Trazado_735398" data-name="Trazado 735398" d="M2115.98,732.741c-.421,0-.837-.009-1.248-.016-.353-.007-.707-.014-1.055-.016a28.857,28.857,0,0,1-6.32-.63c-1.743-.4-3.721-.839-4.9-2.582a11.464,11.464,0,0,1-1.522-5.841,22.294,22.294,0,0,1,.086-3.412c.288-2.375.688-5.913.765-6.6a5.351,5.351,0,0,0-1.562-2.127,5.347,5.347,0,1,0-.139,8.379.483.483,0,0,1,.586.767,6.311,6.311,0,1,1,2.062-7.247.461.461,0,0,1,.028.223s-.458,4.084-.776,6.722a21.454,21.454,0,0,0-.081,3.256,10.574,10.574,0,0,0,1.36,5.346c.965,1.425,2.666,1.808,4.314,2.18a27.958,27.958,0,0,0,6.113.607c.351,0,.709.007,1.069.016,2.81.053,5.72.109,7.363-2.4,1.548-2.361,1.557-5.46,1.569-8.456,0-.662,0-1.313.023-1.941.063-2.008-.27-15.473-.272-15.61a.482.482,0,1,1,.965-.021c.014.556.335,13.627.272,15.663-.019.618-.021,1.26-.023,1.913-.01,2.991-.021,6.382-1.727,8.983C2121.258,732.434,2118.567,732.741,2115.98,732.741Z" transform="translate(-2090.517 -702.87)"/>
      </g>
      <g id="Grupo_1009905" data-name="Grupo 1009905" transform="translate(1033.857 367.834)">
        <path id="Trazado_735399" data-name="Trazado 735399" d="M2218.909,718.782a.486.486,0,0,1-.437-.274c-.037-.079-.867-1.7-3.486-1.02a.482.482,0,1,1-.244-.932c3.417-.9,4.592,1.518,4.6,1.543a.484.484,0,0,1-.232.641A.517.517,0,0,1,2218.909,718.782Z" transform="translate(-2214.382 -716.354)"/>
      </g>
      <g id="Grupo_1009906" data-name="Grupo 1009906" transform="translate(1025.437 367.57)">
        <path id="Trazado_735400" data-name="Trazado 735400" d="M2160.667,718.184a.477.477,0,0,1-.3-.1.484.484,0,0,1-.084-.676c2.794-3.575,5.827-1.7,5.857-1.678a.482.482,0,0,1,.146.667.487.487,0,0,1-.665.149c-.095-.058-2.336-1.411-4.578,1.457A.483.483,0,0,1,2160.667,718.184Z" transform="translate(-2160.184 -715.218)"/>
      </g>
      <g id="Grupo_1009907" data-name="Grupo 1009907" transform="translate(1031.318 393.581)">
        <path id="Trazado_735401" data-name="Trazado 735401" d="M2203.941,830.614a.483.483,0,0,1-.481-.484v-2.519a.481.481,0,1,1,.962,0v2.522A.479.479,0,0,1,2203.941,830.614Z" transform="translate(-2203.46 -827.13)"/>
      </g>
      <g id="Grupo_1009908" data-name="Grupo 1009908" transform="translate(1007.767 345.166)">
        <path id="Trazado_735402" data-name="Trazado 735402" d="M2089.295,647.184a.52.52,0,0,1-.186-.035c-.325-.128-2-1.19-2.942-9.569-.546-4.83,2.157-8.286,5.106-9.2a26.3,26.3,0,0,1,9.169-.744c2.871-5.5,6.573-7.568,9.2-8.339a11.319,11.319,0,0,1,9.021,1.13,10.542,10.542,0,0,1,5.309,6.482,11.149,11.149,0,0,1-.883,7.233,2.606,2.606,0,0,1,1.595,1.5,7.8,7.8,0,0,1-3.724,9.932.486.486,0,0,1-.658-.184.482.482,0,0,1,.183-.658,6.828,6.828,0,0,0,3.333-8.66c-.148-.3-.681-1.241-1.367-.946a.483.483,0,0,1-.6-.7,10.647,10.647,0,0,0,1.188-7.3,9.643,9.643,0,0,0-4.86-5.873,10.39,10.39,0,0,0-8.263-1.034c-2.484.73-6.022,2.733-8.757,8.142a.514.514,0,0,1-.486.263,26.3,26.3,0,0,0-9.106.674c-2.08.648-4.979,3.359-4.437,8.174.878,7.789,2.363,8.786,2.377,8.8a.462.462,0,0,1,.253.616A.477.477,0,0,1,2089.295,647.184Z" transform="translate(-2086.096 -618.825)"/>
      </g>
      <g id="Grupo_1009909" data-name="Grupo 1009909" transform="translate(1033.745 370.145)">
        <path id="Trazado_735403" data-name="Trazado 735403" d="M2197.941,738.243a.482.482,0,0,1,0-.965c1.036,0,2.863-.2,3.361-.734a.262.262,0,0,0,.09-.216,8.9,8.9,0,0,0-.59-1.866c-.749-1.969-1.878-4.944-1.174-7.8a.482.482,0,1,1,.937.23c-.632,2.559.391,5.253,1.139,7.219a9.088,9.088,0,0,1,.653,2.148,1.242,1.242,0,0,1-.349.939C2201.06,738.215,2198.257,738.243,2197.941,738.243Z" transform="translate(-2197.46 -726.298)"/>
      </g>
      <g id="Grupo_1009911" data-name="Grupo 1009911" transform="translate(1025.675 380.342)">
        <g id="Grupo_1009910" data-name="Grupo 1009910" transform="translate(0 0)">
          <path id="Trazado_735404" data-name="Trazado 735404" d="M2167.305,778.929a5.54,5.54,0,0,1-3.3-1.1,5.629,5.629,0,0,1-2.18-4.507,3.37,3.37,0,0,1,.974-2.71,1.872,1.872,0,0,1,1.871-.312,2.724,2.724,0,0,1,1.55,2.124c.232,1.285.351,1.374.616,1.567s.381.284,1.678.121a2.713,2.713,0,0,1,2.489.855,1.88,1.88,0,0,1,.255,1.878,3.539,3.539,0,0,1-2.38,1.852A5.584,5.584,0,0,1,2167.305,778.929Zm-3.289-7.793a1.048,1.048,0,0,0-.628.239,2.561,2.561,0,0,0-.592,1.936,4.661,4.661,0,0,0,1.787,3.737,4.549,4.549,0,0,0,4.021.72,2.693,2.693,0,0,0,1.753-1.26.926.926,0,0,0-.1-.946,1.8,1.8,0,0,0-1.615-.5c-1.534.191-1.866.07-2.371-.3s-.718-.653-.99-2.173a1.8,1.8,0,0,0-.953-1.395A.836.836,0,0,0,2164.017,771.135Z" transform="translate(-2161.829 -770.171)"/>
        </g>
      </g>
      <g id="Grupo_1009912" data-name="Grupo 1009912" transform="translate(1026.164 381.379)">
        <path id="Trazado_735405" data-name="Trazado 735405" d="M2165.814,781.71a.47.47,0,0,1-.235-.06.484.484,0,0,1-.186-.658c1.8-3.214-1.922-5.369-2.082-5.46a.482.482,0,1,1,.476-.839c1.636.927,4.256,3.537,2.449,6.771A.485.485,0,0,1,2165.814,781.71Z" transform="translate(-2163.066 -774.631)"/>
      </g>
      <g id="Grupo_1009913" data-name="Grupo 1009913" transform="translate(1013.822 373.576)">
        <path id="Trazado_735406" data-name="Trazado 735406" d="M2108.136,748.477a.483.483,0,0,1-.214-.916l3.93-1.945-3.651-3.735a.482.482,0,0,1,.688-.674l4.116,4.209a.482.482,0,0,1-.13.772l-4.527,2.241A.486.486,0,0,1,2108.136,748.477Z" transform="translate(-2107.653 -741.06)"/>
      </g>
      <g id="Grupo_1009914" data-name="Grupo 1009914" transform="translate(1022.608 354.001)">
        <path id="Trazado_735407" data-name="Trazado 735407" d="M2149.8,660.75a.481.481,0,0,1-.376-.181l-2.369-2.943a.482.482,0,1,1,.751-.6l2.368,2.943a.483.483,0,0,1-.072.679A.476.476,0,0,1,2149.8,660.75Z" transform="translate(-2146.949 -656.84)"/>
      </g>
      <g id="Grupo_1009919" data-name="Grupo 1009919" transform="translate(1054.128 352.46)">
        <g id="Grupo_1009915" data-name="Grupo 1009915">
          <path id="Trazado_735408" data-name="Trazado 735408" d="M2302.083,693.413a.48.48,0,0,1-.484-.481V676.265a.436.436,0,0,1,.03-.165c-.021-.237-.03-.479-.03-.718V659.249a9.049,9.049,0,0,1,9.037-9.039h37.774a9.048,9.048,0,0,1,9.036,9.039v16.133a9.046,9.046,0,0,1-9.036,9.037.481.481,0,1,1,0-.962,8.082,8.082,0,0,0,8.072-8.074V659.249a8.081,8.081,0,0,0-8.072-8.072h-37.774a8.081,8.081,0,0,0-8.072,8.072v16.133a7.486,7.486,0,0,0,.049.86.467.467,0,0,1-.049.265v15.545l13.281-8.521a.5.5,0,0,1,.26-.077h21.313a.481.481,0,1,1,0,.962H2316.25l-13.906,8.921A.454.454,0,0,1,2302.083,693.413Z" transform="translate(-2301.6 -650.21)"/>
        </g>
        <g id="Grupo_1009916" data-name="Grupo 1009916" transform="translate(35.34 12.042)">
          <path id="Trazado_735409" data-name="Trazado 735409" d="M2462.942,702.987h-8.811a.483.483,0,0,1,0-.967h8.811a.483.483,0,0,1,0,.967Z" transform="translate(-2453.65 -702.02)"/>
        </g>
        <g id="Grupo_1009917" data-name="Grupo 1009917" transform="translate(10.489 12.042)">
          <path id="Trazado_735410" data-name="Trazado 735410" d="M2361.452,702.987h-14.238a.483.483,0,0,1,0-.967h14.238a.483.483,0,0,1,0,.967Z" transform="translate(-2346.73 -702.02)"/>
        </g>
        <g id="Grupo_1009918" data-name="Grupo 1009918" transform="translate(10.487 21.118)">
          <path id="Trazado_735411" data-name="Trazado 735411" d="M2380.865,742.034H2347.2a.482.482,0,1,1,0-.964h33.662a.482.482,0,0,1,0,.964Z" transform="translate(-2346.72 -741.07)"/>
        </g>
      </g>
      <g id="Grupo_1009920" data-name="Grupo 1009920" transform="translate(848.805 409.937)">
        <path id="Trazado_735412" data-name="Trazado 735412" d="M1395.3,968.112c-17.158,0-21.137-22.894-22.473-30.566-1.953-11.224-6.306-39.208-6.352-39.489a.483.483,0,1,1,.955-.146c.044.281,4.4,28.256,6.348,39.471,1.336,7.691,5.429,31.075,23.022,29.709,7.856-.616,16.193-6.789,16.037-22.273a.528.528,0,0,1,.483-.486.479.479,0,0,1,.481.479c.163,16.149-8.637,22.594-16.927,23.243Q1396.069,968.11,1395.3,968.112Z" transform="translate(-1366.467 -897.501)"/>
      </g>
      <g id="Grupo_1009921" data-name="Grupo 1009921" transform="translate(877.923 403.818)">
        <path id="Trazado_735413" data-name="Trazado 735413" d="M1506.9,918.02a.484.484,0,0,1-.481-.439,128.666,128.666,0,0,0-2.808-17.037,243.835,243.835,0,0,0-8.586-28.714.484.484,0,0,1,.9-.346,245.8,245.8,0,0,1,8.623,28.839,129.2,129.2,0,0,1,2.831,17.169.481.481,0,0,1-.437.523A.166.166,0,0,1,1506.9,918.02Z" transform="translate(-1494.993 -871.173)"/>
      </g>
      <g id="Grupo_1009922" data-name="Grupo 1009922" transform="translate(913.306 366.343)">
        <path id="Trazado_735414" data-name="Trazado 735414" d="M1668.527,734.74a13.933,13.933,0,0,1-8.651-2.659c-2.129-1.69-3.54-4.409-4.309-8.307-.509-2.582-.621-10.706-.576-13.358a.481.481,0,1,1,.962.014c-.046,2.849.086,10.764.558,13.153.725,3.665,2.02,6.2,3.963,7.74a13,13,0,0,0,8.051,2.45.483.483,0,0,1,0,.967Z" transform="translate(-1654.982 -709.94)"/>
      </g>
      <g id="Grupo_1009923" data-name="Grupo 1009923" transform="translate(925.748 368.288)">
        <path id="Trazado_735415" data-name="Trazado 735415" d="M1711.663,741.164a.482.482,0,1,1,0-.964,13.008,13.008,0,0,0,8.051-2.448c1.943-1.543,3.238-4.074,3.963-7.74.507-2.566.521-8.965.483-11.212a.482.482,0,0,1,.474-.49.516.516,0,0,1,.49.474c.039,2.278.021,8.767-.5,11.417-.77,3.9-2.18,6.617-4.309,8.309A13.957,13.957,0,0,1,1711.663,741.164Z" transform="translate(-1711.18 -718.31)"/>
      </g>
      <g id="Grupo_1009924" data-name="Grupo 1009924" transform="translate(912.977 356.909)">
        <path id="Trazado_735416" data-name="Trazado 735416" d="M1680.878,681.7c-9.174,0-18.6-8.6-21.009-10.964-.611,1.931-2.292,6.9-4.016,8.846a.482.482,0,1,1-.723-.639c1.973-2.231,4.03-9.183,4.049-9.253a.483.483,0,0,1,.811-.2c.114.116,11.359,11.677,21.488,11.231a.483.483,0,1,1,.044.965C1681.308,681.7,1681.094,681.7,1680.878,681.7Z" transform="translate(-1655.008 -669.348)"/>
      </g>
      <g id="Grupo_1009925" data-name="Grupo 1009925" transform="translate(916.688 388.17)">
        <path id="Trazado_735417" data-name="Trazado 735417" d="M1680.876,823.652c-3.893,0-7.479-1.615-9.135-4.114a3.958,3.958,0,0,1-.544-3.782c1.23-2.9,1.5-11.352,1.5-11.438a.518.518,0,0,1,.5-.469.483.483,0,0,1,.469.5c-.012.356-.274,8.718-1.576,11.786a3.024,3.024,0,0,0,.46,2.87c1.213,1.834,4.26,3.684,8.33,3.684,3.9,0,6.884-1.137,8.2-3.122a3.6,3.6,0,0,0,.381-3.433c-1.3-3.066-1.567-11.431-1.576-11.786a.481.481,0,0,1,.469-.5.491.491,0,0,1,.5.469c0,.086.27,8.535,1.5,11.438a4.555,4.555,0,0,1-.465,4.344C1689,821.426,1686.661,823.652,1680.876,823.652Z" transform="translate(-1670.93 -803.85)"/>
      </g>
      <g id="Grupo_1009926" data-name="Grupo 1009926" transform="translate(909.112 346.945)">
        <path id="Trazado_735418" data-name="Trazado 735418" d="M1640.159,649.8a.485.485,0,0,1-.463-.339c-.123-.4-2.993-9.911-.061-14.9a5.716,5.716,0,0,1,3.712-2.754,13.2,13.2,0,0,1,7.977-4.983c6.638-1.167,17.153.476,19.726,7.789,1.153,3.282,1.16,7.026.021,14.31a.492.492,0,0,1-.551.4.484.484,0,0,1-.4-.551c1.111-7.108,1.118-10.729.021-13.841-2.385-6.78-12.332-8.267-18.645-7.159a12.383,12.383,0,0,0-7.458,4.735.483.483,0,0,1-.3.2,4.75,4.75,0,0,0-3.266,2.341c-2.717,4.618.123,14.027.151,14.122a.485.485,0,0,1-.321.6A.572.572,0,0,1,1640.159,649.8Z" transform="translate(-1638.321 -626.482)"/>
      </g>
      <g id="Grupo_1009927" data-name="Grupo 1009927" transform="translate(960.885 494.818)">
        <path id="Trazado_735419" data-name="Trazado 735419" d="M1875.68,1293.361a.484.484,0,0,1-.432-.269c-1.15-2.329-4.074-16.27-6.259-29.832a.481.481,0,0,1,.4-.553.472.472,0,0,1,.553.4c2.336,14.489,5.185,27.556,6.173,29.56a.482.482,0,0,1-.219.646A.507.507,0,0,1,1875.68,1293.361Z" transform="translate(-1868.981 -1262.699)"/>
      </g>
      <g id="Grupo_1009928" data-name="Grupo 1009928" transform="translate(956.671 427.498)">
        <path id="Trazado_735420" data-name="Trazado 735420" d="M1851.919,1021.378a.482.482,0,0,1-.481-.437c-.837-8.939-.818-14.968.063-18.968,3.1-14.083-1.885-28.13-1.936-28.272a.483.483,0,0,1,.909-.328c.051.142,5.134,14.445,1.969,28.807-.86,3.9-.874,9.834-.044,18.671a.483.483,0,0,1-.437.525A.23.23,0,0,1,1851.919,1021.378Z" transform="translate(-1849.536 -973.055)"/>
      </g>
      <g id="Grupo_1009929" data-name="Grupo 1009929" transform="translate(885.149 427.5)">
        <path id="Trazado_735421" data-name="Trazado 735421" d="M1528.046,1071.045a.5.5,0,0,1-.214-.049.481.481,0,0,1-.219-.646c2.434-4.935,11.849-54.072,8.741-68.161-3.163-14.362,1.917-28.663,1.969-28.807a.488.488,0,0,1,.618-.291.483.483,0,0,1,.291.618c-.051.142-5.037,14.19-1.936,28.272,3.135,14.224-6.364,63.817-8.821,68.8A.481.481,0,0,1,1528.046,1071.045Z" transform="translate(-1527.563 -973.065)"/>
      </g>
      <g id="Grupo_1009930" data-name="Grupo 1009930" transform="translate(849.108 402.476)">
        <path id="Trazado_735422" data-name="Trazado 735422" d="M1374.7,876.314c-4.423,0-7.912-.848-8.277-2.87-.286-1.59,1.239-3.156,4.537-4.658a.483.483,0,0,1,.4.879c-2.764,1.26-4.179,2.54-3.988,3.609.339,1.866,6.7,2.868,15.282,1.318a39.5,39.5,0,0,0,10.273-3.177c2.41-1.211,3.749-2.485,3.582-3.407-.109-.607-.516-1.225-2.736-1.646a.484.484,0,1,1,.179-.951c2.227.423,3.275,1.148,3.505,2.424.26,1.432-1.157,2.968-4.1,4.442a40.472,40.472,0,0,1-10.533,3.263A47.164,47.164,0,0,1,1374.7,876.314Z" transform="translate(-1366.384 -865.402)"/>
      </g>
      <g id="Grupo_1009931" data-name="Grupo 1009931" transform="translate(968.505 476.917)">
        <path id="Trazado_735423" data-name="Trazado 735423" d="M1914.135,1215.7c-1.683,0-3.756-2.222-5.234-4.476a.482.482,0,1,1,.806-.528c1.969,3.005,3.83,4.27,4.681,4,1.8-.618,1.82-7.056-1.018-15.305a39.516,39.516,0,0,0-4.7-9.671c-1.562-2.2-3.033-3.319-3.914-3.022a.478.478,0,0,1-.614-.3.483.483,0,0,1,.3-.614c1.395-.481,3.112.695,5.016,3.375a40.435,40.435,0,0,1,4.825,9.915c2.487,7.228,3.479,15.479.421,16.532A1.812,1.812,0,0,1,1914.135,1215.7Z" transform="translate(-1904.117 -1185.677)"/>
      </g>
      <g id="Grupo_1009932" data-name="Grupo 1009932" transform="translate(827.347 340.507)">
        <path id="Trazado_735424" data-name="Trazado 735424" d="M1288.681,663.065a.48.48,0,0,1-.453-.314L1270,613.8a.483.483,0,0,1,.014-.37.476.476,0,0,1,.27-.251l38.587-14.369a.464.464,0,0,1,.369.014.482.482,0,0,1,.251.27l18.225,48.947a.485.485,0,0,1-.014.37.477.477,0,0,1-.27.251l-3.907,1.455a.482.482,0,1,1-.337-.9l3.454-1.285-17.888-48.042-37.681,14.032,17.89,48.04,26.545-9.885a.482.482,0,0,1,.337.9l-27,10.052A.419.419,0,0,1,1288.681,663.065Z" transform="translate(-1269.971 -598.784)"/>
      </g>
      <g id="Grupo_1009933" data-name="Grupo 1009933" transform="translate(916.287 365.3)">
        <path id="Trazado_735425" data-name="Trazado 735425" d="M1668.087,708.854a.521.521,0,0,1-.165-.028.483.483,0,0,1-.288-.62c.865-2.382,4.177-3.066,6.131-2.631a.483.483,0,0,1-.209.944c-1.613-.363-4.37.244-5.013,2.017A.486.486,0,0,1,1668.087,708.854Z" transform="translate(-1667.605 -705.452)"/>
      </g>
      <g id="Grupo_1009934" data-name="Grupo 1009934" transform="translate(924.714 379.61)">
        <path id="Trazado_735426" data-name="Trazado 735426" d="M1708.108,771.845a7.446,7.446,0,0,1-2.106-.312.484.484,0,0,1-.309-.609.491.491,0,0,1,.609-.309c.026.007,2.361.746,3.87-.281a3.513,3.513,0,0,0,1.325-2.861.5.5,0,0,1,.511-.453.483.483,0,0,1,.453.511,4.412,4.412,0,0,1-1.75,3.6A4.613,4.613,0,0,1,1708.108,771.845Z" transform="translate(-1705.669 -767.02)"/>
      </g>
      <g id="Grupo_1009935" data-name="Grupo 1009935" transform="translate(898.887 379.35)">
        <path id="Trazado_735427" data-name="Trazado 735427" d="M1594.117,786.725a.483.483,0,0,1-.27-.081,9.174,9.174,0,0,1-3.558-10.515,11.675,11.675,0,0,1,11.026-7.761,3.566,3.566,0,0,1,.488.023c.57.049.583.019.665-.237a2.988,2.988,0,0,0,.016-1.074,6.821,6.821,0,0,1-.04-.7.481.481,0,1,1,.962.012c0,.191.019.4.037.6a3.73,3.73,0,0,1-.056,1.448c-.316,1.023-1.127.958-1.664.918a2.37,2.37,0,0,0-.414-.021,10.9,10.9,0,0,0-5.639,1.59,10.627,10.627,0,0,0-4.472,5.518,8.2,8.2,0,0,0,3.184,9.4.479.479,0,0,1-.267.879Z" transform="translate(-1589.811 -765.9)"/>
      </g>
      <g id="Grupo_1009936" data-name="Grupo 1009936" transform="translate(939.907 379.347)">
        <path id="Trazado_735428" data-name="Trazado 735428" d="M1784.479,786.718a.482.482,0,0,1-.27-.883,8.2,8.2,0,0,0,3.184-9.4,10.635,10.635,0,0,0-4.472-5.518,10.881,10.881,0,0,0-5.641-1.59c-.107,0-.279.012-.411.021-.542.039-1.348.1-1.662-.916a3.734,3.734,0,0,1-.058-1.448c.019-.207.04-.411.037-.6a.482.482,0,1,1,.964-.012c0,.223-.019.465-.039.7a3.049,3.049,0,0,0,.018,1.076c.079.256.1.284.663.237.156-.012.325-.014.488-.023a11.675,11.675,0,0,1,11.026,7.761,9.174,9.174,0,0,1-3.559,10.515A.481.481,0,0,1,1784.479,786.718Z" transform="translate(-1775.107 -765.89)"/>
      </g>
      <g id="Grupo_1009937" data-name="Grupo 1009937" transform="translate(1004.729 461.199)">
        <path id="Trazado_735429" data-name="Trazado 735429" d="M2067.211,1124.369a.482.482,0,0,1-.07-.96,5.868,5.868,0,0,0,4.825-4.788.476.476,0,0,1,.381-.56.488.488,0,0,1,.57.388,5.561,5.561,0,0,1-1.178,3.182,6.481,6.481,0,0,1-4.458,2.733C2067.255,1124.367,2067.232,1124.369,2067.211,1124.369Z" transform="translate(-2066.727 -1118.052)"/>
      </g>
      <g id="Grupo_1009938" data-name="Grupo 1009938" transform="translate(1001.355 446.575)">
        <path id="Trazado_735430" data-name="Trazado 735430" d="M2053.435,1064.868a.454.454,0,0,1-.112-.012.481.481,0,0,1-.358-.581,11.785,11.785,0,0,1,15.08-8.516.482.482,0,1,1-.384.885,10.271,10.271,0,0,0-8.549.914,10.068,10.068,0,0,0-5.208,6.938A.483.483,0,0,1,2053.435,1064.868Z" transform="translate(-2052.951 -1055.132)"/>
      </g>
      <g id="Grupo_1009939" data-name="Grupo 1009939" transform="translate(999.519 447.713)">
        <path id="Trazado_735431" data-name="Trazado 735431" d="M2044.063,1063.122a.483.483,0,0,1-.369-.795c2.977-3.533,7.928-1.959,8.135-1.894a.483.483,0,1,1-.3.918c-.044-.016-4.544-1.434-7.1,1.6A.471.471,0,0,1,2044.063,1063.122Z" transform="translate(-2043.58 -1060.028)"/>
      </g>
      <g id="Grupo_1009940" data-name="Grupo 1009940" transform="translate(944.411 480.436)">
        <path id="Trazado_735432" data-name="Trazado 735432" d="M1797.9,1210.345a.484.484,0,0,1-.388-.2,4.679,4.679,0,0,1-.7-4.174c.435-1.313,1.76-3.126,5.59-4.281,6.894-2.08,15.682.193,16.051.293a.483.483,0,0,1,.344.59.478.478,0,0,1-.59.344c-.086-.021-8.89-2.305-15.526-.3-2.715.818-4.428,2.085-4.951,3.661a3.7,3.7,0,0,0,.565,3.3.483.483,0,0,1-.1.676A.506.506,0,0,1,1797.9,1210.345Z" transform="translate(-1796.583 -1200.82)"/>
      </g>
      <g id="Grupo_1009941" data-name="Grupo 1009941" transform="translate(945.638 474.85)">
        <path id="Trazado_735433" data-name="Trazado 735433" d="M1804.392,1185.237a.476.476,0,0,1-.353-.153,3.41,3.41,0,0,1-.818-3.6c.79-2.176,3.616-3.828,7.375-4.314a29.542,29.542,0,0,1,8.525-.109,32.7,32.7,0,0,1,9.446,3.191l.379.186c.872.428,1.56.767,2.389,1.262a.483.483,0,0,1-.495.83c-.8-.477-1.469-.807-2.32-1.225l-.381-.186a31.818,31.818,0,0,0-9.176-3.1,28.609,28.609,0,0,0-8.244.116c-3.347.432-5.936,1.878-6.589,3.686a2.459,2.459,0,0,0,.618,2.62.481.481,0,0,1-.025.681A.5.5,0,0,1,1804.392,1185.237Z" transform="translate(-1803.009 -1176.787)"/>
      </g>
      <g id="Grupo_1009942" data-name="Grupo 1009942" transform="translate(943.825 485.47)">
        <path id="Trazado_735434" data-name="Trazado 735434" d="M1825.406,1239.481a12.588,12.588,0,0,1-3.907-.583,10.431,10.431,0,0,1-6.98-6.4,10.093,10.093,0,0,0-4.795-.1c-.474.063-.948.128-1.42.172a45.824,45.824,0,0,1-7.34.123c-1.595-.1-3.352-.4-4.316-1.794a3.919,3.919,0,0,1,.469-4.7,7.962,7.962,0,0,1,4.109-2.361,26.252,26.252,0,0,1,17.948.488.483.483,0,0,1-.358.9,25.252,25.252,0,0,0-17.278-.469,7.117,7.117,0,0,0-3.666,2.048,2.99,2.99,0,0,0-.428,3.556c.73,1.06,2.222,1.29,3.584,1.378a44.72,44.72,0,0,0,7.184-.119c.46-.044.923-.107,1.385-.169a10.508,10.508,0,0,1,5.5.246.494.494,0,0,1,.288.33c.044.172,1.137,4.251,6.417,5.969,3.147,1.027,7.247.565,10.961-1.234a.482.482,0,1,1,.421.867A18.072,18.072,0,0,1,1825.406,1239.481Z" transform="translate(-1796.063 -1222.479)"/>
      </g>
      <g id="Grupo_1009943" data-name="Grupo 1009943" transform="translate(958.605 438.566)">
        <path id="Trazado_735435" data-name="Trazado 735435" d="M1870.542,1060.3a.481.481,0,0,1-.281-.874c4.662-3.335,7.133-6.7,7.556-10.283.781-6.594-5.225-13.515-12.825-22.28-1.5-1.731-3.059-3.526-4.627-5.395a.483.483,0,1,1,.739-.623c1.566,1.866,3.119,3.656,4.616,5.383,7.758,8.944,13.885,16.007,13.058,23.024-.458,3.87-3.059,7.452-7.954,10.954A.459.459,0,0,1,1870.542,1060.3Z" transform="translate(-1860.25 -1020.678)"/>
      </g>
      <g id="Grupo_1009944" data-name="Grupo 1009944" transform="translate(849.108 402.476)">
        <path id="Trazado_735436" data-name="Trazado 735436" d="M1374.7,876.314c-4.423,0-7.912-.848-8.277-2.87-.286-1.59,1.239-3.156,4.537-4.658a.483.483,0,0,1,.4.879c-2.764,1.26-4.179,2.54-3.988,3.609.339,1.866,6.7,2.868,15.282,1.318a39.5,39.5,0,0,0,10.273-3.177c2.41-1.211,3.749-2.485,3.582-3.407-.109-.607-.516-1.225-2.736-1.646a.484.484,0,1,1,.179-.951c2.227.423,3.275,1.148,3.505,2.424.26,1.432-1.157,2.968-4.1,4.442a40.472,40.472,0,0,1-10.533,3.263A47.164,47.164,0,0,1,1374.7,876.314Z" transform="translate(-1366.384 -865.402)"/>
      </g>
      <g id="Grupo_1009945" data-name="Grupo 1009945" transform="translate(1011.642 443.525)">
        <path id="Trazado_735437" data-name="Trazado 735437" d="M2114.524,1047.92a.483.483,0,0,1-.414-.235c-2.038-3.4-4.609-4.895-8.146-4.69a7.177,7.177,0,0,0-5.65,2.882.482.482,0,0,1-.746-.611,8.147,8.147,0,0,1,6.338-3.236c3.863-.214,6.817,1.464,9.032,5.16a.483.483,0,0,1-.167.662A.5.5,0,0,1,2114.524,1047.92Z" transform="translate(-2099.457 -1042.012)"/>
      </g>
      <g id="Grupo_1009946" data-name="Grupo 1009946" transform="translate(993.98 441.589)">
        <path id="Trazado_735438" data-name="Trazado 735438" d="M2045.629,1084.574c-.795,0-1.581-.026-2.362-.074a.482.482,0,0,1-.451-.514.475.475,0,0,1,.514-.451c18.317,1.183,42.125-12.179,57.026-24.054a47.858,47.858,0,0,0-4.286-13.058,30.684,30.684,0,0,0-11.554-11.719l-18.861,9.636a.481.481,0,1,1-.437-.858l19.087-9.75a.482.482,0,0,1,.437,0,31.036,31.036,0,0,1,12.187,12.24,49.142,49.142,0,0,1,4.432,13.641.485.485,0,0,1-.177.451C2086.786,1071.584,2063.976,1084.574,2045.629,1084.574Z" transform="translate(-2042.815 -1033.68)"/>
      </g>
      <g id="Grupo_1009947" data-name="Grupo 1009947" transform="translate(1034.526 400.849)">
        <path id="Trazado_735439" data-name="Trazado 735439" d="M2236.027,937.8a147.86,147.86,0,0,1-17.353-1.095.483.483,0,1,1,.126-.958c.313.044,31.5,4.021,39.287-3.721,9.92-9.864,4.69-19.473-1.365-30.594l-.418-.769c-6.278-11.549-20.977-38.594-38.629-41.3a.483.483,0,0,1,.146-.955c18.127,2.777,32.986,30.118,39.333,41.792l.418.769c5.983,10.987,11.631,21.365,1.2,31.738C2254.684,936.766,2244.905,937.8,2236.027,937.8Z" transform="translate(-2217.264 -858.399)"/>
      </g>
      <g id="Grupo_1009948" data-name="Grupo 1009948" transform="translate(921.273 367.25)">
        <path id="Trazado_735440" data-name="Trazado 735440" d="M1691.961,726.371a.472.472,0,0,1-.321-.123,5.079,5.079,0,0,1-1.7-2.949,1.87,1.87,0,0,1,.549-1.4,2.082,2.082,0,0,1,1.524-.667,3.063,3.063,0,0,1,1.643.556c.3-2.657.5-6.385-.037-7.2a.483.483,0,1,1,.806-.532c.967,1.474.24,7.514.086,8.711a.483.483,0,0,1-.823.277,2.848,2.848,0,0,0-1.674-.844,1.131,1.131,0,0,0-.834.377.884.884,0,0,0-.274.688,4.207,4.207,0,0,0,1.383,2.261.486.486,0,0,1-.325.844Z" transform="translate(-1689.936 -713.841)"/>
      </g>
      <g id="Grupo_1009949" data-name="Grupo 1009949" transform="translate(914.673 352.58)">
        <path id="Trazado_735441" data-name="Trazado 735441" d="M1661.925,653.891a.487.487,0,0,1-.4-.2l-1.555-2.2a.483.483,0,1,1,.788-.558l1.555,2.2a.482.482,0,0,1-.116.674A.462.462,0,0,1,1661.925,653.891Z" transform="translate(-1659.886 -650.727)"/>
      </g>
      <g id="Grupo_1009950" data-name="Grupo 1009950" transform="translate(1021.551 359.924)">
        <path id="Trazado_735442" data-name="Trazado 735442" d="M2155.555,703.706a.478.478,0,0,1-.328-.128c-1.13-1.041-3.684-1.306-5.548-1.5a15,15,0,0,1-1.862-.26c-1.606-.421-2.087-4.96-2.2-6.341l-.4-1.541a.482.482,0,0,1,.118-.449,18.115,18.115,0,0,0,4.581-10.7.489.489,0,0,1,.339-.446.483.483,0,0,1,.532.177c.207.281,5.2,6.873,15,4.583a.482.482,0,1,1,.219.939,15.743,15.743,0,0,1-15.231-4.088,18.692,18.692,0,0,1-4.558,10l.344,1.364c.232,2.852.925,5.416,1.492,5.564a13.851,13.851,0,0,0,1.718.233c2,.207,4.739.49,6.105,1.75a.484.484,0,0,1,.028.683A.479.479,0,0,1,2155.555,703.706Z" transform="translate(-2145.209 -682.323)"/>
      </g>
      <g id="Grupo_1009951" data-name="Grupo 1009951" transform="translate(1034.391 381.026)">
        <path id="Trazado_735443" data-name="Trazado 735443" d="M2221,774.694a.485.485,0,0,1-.26-.077,4.989,4.989,0,0,0-3.452-.4.482.482,0,0,1-.244-.932,5.919,5.919,0,0,1,4.219.514.483.483,0,0,1-.262.89Z" transform="translate(-2216.681 -773.112)"/>
      </g>
      <g id="Grupo_1009952" data-name="Grupo 1009952" transform="translate(1056.905 479.262)">
        <path id="Trazado_735444" data-name="Trazado 735444" d="M2318.55,1241.886a.483.483,0,0,1-.458-.33c-4.848-14.469-4.544-45-4.539-45.309a.481.481,0,1,1,.962.012c0,.3-.307,30.678,4.488,44.991a.483.483,0,0,1-.3.611A.4.4,0,0,1,2318.55,1241.886Z" transform="translate(-2313.548 -1195.77)"/>
      </g>
      <g id="Grupo_1009953" data-name="Grupo 1009953" transform="translate(984.256 503.158)">
        <path id="Trazado_735445" data-name="Trazado 735445" d="M1974.35,1320.8a.481.481,0,0,1-.481-.448c-.576-8.149-.007-21.179,0-21.311a.481.481,0,0,1,.481-.46.487.487,0,0,1,.483.5c-.007.13-.574,13.107,0,21.2a.487.487,0,0,1-.449.516Z" transform="translate(-1973.611 -1298.58)"/>
      </g>
      <g id="Grupo_1009954" data-name="Grupo 1009954" transform="translate(1010.863 395.942)">
        <path id="Trazado_735446" data-name="Trazado 735446" d="M2110.2,869.051a.492.492,0,0,1-.439-.281l-11.41-24.888a.481.481,0,0,1,.086-.53l5.513-5.908a.483.483,0,0,1,.707,0l14.2,15.273,3.907-14.905a.487.487,0,0,1,.386-.353.474.474,0,0,1,.481.2l3.886,5.748a.489.489,0,0,1,.081.27v21.137a.482.482,0,0,1-.334.46.487.487,0,0,1-.54-.177l-7.589-10.534-8.521,14.252A.487.487,0,0,1,2110.2,869.051Zm-10.838-25.279,10.894,23.761,8.242-13.783-14.2-15.273Zm20.261,9.818,7.01,9.729V843.828l-3.208-4.744Z" transform="translate(-2098.31 -837.29)"/>
      </g>
      <g id="Grupo_1009955" data-name="Grupo 1009955" transform="translate(1024.224 423.794)">
        <path id="Trazado_735447" data-name="Trazado 735447" d="M2162.206,977.2a.484.484,0,0,1-.463-.342c-3.052-9.959-6.7-18.987-6.74-19.078a.482.482,0,1,1,.893-.362c.037.091,3.7,9.153,6.771,19.156a.486.486,0,0,1-.321.6A.415.415,0,0,1,2162.206,977.2Z" transform="translate(-2154.968 -957.118)"/>
      </g>
      <g id="Grupo_1009956" data-name="Grupo 1009956" transform="translate(1034.524 422.045)">
        <path id="Trazado_735448" data-name="Trazado 735448" d="M2219.183,969.3a.483.483,0,0,1-.483-.472,132.932,132.932,0,0,0-1.437-18.659.48.48,0,0,1,.388-.56.474.474,0,0,1,.56.388,133.09,133.09,0,0,1,1.451,18.813.48.48,0,0,1-.472.493S2219.185,969.3,2219.183,969.3Z" transform="translate(-2217.255 -949.597)"/>
      </g>
      <g id="Grupo_1009957" data-name="Grupo 1009957" transform="translate(837.934 353.266)">
        <path id="Trazado_735449" data-name="Trazado 735449" d="M1315.963,664.338a.482.482,0,0,1-.17-.934l26.039-9.7a.482.482,0,1,1,.337.9l-26.039,9.7A.464.464,0,0,1,1315.963,664.338Z" transform="translate(-1315.479 -653.675)"/>
      </g>
      <g id="Grupo_1009958" data-name="Grupo 1009958" transform="translate(841.608 364.448)">
        <path id="Trazado_735450" data-name="Trazado 735450" d="M1332.583,712.446a.482.482,0,0,1-.169-.934l26.039-9.694a.482.482,0,1,1,.337.9l-26.039,9.7A.526.526,0,0,1,1332.583,712.446Z" transform="translate(-1332.099 -701.785)"/>
      </g>
      <g id="Grupo_1009959" data-name="Grupo 1009959" transform="translate(845.276 375.629)">
        <path id="Trazado_735451" data-name="Trazado 735451" d="M1349.183,760.554a.482.482,0,0,1-.17-.934l26.041-9.7a.482.482,0,1,1,.337.9l-26.041,9.7A.465.465,0,0,1,1349.183,760.554Z" transform="translate(-1348.699 -749.893)"/>
      </g>
      <g id="Grupo_1009960" data-name="Grupo 1009960" transform="translate(1017.171 442.913)">
        <path id="Trazado_735452" data-name="Trazado 735452" d="M2125.722,1040.974a.482.482,0,0,1-.021-.964c.1,0,10.336-.439,19.263-.63a.482.482,0,0,1,.021.965c-8.918.191-19.143.625-19.245.63Z" transform="translate(-2125.238 -1039.38)"/>
      </g>
      <g id="Grupo_1009961" data-name="Grupo 1009961" transform="translate(1045.559 444.657)">
        <path id="Trazado_735453" data-name="Trazado 735453" d="M2293.189,1062.105a.483.483,0,0,1-.462-.344c-2.185-7.217-5.3-11.407-10.092-13.576l-.932-.151c-8.512-1.427-16.075,5.9-16.151,5.98a.482.482,0,0,1-.679-.686c.321-.318,7.958-7.754,16.988-6.245l.992.16a.56.56,0,0,1,.121.035c5.1,2.285,8.4,6.666,10.678,14.206a.484.484,0,0,1-.323.6A.569.569,0,0,1,2293.189,1062.105Z" transform="translate(-2264.731 -1046.882)"/>
      </g>
      <g id="Grupo_1009962" data-name="Grupo 1009962" transform="translate(1046.849 437.821)">
        <path id="Trazado_735454" data-name="Trazado 735454" d="M2287.685,1025.462a.514.514,0,0,1-.144-.021.479.479,0,0,1-.316-.6c.04-.137.96-3.444-4.214-5.7-5.365-2.329-11.915,1.927-11.982,1.971a.481.481,0,0,1-.532-.8c.283-.188,7.052-4.6,12.9-2.052,6,2.61,4.762,6.829,4.749,6.868A.478.478,0,0,1,2287.685,1025.462Z" transform="translate(-2270.281 -1017.469)"/>
      </g>
      <g id="Grupo_1009963" data-name="Grupo 1009963" transform="translate(1035.479 434.565)">
        <path id="Trazado_735455" data-name="Trazado 735455" d="M2221.845,1011.363a.473.473,0,0,1-.309-.112.485.485,0,0,1-.062-.681c.127-.153,3.209-3.8,10.285-6.373a10.187,10.187,0,0,1,11.54,2.759.479.479,0,0,1-.09.676.485.485,0,0,1-.677-.086c-.155-.2-3.839-4.846-10.445-2.443-6.831,2.489-9.843,6.048-9.874,6.085A.464.464,0,0,1,2221.845,1011.363Z" transform="translate(-2221.362 -1003.461)"/>
      </g>
      <g id="Grupo_1009964" data-name="Grupo 1009964" transform="translate(926.036 412.424)">
        <path id="Trazado_735456" data-name="Trazado 735456" d="M1711.451,1006.407a.482.482,0,0,1-.481-.484v-97.24a.482.482,0,1,1,.964,0v97.242A.482.482,0,0,1,1711.451,1006.407Z" transform="translate(-1710.97 -908.2)"/>
      </g>
      <g id="Grupo_1009965" data-name="Grupo 1009965" transform="translate(931.046 422.941)">
        <path id="Trazado_735457" data-name="Trazado 735457" d="M1736.383,958.2a2.373,2.373,0,1,1,2.373-2.373A2.376,2.376,0,0,1,1736.383,958.2Zm0-3.782a1.409,1.409,0,1,0,1.408,1.409A1.411,1.411,0,0,0,1736.383,954.414Z" transform="translate(-1734.01 -953.45)"/>
      </g>
      <g id="Grupo_1009966" data-name="Grupo 1009966" transform="translate(931.046 447.188)">
        <path id="Trazado_735458" data-name="Trazado 735458" d="M1736.383,1062.516a2.373,2.373,0,1,1,2.373-2.373A2.376,2.376,0,0,1,1736.383,1062.516Zm0-3.779a1.409,1.409,0,1,0,1.408,1.409A1.411,1.411,0,0,0,1736.383,1058.737Z" transform="translate(-1734.01 -1057.77)"/>
      </g>
      <g id="Grupo_1009967" data-name="Grupo 1009967" transform="translate(931.046 471.446)">
        <path id="Trazado_735459" data-name="Trazado 735459" d="M1736.383,1166.886a2.373,2.373,0,1,1,2.373-2.373A2.376,2.376,0,0,1,1736.383,1166.886Zm0-3.781a1.408,1.408,0,1,0,1.408,1.408A1.411,1.411,0,0,0,1736.383,1163.1Z" transform="translate(-1734.01 -1162.14)"/>
      </g>
      <g id="Grupo_1009968" data-name="Grupo 1009968" transform="translate(931.046 471.446)">
        <path id="Trazado_735460" data-name="Trazado 735460" d="M1736.383,1166.886a2.373,2.373,0,1,1,2.373-2.373A2.376,2.376,0,0,1,1736.383,1166.886Zm0-3.781a1.408,1.408,0,1,0,1.408,1.408A1.411,1.411,0,0,0,1736.383,1163.1Z" transform="translate(-1734.01 -1162.14)"/>
      </g>
      <g id="Grupo_1009969" data-name="Grupo 1009969" transform="translate(931.046 495.693)">
        <path id="Trazado_735461" data-name="Trazado 735461" d="M1736.383,1271.206a2.373,2.373,0,1,1,2.373-2.373A2.374,2.374,0,0,1,1736.383,1271.206Zm0-3.779a1.409,1.409,0,1,0,1.408,1.409A1.411,1.411,0,0,0,1736.383,1267.427Z" transform="translate(-1734.01 -1266.46)"/>
      </g>
      <g id="Grupo_1009970" data-name="Grupo 1009970" transform="translate(1025.881 419.083)">
        <path id="Trazado_735462" data-name="Trazado 735462" d="M2167.948,945.472a.474.474,0,0,1-.391-.2l-4.391-6.09a.483.483,0,0,1,.783-.565l4.23,5.866,4.818-.456.541-6.731a.482.482,0,0,1,.96.077l-.574,7.133a.482.482,0,0,1-.437.442l-5.5.521A.284.284,0,0,1,2167.948,945.472Z" transform="translate(-2163.075 -936.852)"/>
      </g>
      <g id="Grupo_1009971" data-name="Grupo 1009971" transform="translate(1029.56 426.739)">
        <path id="Trazado_735463" data-name="Trazado 735463" d="M2178.556,982.583a.489.489,0,0,1-.481-.518l.9-11.828a.483.483,0,0,1,.962.074l-.9,11.828A.48.48,0,0,1,2178.556,982.583Z" transform="translate(-2178.073 -969.791)"/>
      </g>
      <g id="Grupo_1009972" data-name="Grupo 1009972" transform="translate(1031.816 426.219)">
        <path id="Trazado_735464" data-name="Trazado 735464" d="M2210.007,976.379a.481.481,0,0,1-.432-.267l-3.921-7.863a.485.485,0,0,1,.218-.649.491.491,0,0,1,.649.219l3.919,7.863a.486.486,0,0,1-.219.649A.492.492,0,0,1,2210.007,976.379Z" transform="translate(-2205.603 -967.552)"/>
      </g>
      <g id="Grupo_1009973" data-name="Grupo 1009973" transform="translate(794.475 377.899)">
        <path id="Trazado_735465" data-name="Trazado 735465" d="M1123.2,775.472c-2.429,0-4.653-3.14-5.151-7.373a11.618,11.618,0,0,1,.611-5.615c.674-1.66,1.745-2.657,3.017-2.805,2.536-.318,4.958,2.929,5.478,7.352a10.706,10.706,0,0,1-.119,3.93.482.482,0,1,1-.939-.219,9.68,9.68,0,0,0,.1-3.6c-.442-3.754-2.41-6.717-4.409-6.506-.9.107-1.7.893-2.236,2.21a10.712,10.712,0,0,0-.546,5.141c.442,3.754,2.415,6.722,4.409,6.5a1.95,1.95,0,0,0,1.583-1.032.483.483,0,1,1,.806.532,2.9,2.9,0,0,1-2.278,1.457A2.541,2.541,0,0,1,1123.2,775.472Z" transform="translate(-1117.955 -759.657)"/>
      </g>
      <g id="Grupo_1009974" data-name="Grupo 1009974" transform="translate(805.457 375.839)">
        <path id="Trazado_735466" data-name="Trazado 735466" d="M1172.78,766.61c-2.426,0-4.651-3.14-5.148-7.373a11.618,11.618,0,0,1,.611-5.615c.674-1.66,1.746-2.657,3.017-2.805s2.543.574,3.584,2.029a12.648,12.648,0,0,1,1.283,10.936c-.674,1.66-1.746,2.657-3.017,2.805A2.277,2.277,0,0,1,1172.78,766.61Zm-1.2-14.847c-.072,0-.142,0-.214.012-.9.107-1.7.892-2.236,2.21a10.681,10.681,0,0,0-.546,5.141c.441,3.754,2.424,6.722,4.409,6.5.9-.107,1.7-.892,2.236-2.21a11.7,11.7,0,0,0-1.176-10.013A3.277,3.277,0,0,0,1171.583,751.763Z" transform="translate(-1167.535 -750.794)"/>
      </g>
      <g id="Grupo_1009975" data-name="Grupo 1009975" transform="translate(802.404 383.964)">
        <path id="Trazado_735467" data-name="Trazado 735467" d="M1153.981,787.8a.485.485,0,0,1-.242-.065.479.479,0,0,1-.177-.658,2.864,2.864,0,0,1,4.1-.813.482.482,0,1,1-.467.844c-1.892-1.046-2.761.393-2.8.453A.48.48,0,0,1,1153.981,787.8Z" transform="translate(-1153.497 -785.751)"/>
      </g>
      <g id="Grupo_1009976" data-name="Grupo 1009976" transform="translate(767.98 466.484)">
        <path id="Trazado_735468" data-name="Trazado 735468" d="M1073.546,1169.285c-.174,0-.351-.007-.528-.023l-60.089-5.39a5.727,5.727,0,0,1-4.648-3.247l-7.054-14.927a.483.483,0,0,1,.874-.411l7.054,14.926a4.766,4.766,0,0,0,3.863,2.7l60.089,5.39a4.744,4.744,0,0,0,4.711-6.75l-9.485-20.073a.482.482,0,0,1,.872-.411l9.485,20.072a5.708,5.708,0,0,1-5.144,8.146Z" transform="translate(-1001.18 -1140.79)"/>
      </g>
      <g id="Grupo_1009977" data-name="Grupo 1009977" transform="translate(757.422 433.744)">
        <path id="Trazado_735469" data-name="Trazado 735469" d="M1016,1023a.484.484,0,0,1-.437-.277L1009.079,1009a4.762,4.762,0,0,0-3.863-2.7l-60.089-5.39a4.74,4.74,0,0,0-4.709,6.747l3.117,6.594a.483.483,0,0,1-.874.411l-3.117-6.594a5.7,5.7,0,0,1,5.669-8.119l60.089,5.39a5.725,5.725,0,0,1,4.648,3.247l6.487,13.727a.478.478,0,0,1-.435.686Z" transform="translate(-938.988 -999.929)"/>
      </g>
      <g id="Grupo_1009978" data-name="Grupo 1009978" transform="translate(759.636 430.917)">
        <path id="Trazado_735470" data-name="Trazado 735470" d="M1036.575,1050.509a.482.482,0,0,1-.342-.825l4.126-4.077a4.678,4.678,0,0,0,.144-4.335l-21-44.433a4.765,4.765,0,0,0-3.863-2.7l-60.087-5.392a4.771,4.771,0,0,0-1.957.228l-4.3,3.431a.483.483,0,0,1-.6-.755l4.365-3.482a.454.454,0,0,1,.14-.077,5.769,5.769,0,0,1,2.443-.307l60.089,5.39a5.724,5.724,0,0,1,4.649,3.247l21,44.433a5.615,5.615,0,0,1-.214,5.283.565.565,0,0,1-.077.1l-4.172,4.123A.484.484,0,0,1,1036.575,1050.509Z" transform="translate(-948.514 -987.767)"/>
      </g>
      <g id="Grupo_1009979" data-name="Grupo 1009979" transform="translate(789.648 359.793)">
        <path id="Trazado_735471" data-name="Trazado 735471" d="M1134.109,725.7c-3.161,0-5.42-.792-6.743-2.368a5.782,5.782,0,0,1-1.478-4.435c.342-3.2,3.326-5.541,3.452-5.641a.484.484,0,0,1,.593.765c-.028.021-2.789,2.2-3.084,4.983a4.861,4.861,0,0,0,1.26,3.707c1.529,1.825,4.656,2.422,9.292,1.776,3.861-.542,8.451-1.541,9.711-4.493a5.059,5.059,0,0,0,.3-2.268,12.5,12.5,0,0,0-2.943-7.563l-.358-.4c-1.543-1.736-2.877-3.233-2.115-6.038a15,15,0,0,0-2.243-12.1,6.074,6.074,0,0,0-4.714-2.661h-2.519a.481.481,0,0,1-.409-.228l-.986-1.583c-3.935-5.609-8.611-4.658-13.56-3.651a26.654,26.654,0,0,1-7,.795c-3.712-.228-6.966.751-8.944,2.694-1.741,1.713-2.55,4.144-2.405,7.231a5.151,5.151,0,0,0,2.282,4.2c1.69,1.088,5.069,1.829,11.607-.79,6.468-2.592,10.443-3.819,11.177-3.442a.484.484,0,0,1,.26.367c.009.074.962,7.38,2.663,9.437a.484.484,0,1,1-.746.616c-1.65-2-2.592-7.921-2.822-9.532-.641.093-3.012.579-10.173,3.449-6.919,2.773-10.61,1.915-12.488.7a6.031,6.031,0,0,1-2.726-4.967c-.156-3.37.751-6.05,2.694-7.963,2.975-2.924,7.349-3.115,9.683-2.968a26.308,26.308,0,0,0,6.74-.779c5.037-1.025,10.248-2.083,14.557,4.065l.855,1.378h2.252a6.9,6.9,0,0,1,5.481,3.038,15.794,15.794,0,0,1,2.405,12.937c-.623,2.3.437,3.491,1.9,5.144l.363.407a13.473,13.473,0,0,1,3.182,8.153,6.168,6.168,0,0,1-.374,2.692c-1.632,3.833-7.821,4.7-10.464,5.069A23.648,23.648,0,0,1,1134.109,725.7Z" transform="translate(-1098.236 -681.761)"/>
      </g>
      <g id="Grupo_1009980" data-name="Grupo 1009980" transform="translate(783.026 488.955)">
        <path id="Trazado_735472" data-name="Trazado 735472" d="M1049.631,1273.894a.463.463,0,0,1-.2-.044.482.482,0,0,1-.237-.639c4.3-9.383,4.04-34.994,4.037-35.252a.482.482,0,1,1,.965-.011c.014,1.06.27,26.087-4.125,35.666A.486.486,0,0,1,1049.631,1273.894Z" transform="translate(-1049.15 -1237.47)"/>
      </g>
      <g id="Grupo_1009981" data-name="Grupo 1009981" transform="translate(796.259 394.842)">
        <path id="Trazado_735473" data-name="Trazado 735473" d="M1133.441,844.04c-2.729,0-5.429-.793-6.62-3.154-2.152-4.265,2.1-8.17,2.138-8.207a.482.482,0,1,1,.646.716c-.153.139-3.742,3.449-1.922,7.054,1.839,3.647,8.351,2.8,11.266,1.562a.492.492,0,0,1,.635.256.486.486,0,0,1-.256.635A16.01,16.01,0,0,1,1133.441,844.04Z" transform="translate(-1126.214 -832.555)"/>
      </g>
      <g id="Grupo_1009982" data-name="Grupo 1009982" transform="translate(751.981 441.336)">
        <path id="Trazado_735474" data-name="Trazado 735474" d="M930.135,1063.188c-5.032,0-9.039-1.2-10.7-3.322a16.559,16.559,0,0,1-2.829-6.292,34.7,34.7,0,0,1-.8-12.314c.528-4.525,5.767-8.407,5.987-8.572a.483.483,0,0,1,.569.781c-.051.037-5.12,3.8-5.6,7.9a33.784,33.784,0,0,0,.779,11.968,15.646,15.646,0,0,0,2.652,5.934c1.541,1.971,6.427,3.577,13.859,2.717,2.227-.256,6.25-1.952,5.932-4.888a2.609,2.609,0,0,0-1.378-2.025.482.482,0,1,1,.462-.846,3.561,3.561,0,0,1,1.876,2.766c.381,3.487-3.821,5.613-6.78,5.95A35.41,35.41,0,0,1,930.135,1063.188Z" transform="translate(-915.58 -1032.595)"/>
      </g>
      <g id="Grupo_1009983" data-name="Grupo 1009983" transform="translate(757.167 446.648)">
        <path id="Trazado_735475" data-name="Trazado 735475" d="M950.976,1066.385a71.378,71.378,0,0,1-11.3-1.118.483.483,0,0,1,.351-.9c.806.314,10.011,1.309,12.079,1l.36-.049c.895-.119,2.25-.3,2.719-1.055a3.868,3.868,0,0,0,.451-3.349,4.149,4.149,0,0,0-2.069-2.19,5.187,5.187,0,0,0-2.831-.349c-.263.016-.525.03-.786.037-9.983.254-11.793-1.955-11.97-2.208a.483.483,0,0,1,.783-.565c.051.06,1.855,2.027,11.163,1.811.251-.007.5-.021.755-.035a5.969,5.969,0,0,1,3.345.46,5.071,5.071,0,0,1,2.517,2.715,4.827,4.827,0,0,1-.539,4.184c-.711,1.146-2.338,1.36-3.414,1.5l-.346.047A9.917,9.917,0,0,1,950.976,1066.385Z" transform="translate(-937.893 -1055.446)"/>
      </g>
      <g id="Grupo_1009984" data-name="Grupo 1009984" transform="translate(787.777 431.339)">
        <path id="Trazado_735476" data-name="Trazado 735476" d="M1087.833,992.448a.483.483,0,0,1-.483-.484v-1.9a.484.484,0,0,1,.967,0v1.9A.486.486,0,0,1,1087.833,992.448Z" transform="translate(-1087.35 -989.58)"/>
      </g>
      <g id="Grupo_1009985" data-name="Grupo 1009985" transform="translate(758.349 455.862)">
        <path id="Trazado_735477" data-name="Trazado 735477" d="M953.154,1104.239a80.126,80.126,0,0,1-9.762-.69.482.482,0,1,1,.137-.955,68.152,68.152,0,0,0,13.269.516c2-.2,4.056-1.506,3.844-3.889a4.771,4.771,0,0,0-2.08-3.247.484.484,0,1,1,.544-.8,5.693,5.693,0,0,1,2.5,3.958c.27,3.033-2.252,4.686-4.709,4.937A36.659,36.659,0,0,1,953.154,1104.239Z" transform="translate(-942.977 -1095.091)"/>
      </g>
      <g id="Grupo_1009986" data-name="Grupo 1009986" transform="translate(790.874 458.55)">
        <path id="Trazado_735478" data-name="Trazado 735478" d="M1107.833,1117.831c-1.759,0-3.779-1.339-5.044-3.531-1.655-2.864-1.4-6.117.56-7.249s4.909.274,6.559,3.138,1.4,6.115-.562,7.25A3,3,0,0,1,1107.833,1117.831Zm-2.931-10.222a2.129,2.129,0,0,0-1.071.276c-1.5.867-1.594,3.528-.207,5.932s3.735,3.649,5.239,2.784,1.6-3.528.209-5.931C1107.984,1108.785,1106.3,1107.609,1104.9,1107.609Z" transform="translate(-1101.697 -1106.657)"/>
      </g>
      <g id="Grupo_1009987" data-name="Grupo 1009987" transform="translate(808.041 402.724)">
        <path id="Trazado_735479" data-name="Trazado 735479" d="M1183.951,887.53a2.056,2.056,0,0,1-.674-.107c-2.987-1.037-1.987-10.2-1.722-12.263l-1.8-7.844a.482.482,0,0,1,.363-.579.477.477,0,0,1,.579.363l1.815,7.93a.479.479,0,0,1,.01.172c-.57,4.344-.614,10.726,1.069,11.312,2.529.883,9.873-7.1,14.017-12.465l-1.594-6.989a.482.482,0,0,1,.363-.579.475.475,0,0,1,.579.363l1.646,7.21a.488.488,0,0,1-.086.4C1197.441,875.855,1188.349,887.53,1183.951,887.53Z" transform="translate(-1179.746 -866.467)"/>
      </g>
      <g id="Grupo_1009988" data-name="Grupo 1009988" transform="translate(817.826 367.008)">
        <path id="Trazado_735480" data-name="Trazado 735480" d="M1223.564,715.41a.482.482,0,0,1-.211-.916l3.377-1.646a.482.482,0,1,1,.423.867l-3.377,1.646A.486.486,0,0,1,1223.564,715.41Z" transform="translate(-1223.082 -712.799)"/>
      </g>
      <g id="Grupo_1009989" data-name="Grupo 1009989" transform="translate(929.123 310.858)">
        <path id="Trazado_735481" data-name="Trazado 735481" d="M1830.673,514.974a.482.482,0,0,1-.444-.3c-.95-2.259-1.362-3.389-2.043-5.26l-.555-1.518a3.646,3.646,0,0,1,.012-2.522c.788-1.748,1.608-3.477,2.433-5.209.869-1.827,1.739-3.654,2.564-5.5a1.825,1.825,0,0,0-.179-1.469c-1.534-1.639-3.145-3.266-4.7-4.837-1.192-1.206-2.387-2.41-3.561-3.635a1.156,1.156,0,0,0-1.678-.265c-3.844,1.906-7.224,3.51-10.334,4.9a3.95,3.95,0,0,1-2.71.121c-3.347-1.206-6.675-2.508-9.892-3.87a4.09,4.09,0,0,1-2.12-1.983c-1.178-2.929-2.334-6.066-3.735-10.173-.325-.955-.618-1.281-1.622-1.267-3.661.088-7.407.093-11.463,0-.948-.026-1.325.258-1.664,1.243-.555,1.627-1.15,3.242-1.743,4.855-.628,1.706-1.253,3.41-1.836,5.13a3.43,3.43,0,0,1-2.438,2.343c-3.224,1.12-6.331,2.364-9.241,3.7a3.466,3.466,0,0,1-3.365-.035c-1.715-.862-3.449-1.692-5.181-2.52-1.641-.786-3.284-1.569-4.909-2.385a1.283,1.283,0,0,0-1.85.323c-2.929,3.056-5.583,5.706-8.109,8.1-.732.693-.7,1.113-.251,2.029,1.469,2.968,3.187,6.5,4.793,10.171a3.946,3.946,0,0,1-.063,2.866l-.181.421c-.293.686-.427,1-.809,1.846a.483.483,0,0,1-.881-.4c.381-.841.511-1.148.8-1.829l.181-.423a3,3,0,0,0,.065-2.1c-1.6-3.651-3.312-7.17-4.774-10.129a2.31,2.31,0,0,1,.453-3.159c2.517-2.385,5.16-5.023,8.077-8.068a2.223,2.223,0,0,1,2.979-.518c1.623.811,3.259,1.594,4.9,2.378,1.739.83,3.477,1.662,5.2,2.529a2.524,2.524,0,0,0,2.531.021c2.936-1.346,6.073-2.6,9.327-3.733a2.468,2.468,0,0,0,1.839-1.743c.586-1.727,1.216-3.44,1.843-5.153.593-1.608,1.183-3.217,1.739-4.837a2.374,2.374,0,0,1,2.6-1.9c4.035.086,7.772.084,11.417,0a2.313,2.313,0,0,1,2.561,1.92c1.4,4.088,2.543,7.212,3.717,10.124a3.2,3.2,0,0,0,1.6,1.455c3.2,1.355,6.508,2.652,9.841,3.851a3,3,0,0,0,1.99-.093c3.1-1.388,6.466-2.984,10.3-4.883a2.092,2.092,0,0,1,2.8.462c1.171,1.22,2.361,2.422,3.552,3.624,1.562,1.578,3.175,3.207,4.718,4.858a2.7,2.7,0,0,1,.356,2.524c-.827,1.855-1.7,3.689-2.573,5.522-.82,1.725-1.641,3.449-2.424,5.19a2.661,2.661,0,0,0,.012,1.792l.555,1.52c.676,1.857,1.085,2.98,2.027,5.216a.482.482,0,0,1-.258.632A.532.532,0,0,1,1830.673,514.974Z" transform="translate(-1738.769 -471.219)"/>
      </g>
      <g id="Grupo_1009990" data-name="Grupo 1009990" transform="translate(954.473 347.756)">
        <path id="Trazado_735482" data-name="Trazado 735482" d="M1868.323,675.521a22.822,22.822,0,0,1-16.119-38.9,22.795,22.795,0,1,1,16.124,38.9Zm.181-44.584a21.935,21.935,0,0,0-15.619,6.371,21.823,21.823,0,0,0,15.438,37.251,21.811,21.811,0,0,0,.23-43.622Z" transform="translate(-1845.58 -629.97)"/>
      </g>
      <g id="Grupo_1009991" data-name="Grupo 1009991" transform="translate(957.445 388.326)">
        <path id="Trazado_735483" data-name="Trazado 735483" d="M1876.264,814.183a27.477,27.477,0,0,1-20.2-8.853.482.482,0,1,1,.711-.651,26.511,26.511,0,0,0,19.494,8.539,27.373,27.373,0,0,0,4.2-.328.483.483,0,1,1,.146.955,28.366,28.366,0,0,1-4.344.337Z" transform="translate(-1855.932 -804.522)"/>
      </g>
      <g id="Grupo_1009992" data-name="Grupo 1009992" transform="translate(993.544 382.291)">
        <path id="Trazado_735484" data-name="Trazado 735484" d="M2016.943,787.9a.483.483,0,0,1-.311-.853,26.285,26.285,0,0,0,6.522-8.228.482.482,0,0,1,.86.437,27.194,27.194,0,0,1-6.759,8.53A.482.482,0,0,1,2016.943,787.9Z" transform="translate(-2016.46 -778.554)"/>
      </g>
      <g id="Grupo_1009993" data-name="Grupo 1009993" transform="translate(966.397 343.075)">
        <path id="Trazado_735485" data-name="Trazado 735485" d="M1921.635,614.783a.5.5,0,0,1-.256-.072,26.05,26.05,0,0,0-13.692-3.916,26.766,26.766,0,0,0-10.513,2.057.485.485,0,0,1-.63-.26.479.479,0,0,1,.26-.63,28.126,28.126,0,0,1,10.826-2.131,27.1,27.1,0,0,1,14.26,4.061.483.483,0,0,1-.256.893Z" transform="translate(-1896.506 -609.83)"/>
      </g>
      <g id="Grupo_1009994" data-name="Grupo 1009994" transform="translate(845.187 266.13)">
        <path id="Trazado_735486" data-name="Trazado 735486" d="M1404.3,368.562c-.028,0-.056,0-.084,0-2.615-.056-5.385-.058-8.47,0a1.818,1.818,0,0,1-1.959-1.4c-1.046-3.177-1.943-5.757-2.829-8.121a2.079,2.079,0,0,0-.962-.992c-1.046-.5-2.108-.958-3.17-1.42-1.318-.574-2.685-1.169-4-1.82a1.689,1.689,0,0,0-1.757-.056c-1.215.6-2.326,1.127-3.463,1.664-.683.323-1.378.651-2.113,1a.482.482,0,1,1-.418-.869c.737-.353,1.434-.683,2.117-1.006,1.132-.535,2.236-1.058,3.447-1.657a2.624,2.624,0,0,1,2.615.056c1.294.639,2.65,1.229,3.958,1.8,1.071.467,2.143.934,3.2,1.432a3.037,3.037,0,0,1,1.453,1.527c.89,2.378,1.792,4.969,2.843,8.158.2.6.393.762,1.025.737,3.1-.051,5.878-.053,8.507,0,.625,0,.862-.139,1.083-.825.93-2.9,1.843-5.52,2.8-8.021a3.226,3.226,0,0,1,1.585-1.608c2.3-1.076,4.783-2.152,7.37-3.2a2.949,2.949,0,0,1,2.106-.028c2.155.958,4.244,1.95,6.457,3l1.952.925,1.4-1.413c1.739-1.753,3.533-3.563,5.244-5.381a1.307,1.307,0,0,0,.044-.976c-.6-1.355-1.244-2.694-1.883-4.033-.576-1.211-1.153-2.419-1.706-3.642a2.884,2.884,0,0,1-.13-1.987c.962-2.771,1.89-5.23,2.829-7.517a3.134,3.134,0,0,1,1.587-1.613c2.143-.867,4.469-1.729,7.547-2.8.586-.2.728-.407.716-1.039-.053-3.091-.053-5.873,0-8.507.012-.658-.158-.885-.832-1.12-2.208-.76-4.813-1.685-7.407-2.75a3.434,3.434,0,0,1-1.65-1.706c-.888-2.055-1.79-4.342-2.84-7.2a2.821,2.821,0,0,1,.011-1.966c.583-1.295,1.192-2.578,1.8-3.861.644-1.357,1.29-2.712,1.9-4.084a1.26,1.26,0,0,0-.109-.955c-1.134-1.211-2.3-2.392-3.472-3.572-.89-.9-1.781-1.8-2.657-2.712-.379-.4-.586-.428-1.1-.17-2.847,1.413-5.357,2.6-7.672,3.637a3.054,3.054,0,0,1-2.1.093c-2.48-.892-4.951-1.859-7.344-2.875a3.171,3.171,0,0,1-1.641-1.539c-.865-2.143-1.72-4.472-2.775-7.554-.247-.72-.453-.886-1.083-.855-2.712.067-5.495.067-8.511,0-.616.012-.879.158-1.113.839-.414,1.209-.855,2.408-1.295,3.61-.462,1.262-.927,2.524-1.36,3.8a2.647,2.647,0,0,1-1.885,1.815c-2.382.827-4.686,1.748-6.845,2.738a2.678,2.678,0,0,1-2.606-.028c-1.276-.644-2.568-1.26-3.856-1.876-1.213-.581-2.426-1.16-3.63-1.762a.837.837,0,0,0-1.229.214c-2.171,2.268-4.142,4.235-6.02,6.013-.493.467-.476.723-.16,1.36,1.085,2.2,2.359,4.811,3.558,7.549a3.033,3.033,0,0,1-.044,2.224c-1.043,2.429-2.161,4.837-3.324,7.159a3.487,3.487,0,0,1-1.687,1.65c-2.508.955-5.023,1.8-8.026,2.782-.693.225-.858.442-.844,1.092.058,2.587.061,5.369,0,8.507-.012.63.123.818.72,1.011,2.44.788,5.32,1.739,8.17,2.822a3.462,3.462,0,0,1,1.662,1.7c.484,1.016.93,2.05,1.378,3.084.542,1.26,1.1,2.564,1.729,3.8a2.924,2.924,0,0,1,.056,2.905c-.607,1.216-1.186,2.443-1.764,3.67-.542,1.148-1.083,2.3-1.646,3.433-.316.635-.274.9.2,1.355,1.264,1.2,2.322,2.229,3.679,3.607a.484.484,0,0,1-.69.679c-1.348-1.369-2.4-2.387-3.656-3.586a1.849,1.849,0,0,1-.4-2.482c.56-1.132,1.1-2.273,1.636-3.417.581-1.234,1.162-2.468,1.773-3.689a1.963,1.963,0,0,0-.053-2.041c-.637-1.264-1.2-2.58-1.752-3.854-.442-1.023-.883-2.045-1.362-3.049a2.54,2.54,0,0,0-1.132-1.216c-2.831-1.078-5.694-2.024-8.123-2.805a1.746,1.746,0,0,1-1.387-1.948c.053-3.121.053-5.892,0-8.467a1.858,1.858,0,0,1,1.509-2.031c2.989-.976,5.492-1.818,7.981-2.766a2.561,2.561,0,0,0,1.169-1.181c1.153-2.306,2.264-4.7,3.3-7.105a2.108,2.108,0,0,0,.049-1.457c-1.192-2.722-2.457-5.323-3.54-7.51a1.837,1.837,0,0,1,.363-2.489c1.866-1.766,3.826-3.723,5.987-5.98a1.759,1.759,0,0,1,2.359-.411c1.2.6,2.406,1.176,3.614,1.755,1.295.618,2.592,1.239,3.872,1.885a1.739,1.739,0,0,0,1.771.012c2.185-1,4.516-1.936,6.931-2.773a1.718,1.718,0,0,0,1.285-1.213c.437-1.281.9-2.552,1.369-3.821.439-1.195.878-2.387,1.29-3.591a1.846,1.846,0,0,1,2.048-1.49c3,.065,5.767.065,8.465,0a1.831,1.831,0,0,1,2.022,1.506c1.048,3.066,1.9,5.381,2.756,7.505a2.239,2.239,0,0,0,1.12,1.011c2.378,1.009,4.832,1.969,7.3,2.854a2.062,2.062,0,0,0,1.381-.065c2.306-1.03,4.8-2.215,7.637-3.621a1.685,1.685,0,0,1,2.229.367c.871.909,1.759,1.806,2.645,2.7,1.174,1.185,2.35,2.373,3.491,3.591a2.121,2.121,0,0,1,.286,2.008c-.616,1.381-1.262,2.743-1.913,4.107-.607,1.276-1.215,2.554-1.794,3.842a1.893,1.893,0,0,0,.012,1.237c1.044,2.838,1.941,5.109,2.822,7.147a2.446,2.446,0,0,0,1.13,1.195c2.573,1.055,5.162,1.973,7.356,2.731a1.879,1.879,0,0,1,1.481,2.052c-.056,2.622-.058,5.392,0,8.47a1.8,1.8,0,0,1-1.365,1.969c-3.061,1.062-5.374,1.92-7.5,2.777a2.2,2.2,0,0,0-1.055,1.085c-.934,2.271-1.852,4.714-2.81,7.468a1.922,1.922,0,0,0,.1,1.274c.549,1.216,1.125,2.42,1.7,3.624.644,1.346,1.285,2.691,1.892,4.053a2.15,2.15,0,0,1-.223,2.034c-1.72,1.827-3.519,3.642-5.26,5.4l-1.639,1.655a.483.483,0,0,1-.549.1l-2.264-1.071c-2.206-1.048-4.291-2.036-6.436-2.989a1.974,1.974,0,0,0-1.353.039c-2.571,1.039-5.034,2.108-7.324,3.177a2.3,2.3,0,0,0-1.09,1.076c-.946,2.485-1.855,5.092-2.78,7.975A1.823,1.823,0,0,1,1404.3,368.562Z" transform="translate(-1354.427 -278.78)"/>
      </g>
      <g id="Grupo_1009995" data-name="Grupo 1009995" transform="translate(873.553 293.508)">
        <path id="Trazado_735487" data-name="Trazado 735487" d="M1494.337,430.616a17.056,17.056,0,0,1-12.044-29.074,17.036,17.036,0,1,1,12.049,29.074v0Zm.139-33.079a16.148,16.148,0,0,0-11.5,4.688,16.064,16.064,0,0,0,11.363,27.424,16.056,16.056,0,0,0,.172-32.112Z" transform="translate(-1477.34 -396.57)"/>
      </g>
      <g id="Grupo_1009996" data-name="Grupo 1009996" transform="translate(870.047 299.526)">
        <path id="Trazado_735488" data-name="Trazado 735488" d="M1459.916,439.583a.484.484,0,0,1-.465-.353,21.712,21.712,0,0,1-.781-5.79,21.452,21.452,0,0,1,2.859-10.736.482.482,0,1,1,.834.483,20.531,20.531,0,0,0-2.731,10.255,20.76,20.76,0,0,0,.746,5.532.482.482,0,0,1-.337.595A.763.763,0,0,1,1459.916,439.583Z" transform="translate(-1458.67 -422.464)"/>
      </g>
      <g id="Grupo_1009997" data-name="Grupo 1009997" transform="translate(884.589 315.68)">
        <path id="Trazado_735489" data-name="Trazado 735489" d="M1532.061,508.182a21.6,21.6,0,0,1-5.206-.635.482.482,0,1,1,.23-.937,20.5,20.5,0,0,0,24.656-14.29.488.488,0,0,1,.593-.337.482.482,0,0,1,.337.595A21.417,21.417,0,0,1,1532.061,508.182Z" transform="translate(-1526.487 -491.967)"/>
      </g>
      <g id="Grupo_1009998" data-name="Grupo 1009998" transform="translate(890.013 289.166)">
        <path id="Trazado_735490" data-name="Trazado 735490" d="M1558.41,380.763a.467.467,0,0,1-.2-.046,19.91,19.91,0,0,0-8.4-1.862.482.482,0,0,1,0-.965,20.882,20.882,0,0,1,8.811,1.952.481.481,0,0,1,.232.641A.474.474,0,0,1,1558.41,380.763Z" transform="translate(-1549.32 -377.89)"/>
      </g>
      <g id="Grupo_1009999" data-name="Grupo 1009999" transform="translate(1046.85 422.827)">
        <path id="Trazado_735491" data-name="Trazado 735491" d="M2274.678,965.811a.483.483,0,0,1-.474-.391,51.813,51.813,0,0,0-3.865-11.754.484.484,0,1,1,.858-.449,51.76,51.76,0,0,1,3.958,12.019.485.485,0,0,1-.384.565A.435.435,0,0,1,2274.678,965.811Z" transform="translate(-2270.284 -952.96)"/>
      </g>
      <g id="Grupo_1010000" data-name="Grupo 1010000" transform="translate(1009.177 446.402)">
        <path id="Trazado_735492" data-name="Trazado 735492" d="M2092.852,1074.281a3.983,3.983,0,0,1-2.006-.486,4.925,4.925,0,0,1-2.092-3.317,14.091,14.091,0,0,1-.353-2.4c-.237-3.856.611-7.242,2.387-9.539a10.1,10.1,0,0,1,7.768-4.151,5.822,5.822,0,0,1,5.576,3.24.482.482,0,0,1-.89.37,4.883,4.883,0,0,0-4.681-2.645,9.134,9.134,0,0,0-7.007,3.777c-2.2,2.847-2.315,6.791-2.185,8.89a13.1,13.1,0,0,0,.328,2.231,4.016,4.016,0,0,0,1.634,2.706,3.382,3.382,0,0,0,1.913.344,4.205,4.205,0,0,0,3.361-1.943,5.487,5.487,0,0,0,.542-2.819l-.016-.732a11.17,11.17,0,0,1,.442-4.183,14.849,14.849,0,0,1,2.445-4.114.483.483,0,1,1,.76.6,14.042,14.042,0,0,0-2.3,3.842,10.327,10.327,0,0,0-.384,3.837l.014.741a6.512,6.512,0,0,1-.665,3.305,5.152,5.152,0,0,1-4.123,2.431C2093.161,1074.274,2093.006,1074.281,2092.852,1074.281Z" transform="translate(-2088.362 -1054.39)"/>
      </g>
    </g>
  </g>
</svg>
