<svg xmlns="http://www.w3.org/2000/svg" xmlns:xlink="http://www.w3.org/1999/xlink" width="110" height="110" viewBox="0 0 110 110">
  <defs>
    <filter id="Elipse_4252" x="0" y="0" width="110" height="110" filterUnits="userSpaceOnUse">
      <feOffset dy="3" input="SourceAlpha"/>
      <feGaussianBlur stdDeviation="3" result="blur"/>
      <feFlood flood-opacity="0.161"/>
      <feComposite operator="in" in2="blur"/>
      <feComposite in="SourceGraphic"/>
    </filter>
  </defs>
  <g id="Grupo_58956" data-name="Grupo 58956" transform="translate(-325 -1742)">
    <g transform="matrix(1, 0, 0, 1, 325, 1742)" filter="url(#Elipse_4252)">
      <g id="Elipse_4252-2" data-name="Elipse 4252" transform="translate(9 6)" fill="#fff" stroke="#ea526f" stroke-width="3">
        <circle cx="46" cy="46" r="46" stroke="none"/>
        <circle cx="46" cy="46" r="44.5" fill="none"/>
      </g>
    </g>
    <g id="Grupo_58939" data-name="Grupo 58939" transform="translate(-101.755 1637.927)">
      <g id="Grupo_58937" data-name="Grupo 58937" transform="translate(459.14 126.604)">
        <g id="Grupo_58934" data-name="Grupo 58934" transform="translate(0 0)">
          <path id="Trazado_115438" data-name="Trazado 115438" d="M476.436,139.019c-3.933,6.218-10.66,13.68-10.66,19.6a10.66,10.66,0,1,0,21.32,0C487.1,152.586,479.627,144.063,476.436,139.019Z" transform="translate(-465.776 -139.019)" fill="#ffc75b" fill-rule="evenodd"/>
          <path id="Trazado_115439" data-name="Trazado 115439" d="M556.075,200.656a10.689,10.689,0,0,1-10.331,10.708,20.884,20.884,0,0,0-2,8.184,17.958,17.958,0,1,0,35.916,0c0-9.967-11.332-22.535-17.958-33.011-1.945,3.076-4.3,6.332-6.647,9.65a11.926,11.926,0,0,1,1.023,4.469Z" transform="translate(-534.754 -181.06)" fill="#ffc75b" fill-rule="evenodd"/>
          <path id="Trazado_115440" data-name="Trazado 115440" d="M556.075,200.655a10.689,10.689,0,0,1-10.331,10.708,21.016,21.016,0,0,0-2,8.184,18,18,0,0,0,19.255,18,18.011,18.011,0,0,1-16.661-18,19.1,19.1,0,0,1,1.384-6.666A12.434,12.434,0,0,0,557.8,200.655a12.309,12.309,0,0,0-.658-3.764c1.816-2.558,4.083-5.736,5.847-8.367q-.671-1.005-1.294-1.988c-2.08,3.289-4.389,6.465-6.647,9.65a11.927,11.927,0,0,1,1.023,4.469Z" transform="translate(-534.754 -181.059)" fill="#d9a641" fill-rule="evenodd"/>
          <path id="Trazado_115441" data-name="Trazado 115441" d="M476.436,139.019c-3.933,6.218-10.66,13.68-10.66,19.6a10.682,10.682,0,0,0,11.958,10.634,10.7,10.7,0,0,1-9.364-10.634c0-5.31,5.419-11.865,9.374-17.649C477.26,140.274,476.817,139.621,476.436,139.019Z" transform="translate(-465.776 -139.019)" fill="#d9a641" fill-rule="evenodd"/>
        </g>
        <g id="Grupo_58935" data-name="Grupo 58935" transform="translate(26.894 35.03)">
          <path id="Trazado_115442" data-name="Trazado 115442" d="M699.2,461.806l-.1-1.726a13.691,13.691,0,0,0,12.822-13.7h1.729A15.422,15.422,0,0,1,699.2,461.806Zm14.449-17.154h-1.729v-1.729h1.729Z" transform="translate(-699.095 -442.923)" fill="#fff"/>
        </g>
        <g id="Grupo_58936" data-name="Grupo 58936" transform="translate(10.904 17.002)">
          <path id="Trazado_115443" data-name="Trazado 115443" d="M560.545,297.207l-.17-1.721a5.508,5.508,0,0,0,5.229-5.5h1.729a7.274,7.274,0,0,1-6.788,7.225Zm6.788-8.954H565.6v-1.729h1.729Z" transform="translate(-560.375 -286.524)" fill="#fff"/>
        </g>
      </g>
      <g id="Grupo_58938" data-name="Grupo 58938" transform="translate(458.276 124.987)">
        <path id="Trazado_115444" data-name="Trazado 115444" d="M538.842,425.1l-1.648-.523a18.581,18.581,0,0,0-.953,5.573,18.854,18.854,0,0,0,5.338,13.192l1.242-1.2a17.133,17.133,0,0,1-4.85-11.988A16.86,16.86,0,0,1,538.842,425.1Z" transform="translate(-527.254 -390.046)"/>
        <path id="Trazado_115445" data-name="Trazado 115445" d="M612.558,181.914c-2.052-2.889-3.991-5.618-5.658-8.253l-.731-1.155-.731,1.155c-1.47,2.325-3.2,4.782-4.7,6.9l1.411,1c1.274-1.8,2.707-3.836,4.019-5.842,1.514,2.317,3.2,4.7,4.979,7.195,5.956,8.384,12.115,17.054,12.115,24.218a17.074,17.074,0,0,1-28.136,13.114l-1.121,1.316a18.8,18.8,0,0,0,30.986-14.43c0-7.716-6.321-16.614-12.434-25.219Z" transform="translate(-578.361 -167.028)"/>
        <path id="Trazado_115446" data-name="Trazado 115446" d="M469.8,156.048a9.766,9.766,0,0,1-6.351-2.351l-1.125,1.313a11.514,11.514,0,0,0,19-8.81c0-4.693-3.785-10.021-7.446-15.174-1.216-1.711-2.364-3.327-3.348-4.884l-.731-1.155-.731,1.155c-.984,1.556-2.133,3.173-3.348,4.884-3.661,5.153-7.446,10.482-7.446,15.174a11.613,11.613,0,0,0,2.734,7.486l1.321-1.116a9.881,9.881,0,0,1-2.326-6.37c0-4.141,3.623-9.241,7.126-14.173.943-1.327,1.845-2.6,2.669-3.836.824,1.239,1.727,2.51,2.669,3.836,3.5,4.932,7.127,10.032,7.127,14.173a9.833,9.833,0,0,1-9.8,9.848Z" transform="translate(-458.276 -124.987)"/>
      </g>
    </g>
  </g>
</svg>
