<svg xmlns="http://www.w3.org/2000/svg" xmlns:xlink="http://www.w3.org/1999/xlink" width="110" height="110" viewBox="0 0 110 110">
  <defs>
    <filter id="Elipse_4252" x="0" y="0" width="110" height="110" filterUnits="userSpaceOnUse">
      <feOffset dy="3" input="SourceAlpha"/>
      <feGaussianBlur stdDeviation="3" result="blur"/>
      <feFlood flood-opacity="0.161"/>
      <feComposite operator="in" in2="blur"/>
      <feComposite in="SourceGraphic"/>
    </filter>
  </defs>
  <g id="Grupo_58977" data-name="Grupo 58977" transform="translate(-171 -2820)">
    <g id="Grupo_58966" data-name="Grupo 58966" transform="translate(-154 1078)">
      <g transform="matrix(1, 0, 0, 1, 325, 1742)" filter="url(#Elipse_4252)">
        <g id="Elipse_4252-2" data-name="Elipse 4252" transform="translate(9 6)" fill="#fff" stroke="#ff8a5b" stroke-width="3">
          <circle cx="46" cy="46" r="46" stroke="none"/>
          <circle cx="46" cy="46" r="44.5" fill="none"/>
        </g>
      </g>
    </g>
    <g id="Grupo_58970" data-name="Grupo 58970" transform="translate(200 2846)">
      <path id="Trazado_115466" data-name="Trazado 115466" d="M-66.759-38.345v1.655H-80v-1.655A1.66,1.66,0,0,1-78.345-40h9.931A1.66,1.66,0,0,1-66.759-38.345Z" transform="translate(89.103 40.828)" fill="#ff826e"/>
      <g id="Grupo_58969" data-name="Grupo 58969" transform="translate(9.103 4.138)">
        <path id="Trazado_115467" data-name="Trazado 115467" d="M16-8h3.31v3.31H16Z" transform="translate(-6.069 8)" fill="#ccd1d9"/>
        <path id="Trazado_115468" data-name="Trazado 115468" d="M-16-8h3.31v3.31H-16Z" transform="translate(22.621 8)" fill="#ccd1d9"/>
        <path id="Trazado_115469" data-name="Trazado 115469" d="M-80-8h3.31v3.31H-80Z" transform="translate(80 8)" fill="#ccd1d9"/>
        <path id="Trazado_115470" data-name="Trazado 115470" d="M-48-8h3.31v3.31H-48Z" transform="translate(51.31 8)" fill="#ccd1d9"/>
      </g>
      <path id="Trazado_115471" data-name="Trazado 115471" d="M-130.208,31.514v2.416a5.992,5.992,0,0,0-5.355-3.31h-19.083A5.992,5.992,0,0,0-160,33.931V31.514a3.3,3.3,0,0,1,1.415-2.706L-151.724,24h13.241l6.861,4.808A3.3,3.3,0,0,1-130.208,31.514Z" transform="translate(160.828 -16.552)" fill="#e6e9ed"/>
      <path id="Trazado_115472" data-name="Trazado 115472" d="M-130.208,94.621V121.1a3.309,3.309,0,0,1-3.31,3.31H-156.69A3.309,3.309,0,0,1-160,121.1V91.31A5.992,5.992,0,0,1-154.645,88h19.083a5.992,5.992,0,0,1,5.355,3.31Z" transform="translate(160.828 -73.931)" fill="#ccd1d9"/>
      <path id="Trazado_115473" data-name="Trazado 115473" d="M-128,147.707V122.085A2.087,2.087,0,0,1-125.915,120a2.055,2.055,0,0,1,.77.149l19.009,7.605a2.077,2.077,0,0,1,1.308,1.928v18.024a2.087,2.087,0,0,1-2.085,2.085h-19A2.087,2.087,0,0,1-128,147.707Z" transform="translate(132.138 -102.621)" fill="#ff826e"/>
      <path id="Trazado_115474" data-name="Trazado 115474" d="M219.385,8.828l1.581,17.379H216l1.581-17.379a.905.905,0,0,1,1.8,0Z" transform="translate(-176.277 -2.207)" fill="#ffeaa7"/>
      <path id="Trazado_115475" data-name="Trazado 115475" d="M224,184h3.31v3.31H224Z" transform="translate(-183.449 -160)" fill="#fcd770"/>
      <path id="Trazado_115476" data-name="Trazado 115476" d="M195.31,184v3.31H192V184Z" transform="translate(-154.76 -160)" fill="#fcd770"/>
      <path id="Trazado_115477" data-name="Trazado 115477" d="M256.828,184h2.483v3.31H256V184Z" transform="translate(-212.139 -160)" fill="#fcd770"/>
      <path id="Trazado_115478" data-name="Trazado 115478" d="M175.889,217.986a1.666,1.666,0,0,1,.662,1.324v.828H160v-.828a1.666,1.666,0,0,1,.662-1.324L163.31,216h9.931Z" transform="translate(-126.07 -188.69)" fill="#ccd1d9"/>
      <path id="Trazado_115479" data-name="Trazado 115479" d="M176.551,256v17.379a1.66,1.66,0,0,1-1.655,1.655H161.655A1.66,1.66,0,0,1,160,273.379V256Z" transform="translate(-126.07 -224.552)" fill="#e6e9ed"/>
      <path id="Trazado_115480" data-name="Trazado 115480" d="M214.19,301.04a3.281,3.281,0,0,1,.43,1.622,3.278,3.278,0,0,1-3.269,3.269h-.082a3.27,3.27,0,0,1-2.839-4.891l2.88-5.04Z" transform="translate(-169.105 -260.415)" fill="#838f9b"/>
      <path id="Trazado_115481" data-name="Trazado 115481" d="M-54.069,240.954v.149a4.969,4.969,0,0,1-4.965,4.965A4.969,4.969,0,0,1-64,241.1v-.149a4.932,4.932,0,0,1,.836-2.755l4.13-6.2,4.13,6.2A4.932,4.932,0,0,1-54.069,240.954Z" transform="translate(74.758 -203.035)" fill="#838f9b"/>
      <path id="Trazado_115482" data-name="Trazado 115482" d="M-66.207,217.574l-4.82,7.23A5.78,5.78,0,0,0-72,228.017v.152a5.8,5.8,0,0,0,5.793,5.793,5.8,5.8,0,0,0,5.793-5.793v-.152a5.778,5.778,0,0,0-.973-3.213Zm4.138,10.6a4.143,4.143,0,0,1-4.138,4.138,4.143,4.143,0,0,1-4.138-4.138v-.152a4.128,4.128,0,0,1,.7-2.295l3.443-5.164,3.443,5.164a4.128,4.128,0,0,1,.7,2.295Z" transform="translate(81.931 -190.101)"/>
      <path id="Trazado_115483" data-name="Trazado 115483" d="M-38.345,306.744v-.152a.826.826,0,0,1,.138-.457l-1.376-.92A2.472,2.472,0,0,0-40,306.592v.152a2.486,2.486,0,0,0,2.483,2.483v-1.655A.829.829,0,0,1-38.345,306.744Z" transform="translate(53.241 -268.676)"/>
      <path id="Trazado_115484" data-name="Trazado 115484" d="M204.138,279.871l-3.6,6.3A4.1,4.1,0,0,0,204.1,292.3h.082a4.1,4.1,0,0,0,3.557-6.13Zm.04,10.772H204.1a2.442,2.442,0,0,1-2.12-3.654l2.161-3.781,2.161,3.781a2.442,2.442,0,0,1-2.12,3.654Z" transform="translate(-161.932 -245.954)"/>
      <path id="Trazado_115485" data-name="Trazado 115485" d="M-138.318-36.426l-6.511-4.557v-4.534A2.486,2.486,0,0,0-147.311-48h-9.931a2.486,2.486,0,0,0-2.483,2.483v4.534l-6.511,4.557A4.142,4.142,0,0,0-168-33.035V-.829a4.143,4.143,0,0,0,4.138,4.138h23.172a4.143,4.143,0,0,0,4.138-4.138V-33.035A4.142,4.142,0,0,0-138.318-36.426Zm-19.752-4.954v-1.655h1.655v1.655Zm3.31-1.655h1.655v1.655h-1.655Zm3.31,0h1.655v1.655h-1.655Zm3.31,0h1.655v1.655h-1.655Zm-9.1-3.31h9.931a.829.829,0,0,1,.828.828v.828h-11.586v-.828A.829.829,0,0,1-157.242-46.345Zm-8.045,11.276,6.651-4.655h12.719l6.65,4.655a2.485,2.485,0,0,1,1.059,2.034v.008a6.771,6.771,0,0,0-4.529-1.732h-19.08a6.771,6.771,0,0,0-4.529,1.732v-.008A2.487,2.487,0,0,1-165.287-35.069Zm24.6,36.723h-23.172a2.486,2.486,0,0,1-2.483-2.483V-30.4a5.124,5.124,0,0,1,4.529-2.7h19.08a5.128,5.128,0,0,1,3.79,1.655h-5.882v1.655h6.62v1.655h-6.62v1.655h6.62V-.829A2.486,2.486,0,0,1-140.69,1.654Z" transform="translate(168 48)"/>
      <path id="Trazado_115486" data-name="Trazado 115486" d="M-113,119.811l-19.009-7.6a2.891,2.891,0,0,0-1.08-.208,2.913,2.913,0,0,0-2.91,2.91v25.629a2.913,2.913,0,0,0,2.91,2.909h19.008a2.913,2.913,0,0,0,2.909-2.91V122.513A2.9,2.9,0,0,0-113,119.811Zm.174,20.726a1.256,1.256,0,0,1-1.255,1.255H-133.09a1.256,1.256,0,0,1-1.255-1.255V114.91a1.256,1.256,0,0,1,1.255-1.255,1.262,1.262,0,0,1,.465.089l19.008,7.6a1.248,1.248,0,0,1,.789,1.165Z" transform="translate(139.31 -95.449)"/>
      <path id="Trazado_115487" data-name="Trazado 115487" d="M-104,168h7.448v1.655H-104Z" transform="translate(110.621 -145.656)"/>
      <path id="Trazado_115488" data-name="Trazado 115488" d="M-104,200h7.448v1.655H-104Z" transform="translate(110.621 -174.345)"/>
      <path id="Trazado_115489" data-name="Trazado 115489" d="M169.213,23.669,166.9,21.93V18.206h-2.555L162.829,1.577a1.733,1.733,0,0,0-3.452,0l-1.512,16.629H155.31V21.93l-2.317,1.738A2.494,2.494,0,0,0,152,25.654V43.861a2.486,2.486,0,0,0,2.483,2.483h13.241a2.486,2.486,0,0,0,2.483-2.483V25.654A2.491,2.491,0,0,0,169.213,23.669Zm-3.972-2.153h-1.655V19.862h1.655Zm-3.31-1.655v1.655h-1.655V19.862Zm-.906-18.135c.008-.082.149-.082.156,0l1.5,16.48h-3.153Zm-2.4,18.135v1.655h-1.655V19.862Zm9.1,24.827H154.483a.829.829,0,0,1-.828-.828V27.31h9.931V25.654h-9.931a.83.83,0,0,1,.331-.662l2.428-1.821h9.379l2.428,1.822a.829.829,0,0,1,.33.661h-3.31V27.31h3.31V43.861A.829.829,0,0,1,167.724,44.688Z" transform="translate(-118.897 4.966)"/>
    </g>
  </g>
</svg>
