<svg xmlns="http://www.w3.org/2000/svg" xmlns:xlink="http://www.w3.org/1999/xlink" width="110" height="110" viewBox="0 0 110 110">
  <defs>
    <filter id="Elipse_4253" x="0" y="0" width="110" height="110" filterUnits="userSpaceOnUse">
      <feOffset dy="3" input="SourceAlpha"/>
      <feGaussianBlur stdDeviation="3" result="blur"/>
      <feFlood flood-opacity="0.161"/>
      <feComposite operator="in" in2="blur"/>
      <feComposite in="SourceGraphic"/>
    </filter>
  </defs>
  <g id="Grupo_58959" data-name="Grupo 58959" transform="translate(-745 -1742)">
    <g id="Grupo_58954" data-name="Grupo 58954">
      <g transform="matrix(1, 0, 0, 1, 745, 1742)" filter="url(#Elipse_4253)">
        <g id="Elipse_4253-2" data-name="Elipse 4253" transform="translate(9 6)" fill="#fff" stroke="#ff8a5b" stroke-width="3">
          <circle cx="46" cy="46" r="46" stroke="none"/>
          <circle cx="46" cy="46" r="44.5" fill="none"/>
        </g>
      </g>
    </g>
    <g id="Grupo_58952" data-name="Grupo 58952" transform="translate(295.401 1975.5)">
      <g id="Grupo_58941" data-name="Grupo 58941" transform="translate(482.169 -210.5)">
        <g id="Grupo_58940" data-name="Grupo 58940" transform="translate(0 0)">
          <path id="Trazado_115447" data-name="Trazado 115447" d="M556.406-150.487a9.582,9.582,0,0,1-9.571-9.571v-14.174a1.543,1.543,0,0,1,1.543-1.542,1.542,1.542,0,0,1,1.542,1.542v14.174a6.493,6.493,0,0,0,6.486,6.486,6.493,6.493,0,0,0,6.486-6.486v-34.872a9.582,9.582,0,0,1,9.571-9.571h.088a9.582,9.582,0,0,1,9.571,9.571V-165h-3.085v-29.933a6.493,6.493,0,0,0-6.486-6.486h-.088a6.493,6.493,0,0,0-6.486,6.486v34.872a9.582,9.582,0,0,1-9.571,9.571Z" transform="translate(-546.183 205.152)" fill="#f7d89a"/>
          <path id="Trazado_115448" data-name="Trazado 115448" d="M551.058-155.182a10.234,10.234,0,0,1-10.223-10.223v-14.174a2.2,2.2,0,0,1,2.195-2.195,2.2,2.2,0,0,1,2.195,2.195v14.174a5.84,5.84,0,0,0,5.834,5.834,5.84,5.84,0,0,0,5.834-5.834v-34.872A10.234,10.234,0,0,1,567.115-210.5h.088a10.234,10.234,0,0,1,10.223,10.223v30.585h-4.389v-30.585a5.84,5.84,0,0,0-5.834-5.834h-.088a5.84,5.84,0,0,0-5.834,5.834v34.872A10.235,10.235,0,0,1,551.058-155.182Zm-8.028-25.287a.891.891,0,0,0-.89.89v14.174a8.929,8.929,0,0,0,8.919,8.919,8.929,8.929,0,0,0,8.919-8.919v-34.872a7.146,7.146,0,0,1,7.138-7.138h.088a7.146,7.146,0,0,1,7.138,7.138V-171h1.781v-29.281A8.929,8.929,0,0,0,567.2-209.2h-.088a8.929,8.929,0,0,0-8.919,8.919v34.872a7.146,7.146,0,0,1-7.138,7.138,7.146,7.146,0,0,1-7.138-7.138v-14.174A.891.891,0,0,0,543.03-180.469Z" transform="translate(-540.835 210.5)"/>
        </g>
      </g>
      <g id="Grupo_58946" data-name="Grupo 58946" transform="translate(507.294 -178.16)">
        <g id="Grupo_58944" data-name="Grupo 58944" transform="translate(0.701 1.312)">
          <g id="Grupo_58942" data-name="Grupo 58942">
            <path id="Trazado_115449" data-name="Trazado 115449" d="M787.111,99.137c-3.189,5.043-8.644,11.093-8.644,15.891a8.645,8.645,0,1,0,17.289,0C795.756,110.139,789.7,103.227,787.111,99.137Z" transform="translate(-778.467 -99.137)" fill="#ffc75b" fill-rule="evenodd"/>
            <path id="Trazado_115450" data-name="Trazado 115450" d="M787.111,99.137c-3.189,5.043-8.644,11.093-8.644,15.891a8.662,8.662,0,0,0,9.7,8.623,8.673,8.673,0,0,1-7.593-8.623c0-4.306,4.395-9.622,7.6-14.312C787.78,100.155,787.42,99.626,787.111,99.137Z" transform="translate(-778.467 -99.137)" fill="#d9a641" fill-rule="evenodd"/>
          </g>
          <g id="Grupo_58943" data-name="Grupo 58943" transform="translate(8.842 13.787)">
            <path id="Trazado_115451" data-name="Trazado 115451" d="M859.965,234.663l-.138-1.4a4.466,4.466,0,0,0,4.24-4.464h1.4a5.9,5.9,0,0,1-5.5,5.859Zm5.5-7.261h-1.4V226h1.4Z" transform="translate(-859.827 -226)" fill="#fff"/>
          </g>
        </g>
        <g id="Grupo_58945" data-name="Grupo 58945" transform="translate(0 0)">
          <path id="Trazado_115452" data-name="Trazado 115452" d="M781.362,112.257a7.919,7.919,0,0,1-5.15-1.906l-.912,1.065a9.336,9.336,0,0,0,15.408-7.144c0-3.805-3.069-8.126-6.038-12.305-.986-1.388-1.917-2.7-2.715-3.96l-.592-.937-.593.937c-.8,1.262-1.729,2.573-2.715,3.96-2.969,4.179-6.038,8.5-6.038,12.3a9.417,9.417,0,0,0,2.217,6.07l1.071-.9a8.012,8.012,0,0,1-1.886-5.165c0-3.358,2.938-7.493,5.779-11.493.764-1.076,1.5-2.106,2.164-3.111.669,1.005,1.4,2.035,2.164,3.111,2.841,4,5.779,8.135,5.779,11.493a7.974,7.974,0,0,1-7.943,7.986Z" transform="translate(-772.016 -87.069)"/>
        </g>
      </g>
      <g id="Grupo_58951" data-name="Grupo 58951" transform="translate(475.016 -206.582)">
        <g id="Grupo_58949" data-name="Grupo 58949" transform="translate(0.701 1.312)">
          <g id="Grupo_58947" data-name="Grupo 58947">
            <path id="Trazado_115453" data-name="Trazado 115453" d="M490.111-162.377c-3.189,5.043-8.644,11.093-8.644,15.891a8.666,8.666,0,0,0,8.644,8.687,8.666,8.666,0,0,0,8.644-8.687C498.756-151.375,492.7-158.287,490.111-162.377Z" transform="translate(-481.467 162.377)" fill="#ffc75b" fill-rule="evenodd"/>
            <path id="Trazado_115454" data-name="Trazado 115454" d="M490.111-162.377c-3.189,5.043-8.644,11.093-8.644,15.891a8.662,8.662,0,0,0,9.7,8.623,8.673,8.673,0,0,1-7.593-8.623c0-4.306,4.395-9.622,7.6-14.312C490.78-161.359,490.42-161.888,490.111-162.377Z" transform="translate(-481.467 162.377)" fill="#d9a641" fill-rule="evenodd"/>
          </g>
          <g id="Grupo_58948" data-name="Grupo 58948" transform="translate(8.842 13.787)">
            <path id="Trazado_115455" data-name="Trazado 115455" d="M562.965-26.851l-.138-1.4a4.466,4.466,0,0,0,4.24-4.464h1.4a5.9,5.9,0,0,1-5.5,5.859Zm5.5-7.261h-1.4v-1.4h1.4Z" transform="translate(-562.827 35.514)" fill="#fff"/>
          </g>
        </g>
        <g id="Grupo_58950" data-name="Grupo 58950" transform="translate(0)">
          <path id="Trazado_115456" data-name="Trazado 115456" d="M484.362-149.258a7.919,7.919,0,0,1-5.15-1.906L478.3-150.1a9.322,9.322,0,0,0,6.062,2.244,9.378,9.378,0,0,0,9.346-9.388c0-3.805-3.069-8.126-6.038-12.305-.986-1.388-1.917-2.7-2.715-3.96l-.592-.937-.592.937c-.8,1.262-1.729,2.573-2.715,3.96-2.969,4.179-6.038,8.5-6.038,12.3a9.417,9.417,0,0,0,2.217,6.07l1.071-.9a8.013,8.013,0,0,1-1.886-5.165c0-3.358,2.938-7.494,5.779-11.493.764-1.076,1.5-2.106,2.165-3.111.669,1.005,1.4,2.035,2.164,3.111,2.841,4,5.779,8.135,5.779,11.493a7.974,7.974,0,0,1-7.943,7.986Z" transform="translate(-475.016 174.446)"/>
        </g>
      </g>
    </g>
  </g>
</svg>
