<svg xmlns="http://www.w3.org/2000/svg" xmlns:xlink="http://www.w3.org/1999/xlink" width="103" height="103" viewBox="0 0 103 103">
  <defs>
    <filter id="Elipse_4260" x="0" y="0" width="103" height="103" filterUnits="userSpaceOnUse">
      <feOffset dy="3" input="SourceAlpha"/>
      <feGaussianBlur stdDeviation="3" result="blur"/>
      <feFlood flood-opacity="0.161"/>
      <feComposite operator="in" in2="blur"/>
      <feComposite in="SourceGraphic"/>
    </filter>
  </defs>
  <g id="Grupo_59091" data-name="Grupo 59091" transform="translate(-381 -4799)">
    <g transform="matrix(1, 0, 0, 1, 381, 4799)" filter="url(#Elipse_4260)">
      <g id="Elipse_4260-2" data-name="Elipse 4260" transform="translate(9 6)" fill="#25ced1" stroke="#fff" stroke-width="3">
        <circle cx="42.5" cy="42.5" r="42.5" stroke="none"/>
        <circle cx="42.5" cy="42.5" r="41" fill="none"/>
      </g>
    </g>
    <g id="Grupo_59087" data-name="Grupo 59087" transform="translate(409.379 4824)">
      <path id="Trazado_115702" data-name="Trazado 115702" d="M351.1,57.615,348.065,56.1l-.572-2.289.169-.1a2.541,2.541,0,0,0,1.227-2.167V48.649h1.444V47.2h-.722V45.579a3.443,3.443,0,0,0-2.21-3.206,2.889,2.889,0,0,0-5.691,0,3.443,3.443,0,0,0-2.21,3.206V47.2h-.722v1.444h1.444v2.889a2.541,2.541,0,0,0,1.227,2.167l.169.1-.572,2.289-3.038,1.519a2.519,2.519,0,0,0-1.337,1.71l1.41.315a1.079,1.079,0,0,1,.573-.733l1.372-.686-.513,2.564a.722.722,0,0,0,.937.827l4.105-1.368,4.1,1.368a.722.722,0,0,0,.937-.827l-.513-2.564,1.372.686a1.077,1.077,0,0,1,.6.969v1.773H352.5V59.875A2.514,2.514,0,0,0,351.1,57.615Zm-6.547-16.188a1.444,1.444,0,1,1-1.444,1.444A1.444,1.444,0,0,1,344.556,41.427ZM340.945,47.2V45.579a1.993,1.993,0,0,1,.914-1.672,2.889,2.889,0,0,0,5.393,0,1.993,1.993,0,0,1,.914,1.672V47.2Zm6.5,1.444v2.889a1.089,1.089,0,0,1-.526.929l-1.806,1.083a1.081,1.081,0,0,1-1.115,0l-1.806-1.083a1.089,1.089,0,0,1-.526-.929V48.649Zm-6.27,11.2.454-2.271,1.59,1.59Zm1.292-3.476.447-1.788.341.2a2.523,2.523,0,0,0,2.6,0l.341-.2.447,1.788-2.089,2.089Zm3.426,2.794,1.59-1.59.454,2.271Z" transform="translate(-306.28 -36.371)" fill="#fff"/>
      <rect id="Rectángulo_5909" data-name="Rectángulo 5909" width="2" height="7" transform="translate(44.621 27.011)" fill="#fff"/>
      <rect id="Rectángulo_5910" data-name="Rectángulo 5910" width="1" height="2" transform="translate(37.621 25.011)" fill="#fff"/>
      <rect id="Rectángulo_5911" data-name="Rectángulo 5911" width="1" height="2" transform="translate(37.621 28.011)" fill="#fff"/>
      <rect id="Rectángulo_5912" data-name="Rectángulo 5912" width="1" height="7" transform="translate(41.621 27.011)" fill="#fff"/>
      <rect id="Rectángulo_5913" data-name="Rectángulo 5913" width="2" height="7" transform="translate(-0.379 27.011)" fill="#fff"/>
      <path id="Trazado_115703" data-name="Trazado 115703" d="M3.839,61.611l4.1-1.368,4.1,1.368a.722.722,0,0,0,.937-.827l-.513-2.564,1.372.686a1.079,1.079,0,0,1,.573.733l1.41-.315a2.519,2.519,0,0,0-1.337-1.71L11.453,56.1l-.572-2.289.169-.1a2.541,2.541,0,0,0,1.227-2.167V48.649h1.444V47.2H13V45.579a3.443,3.443,0,0,0-2.21-3.206,2.889,2.889,0,0,0-5.691,0,3.443,3.443,0,0,0-2.21,3.206V47.2H2.166v1.444H3.611v2.889A2.541,2.541,0,0,0,4.838,53.7l.169.1L4.435,56.1,1.4,57.614A2.514,2.514,0,0,0,0,59.875v1.773H1.444V59.875a1.078,1.078,0,0,1,.6-.969l1.372-.686L2.9,60.784a.722.722,0,0,0,.937.827Zm2.016-5.24L6.3,54.583l.341.2a2.523,2.523,0,0,0,2.6,0l.342-.2.447,1.788L7.944,58.46Zm-.274-3.905a1.089,1.089,0,0,1-.526-.929V48.649h5.778v2.889a1.089,1.089,0,0,1-.526.929L8.5,53.55a1.081,1.081,0,0,1-1.115,0Zm5.744,7.381-2.044-.682,1.59-1.59ZM7.944,41.427A1.444,1.444,0,1,1,6.5,42.871,1.444,1.444,0,0,1,7.944,41.427ZM4.333,47.2V45.579a1.993,1.993,0,0,1,.914-1.672,2.889,2.889,0,0,0,5.393,0,1.993,1.993,0,0,1,.914,1.672V47.2Zm.684,10.372,1.59,1.589-2.044.681Z" transform="translate(0 -36.371)" fill="#fff"/>
      <rect id="Rectángulo_5914" data-name="Rectángulo 5914" width="1" height="2" transform="translate(7.621 25.011)" fill="#fff"/>
      <rect id="Rectángulo_5915" data-name="Rectángulo 5915" width="1" height="2" transform="translate(7.621 28.011)" fill="#fff"/>
      <rect id="Rectángulo_5916" data-name="Rectángulo 5916" width="1" height="7" transform="translate(3.621 27.011)" fill="#fff"/>
      <path id="Trazado_115704" data-name="Trazado 115704" d="M89.129,42.367a.722.722,0,0,0-.491-.375l-.967-.206-.933-7.774a11.557,11.557,0,0,0-9.92-10.075,2.269,2.269,0,0,0-1.087-1.285l.381-3.049,2.284.856a1.074,1.074,0,0,1,.4.263l1.042-1a2.539,2.539,0,0,0-.935-.615l-4.251-1.594-.561-2.243.169-.1A2.541,2.541,0,0,0,75.488,13V9.05l1.62-.4a.722.722,0,0,0,.547-.7V6.5a.722.722,0,0,0-.722-.722H76.21V4.153A3.436,3.436,0,0,0,73.321.765V.722A.722.722,0,0,0,72.6,0H69.71a.722.722,0,0,0-.722.722V.765A3.436,3.436,0,0,0,66.1,4.153V5.778h-.722a.722.722,0,0,0-.722.722V7.944a.722.722,0,0,0,.547.7l1.62.4V13a2.541,2.541,0,0,0,1.227,2.167l.169.1-.561,2.243-4.251,1.594a2.539,2.539,0,0,0-.935.615l1.042,1a1.074,1.074,0,0,1,.4-.263L66.2,19.6l.381,3.049a2.269,2.269,0,0,0-1.087,1.286,11.557,11.557,0,0,0-9.92,10.075l-.933,7.774-.967.206a.722.722,0,0,0-.491.375l-.086.168a2.528,2.528,0,0,0,2.246,3.686H86.969a2.528,2.528,0,0,0,2.246-3.686ZM73.321,2.242a1.99,1.99,0,0,1,1.444,1.911V5.778H73.321Zm-2.889-.8h1.444V5.778H70.432ZM67.543,4.153a1.99,1.99,0,0,1,1.444-1.911V5.778H67.543ZM66.1,7.38V7.222H76.21V7.38L71.154,8.644Zm5.613,7.631a1.081,1.081,0,0,1-1.115,0l-1.805-1.083A1.088,1.088,0,0,1,68.266,13V9.411l2.714.678a.721.721,0,0,0,.35,0l2.714-.678V13a1.089,1.089,0,0,1-.526.929Zm1.532,2.822-2.089,2.089-2.089-2.089.447-1.788.341.2a2.523,2.523,0,0,0,2.6,0l.342-.2Zm-5.16,1.061,2.56,2.56a.722.722,0,0,0,1.021,0h0l2.56-2.56.5.186-.413,3.307H68l-.413-3.307ZM57,34.183a10.112,10.112,0,0,1,8.372-8.768v2.751h1.444V24.645a.813.813,0,0,1,.812-.812h7.041a.813.813,0,0,1,.812.812V35.388h1.444V25.415A10.112,10.112,0,0,1,85.3,34.183l.874,7.283-9.246-1.973V36.832H75.488v2.353l-4.182-.893a.722.722,0,0,0-.3,0l-4.182.893V29.61H65.377v9.883l-9.246,1.973ZM87.894,44.257a1.062,1.062,0,0,1-.925.52H55.34a1.084,1.084,0,0,1-1.022-1.446l16.836-3.593L87.991,43.33A1.059,1.059,0,0,1,87.894,44.257Z" transform="translate(-48.044)" fill="#fff"/>
    </g>
  </g>
</svg>
