<svg xmlns="http://www.w3.org/2000/svg" xmlns:xlink="http://www.w3.org/1999/xlink" width="400" height="374" viewBox="0 0 400 374">
  <defs>
    <clipPath id="clip-path">
      <path id="Trazado_115524" data-name="Trazado 115524" d="M385.68,340s-121.877-2.517-173.571,0c-37.014,1.8-148.23,0-148.23,0s2.285-81.331,0-122.525c-1.459-26.287,0-105.308,0-105.308s118.387.231,156.442-1.244c62.992-2.442,165.358,1.244,165.358,1.244s2.461,56.538,0,90.186C383.17,236.674,385.68,340,385.68,340Z" transform="translate(-63.23 -110.088)" fill="#fff" stroke="#263238" stroke-linecap="round" stroke-linejoin="round" stroke-width="1"/>
    </clipPath>
    <clipPath id="clip-path-2">
      <path id="Trazado_115564" data-name="Trazado 115564" d="M359.493,93.375,346.337,90.04l-2.3,1.235-8.92-3.174s-1.427-8.914,5.807-17.4l9,3.581L351.58,76.6l12.008,5.96S364.87,90.494,359.493,93.375Z" transform="translate(-334.998 -70.697)" fill="#ea526f" stroke="#263238" stroke-linecap="round" stroke-linejoin="round" stroke-width="1"/>
    </clipPath>
    <clipPath id="clip-path-3">
      <path id="Trazado_115573" data-name="Trazado 115573" d="M368.93,436.832s-9.273-77.506-14.063-90.616-11.083-56.46-11.083-56.46,14.565-1.167,18.974-1.211,10.111-4.264,10.111-4.264c-.483.872-1.581.336-2.4-4.961-.544-3.54-5.931-4.62-5.931-4.62s-12.931.968-23.839-.495a13.52,13.52,0,0,1-8.119,0c-3.971-1.444-4.776-2.995-2.6-5.094,0,0-3.082-4.037,7.47-9.775,0,0-7.014-6.308-3.592-10.414s11.52-8.1,11.52-8.1.342-3.079,1.825-3.878,9.581-4.106,14.029-7.186,6.388-2.851,14.6-3.079,18.249-2.282,22.013-.57c2.924,1.329,4.287,6.551,4.287,6.551,2.726.9,3,5.332,3.183,6.428.8,4.9,6.446,25.231,8.955,28.767s3.993,9.7,3.536,12.889-1.6,6.958-2.738,13.46-5.018,29.085-6.958,35.587-2.965,17.793-1.939,23.268l28.831,68.612" transform="translate(-328.801 -225.434)" fill="#afafaf" stroke="#263238" stroke-linecap="round" stroke-linejoin="round" stroke-width="1"/>
    </clipPath>
    <clipPath id="clip-path-4">
      <path id="Trazado_115592" data-name="Trazado 115592" d="M331.445,247.388l106.989-15.874L439.8,250.6,332.357,261.263,327.341,259l-8.215.21a4.419,4.419,0,0,1-.81-5.589l8.463-1.816Z" transform="translate(-317.672 -231.514)" fill="#ea526f" stroke="#263238" stroke-linecap="round" stroke-linejoin="round" stroke-width="1"/>
    </clipPath>
    <clipPath id="clip-path-5">
      <path id="Trazado_115596" data-name="Trazado 115596" d="M456.517,231.512c7.414-.592,9.01,18.332,1.369,19.09C450.574,251.327,449,232.112,456.517,231.512Z" transform="translate(-451.585 -231.498)" fill="#9b1f36" stroke="#263238" stroke-linecap="round" stroke-linejoin="round" stroke-width="1"/>
    </clipPath>
    <clipPath id="clip-path-6">
      <path id="Trazado_115605" data-name="Trazado 115605" d="M374.237,293.995s-7.756.456-8.669,0-5.7-9.581-5.931-12.43-.684-11.98-.913-17.682-.221-14.6-10.95-12.707c-4.791.844-5.589,5.383-7.186,15.558s-.114,12.89-1.255,25.893.228,18.172,2.966,24.713,3.755,23.192,11.054,29.352,10.17,18.022,10.17,18.022" transform="translate(-338.931 -250.916)" fill="#afafaf" stroke="#263238" stroke-linecap="round" stroke-linejoin="round" stroke-width="1"/>
    </clipPath>
  </defs>
  <g id="Grupo_1010186" data-name="Grupo 1010186" transform="translate(-2923 10605)">
    <g id="Grupo_58989" data-name="Grupo 58989" transform="translate(2953.431 -10532.84)" opacity="0.59">
      <path id="Trazado_115518" data-name="Trazado 115518" d="M387.3,122.492,58.136,125.139s-2.905,71.7.536,101.1-.536,128.1-.536,128.1A937.968,937.968,0,0,0,170.4,357.4l-21.753,14.3a12.527,12.527,0,0,0,4.79,11.767l11.541-3.554,3.8,3.554,9.7-3.312s3.973-12.013-4.072-22.911c59.7-2.454,116.7-8.094,116.7-8.094s.918,3.731,12.841,15.611,28.219,52.785,28.219,52.785L371.316,357.3l22.376-2.969s-4.49-56.2,0-90.11S387.3,122.492,387.3,122.492Z" transform="translate(-56.99 -122.492)" fill="rgba(0,0,0,0.7)" opacity="0.2"/>
    </g>
    <path id="Trazado_115519" data-name="Trazado 115519" d="M385.68,340s-121.877-2.517-173.571,0c-37.014,1.8-148.23,0-148.23,0s2.285-81.331,0-122.525c-1.459-26.287,0-105.308,0-105.308s118.387.231,156.442-1.244c62.992-2.442,165.358,1.244,165.358,1.244s2.461,56.538,0,90.186C383.17,236.674,385.68,340,385.68,340Z" transform="translate(2895.598 -10653.656)" fill="#fff"/>
    <g id="Grupo_58990" data-name="Grupo 58990" transform="translate(2958.829 -10543.568)" clip-path="url(#clip-path)">
      <path id="Trazado_115520" data-name="Trazado 115520" d="M385.781,112.165v51.612c-21.84-.545-82.327-1.652-161.618.251-84.152,2.015-143.324.649-160.183.156V112.165s118.388.234,156.446-1.246C283.413,108.481,385.781,112.165,385.781,112.165Z" transform="translate(-63.331 -110.087)" fill="#0ce6ea" opacity="0.5"/>
      <path id="Trazado_115521" data-name="Trazado 115521" d="M288.738,344.6l-2.952-175.312H249.866c-1.6,27.585-.541,138.593-.138,175.312h39.009Z" transform="translate(-88.317 -118.082)" fill="#fce5e9"/>
      <path id="Trazado_115522" data-name="Trazado 115522" d="M68.68,172.718l39.457-.268s3.014,135.619-3.853,172.575H70.953s.456-49.4,0-90.173S68.68,172.718,68.68,172.718Z" transform="translate(-63.966 -118.509)" fill="#fce5e9"/>
      <path id="Trazado_115523" data-name="Trazado 115523" d="M68.68,137.516s97.732-1.377,127.284,0,110.81-1.019,122.7-1.765,65.728,1.765,65.728,1.765c2.023-16.18-1.825-23.586-1.825-23.586s-144.173,1.879-213.978,2.809-99.909,0-99.909,0S70.056,129.531,68.68,137.516Z" transform="translate(-63.966 -110.607)" fill="#9b1f36"/>
    </g>
    <path id="Trazado_115525" data-name="Trazado 115525" d="M385.68,340s-121.877-2.517-173.571,0c-37.014,1.8-148.23,0-148.23,0s2.285-81.331,0-122.525c-1.459-26.287,0-105.308,0-105.308s118.387.231,156.442-1.244c62.992-2.442,165.358,1.244,165.358,1.244s2.461,56.538,0,90.186C383.17,236.674,385.68,340,385.68,340Z" transform="translate(2895.598 -10653.656)" fill="none" stroke="#263238" stroke-linecap="round" stroke-linejoin="round" stroke-width="1"/>
    <g id="Grupo_58992" data-name="Grupo 58992" transform="translate(2968.439 -10518.424)">
      <path id="Trazado_115526" data-name="Trazado 115526" d="M74.341,143.251s37.3-1.368,80.071,0,107.819.495,142.536-.608,76.712-1.444,76.712-1.444" transform="translate(-74.341 -139.433)" fill="none" stroke="#263238" stroke-linecap="round" stroke-linejoin="round" stroke-width="1"/>
      <path id="Trazado_115527" data-name="Trazado 115527" d="M74.341,172.023s270.825-2.737,299.318-2.737" transform="translate(-74.341 -143.226)" fill="none" stroke="#263238" stroke-linecap="round" stroke-linejoin="round" stroke-width="1"/>
      <path id="Trazado_115528" data-name="Trazado 115528" d="M114.3,141.2s3.763,151.587,0,181.357" transform="translate(-79.737 -139.433)" fill="none" stroke="#263238" stroke-linecap="round" stroke-linejoin="round" stroke-width="1"/>
      <path id="Trazado_115529" data-name="Trazado 115529" d="M157.323,141.2s-1.369,166.866,0,178.56" transform="translate(-85.464 -139.433)" fill="none" stroke="#263238" stroke-linecap="round" stroke-linejoin="round" stroke-width="1"/>
      <path id="Trazado_115530" data-name="Trazado 115530" d="M202.516,141.2s1.369,32.85,1.711,61.935-1.711,115.249,0,124.864" transform="translate(-91.649 -139.433)" fill="none" stroke="#263238" stroke-linecap="round" stroke-linejoin="round" stroke-width="1"/>
      <path id="Trazado_115531" data-name="Trazado 115531" d="M249.777,142.789s-2.088,99.91-1.22,134.128,1.22,52.7,1.22,52.7" transform="translate(-97.838 -139.648)" fill="none" stroke="#263238" stroke-linecap="round" stroke-linejoin="round" stroke-width="1"/>
      <path id="Trazado_115532" data-name="Trazado 115532" d="M291.527,141.2s3.422,118.774,3.08,144.249.024,39.693.024,39.693" transform="translate(-103.669 -139.433)" fill="none" stroke="#263238" stroke-linecap="round" stroke-linejoin="round" stroke-width="1"/>
      <path id="Trazado_115533" data-name="Trazado 115533" d="M336.625,139.158s-.215,70.02,1.994,89.533-1,100.432-1,100.432" transform="translate(-109.758 -139.158)" fill="none" stroke="#263238" stroke-linecap="round" stroke-linejoin="round" stroke-width="1"/>
      <path id="Trazado_115534" data-name="Trazado 115534" d="M380.951,139.158s1.467,35.829,1.7,55.851-.682,122.175,1.713,129.856" transform="translate(-115.745 -139.158)" fill="none" stroke="#263238" stroke-linecap="round" stroke-linejoin="round" stroke-width="1"/>
    </g>
    <path id="Trazado_115535" data-name="Trazado 115535" d="M74.341,196.907s56.288-1.027,91.961,0c0,0-.086,9.581,0,13.346,0,0-83-.685-91.961,0C74.341,210.252,75.025,199.3,74.341,196.907Z" transform="translate(2894.098 -10665.318)" fill="#fff" stroke="#263238" stroke-linecap="round" stroke-linejoin="round" stroke-width="2"/>
    <path id="Trazado_115536" data-name="Trazado 115536" d="M293.025,196.19v13.8s70.237-.685,77.757-2.053l-.141-13.35S317.931,194.023,293.025,196.19Z" transform="translate(2864.568 -10665.059)" fill="#fff" stroke="#263238" stroke-linecap="round" stroke-linejoin="round" stroke-width="2"/>
    <path id="Trazado_115537" data-name="Trazado 115537" d="M156.714,216.758h79.974l-.5,12.75s-33.7.77-51.832,1.2-27.032,1.02-27.032,1.02Z" transform="translate(2882.975 -10668.061)" fill="#9b1f36" stroke="#263238" stroke-linecap="round" stroke-linejoin="round" stroke-width="2"/>
    <path id="Trazado_115538" data-name="Trazado 115538" d="M384.892,212.189l.328,9.581s24.881-1.711,28.529-1.369V210.82S391.737,210.478,384.892,212.189Z" transform="translate(2852.162 -10667.255)" fill="#9b1f36" stroke="#263238" stroke-linecap="round" stroke-linejoin="round" stroke-width="2"/>
    <path id="Trazado_115539" data-name="Trazado 115539" d="M249.036,251.248s68.339-1.592,77.637-4.74v19.061s-66.772.266-78.353,2.373C248.32,267.943,247.645,255.03,249.036,251.248Z" transform="translate(2870.626 -10672.078)" fill="#fff" stroke="#263238" stroke-linecap="round" stroke-linejoin="round" stroke-width="2"/>
    <path id="Trazado_115540" data-name="Trazado 115540" d="M253.768,251.674s-6.53,10.078-5.205,11.364,7.963-10.923,9.993-11.242-7.072,16.8-6.159,17.4,12.333-18.1,15.056-18.068-6.033,16.278-4.287,16.2,9.79-15.912,12.727-16.2-6.814,15.96-4.557,15.889,11.311-17.365,13.18-16.417-9.3,15.056-6.337,16.215,10.519-15.131,14.138-15.946-8.377,14.834-4.871,15.248,8.749-16.324,11.487-14.989-5.018,10.621-3.878,11.224,4.794-11.189,8.442-11.224-4.336,10.623-3.424,11.91,4.576-3.151,4.576-3.151" transform="translate(2870.596 -10672.626)" fill="none" stroke="#27e6ea" stroke-linecap="round" stroke-linejoin="round" stroke-width="2"/>
    <path id="Trazado_115541" data-name="Trazado 115541" d="M77.929,196.73s-2.9,6.9-2.22,7.243,3.422-6.844,6.159-6.5-4.892,12.538-3.132,12.506,7.752-13.988,9.634-13.247-4.452,11.6-3.251,12.376,7.186-13.174,9.068-12.4-5.3,11.891-3.422,11.891,8.046-12.123,9.923-12.139-5.818,10.559-3.935,11.969,6.5-13.329,9.239-11.969-4.105,11.244-2.053,12.31,7.352-13.159,9.066-12.4-5.108,13.465-3.933,13.467,8.723-14.622,10.435-13.492-6.332,13.5-4.791,13.5,9.583-15,11.636-14.256-5.3,11.635-3.422,12.319,6.33-7.7,7.185-7.7-2.995,7.7-1.925,7.7,5.18-12.856,7.231-11.561-2.4,8.482-1.371,8.823,7.528-9.239,9.41-7.87-7.358,12.631-4.45,12.647,7.872-12.476,10.267-12.3-4.79,11.121-2.908,11.292,5.646-12.319,7.7-11.635-2.909,9.41-1.54,9.924,4.277-8.726,6.673-8.554-4.449,8.9-1.541,9.239,3.936-9.752,6.844-9.41-3.679,9.259-2.1,10.437,4.027-4.449,4.027-4.449" transform="translate(2893.927 -10665.198)" fill="none" stroke="#9b1f36" stroke-linecap="round" stroke-linejoin="round" stroke-width="2"/>
    <path id="Trazado_115542" data-name="Trazado 115542" d="M75.557,221.04l3.993-1.693a11.23,11.23,0,0,1-.8,3.825,2.952,2.952,0,0,0,2.266-2.424l-.441,1.4,3.729-.03a.978.978,0,0,1,.426-1.1c-.4.357-.156,1.084.321,1.327a2.273,2.273,0,0,0,1.571.016,15.445,15.445,0,0,0,3.767-1.489,1.856,1.856,0,0,0,1.1,2.1,5.405,5.405,0,0,0,2.546.33l11.181-.356" transform="translate(2893.934 -10668.41)" fill="none" stroke="#263238" stroke-linecap="round" stroke-linejoin="round" stroke-width="2"/>
    <path id="Trazado_115543" data-name="Trazado 115543" d="M74.443,229.979s1.54-1.989,2.909-1.765.513,2.449,1.027,2.79,1.368-4.555,2.224-2.79a8.551,8.551,0,0,0,2.225,2.808s1.881-1.978,2.4-1.6,1.54,0,1.54,0h15.912" transform="translate(2894.084 -10669.556)" fill="none" stroke="#263238" stroke-linecap="round" stroke-linejoin="round" stroke-width="2"/>
    <path id="Trazado_115544" data-name="Trazado 115544" d="M132.419,219.347s-12.862,41.971,94.785,37.424" transform="translate(2886.32 -10668.41)" fill="none" stroke="#263238" stroke-linecap="round" stroke-linejoin="round" stroke-width="2"/>
    <path id="Trazado_115545" data-name="Trazado 115545" d="M242.077,259.131l2.738,3.357-2.738,1.706" transform="translate(2871.448 -10673.783)" fill="none" stroke="#263238" stroke-linecap="round" stroke-linejoin="round" stroke-width="2"/>
    <g id="Grupo_58993" data-name="Grupo 58993" transform="translate(3004.672 -10412.174)">
      <path id="Trazado_115546" data-name="Trazado 115546" d="M160.752,263.9c-8.9-4.11-25.024-1.327-37,6.2s-14.429,32.163,29.4,24.977,16.113-27.41.758-27.41" transform="translate(-116.231 -261.996)" fill="#fff" stroke="#27e6ea" stroke-linecap="round" stroke-linejoin="round" stroke-width="2"/>
      <path id="Trazado_115547" data-name="Trazado 115547" d="M127.5,279.219s2.679-2.428,3.841-2.566-2.189,2.241,0,2.591,1.761-.894,3.858-1.3,2.78,1.937,2.78,1.937,3.422-1.174,5.475-1.758.684,2.731,3.422,1.758,1.521-2.542,5.893-1.758,12.838.293,16.646.026" transform="translate(-117.753 -263.974)" fill="none" stroke="#27e6ea" stroke-linecap="round" stroke-linejoin="round" stroke-width="2"/>
      <path id="Trazado_115548" data-name="Trazado 115548" d="M131.941,287.638c.821-2.091-.206-2.493,2.189-1.436s3.764,2.5,4.791,1.436a3.089,3.089,0,0,1,3.422-.813c1.027.433-1.368,1.118,1.027.433a9.622,9.622,0,0,0,3.763-2s-.6,1.457,1.925,2.758,4.311-1.379,4.311-1.379a107.669,107.669,0,0,1,11.559.178" transform="translate(-118.352 -265.137)" fill="none" stroke="#27e6ea" stroke-linecap="round" stroke-linejoin="round" stroke-width="2"/>
    </g>
    <g id="Grupo_58994" data-name="Grupo 58994" transform="translate(3041.955 -10305.006)">
      <path id="Trazado_115549" data-name="Trazado 115549" d="M159.334,404.9l9.151-10.022v-2.614l7.01-6.365s8.533,2.951,12.6,13.337l-7.408,6.246-2.832.363-10.924,7.771S159.334,411,159.334,404.9Z" transform="translate(-159.334 -385.894)"/>
      <path id="Trazado_115550" data-name="Trazado 115550" d="M178.311,388.131s3.123,9.3,11.184,11.184" transform="translate(-161.897 -386.196)" fill="none" stroke="#fff" stroke-linecap="round" stroke-linejoin="round" stroke-width="1" opacity="0.3"/>
      <path id="Trazado_115551" data-name="Trazado 115551" d="M171.593,396.443s2.833,7.481,8.861,9.877" transform="translate(-160.989 -387.319)" fill="none" stroke="#fff" stroke-linecap="round" stroke-linejoin="round" stroke-width="1" opacity="0.3"/>
    </g>
    <path id="Trazado_115552" data-name="Trazado 115552" d="M275.63,92.155l3.641-4.165h8.463a18.4,18.4,0,0,0,6.373-2.764s-3.218-3.28-7.1-3.393h-7.3l-19.5-3.536-108.6,9.694a14.549,14.549,0,0,0,1.949,13.232Z" transform="translate(2883.771 -10649.363)" fill="rgba(0,0,0,0.7)" opacity="0.2"/>
    <path id="Trazado_115553" data-name="Trazado 115553" d="M348.83,101.544l2.9-2.5,9.465-.1a26.892,26.892,0,0,0,.2-9.285l-25.844-8.981c-6.637,4.145-3.942,20.868-3.942,20.868Z" transform="translate(2859.43 -10649.685)" fill="rgba(0,0,0,0.7)" opacity="0.2"/>
    <g id="Grupo_58996" data-name="Grupo 58996" transform="translate(3033.2 -10582.4)">
      <g id="Grupo_58995" data-name="Grupo 58995">
        <path id="Trazado_115554" data-name="Trazado 115554" d="M307.725,71.231s4.563-.571,7.186,1.54c0,0-.343,2.681-7.186,3.365Z" transform="translate(-170.617 -66)" fill="#9b1f36" stroke="#263238" stroke-linecap="round" stroke-linejoin="round" stroke-width="1"/>
        <path id="Trazado_115555" data-name="Trazado 115555" d="M277.937,69.227l-5.943-4.033L151.271,74.907c-5.3,8.579,1.312,17.069,1.312,17.069L274.067,81.9l4.261-4.176,8.426-1.45a7.4,7.4,0,0,0,.765-3.393,5.33,5.33,0,0,0-1.134-3.575Z" transform="translate(-149.212 -65.194)" fill="#263238"/>
      </g>
      <path id="Trazado_115556" data-name="Trazado 115556" d="M197.681,73.347l53.837-4.413h0a1.749,1.749,0,0,1-1.467,2.411L199.58,75.672a1.749,1.749,0,0,1-1.9-1.742Z" transform="translate(-155.757 -65.699)" fill="#9b1f36"/>
      <path id="Trazado_115557" data-name="Trazado 115557" d="M291.044,67.352s3.878,4.334,1.141,13" transform="translate(-168.365 -65.485)" fill="none" stroke="#fff" stroke-linecap="round" stroke-linejoin="round" stroke-width="1" opacity="0.3"/>
      <path id="Trazado_115558" data-name="Trazado 115558" d="M298.527,71.161a9.964,9.964,0,0,1,.514,5.488" transform="translate(-169.375 -66)" fill="none" stroke="#fff" stroke-linecap="round" stroke-linejoin="round" stroke-width="1" opacity="0.3"/>
      <path id="Trazado_115559" data-name="Trazado 115559" d="M152.648,78.3s4.107,3.592,1.369,13.858" transform="translate(-149.676 -66.963)" fill="none" stroke="#fff" stroke-linecap="round" stroke-linejoin="round" stroke-width="1" opacity="0.3"/>
      <path id="Trazado_115560" data-name="Trazado 115560" d="M155.319,75.987s1.3.17,1.816,6.672L272.716,71.945a11.68,11.68,0,0,0-2.373-5.689l-68.655,5.808Z" transform="translate(-150.037 -61.496)" fill="#fff" opacity="0.3"/>
      <path id="Trazado_115561" data-name="Trazado 115561" d="M299.832,70.7a6.089,6.089,0,0,1,.915,3.145l6.388-.621a7.711,7.711,0,0,0-.8-2.524Z" transform="translate(-169.551 -65.937)" fill="#fff" opacity="0.3"/>
    </g>
    <g id="Grupo_58999" data-name="Grupo 58999" transform="translate(3193.898 -10577.641)">
      <g id="Grupo_58998" data-name="Grupo 58998">
        <path id="Trazado_115562" data-name="Trazado 115562" d="M359.493,93.375,346.337,90.04l-2.3,1.235-8.92-3.174s-1.427-8.914,5.807-17.4l9,3.581L351.58,76.6l12.008,5.96S364.87,90.494,359.493,93.375Z" transform="translate(-334.998 -70.697)" fill="#9b1f36"/>
        <g id="Grupo_58997" data-name="Grupo 58997" clip-path="url(#clip-path-2)">
          <path id="Trazado_115563" data-name="Trazado 115563" d="M359.5,93.371l-13.156-3.33-2.309,1.237L335.112,88.1s-1.427-8.918,5.8-17.4c1.332.528,4.109,6.911-1.739,15.353l5.328,2.05a9.856,9.856,0,0,0,3.711-3.053,7.286,7.286,0,0,0,1.176-2.578.008.008,0,0,0,.009-.009,10.472,10.472,0,0,1-.45,4.5l10.726,3.425s2.578.32,3.91-7.819C363.587,82.567,364.867,90.49,359.5,93.371Z" transform="translate(-334.998 -70.697)" fill="rgba(0,0,0,0.7)" opacity="0.3"/>
        </g>
        <path id="Trazado_115565" data-name="Trazado 115565" d="M359.493,93.375,346.337,90.04l-2.3,1.235-8.92-3.174s-1.427-8.914,5.807-17.4l9,3.581L351.58,76.6l12.008,5.96S364.87,90.494,359.493,93.375Z" transform="translate(-334.998 -70.697)" fill="none" stroke="#263238" stroke-linecap="round" stroke-linejoin="round" stroke-width="1"/>
      </g>
      <path id="Trazado_115566" data-name="Trazado 115566" d="M336.963,87.14S343.683,80,341.541,72" transform="translate(-335.263 -70.873)" fill="none" stroke="#263238" stroke-linecap="round" stroke-linejoin="round" stroke-width="1"/>
      <path id="Trazado_115567" data-name="Trazado 115567" d="M347.463,89.553s5.256-6.03,4.523-12.474" transform="translate(-336.681 -71.559)" fill="none" stroke="#263238" stroke-linecap="round" stroke-linejoin="round" stroke-width="1"/>
    </g>
    <path id="Trazado_115568" data-name="Trazado 115568" d="M400.837,301.643l-2.828,57.537c-15.111-.234-36.709-.528-59.613-.657h-.009c-5.415-4.74-10.777-29.729-12.836-37.487s2.18-31.476,2.18-31.476-3.313-3.2-4-5.4,1.816-5.475,1.816-5.475l-1.358-7.525-2.742-2.076L318.942,266c-5.691-2.361-6.842-5.536-6.842-5.536l24.072-5.493Z" transform="translate(2861.992 -10673.221)" fill="rgba(0,0,0,0.7)" opacity="0.3"/>
    <g id="Grupo_59002" data-name="Grupo 59002" transform="translate(3188.538 -10443.799)">
      <g id="Grupo_59001" data-name="Grupo 59001">
        <path id="Trazado_115569" data-name="Trazado 115569" d="M368.93,436.832s-9.273-77.506-14.063-90.616-11.083-56.46-11.083-56.46,14.565-1.167,18.974-1.211,10.111-4.264,10.111-4.264c-.483.872-1.581.336-2.4-4.961-.544-3.54-5.931-4.62-5.931-4.62s-12.931.968-23.839-.495a13.52,13.52,0,0,1-8.119,0c-3.971-1.444-4.776-2.995-2.6-5.094,0,0-3.082-4.037,7.47-9.775,0,0-7.014-6.308-3.592-10.414s11.52-8.1,11.52-8.1.342-3.079,1.825-3.878,9.581-4.106,14.029-7.186,6.388-2.851,14.6-3.079,18.249-2.282,22.013-.57c2.924,1.329,4.287,6.551,4.287,6.551,2.726.9,3,5.332,3.183,6.428.8,4.9,6.446,25.231,8.955,28.767s3.993,9.7,3.536,12.889-1.6,6.958-2.738,13.46-5.018,29.085-6.958,35.587-2.965,17.793-1.939,23.268l28.831,68.612" transform="translate(-328.801 -225.434)" fill="#fff"/>
        <g id="Grupo_59000" data-name="Grupo 59000" clip-path="url(#clip-path-3)">
          <path id="Trazado_115570" data-name="Trazado 115570" d="M400.237,255.359s-5.458,3.3-5.458,5.389c0,0-10.371,7.9-11.573,17.2,0,0-5.752,5.83-7.015,8.477s-6.747,5.752-6.747,5.752a40.85,40.85,0,0,0-4.662-.173,57.977,57.977,0,0,1-7.8-1.7c2.6-.164,4.982-.294,6.357-.3,3.659-.035,8.2-2.941,9.644-3.936-.554-.035-1.323-1.332-1.929-5.294-.545-3.538-5.934-4.619-5.934-4.619s-12.931.969-23.838-.493a14.164,14.164,0,0,1-5.527.571,5.146,5.146,0,0,0-1.315-3.78s5.008-3.33,3.7-5.9c-.623-1.228-2.863-1.989-5.051-2.448a26.984,26.984,0,0,1,4.939-3.313s-7.015-6.306-3.59-10.414,11.521-8.1,11.521-8.1.337-3.071,1.825-3.875c0,0-.908,4.749,5.7,4.333s16.019-4.333,16.019-4.333,17.818.493,21.434-2.249c0,0,4.29,3.693,7.491,4.359S400.237,255.359,400.237,255.359Z" transform="translate(-329.38 -226.88)" fill="#afafaf" opacity="0.4"/>
          <path id="Trazado_115571" data-name="Trazado 115571" d="M429.005,281.266c-.458,3.192-1.6,6.954-2.742,13.459s-5.017,29.089-6.954,35.585-2.967,17.792-1.946,23.268l2.422,5.778c-5.25-9.307-4.835-21.52-4.411-24.729.51-3.936,3.417-18.484,6.063-26.009s2.828-23.268,2.828-23.812-1.367,3.451-2.759,7.9-6.479,16.945-6.479,16.945c-.173-2.569,1.963-17.775,2.353-19.5s3.52-13.4,4.057-16.651-2.041-6.885-2.69-9.558a184.771,184.771,0,0,1-3.892-22.134,34.9,34.9,0,0,0-3.174-12.507,16.615,16.615,0,0,1,1.643,3.892c2.733.891,3.01,5.328,3.183,6.427.8,4.9,6.453,25.231,8.961,28.769S429.455,278.074,429.005,281.266Z" transform="translate(-339.993 -225.955)" fill="#afafaf" opacity="0.4"/>
          <path id="Trazado_115572" data-name="Trazado 115572" d="M371.35,442.1c-2.811-22.108-8.433-64.189-11.98-75.728,2.448,2.975,5.233,7.8,7.188,17.048,3.936,18.649,5.138,26.857,5.3,35.412C371.973,424.3,371.895,434.373,371.35,442.1Z" transform="translate(-332.929 -244.465)" fill="#afafaf" opacity="0.4"/>
        </g>
        <path id="Trazado_115574" data-name="Trazado 115574" d="M368.93,436.832s-9.273-77.506-14.063-90.616-11.083-56.46-11.083-56.46,14.565-1.167,18.974-1.211,10.111-4.264,10.111-4.264c-.483.872-1.581.336-2.4-4.961-.544-3.54-5.931-4.62-5.931-4.62s-12.931.968-23.839-.495a13.52,13.52,0,0,1-8.119,0c-3.971-1.444-4.776-2.995-2.6-5.094,0,0-3.082-4.037,7.47-9.775,0,0-7.014-6.308-3.592-10.414s11.52-8.1,11.52-8.1.342-3.079,1.825-3.878,9.581-4.106,14.029-7.186,6.388-2.851,14.6-3.079,18.249-2.282,22.013-.57c2.924,1.329,4.287,6.551,4.287,6.551,2.726.9,3,5.332,3.183,6.428.8,4.9,6.446,25.231,8.955,28.767s3.993,9.7,3.536,12.889-1.6,6.958-2.738,13.46-5.018,29.085-6.958,35.587-2.965,17.793-1.939,23.268l28.831,68.612" transform="translate(-328.801 -225.434)" fill="none" stroke="#263238" stroke-linecap="round" stroke-linejoin="round" stroke-width="1"/>
      </g>
      <path id="Trazado_115575" data-name="Trazado 115575" d="M330.167,274.344s2.281,3.079,10.151,1.825,17.279-9.127,17.279-9.127l5.646-2.393s7.186.8,9.81-.457" transform="translate(-328.986 -230.668)" fill="none" stroke="#263238" stroke-linecap="round" stroke-linejoin="round" stroke-width="1"/>
      <path id="Trazado_115576" data-name="Trazado 115576" d="M375.123,264.985s4.686,5.018,8.45,6.159" transform="translate(-335.056 -230.775)" fill="none" stroke="#263238" stroke-linecap="round" stroke-linejoin="round" stroke-width="1"/>
      <path id="Trazado_115577" data-name="Trazado 115577" d="M379.749,292.185c3.193-2.053,7.414-7.756,11.292-8.212" transform="translate(-335.681 -233.339)" fill="none" stroke="#263238" stroke-linecap="round" stroke-linejoin="round" stroke-width="1"/>
      <path id="Trazado_115578" data-name="Trazado 115578" d="M378.958,279.8c1.715-5.716,6.958-11.52,6.958-11.52a27.173,27.173,0,0,1,3.193-5.361,9.1,9.1,0,0,1,5.475-3.764s-4.532-12.828-3.194-15.4" transform="translate(-335.574 -227.907)" fill="none" stroke="#263238" stroke-linecap="round" stroke-linejoin="round" stroke-width="1"/>
      <path id="Trazado_115579" data-name="Trazado 115579" d="M370.123,281.849s3.518-1.11,4.325-3.463" transform="translate(-334.381 -232.584)" fill="none" stroke="#263238" stroke-linecap="round" stroke-linejoin="round" stroke-width="1"/>
      <path id="Trazado_115580" data-name="Trazado 115580" d="M368.311,276.852s-.216,3.65-5.7,4.79" transform="translate(-333.367 -232.377)" fill="none" stroke="#263238" stroke-linecap="round" stroke-linejoin="round" stroke-width="1"/>
      <path id="Trazado_115581" data-name="Trazado 115581" d="M368.408,264.151s2.729-1.81,3.646-3.642" transform="translate(-334.15 -230.17)" fill="none" stroke="#263238" stroke-linecap="round" stroke-linejoin="round" stroke-width="1"/>
      <path id="Trazado_115582" data-name="Trazado 115582" d="M347.953,242.406s-.977,2.738,3.1,3.878,15.031-.116,19.594-3.878c0,0,1.122-3.193.789-5.246" transform="translate(-331.374 -227.017)" fill="none" stroke="#263238" stroke-linecap="round" stroke-linejoin="round" stroke-width="1"/>
      <path id="Trazado_115583" data-name="Trazado 115583" d="M373.519,242.984s13.373-.454,14.4-.453,5.133-2.167,5.931-4.448" transform="translate(-334.84 -227.142)" fill="none" stroke="#263238" stroke-linecap="round" stroke-linejoin="round" stroke-width="1"/>
      <path id="Trazado_115584" data-name="Trazado 115584" d="M397.024,261.555a11.875,11.875,0,0,0,5.093.586" transform="translate(-338.014 -230.312)" fill="none" stroke="#263238" stroke-linecap="round" stroke-linejoin="round" stroke-width="1"/>
      <path id="Trazado_115585" data-name="Trazado 115585" d="M389.272,283.514s-.484-5.06,3.052-12.225" transform="translate(-336.964 -231.626)" fill="none" stroke="#263238" stroke-linecap="round" stroke-linejoin="round" stroke-width="1"/>
      <path id="Trazado_115586" data-name="Trazado 115586" d="M413.584,233.789c1.814,7.055,4.609,30.256,6.492,34.664s2.11,5.891.742,10-3.571,14.03-3.571,14.03" transform="translate(-340.25 -226.562)" fill="none" stroke="#263238" stroke-linecap="round" stroke-linejoin="round" stroke-width="1"/>
      <path id="Trazado_115587" data-name="Trazado 115587" d="M417.942,370.847c-1.483-4.677-2.4-10.836-1.824-13.687" transform="translate(-340.569 -243.222)" fill="none" stroke="#263238" stroke-linecap="round" stroke-linejoin="round" stroke-width="1"/>
    </g>
    <g id="Grupo_59007" data-name="Grupo 59007" transform="translate(3174.093 -10438.554)">
      <path id="Trazado_115588" data-name="Trazado 115588" d="M317.166,258.131s-3.782.709-5.065,2.762c0,0,1.113,1.758,5.689,1.264S317.166,258.131,317.166,258.131Z" transform="translate(-312.101 -235.095)" fill="#263238"/>
      <g id="Grupo_59004" data-name="Grupo 59004" transform="translate(4.818 0.014)">
        <path id="Trazado_115589" data-name="Trazado 115589" d="M331.445,247.388l106.989-15.874L439.8,250.6,332.357,261.263,327.341,259l-8.215.21a4.419,4.419,0,0,1-.81-5.589l8.463-1.816Z" transform="translate(-317.672 -231.514)" fill="#9b1f36"/>
        <g id="Grupo_59003" data-name="Grupo 59003" clip-path="url(#clip-path-4)">
          <path id="Trazado_115590" data-name="Trazado 115590" d="M354.421,250.038l44.1-6.256a3.331,3.331,0,0,1,3.782,2.961l.09.884a3.331,3.331,0,0,1-2.911,3.642l-44.187,5.373a3.331,3.331,0,0,1-3.717-2.987h0A3.33,3.33,0,0,1,354.421,250.038Z" transform="translate(-322.248 -233.166)" fill="#263238"/>
          <path id="Trazado_115591" data-name="Trazado 115591" d="M439.868,250.75,332.422,261.415l-5.017-2.266-8.217.208a4.318,4.318,0,0,1-1.038-1.41l8.624-.294,3.806.346,14.955-1.254,4.377-8.209a8.108,8.108,0,0,1,6.92,3.417c3.079,3.9,4.792,3.4,4.792,3.4l73.6-7.7.882-.891s-2.967-6.729,0-12.222c.744-1.375,1.6-1.929,2.465-1.92Z" transform="translate(-317.736 -231.663)" fill="rgba(0,0,0,0.7)" opacity="0.3"/>
        </g>
        <path id="Trazado_115593" data-name="Trazado 115593" d="M331.445,247.388l106.989-15.874L439.8,250.6,332.357,261.263,327.341,259l-8.215.21a4.419,4.419,0,0,1-.81-5.589l8.463-1.816Z" transform="translate(-317.672 -231.514)" fill="none" stroke="#263238" stroke-linecap="round" stroke-linejoin="round" stroke-width="1"/>
      </g>
      <g id="Grupo_59006" data-name="Grupo 59006" transform="translate(120.649)">
        <path id="Trazado_115594" data-name="Trazado 115594" d="M456.517,231.512c7.414-.592,9.01,18.332,1.369,19.09C450.574,251.327,449,232.112,456.517,231.512Z" transform="translate(-451.585 -231.498)" fill="#9b1f36"/>
        <path id="Trazado_115597" data-name="Trazado 115597" d="M456.517,231.512c7.414-.592,9.01,18.332,1.369,19.09C450.574,251.327,449,232.112,456.517,231.512Z" transform="translate(-451.585 -231.498)" fill="none" stroke="#263238" stroke-linecap="round" stroke-linejoin="round" stroke-width="1"/>
      </g>
      <path id="Trazado_115598" data-name="Trazado 115598" d="M333.339,249.866s-2.117,2.661-1.54,7.715a11.526,11.526,0,0,0,2.452,6.159" transform="translate(-314.747 -233.979)" fill="none" stroke="#263238" stroke-linecap="round" stroke-linejoin="round" stroke-width="1"/>
      <path id="Trazado_115599" data-name="Trazado 115599" d="M328.126,254.972a9.355,9.355,0,0,0,.562,7.195" transform="translate(-314.201 -234.668)" fill="none" stroke="#263238" stroke-linecap="round" stroke-linejoin="round" stroke-width="1"/>
      <path id="Trazado_115600" data-name="Trazado 115600" d="M452.474,251.176c-7.312.726-8.721-17.656-1.276-18.873" transform="translate(-330.217 -231.607)" fill="none" stroke="#263238" stroke-linecap="round" stroke-linejoin="round" stroke-width="1"/>
      <path id="Trazado_115601" data-name="Trazado 115601" d="M456.854,232.893c5.866-.512,7.129,15.842,1.083,16.5C452.151,250.017,450.9,233.411,456.854,232.893Z" transform="translate(-331.121 -231.685)" fill="none" stroke="#263238" stroke-linecap="round" stroke-linejoin="round" stroke-width="1"/>
      <path id="Trazado_115602" data-name="Trazado 115602" d="M457.483,234.241s3.062,1.132,3.6,6.7-2.6,7.28-2.6,7.28" transform="translate(-331.733 -231.869)" fill="none" stroke="#263238" stroke-linecap="round" stroke-linejoin="round" stroke-width="1"/>
    </g>
    <g id="Grupo_59010" data-name="Grupo 59010" transform="translate(3197.3 -10421.758)">
      <g id="Grupo_59009" data-name="Grupo 59009">
        <path id="Trazado_115603" data-name="Trazado 115603" d="M374.237,293.995s-7.756.456-8.669,0-5.7-9.581-5.931-12.43-.684-11.98-.913-17.682-.221-14.6-10.95-12.707c-4.791.844-5.589,5.383-7.186,15.558s-.114,12.89-1.255,25.893.228,18.172,2.966,24.713,3.755,23.192,11.054,29.352,10.17,18.022,10.17,18.022" transform="translate(-338.931 -250.916)" fill="#fff"/>
        <g id="Grupo_59008" data-name="Grupo 59008" clip-path="url(#clip-path-6)">
          <path id="Trazado_115604" data-name="Trazado 115604" d="M355.157,261.5c-1.963.476-9.5.822-10.008,3.382s3.988,3.7,5.847,5.96c-.069,0-7.793.009-9.5,3.763-1.713,3.771,1.427,11.841,1.427,16.287s-3.875,13.346-.908,17.965c2.578,4.031,5,13.312,3.745,22.126-1.306-5.276-2.206-10.414-3.46-13.416-2.742-6.539-4.109-11.712-2.967-24.712s-.346-15.716,1.254-25.9c1.142-7.309,1.877-11.712,3.988-13.926a.008.008,0,0,1,.009-.009c2.465-.536,5.25-.744,6.937.45C355.071,255.99,357.129,261.016,355.157,261.5Z" transform="translate(-338.931 -251.143)" fill="#afafaf" opacity="0.4"/>
        </g>
        <path id="Trazado_115606" data-name="Trazado 115606" d="M374.237,293.995s-7.756.456-8.669,0-5.7-9.581-5.931-12.43-.684-11.98-.913-17.682-.221-14.6-10.95-12.707c-4.791.844-5.589,5.383-7.186,15.558s-.114,12.89-1.255,25.893.228,18.172,2.966,24.713,3.755,23.192,11.054,29.352,10.17,18.022,10.17,18.022" transform="translate(-338.931 -250.916)" fill="none" stroke="#263238" stroke-linecap="round" stroke-linejoin="round" stroke-width="1"/>
      </g>
      <path id="Trazado_115607" data-name="Trazado 115607" d="M362.033,284.64s-.734-.231-1.165-4.679a8.137,8.137,0,0,0-4.2-6.274" transform="translate(-341.327 -253.991)" fill="none" stroke="#263238" stroke-linecap="round" stroke-linejoin="round" stroke-width="1"/>
      <path id="Trazado_115608" data-name="Trazado 115608" d="M344.374,273.687s-3.185.684-4.444,5.133" transform="translate(-339.066 -253.991)" fill="none" stroke="#263238" stroke-linecap="round" stroke-linejoin="round" stroke-width="1"/>
    </g>
    <rect id="Rectángulo_5823" data-name="Rectángulo 5823" width="400" height="374" transform="translate(2923 -10605)" fill="none"/>
  </g>
</svg>
