<svg xmlns="http://www.w3.org/2000/svg" xmlns:xlink="http://www.w3.org/1999/xlink" width="103" height="103" viewBox="0 0 103 103">
  <defs>
    <filter id="Elipse_4258" x="0" y="0" width="103" height="103" filterUnits="userSpaceOnUse">
      <feOffset dy="3" input="SourceAlpha"/>
      <feGaussianBlur stdDeviation="3" result="blur"/>
      <feFlood flood-opacity="0.161"/>
      <feComposite operator="in" in2="blur"/>
      <feComposite in="SourceGraphic"/>
    </filter>
  </defs>
  <g id="Grupo_59089" data-name="Grupo 59089" transform="translate(-381 -4483)">
    <g transform="matrix(1, 0, 0, 1, 381, 4483)" filter="url(#Elipse_4258)">
      <g id="Elipse_4258-2" data-name="Elipse 4258" transform="translate(9 6)" fill="#ea526f" stroke="#fff" stroke-width="3">
        <circle cx="42.5" cy="42.5" r="42.5" stroke="none"/>
        <circle cx="42.5" cy="42.5" r="41" fill="none"/>
      </g>
    </g>
    <g id="Grupo_59085" data-name="Grupo 59085" transform="translate(409 4509)">
      <path id="Trazado_115693" data-name="Trazado 115693" d="M237.722,320.755a.678.678,0,0,0-.678.678.532.532,0,0,1-1.064,0,.678.678,0,0,0-.678-.678c-1.268,0-.682,2.566,1.21,2.566S238.991,320.755,237.722,320.755Z" transform="translate(-213.447 -292.159)" fill="#fff"/>
      <path id="Trazado_115694" data-name="Trazado 115694" d="M283.425,293.8a.719.719,0,1,1-.719-.719A.719.719,0,0,1,283.425,293.8Z" transform="translate(-256.531 -266.985)" fill="#fff"/>
      <path id="Trazado_115695" data-name="Trazado 115695" d="M214.533,293.8a.719.719,0,1,1-.719-.719A.719.719,0,0,1,214.533,293.8Z" transform="translate(-193.858 -266.985)" fill="#fff"/>
      <path id="Trazado_115696" data-name="Trazado 115696" d="M275.111,274.776a4.464,4.464,0,0,0-2.864-.3.678.678,0,0,0,.277,1.328,3.207,3.207,0,0,1,1.865.122.678.678,0,1,0,.722-1.148Z" transform="translate(-247.178 -249.957)" fill="#fff"/>
      <path id="Trazado_115697" data-name="Trazado 115697" d="M201.789,275.277a.678.678,0,0,0-.525-.8,4.464,4.464,0,0,0-2.864.3.678.678,0,1,0,.722,1.148,3.146,3.146,0,0,1,1.867-.122A.677.677,0,0,0,201.789,275.277Z" transform="translate(-180.201 -249.957)" fill="#fff"/>
      <path id="Trazado_115698" data-name="Trazado 115698" d="M283.27,469.249a.678.678,0,0,0,.678.678h3.863a.678.678,0,0,0,0-1.356h-3.863A.678.678,0,0,0,283.27,469.249Z" transform="translate(-257.698 -426.631)" fill="#fff"/>
      <path id="Trazado_115699" data-name="Trazado 115699" d="M174.46,468.571H170.6a.678.678,0,0,0,0,1.356h3.864a.678.678,0,0,0,0-1.356Z" transform="translate(-154.579 -426.631)" fill="#fff"/>
      <path id="Trazado_115700" data-name="Trazado 115700" d="M45.63,22.619,37.2,17.749a1.007,1.007,0,0,0-1.509.872v2.05h-4.2a4,4,0,0,0-4.013-3.334H25.885v-2.9h2.05a1.008,1.008,0,0,0,.872-1.509l-1.373-2.376a.678.678,0,1,0-1.174.678l1.068,1.851H18.8L23.066,5.7,24.9,8.882A.678.678,0,0,0,26.079,8.2L23.937,4.494a1.007,1.007,0,0,0-1.741,0c-5.31,9.2-5.005,8.557-5.005,8.937A1.007,1.007,0,0,0,18.2,14.438h2.05v3.254a3.96,3.96,0,0,0-2,1.916,3.274,3.274,0,0,0-3.054,1.063H10.446v-2.05a1.007,1.007,0,0,0-1.509-.872L6.561,19.122A.678.678,0,0,0,7.24,20.3L9.09,19.227v8.526L1.706,23.49l3.184-1.838a.678.678,0,1,0-.678-1.174L.5,22.619a1.007,1.007,0,0,0,0,1.742c9.181,5.3,8.557,5.005,8.937,5.005a1.007,1.007,0,0,0,1.006-1.006v-2.05h4.822a2.351,2.351,0,0,0,1.052.59v1.681A2.969,2.969,0,0,0,16.5,34.21a8.042,8.042,0,0,0,3.449,4.178,8.8,8.8,0,0,0-7.286,8.662A2.453,2.453,0,0,0,15.111,49.5h15.91a2.456,2.456,0,0,0,2.453-2.454,8.779,8.779,0,0,0-7.287-8.662,8.033,8.033,0,0,0,3.449-4.178,2.968,2.968,0,0,0,.175-5.628v-.563a1.788,1.788,0,0,0,1.707-1.709h4.167v2.05a1.007,1.007,0,0,0,1.509.872l8.434-4.871A1.007,1.007,0,0,0,45.63,22.619ZM14.615,24.953H10.446V22.027h4.176C14.595,22.259,14.6,24.813,14.615,24.953Zm1.706,7.659a1.607,1.607,0,0,1,0-2.491ZM21.6,14.438h2.926v2.9c-2.823,0-2.7,0-2.926.014Zm-1.24,25.256c0,1.147-.044,1.284.157,1.527l-.746-.325a1.142,1.142,0,0,0-1.1.082l-.953.688C17.974,40.3,18.939,39.9,20.364,39.694Zm2.024,8.453H15.111a1.1,1.1,0,0,1-1.1-1.1,7.422,7.422,0,0,1,2.345-5.419c-.1.714-.1,1.361.572,1.65a1.051,1.051,0,0,0,1.089-.154l1.308-.944c3.735,1.627,2.8,1.216,3.059,1.344Zm-.668-7.615V39.318a3.161,3.161,0,0,0,2.692,0v1.2l-1.379,1.487Zm7.48,2.75c.67-.289.673-.933.573-1.65a7.383,7.383,0,0,1,2.345,5.418,1.1,1.1,0,0,1-1.1,1.1H23.744V43.482l3.059-1.3,1.308.945A1.052,1.052,0,0,0,29.2,43.282Zm-2.639-3.427a7.234,7.234,0,0,1,.741.234,2.168,2.168,0,0,1,1.106,1.578c-1.462-1.054-1.266-1.1-2.786-.457.19-.239.146-.368.146-1.516A7.436,7.436,0,0,1,26.561,39.855Zm1.618-5.587a8.081,8.081,0,0,1-5,3.992c-1.385,0-4.348-1.934-5.225-3.992-.383-.9-.277-.8-.277-7.293h.363a2.893,2.893,0,0,0,2.491-1.393,13.108,13.108,0,0,0,7.924,2.435C28.456,33.334,28.56,33.373,28.179,34.268Zm1.633-1.656V30.121A1.608,1.608,0,0,1,29.812,32.613Zm.359-7.66v1.165c0,.235-.13.544-.359.544-1.022,0-6.144.276-9.115-2.744a.678.678,0,0,0-1.159.426,1.425,1.425,0,0,1-1.218,1.251,8.845,8.845,0,0,1-1.4.025.919.919,0,0,1-.962-.864v-2.43a1.441,1.441,0,0,1,1.5-1.369,3.4,3.4,0,0,1,1.033.064.677.677,0,0,0,.843-.467,2.634,2.634,0,0,1,2.265-1.84c.228-.027-.17-.02,5.875-.02a2.658,2.658,0,0,1,2.635,1.977C30.189,21.007,30.171,20.785,30.171,24.953Zm5.515,0H31.527V22.027h4.159Zm1.356,2.8V19.227l7.384,4.263Z" transform="translate(-0.001 -3.993)" fill="#fff"/>
    </g>
  </g>
</svg>
