<svg xmlns="http://www.w3.org/2000/svg" xmlns:xlink="http://www.w3.org/1999/xlink" width="392.5" height="374.707" viewBox="0 0 392.5 374.707">
  <defs>
    <clipPath id="clip-path">
      <path id="Trazado_730169" data-name="Trazado 730169" d="M17.893,17.895A61.089,61.089,0,1,0,61.093,0a61.093,61.093,0,0,0-43.2,17.895" fill="#1448d3"/>
    </clipPath>
    <linearGradient id="linear-gradient" x1="0.5" x2="0.5" y2="1" gradientUnits="objectBoundingBox">
      <stop offset="0" stop-color="#c6c6c6"/>
      <stop offset="1" stop-color="#fff"/>
    </linearGradient>
  </defs>
  <g id="Grupo_1015061" data-name="Grupo 1015061" transform="translate(-174 -1882.131)">
    <path id="Trazado_730167" data-name="Trazado 730167" d="M105.435,0A105.435,105.435,0,1,1,0,105.435,105.435,105.435,0,0,1,105.435,0Z" transform="translate(384.869 2093) rotate(180)" fill="#0ce6ea"/>
    <g id="Grupo_1009852" data-name="Grupo 1009852" transform="translate(342.554 2058.988) rotate(180)">
      <g id="Grupo_1009851" data-name="Grupo 1009851" transform="translate(0 0)" clip-path="url(#clip-path)">
        <rect id="Rectángulo_346702" data-name="Rectángulo 346702" width="156.701" height="0.865" transform="translate(46.515 157.32) rotate(-45)" fill="#1448d3"/>
        <rect id="Rectángulo_346703" data-name="Rectángulo 346703" width="156.701" height="0.865" transform="translate(40.187 150.992) rotate(-45)" fill="#1448d3"/>
        <rect id="Rectángulo_346704" data-name="Rectángulo 346704" width="156.701" height="0.865" transform="translate(33.86 144.665) rotate(-45)" fill="#1448d3"/>
        <rect id="Rectángulo_346705" data-name="Rectángulo 346705" width="156.701" height="0.865" transform="translate(27.532 138.337) rotate(-45)" fill="#1448d3"/>
        <rect id="Rectángulo_346706" data-name="Rectángulo 346706" width="156.701" height="0.865" transform="translate(21.205 132.01) rotate(-45)" fill="#1448d3"/>
        <path id="Trazado_730168" data-name="Trazado 730168" d="M111.416.613.611,111.417,0,110.8,110.8,0Z" transform="translate(14.876 14.876)" fill="#1448d3"/>
        <rect id="Rectángulo_346707" data-name="Rectángulo 346707" width="156.701" height="0.865" transform="translate(8.548 119.354) rotate(-45)" fill="#1448d3"/>
        <rect id="Rectángulo_346708" data-name="Rectángulo 346708" width="156.701" height="0.865" transform="translate(2.221 113.026) rotate(-45)" fill="#1448d3"/>
        <rect id="Rectángulo_346709" data-name="Rectángulo 346709" width="156.701" height="0.865" transform="translate(-4.107 106.698) rotate(-45)" fill="#1448d3"/>
        <rect id="Rectángulo_346710" data-name="Rectángulo 346710" width="156.701" height="0.865" transform="translate(-10.435 100.37) rotate(-45)" fill="#1448d3"/>
        <rect id="Rectángulo_346711" data-name="Rectángulo 346711" width="156.701" height="0.865" transform="translate(-16.762 94.043) rotate(-45)" fill="#1448d3"/>
        <rect id="Rectángulo_346712" data-name="Rectángulo 346712" width="156.701" height="0.865" transform="translate(-23.09 87.715) rotate(-45)" fill="#1448d3"/>
        <rect id="Rectángulo_346713" data-name="Rectángulo 346713" width="156.701" height="0.865" transform="translate(-29.417 81.388) rotate(-45)" fill="#1448d3"/>
        <rect id="Rectángulo_346714" data-name="Rectángulo 346714" width="156.701" height="0.865" transform="translate(-35.746 75.06) rotate(-45)" fill="#1448d3"/>
      </g>
    </g>
    <rect id="Rectángulo_33770" data-name="Rectángulo 33770" width="111" height="270" rx="55.5" transform="translate(451 1985)" fill="#0a59a8"/>
    <g id="Grupo_59034" data-name="Grupo 59034" transform="translate(35.967 -9.6)">
      <g id="Grupo_59033" data-name="Grupo 59033" transform="translate(205 1924.6)">
        <path id="Trazado_115610" data-name="Trazado 115610" d="M415.512,391.766H204.363l-5.394-5.394,5.394-271.284,205.756-5.394,5.394,5.394Z" transform="translate(-130.143 -109.695)" fill="#afafaf" opacity="0.47" style="mix-blend-mode: multiply;isolation: isolate"/>
        <rect id="Rectángulo_5825" data-name="Rectángulo 5825" width="211.149" height="276.678" transform="translate(68.827 0)" fill="url(#linear-gradient)" style="mix-blend-mode: screen;isolation: isolate"/>
        <path id="Trazado_115611" data-name="Trazado 115611" d="M396.416,188.37l-5.89-.3-6.817.192.058-7.151.233-6.164-.474-6.191.291-6.207L383.6,156.4l.148-13.307,6.766-.114,5.888.085,5.892-.207h.031l5.854.206,5.886-.151,5.893.256,5.861-.035,5.892.216,6.726-.244.038,7.063-.22,6.18.41,6.193,0,.051-.31,6.166.008,6.138.373,6.2-.112,7.278-6.94-.258-5.853-.021-5.892-.078-5.851.114-5.906-.039-5.868.069Zm-5.87-2.071,5.883.3,5.844-.211,5.906-.07,5.9.04,5.858-.114,5.912.078,5.874.022,5.161.191.082-5.4-.372-6.207-.007-6.21v-.023l.308-6.138-.409-6.18.223-6.234-.029-5.2-4.966.18-5.919-.218-5.866.036H419.9l-5.854-.255-5.878.151-5.877-.207-5.873.206H396.4l-5.882-.085-5.019.085-.127,11.544.217,6.183-.289,6.171.472,6.183-.236,6.239-.043,5.289Z" transform="translate(-236.665 -128.833)" fill="#848c91"/>
        <path id="Trazado_115612" data-name="Trazado 115612" d="M272.669,211.729l-5.942-.033-5.859-.358-5.83-.02-5.893.337-6.884-.125.238-7.284.044-6.3-.233-6.288-.058-6.352.207-7.141,6.657-.058,5.907-.185,5.868.406,5.874-.384,5.883.314,5.886-.367,5.886.332,5.873-.312,6.84.178-.28,7.194.426,6.334-.359,6.348.126,6.294.2,7.371-6.942-.079-5.862-.307-5.887.448Zm-5.859-1.8,5.858.031,5.84-.039,5.909-.452,5.939.312,5.067.057-.148-5.539-.127-6.368.357-6.306-.425-6.319.214-5.5-4.977-.129-5.9.314-5.879-.332-5.883.367-5.881-.314-5.888.386-5.9-.408-5.838.183-4.972.043-.157,5.4.058,6.294.233,6.3-.044,6.365-.18,5.511,5.021.091,5.907-.337,5.934.022Z" transform="translate(-155.124 -149.054)" fill="#848c91"/>
        <path id="Trazado_115613" data-name="Trazado 115613" d="M567.187,211.652l-5.914-.419-5.845.05-5.9-.06-5.869.215-5.91-.144-5.867-.01-6.777.209-.208-7.278.343-6.328-.162-6.291-.141-6.363.361-7.026,6.58-.318,5.9.284,5.855-.085,5.895.005,5.884.185,5.859-.156,5.882.03,5.892-.349,6.924.11.1,7.356,0,.038-.454,6.287.109,6.287.332,6.325-.12,7.388-6.854-.416Zm-5.859-2.19,5.851.414,5.878-.474,5.131.311.088-5.476-.331-6.3-.111-6.4.457-6.328-.073-5.561-5.138-.082-5.882.348-5.911-.031-5.882.157-5.908-.186-5.854,0-5.9.085-5.868-.282-4.894.237-.275,5.361.139,6.3.164,6.359v.035l-.341,6.29.154,5.43,5.032-.155,5.916.01,5.875.143,5.857-.213,5.923.06Z" transform="translate(-318.262 -149.005)" fill="#848c91"/>
        <path id="Trazado_115614" data-name="Trazado 115614" d="M419.672,333.5l-1.748,5.662.285-.488-4.053,4.3.488-.285-2.753.821-1.958.583c-.139.041-.951.17-1.019.3.022-.044.43-.014.133-.033-.192-.012-.388,0-.58,0l-1.806.007c-1.167,0-2.336,0-3.5.013-3.861.039-7.73.245-11.59.363a4.229,4.229,0,0,0-.934.028c.011-.022.488.069.079.011l-.6-.083-3.927-.547a8.824,8.824,0,0,0-2.067-.209l-3.656.38a18.221,18.221,0,0,1-2.268.225c-1.07-.026-2.167-.238-3.231-.355-.958-.105-1.936-.281-2.9-.319-.857-.034-1.734.048-2.591.072-1.86.052-3.661.1-5.515-.028a32.2,32.2,0,0,0-5.517-.16c-1.881.195-3.774.492-5.666.526l-3.9.07a14.733,14.733,0,0,1-1.884-.007c-1.966-.219-3.964-.575-5.941-.655-1.068-.043-2.148.007-3.217.01-.962,0-1.94-.045-2.9.009-2.015.113-4.02.464-6.032.628-1.933.158-3.927.02-5.867.022-1.908,0-3.823-.17-5.728-.266-1.872-.1-3.75-.015-5.624.007s-3.695.218-5.549.389l-1.672.154a1.685,1.685,0,0,0-.43.04c-.141.06.389.132.143.013a9.615,9.615,0,0,0-1.205-.391l-1.982-.643-2.556-.829.488.285-4.591-4.093.285.488-1.266-5.281c-.022-.089-.092-.694-.176-.733.059.027.029.447.033.149,0-.15-.011-.3-.017-.451l-.122-3.261L293,328.355a4.229,4.229,0,0,0-.035-.927c-.052-.18-.057.356-.036.2.014-.108.029-.216.044-.324l.178-1.319c.22-1.626.42-3.256.663-4.879.29-1.942.6-3.882.895-5.823l-.285.488,4.388-4.328-.488.285,2.724-.654,2-.479a8.431,8.431,0,0,0,1.169-.28c.178-.072-.4-.027-.158.03a2.683,2.683,0,0,0,.474.019l1.781.071,3.591.145c1.95.079,3.9.17,5.85.255a48.89,48.89,0,0,0,5.644-.342,80.673,80.673,0,0,1,11.115.15,13.521,13.521,0,0,0,2.708.116c.985-.14,1.969-.294,2.953-.441,1.058-.158,2.125-.287,3.179-.474.164-.029-.436,0-.151.036a4.4,4.4,0,0,0,.495.01l1.8.037c1.191.025,2.39.091,3.582.074.36-.005.024-.088-.084-.035.055-.026.248.041.3.051l1.5.249,3.833.634a6.1,6.1,0,0,0,1.877,0l4.01-.49a8.8,8.8,0,0,1,1.7-.1l3.893.252a14.2,14.2,0,0,0,1.945.093c1.195-.089,2.389-.224,3.582-.336l1.8-.169a4.07,4.07,0,0,0,.477-.044c.3-.066-.26-.063-.134-.045,2.043.3,4.089.578,6.134.859a10.816,10.816,0,0,0,2.708-.266c1.185-.152,2.369-.316,3.555-.455a12.586,12.586,0,0,1,1.971.044l3.856.163c3.758.159,7.537.035,11.3-.053,1.857-.043,3.679.085,5.534.2l1.782.111c.151.009.305.027.457.028.306,0-.372-.074-.123-.021,1.066.227,2.16.364,3.234.545l2.674.45-.661-.508,3.133,4.327a6.284,6.284,0,0,0,.389.537c-.071.029-.142-.456-.065-.089.033.156.081.31.121.463l.834,3.2.332,1.275a2.159,2.159,0,0,0,.082.315c.082.189-.017-.4-.02-.169-.008.807.115,1.637.171,2.442.1,1.46.247,2.924.287,4.388l.16,5.945a1.107,1.107,0,0,0,2.213,0c-.063-2.36-.055-4.733-.219-7.089l-.351-5a17.192,17.192,0,0,0-.646-3.17l-.665-2.55a4.15,4.15,0,0,0-.374-1.146c-.814-1.332-1.858-2.567-2.774-3.832a2.5,2.5,0,0,0-2.673-1.695c-1.526-.257-3.051-.532-4.58-.772-1.244-.195-2.538-.189-3.793-.267-1.026-.064-2.066-.19-3.1-.166-2.578.06-5.152.141-7.73.129-2.758-.012-5.492-.068-8.247-.185a16.893,16.893,0,0,0-2.873-.02l-5,.64c-.091.012-.5.005-.565.072-.079.085.381.061.233.039l-.229-.032-2.2-.309-2.687-.376a11.236,11.236,0,0,0-1.348-.184,14.872,14.872,0,0,0-1.553.145l-2.826.265a16.892,16.892,0,0,1-2.739.107l-4.929-.319a17.442,17.442,0,0,0-3.157.326l-2.586.316a3.684,3.684,0,0,0-.661.081c-.27.088.42.093.038.026-1.569-.277-3.145-.52-4.718-.78a19.5,19.5,0,0,0-2.852-.282c-1.593-.033-3.194-.119-4.787-.1a26.567,26.567,0,0,0-3.484.488l-2.562.382c-.181.027-.362.051-.542.081s.313.045.21-.033c-.039-.03-.183-.011-.228-.015-2.527-.224-5.073-.391-7.609-.384-1.49,0-2.989-.039-4.478.011-1.231.041-2.465.178-3.694.267a26.169,26.169,0,0,1-3.043.161l-4.991-.219c-.943-.041-1.887-.078-2.83-.116l-2.74-.11a7.161,7.161,0,0,0-1.589-.013c-1.323.25-2.635.632-3.945.946-.635.152-1.29.272-1.915.46a2.609,2.609,0,0,0-1.063.789l-3.544,3.5a1.959,1.959,0,0,0-.668,1.045c-.138.687-.214,1.392-.32,2.085q-.623,4.056-1.165,8.118a17.53,17.53,0,0,0-.278,3.018l.188,5.041a15.4,15.4,0,0,0,.565,3.019l.627,2.615a5.989,5.989,0,0,0,.426,1.575,5.285,5.285,0,0,0,1.117,1.066l2.013,1.794c.515.458,1.022.927,1.544,1.377a3.046,3.046,0,0,0,1.155.552l4.724,1.533a7.543,7.543,0,0,0,3.112.005c1.306-.12,2.619-.293,3.928-.36,1.416-.073,2.846-.034,4.264-.05,2.591-.03,5.167.143,7.755.275,1.039.053,2.085.016,3.125.015,1.169,0,2.366.073,3.531-.015,2.479-.188,4.928-.629,7.417-.636,1.559,0,3.124-.049,4.682-.014,1.145.025,2.308.239,3.445.366a25.473,25.473,0,0,0,3.221.318l4.833-.086c.957-.017,1.882-.106,2.835-.2,1.44-.149,2.914-.413,4.362-.452,1.258-.034,2.564.168,3.819.253,1,.067,2,.173,3,.145l4.917-.138a21.51,21.51,0,0,1,2.953.231c1.282.141,2.624.419,3.915.43a14.405,14.405,0,0,0,1.563-.163l2.708-.282,1.152-.12a2.993,2.993,0,0,0,.679-.071c.222-.085-.444-.081-.052-.026l.832.116,4.881.679a20.177,20.177,0,0,0,3.387,0q1.747-.054,3.494-.107c2.465-.079,4.93-.194,7.4-.2,1.576-.006,3.159.032,4.734-.018a4.037,4.037,0,0,0,1.052-.219l2.524-.753,2.249-.67a2.21,2.21,0,0,0,1.059-.6l3.373-3.582a3.073,3.073,0,0,0,.793-1.065c.2-.575.361-1.169.541-1.751l1.19-3.855C422.227,332.726,420.092,332.143,419.672,333.5Z" transform="translate(-183.131 -223.96)" fill="#848c91"/>
        <path id="Trazado_115615" data-name="Trazado 115615" d="M334.72,476.423q-4.157.084-8.314.17c-3.183.067-6.362.1-9.546.112-1.165.005-2.319-.071-3.482-.138-1.332-.076-2.7-.26-4.038-.211-3,.11-5.988.244-8.987.27-3.1.027-6.191-.035-9.293-.11l-.465-.011,1.107,1.107c-.037-2.367-.082-4.735-.109-7.1-.03-2.61-.088-5.219-.033-7.829l.1-4.881-1.107,1.107c2.749.063,5.494.164,8.242.1q4.793-.117,9.582-.142c2.55-.017,5.1.211,7.645.221,2.973.012,5.947-.009,8.92-.025q4.67-.025,9.342-.061l.471,0-1.107-1.107c.03,2.351.081,4.7.083,7.054,0,2.594.025,5.188-.025,7.782l-.093,4.808a1.107,1.107,0,0,0,2.213,0c.046-2.34.128-4.681.126-7.021,0-2.6,0-5.193-.029-7.79l-.061-4.832a1.122,1.122,0,0,0-1.107-1.107q-4.126.03-8.253.056-4.785.026-9.569.032c-2.535,0-5.067-.239-7.6-.226-3,.015-5.989.038-8.984.11-3.117.076-6.209.022-9.327-.049l-.468-.011a1.123,1.123,0,0,0-1.107,1.107c-.049,2.379-.159,4.763-.132,7.142.03,2.606.055,5.213.1,7.818l.076,4.852a1.127,1.127,0,0,0,1.107,1.107c2.735.066,5.468.159,8.2.135,3.2-.028,6.385-.118,9.585-.246,2.542-.1,5.07.29,7.611.315,2.948.029,5.9-.021,8.847-.083q4.7-.1,9.4-.193l.478-.01A1.107,1.107,0,0,0,334.72,476.423Z" transform="translate(-182.286 -309.944)" fill="#848c91"/>
        <path id="Trazado_115616" data-name="Trazado 115616" d="M556.623,476.553c-2.735-.112-5.462-.318-8.2-.167-1.528.085-3.061.216-4.591.254-1.677.041-3.364-.022-5.042-.033-2.574-.017-5.149-.129-7.722-.119-2.973.011-5.946.068-8.918.085-3.147.018-6.27-.077-9.415-.194l-.473-.018,1.107,1.107c-.1-2.353-.291-4.72-.271-7.076.022-2.6.02-5.2.108-7.8l.164-4.848-1.107,1.107c2.759-.046,5.514-.119,8.272-.063,1.46.03,2.925.1,4.385.087,1.753-.013,3.508-.074,5.261-.111,2.521-.053,5.041.09,7.562.072,3.035-.022,6.069-.043,9.1-.116,3.1-.075,6.194-.063,9.3-.045l.457,0-1.106-1.107c0,2.405-.02,4.813.02,7.218.044,2.657.113,5.312.074,7.969l-.073,4.9a1.107,1.107,0,0,0,2.213,0c.036-2.411.132-4.829.092-7.24-.044-2.654-.1-5.308-.1-7.963l-.008-4.882a1.123,1.123,0,0,0-1.107-1.107c-2.722-.016-5.443-.062-8.164,0q-4.849.117-9.694.148c-2.565.019-5.131-.116-7.7-.083-2.971.038-5.928.136-8.9.075-3.142-.065-6.268-.031-9.411.022l-.472.008a1.128,1.128,0,0,0-1.106,1.107c-.079,2.357-.206,4.717-.225,7.076-.022,2.6-.088,5.2.021,7.8l.2,4.848a1.131,1.131,0,0,0,1.106,1.107c2.777.1,5.547.237,8.326.221q4.82-.027,9.639-.085c2.515-.028,5.029.087,7.544.1l5.478.035c1.219.008,2.438-.1,3.654-.166,1.237-.068,2.49-.213,3.729-.162l5.528.226.458.019C558.047,478.824,558.044,476.611,556.623,476.553Z" transform="translate(-310.18 -309.827)" fill="#848c91"/>
        <path id="Trazado_115617" data-name="Trazado 115617" d="M282.866,572.491l-6.773-.069-6.75.043-7.737,0,.156-7.709-.188-6.742.033-6.793.151-7.584,7.569-.073,6.782.08,6.743-.081,7.627.051.017,7.609.093,6.753.008,14.508Zm-6.77-1.839,6.777.068,5.952-.009-.006-12.728-.093-6.751-.013-5.865-5.855-.039-6.747.081-6.784-.079-5.832.057-.117,5.852-.033,6.75.189,6.755-.121,5.946,5.925,0Z" transform="translate(-166.277 -360.112)" fill="#848c91"/>
        <path id="Trazado_115618" data-name="Trazado 115618" d="M382.534,572.318l-7.757-.123-6.737.092-6.78-.033-7.739.06.157-7.748.063-6.754-.074-6.746-.011-7.593,7.612-.2h.029l6.734.259,6.735-.183,7.646.088.123,14.373-.19,6.774ZM355.43,545.2l.009,5.858.073,6.755-.063,6.781-.12,5.938,5.929-.045,6.775.033,6.747-.092,5.939.094-.145-5.938.191-6.788-.107-12.606-5.877-.068-6.758.184h-.029l-6.734-.259Z" transform="translate(-219.347 -359.946)" fill="#848c91"/>
        <path id="Trazado_115619" data-name="Trazado 115619" d="M503.695,572.409l-14.323-.194-.109-7.529.087-6.788-.123-6.736-.035-7.735,7.722.016,6.76.166,6.742-.17,7.736-.012.03,7.714-.131,6.783.125,6.73-.067,7.7-7.678-.075Zm-12.578-1.94,12.573.17,6.735-.125,5.932.057.051-5.907-.125-6.739.131-6.8-.023-5.927-5.95.01-6.765.171h-.022l-6.763-.167-5.919-.012.027,5.941.123,6.752-.087,6.791Z" transform="translate(-297.653 -360.036)" fill="#848c91"/>
        <path id="Trazado_115620" data-name="Trazado 115620" d="M588.911,572.435l-7.66-.139.044-7.621.027-13.525-.1-7.644,7.656-.067,6.789.138,6.74-.043,7.66-.022-.132,7.632.236,6.764-.127,6.788.053,7.658-7.68.024-6.78-.1Zm-5.879-1.877,5.875.107,6.727-.161,6.8.1,5.886-.018-.041-5.9.127-6.763-.237-6.762.1-5.872-5.85.017-6.761.043-6.787-.137-5.854.051.076,5.881Z" transform="translate(-350.772 -360.043)" fill="#848c91"/>
        <rect id="Rectángulo_5826" data-name="Rectángulo 5826" width="3.543" height="2.951" transform="translate(123.177 46.384)" fill="#a6bcba"/>
        <rect id="Rectángulo_5827" data-name="Rectángulo 5827" width="20.893" height="2.951" transform="translate(94.289 37.897)" fill="#ea526f"/>
        <rect id="Rectángulo_5828" data-name="Rectángulo 5828" width="22.62" height="2.951" transform="translate(94.655 46.384)" fill="#a6bcba"/>
        <rect id="Rectángulo_5829" data-name="Rectángulo 5829" width="7.368" height="2.951" transform="translate(196.707 188.011)" fill="#a6bcba"/>
        <rect id="Rectángulo_5830" data-name="Rectángulo 5830" width="5.499" height="2.951" transform="translate(153.703 188.011)" fill="#a6bcba"/>
        <rect id="Rectángulo_5831" data-name="Rectángulo 5831" width="12.218" height="2.951" transform="translate(138.534 188.011)" fill="#a6bcba"/>
        <rect id="Rectángulo_5832" data-name="Rectángulo 5832" width="5.499" height="2.951" transform="translate(153.703 203.356)" fill="#a6bcba"/>
        <rect id="Rectángulo_5833" data-name="Rectángulo 5833" width="17.918" height="2.951" transform="translate(138.534 195.684)" fill="#a6bcba"/>
        <rect id="Rectángulo_5834" data-name="Rectángulo 5834" width="12.016" height="2.951" transform="translate(138.534 203.356)" fill="#a6bcba"/>
        <rect id="Rectángulo_5835" data-name="Rectángulo 5835" width="5.499" height="2.951" transform="translate(99.49 203.356)" fill="#a6bcba"/>
        <rect id="Rectángulo_5836" data-name="Rectángulo 5836" width="12.218" height="2.951" transform="translate(107.939 203.356)" fill="#a6bcba"/>
        <rect id="Rectángulo_5837" data-name="Rectángulo 5837" width="5.499" height="2.951" transform="translate(99.49 188.011)" fill="#a6bcba"/>
        <rect id="Rectángulo_5838" data-name="Rectángulo 5838" width="9.629" height="2.951" transform="translate(99.878 195.684)" fill="#a6bcba"/>
        <rect id="Rectángulo_5839" data-name="Rectángulo 5839" width="8.29" height="2.951" transform="translate(111.868 195.684)" fill="#a6bcba"/>
        <rect id="Rectángulo_5840" data-name="Rectángulo 5840" width="12.017" height="2.951" transform="translate(108.141 188.011)" fill="#a6bcba"/>
        <rect id="Rectángulo_5841" data-name="Rectángulo 5841" width="8.176" height="2.951" transform="translate(155.869 43.823)" fill="#a6bcba"/>
        <rect id="Rectángulo_5842" data-name="Rectángulo 5842" width="4.133" height="2.951" transform="translate(166.995 35.336)" fill="#a6bcba"/>
        <rect id="Rectángulo_5843" data-name="Rectángulo 5843" width="15.807" height="2.951" transform="translate(170.858 43.823)" fill="#a6bcba"/>
        <rect id="Rectángulo_5844" data-name="Rectángulo 5844" width="6.268" height="2.951" transform="translate(190.208 43.823)" fill="#a6bcba"/>
        <rect id="Rectángulo_5845" data-name="Rectángulo 5845" width="22.62" height="2.951" transform="translate(173.489 35.336)" fill="#a6bcba"/>
        <rect id="Rectángulo_5846" data-name="Rectángulo 5846" width="22.62" height="2.951" transform="translate(154.825 22.97)" fill="#ea526f"/>
        <rect id="Rectángulo_5847" data-name="Rectángulo 5847" width="10.035" height="2.951" transform="translate(155.19 35.336)" fill="#a6bcba"/>
        <path id="Trazado_115621" data-name="Trazado 115621" d="M333.111,274.588c2.442,2.483,4.886,4.958,7.369,7.4l1.916,1.885c.678.666,1.722-.376,1.043-1.044-2.483-2.441-4.959-4.885-7.4-7.368l-1.884-1.916c-.667-.678-1.71.366-1.044,1.043Z" transform="translate(-207.443 -204.139)" fill="#848c91"/>
        <path id="Trazado_115622" data-name="Trazado 115622" d="M356.226,288.764l.03-4.691,0-.675a.738.738,0,0,0-1.476,0l-.03,4.691,0,.675a.738.738,0,0,0,1.476,0Z" transform="translate(-220.056 -209.527)" fill="#848c91"/>
        <path id="Trazado_115623" data-name="Trazado 115623" d="M342.838,296.778l4.691.039.675.005a.738.738,0,1,0,0-1.476l-4.691-.039-.675-.005a.738.738,0,1,0,0,1.476Z" transform="translate(-212.755 -216.823)" fill="#848c91"/>
        <path id="Trazado_115624" data-name="Trazado 115624" d="M545.741,273.64c-2.443,2.462-4.888,4.919-7.364,7.347l-1.948,1.91c-.679.666.365,1.709,1.043,1.043,2.476-2.428,4.948-4.859,7.391-7.321l1.921-1.936a.738.738,0,0,0-1.044-1.043Z" transform="translate(-324.79 -204.194)" fill="#848c91"/>
        <path id="Trazado_115625" data-name="Trazado 115625" d="M537.688,288.764l-.013-4.691,0-.675a.738.738,0,1,0-1.476,0l.013,4.691,0,.675a.738.738,0,0,0,1.476,0Z" transform="translate(-324.784 -209.527)" fill="#848c91"/>
        <path id="Trazado_115626" data-name="Trazado 115626" d="M542.354,295.306l-4.691.007h-.676a.738.738,0,0,0,0,1.475l4.691-.006h.675a.738.738,0,1,0,0-1.475Z" transform="translate(-324.814 -216.826)" fill="#848c91"/>
        <path id="Trazado_115627" data-name="Trazado 115627" d="M447,260.207q.017,6.036.055,12.072l.023,3.115a.738.738,0,0,0,1.476,0q-.044-6.037-.068-12.072l-.009-3.115a.738.738,0,0,0-1.476,0Z" transform="translate(-273.298 -196.156)" fill="#848c91"/>
        <path id="Trazado_115628" data-name="Trazado 115628" d="M444.955,281.762l-6.341,6.326h1.043l-6.338-6.328a.738.738,0,0,0-1.043,1.043l6.338,6.328a.748.748,0,0,0,1.043,0L446,282.805a.738.738,0,0,0-1.043-1.044Z" transform="translate(-264.677 -208.881)" fill="#848c91"/>
        <path id="Trazado_115629" data-name="Trazado 115629" d="M348.749,437.059l.43-6.3a41.749,41.749,0,0,0-.215-5.224l-.166-2.867-.738.738c2.454-.093,4.91-.232,7.365-.26l5.2-.059c1.137-.013,2.278.085,3.413.139,2.885.137,5.761.187,8.65.225,2.383.032,4.777-.066,7.159-.154,1.608-.059,3.215-.142,4.823-.212l1.017-.045a1.939,1.939,0,0,0,.28-.012c.162-.033-.008.035-.1-.027a1.918,1.918,0,0,0,.559.12l1.111.239c1.514.325,3.029.708,4.555.978a4.918,4.918,0,0,0,1.4-.115l2.775-.342a18.123,18.123,0,0,1,3.147-.243l5.128.251c1.17.057,2.352-.009,3.522-.023a31.65,31.65,0,0,1,3.4,0l5.158.5a26.579,26.579,0,0,0,3.169.016c1.293-.028,2.6,0,3.891-.091,1.611-.109,3.22-.289,4.827-.434l1.431-.128-.738-.738.025,6.17c.007,1.678-.186,3.35-.314,5.022l-.222,2.873c-.073.947,1.4.942,1.476,0l.475-6.167c.129-1.675.054-3.364.047-5.043l-.011-2.855a.743.743,0,0,0-.738-.737c-2.453.22-4.912.538-7.376.592-1.687.037-3.376.1-5.063.112-1.21.005-2.451-.219-3.654-.337a30.383,30.383,0,0,0-3.268-.264l-5.19.059c-1.109.013-2.219-.074-3.327-.129l-2.727-.134a6.144,6.144,0,0,0-.945-.016c-1.664.178-3.325.41-4.986.614l-.883.109a.779.779,0,0,0-.194.024s.268.065.109.015c-.61-.192-1.278-.274-1.9-.408-1.425-.306-2.853-.681-4.291-.922a8.184,8.184,0,0,0-1.665.038l-2.846.125q-4.035.178-8.075.244c-2.331.039-4.688,0-7.016-.109l-5.211-.247c-1.126-.054-2.26,0-3.386.014-2.874.033-5.738.129-8.61.237l-1.378.052a.747.747,0,0,0-.738.738l.366,6.317a40.436,40.436,0,0,1-.212,5.1l-.2,2.976c-.065.948,1.411.944,1.476,0Z" transform="translate(-215.739 -289.683)" fill="#838d93"/>
        <path id="Trazado_115630" data-name="Trazado 115630" d="M443.74,408.244c.027-3.093.047-6.182.01-9.275l-.028-2.392a.738.738,0,0,0-1.475,0c.036,3.093.066,6.182.038,9.275l-.021,2.392a.738.738,0,0,0,1.476,0Z" transform="translate(-270.557 -274.865)" fill="#838d93"/>
        <path id="Trazado_115631" data-name="Trazado 115631" d="M287.336,532.77l-.344-8.285-.737.737c3.148.053,6.277.1,9.423.011,1.386-.038,2.735-.065,4.117.005l3.281.167c.446.023.894.068,1.34.049,1.859-.081,3.715-.21,5.573-.3,1.545-.072,3.123.073,4.668.117,2.758.079,5.522.066,8.281.037q5.234-.054,10.464-.012l.589,0-.738-.737.023,8.2a.738.738,0,0,0,1.476,0l-.023-8.2a.749.749,0,0,0-.738-.738c-3.176-.024-6.348-.041-9.524-.008-2.869.03-5.75.094-8.618.013-1.852-.053-3.707-.144-5.559-.158-1.586-.012-3.191.16-4.775.245-2.756.147-5.5-.281-8.26-.206-1.649.045-3.3.131-4.953.134-1.824,0-3.65-.061-5.473-.091l-.574-.01a.745.745,0,0,0-.738.738l.344,8.285c.039.946,1.515.951,1.475,0Z" transform="translate(-180.095 -348.635)" fill="#838d93"/>
        <path id="Trazado_115632" data-name="Trazado 115632" d="M342.1,513.934l.02-6.995,0-1.007a.738.738,0,0,0-1.476,0l-.02,6.995,0,1.007a.738.738,0,0,0,1.476,0Z" transform="translate(-211.901 -337.983)" fill="#838d93"/>
        <path id="Trazado_115633" data-name="Trazado 115633" d="M509.651,532.694l.253-8.055-.738.738c3.173-.117,6.345-.227,9.519-.308,2.819-.072,5.62.095,8.438.153,1.838.038,3.678.1,5.516.113,1.549.008,3.112-.148,4.659-.226,2.73-.138,5.464.04,8.2.06q5.186.039,10.366.163l.565.013-.738-.737-.032,8.087a.738.738,0,0,0,1.476,0l.032-8.087a.75.75,0,0,0-.737-.738c-3.157-.075-6.31-.142-9.467-.165-1.333-.01-2.664-.025-4-.053-1.49-.031-3.007-.152-4.5-.077-1.843.093-3.686.2-5.53.279-1.526.063-3.075-.051-4.6-.082-2.736-.056-5.481-.284-8.215-.214q-5.193.133-10.382.323l-.573.021a.754.754,0,0,0-.738.738l-.253,8.055c-.03.95,1.446.949,1.476,0Z" transform="translate(-308.609 -348.559)" fill="#838d93"/>
        <path id="Trazado_115634" data-name="Trazado 115634" d="M564.619,513.934l.056-6.995.008-1.007a.738.738,0,0,0-1.475,0l-.056,6.995-.008,1.007a.738.738,0,0,0,1.475,0Z" transform="translate(-340.336 -337.983)" fill="#838d93"/>
        <rect id="Rectángulo_5848" data-name="Rectángulo 5848" width="11.748" height="2.951" transform="translate(218.585 100.331)" fill="#0075a4"/>
        <rect id="Rectángulo_5849" data-name="Rectángulo 5849" width="23.052" height="2.951" transform="translate(192.325 100.331)" fill="#0075a4"/>
        <rect id="Rectángulo_5850" data-name="Rectángulo 5850" width="19.243" height="2.951" transform="translate(168.071 100.331)" fill="#0075a4"/>
        <rect id="Rectángulo_5851" data-name="Rectángulo 5851" width="15.034" height="2.951" transform="translate(150.431 100.331)" fill="#0075a4"/>
        <rect id="Rectángulo_5852" data-name="Rectángulo 5852" width="20.447" height="2.951" transform="translate(127.78 100.331)" fill="#0075a4"/>
        <path id="Trazado_115635" data-name="Trazado 115635" d="M330.339,350.473" transform="translate(-205.966 -248.667)" fill="none" stroke="#70b0ef" stroke-miterlimit="10" stroke-width="6.979"/>
        <rect id="Rectángulo_5853" data-name="Rectángulo 5853" width="6.023" height="2.951" transform="translate(118.349 100.331)" fill="#0075a4"/>
        <rect id="Rectángulo_5854" data-name="Rectángulo 5854" width="21.087" height="2.951" transform="translate(195.2 92.658)" fill="#0075a4"/>
        <rect id="Rectángulo_5855" data-name="Rectángulo 5855" width="20.246" height="2.951" transform="translate(172.348 92.658)" fill="#0075a4"/>
        <rect id="Rectángulo_5856" data-name="Rectángulo 5856" width="11.426" height="2.951" transform="translate(157.514 92.658)" fill="#0075a4"/>
        <rect id="Rectángulo_5857" data-name="Rectángulo 5857" width="19.043" height="2.951" transform="translate(134.663 92.658)" fill="#0075a4"/>
        <rect id="Rectángulo_5858" data-name="Rectángulo 5858" width="11.589" height="2.951" transform="translate(218.862 108.003)" fill="#0075a4"/>
        <rect id="Rectángulo_5859" data-name="Rectángulo 5859" width="17.706" height="2.951" transform="translate(198.008 108.003)" fill="#0075a4"/>
        <rect id="Rectángulo_5860" data-name="Rectángulo 5860" width="22.034" height="2.951" transform="translate(170.467 108.003)" fill="#0075a4"/>
        <rect id="Rectángulo_5861" data-name="Rectángulo 5861" width="30.69" height="2.951" transform="translate(135.449 108.003)" fill="#0075a4"/>
        <rect id="Rectángulo_5862" data-name="Rectángulo 5862" width="13.047" height="2.951" transform="translate(118.468 108.003)" fill="#0075a4"/>
        <rect id="Rectángulo_5863" data-name="Rectángulo 5863" width="8.176" height="2.951" transform="translate(212.767 46.384)" fill="#a6bcba"/>
        <rect id="Rectángulo_5864" data-name="Rectángulo 5864" width="24.355" height="2.951" transform="translate(213.27 37.897)" fill="#ea526f"/>
        <rect id="Rectángulo_5865" data-name="Rectángulo 5865" width="15.807" height="2.951" transform="translate(227.755 46.384)" fill="#a6bcba"/>
        <rect id="Rectángulo_5866" data-name="Rectángulo 5866" width="6.268" height="2.951" transform="translate(247.106 46.384)" fill="#a6bcba"/>
        <rect id="Rectángulo_5867" data-name="Rectángulo 5867" width="5.499" height="2.951" transform="translate(120.08 152.469)" fill="#838d93"/>
        <rect id="Rectángulo_5868" data-name="Rectángulo 5868" width="15.53" height="2.951" transform="translate(114.567 160.141)" fill="#a6bcba"/>
        <rect id="Rectángulo_5869" data-name="Rectángulo 5869" width="14.191" height="2.951" transform="translate(132.458 160.141)" fill="#a6bcba"/>
        <rect id="Rectángulo_5870" data-name="Rectángulo 5870" width="12.017" height="2.951" transform="translate(128.731 152.469)" fill="#838d93"/>
        <rect id="Rectángulo_5871" data-name="Rectángulo 5871" width="11.96" height="2.951" transform="translate(225.89 160.141)" fill="#a6bcba"/>
        <rect id="Rectángulo_5872" data-name="Rectángulo 5872" width="20.969" height="2.951" transform="translate(214.132 152.469)" fill="#838d93"/>
        <rect id="Rectángulo_5873" data-name="Rectángulo 5873" width="12.017" height="2.951" transform="translate(211.281 160.141)" fill="#a6bcba"/>
        <path id="Trazado_115636" data-name="Trazado 115636" d="M607.084,641.474l-1.839-9.065a37.97,37.97,0,0,0-7.918-1.287l9.612-24.178,17.974,11.17,4.555-7.33L610.179,598.8l1.162-2.924a4.5,4.5,0,0,0-.107-3.867l-16.062-31.494a3.17,3.17,0,0,0-2.2-1.669l-23.225-5.077-16.717-.33c-1.669-.2-3.425,2.052-2.713,3.574a11.1,11.1,0,0,0,3.11,3.941,13.5,13.5,0,0,0,.709,3.08l-.006.01a5.9,5.9,0,0,0-3.211.622c-6.414,3.082-5.274,5.35-5.139,8.878.423,10.993,4.9,39.969,8.129,50.619,2.3,7.585,7.34,18.808,10.053,24.643-1.228.745,1.679-9.011.448-8.116l1.592,9.35a43.015,43.015,0,0,0-3.636,2.908l.035.184-.035.03,9.714,46.933h55.417l-14.716-57.869S610.484,641.82,607.084,641.474Zm-33.506-66.851,2.192,2.79-4.706-2.925C571.869,574.554,572.7,574.605,573.578,574.623Zm7.715,16.383a28.526,28.526,0,0,0-1.627,9.9l-.853.865-.06-.023c-3.858-1.467-6.28-2.823-8.006-6.572-1.886-4.1-4.722-10.522-6.064-14.5Z" transform="translate(-330.219 -365.805)" fill="#d9d9d9" opacity="0.47" style="mix-blend-mode: multiply;isolation: isolate"/>
        <path id="Trazado_115637" data-name="Trazado 115637" d="M554.011,557.36s-.627,14.373,20.209,14.8l9.633,12.26A27.754,27.754,0,0,0,581.09,604.8c2.522,10.788,16.162-2.627,16.162-2.627l-4.732-37.933Z" transform="translate(-335.064 -368.077)" fill="#ffac7f"/>
        <path id="Trazado_115638" data-name="Trazado 115638" d="M508.408,537.091l3.492,3.767,13.248,20.014,11.275,6.765V552.415Z" transform="translate(-308.744 -356.378)" fill="#684b4b" opacity="0.47" style="mix-blend-mode: multiply;isolation: isolate"/>
        <g id="Grupo_59014" data-name="Grupo 59014" transform="translate(205.364 181.998)">
          <rect id="Rectángulo_5874" data-name="Rectángulo 5874" width="8.63" height="39.777" transform="translate(0 7.33) rotate(-58.14)" fill="#ffb600"/>
        </g>
        <rect id="Rectángulo_5875" data-name="Rectángulo 5875" width="3.236" height="37.104" transform="matrix(0.528, -0.849, 0.849, 0.528, 206.788, 187.037)" fill="#ffda40"/>
        <path id="Trazado_115639" data-name="Trazado 115639" d="M542.579,569.743l16.248,10.1c-.048-2.328-2.417-5.529-6.111-7.933C548.772,569.341,544.611,568.525,542.579,569.743Z" transform="translate(-328.467 -374.904)" fill="#684b4b" opacity="0.47" style="mix-blend-mode: multiply;isolation: isolate"/>
        <path id="Trazado_115640" data-name="Trazado 115640" d="M546.907,549.539a2.436,2.436,0,0,0-.332.643c-.812,2.541,2.776,5.958,8.012,7.631a16.736,16.736,0,0,0,6.944.815Z" transform="translate(-330.707 -363.563)" fill="#d36f54" opacity="0.3"/>
        <path id="Trazado_115641" data-name="Trazado 115641" d="M602.788,580.8,586.726,549.3a3.172,3.172,0,0,0-2.2-1.669L561.3,542.557l-16.717-.33c-1.669-.2-3.426,2.052-2.713,3.574,1.717,3.668,6.152,7.87,17.443,7.676l19.158,6.763c-.446,4.331.884,12.28,1.721,16.652a6.041,6.041,0,0,1-1.642,5.38l-8.184,8.291-.06-.023c-3.858-1.467-6.28-2.823-8.006-6.571-2.267-4.924-6.177-13.18-6.68-16.573-.918-6.2-7.407-14.938-15.112-12.605-4.99,1.511-.268,8.432.866,11.775,2.126,6.262,4.994,25.161,8.224,35.812s11.867,28.485,11.867,28.485l1.618,5.394L590.3,632.97l-2.138-11.25,14.732-37.055A4.5,4.5,0,0,0,602.788,580.8Z" transform="translate(-325.975 -359.335)" fill="#ffd2b9"/>
        <path id="Trazado_115642" data-name="Trazado 115642" d="M634.577,620.359c.062.333.122.655.18.957a6.042,6.042,0,0,1-1.642,5.381l-.682.691,19.206,16.345,4.7-11.817Z" transform="translate(-380.329 -404.439)" fill="#ffac7f"/>
        <rect id="Rectángulo_5876" data-name="Rectángulo 5876" width="8.63" height="72.353" transform="matrix(0.523, -0.852, 0.852, 0.523, 239.168, 210.336)" fill="#ffb600"/>
        <rect id="Rectángulo_5877" data-name="Rectángulo 5877" width="3.236" height="75.026" transform="matrix(0.523, -0.852, 0.852, 0.523, 238.309, 206.627)" fill="#ffda40"/>
        <path id="Trazado_115643" data-name="Trazado 115643" d="M518.657,538.37l-4.584,7.4-5.665-8.675Z" transform="translate(-308.744 -356.378)" fill="#ffc299"/>
        <path id="Trazado_115644" data-name="Trazado 115644" d="M579.856,744.038l2.271,13.337,41.6-6.668-3.032-14.945A48.96,48.96,0,0,0,579.856,744.038Z" transform="translate(-349.982 -470.235)" fill="#fff"/>
        <path id="Trazado_115645" data-name="Trazado 115645" d="M575.287,761.477,585,813.263h53.8l-14.716-62.723S594.987,743.877,575.287,761.477Z" transform="translate(-347.345 -478.863)" fill="#4b4051"/>
        <g id="Grupo_59015" data-name="Grupo 59015" transform="translate(199.664 180.712)">
          <path id="Trazado_115646" data-name="Trazado 115646" d="M511.493,537.476l-3.085-.385,1.714,2.625Z" transform="translate(-508.408 -537.091)" fill="#49433f"/>
        </g>
        <path id="Trazado_115647" data-name="Trazado 115647" d="M585,821.9h9.678l-11.717-57.265a43.563,43.563,0,0,0-7.675,5.478Z" transform="translate(-347.345 -487.71)" fill="#392d3b"/>
        <g id="Grupo_59026" data-name="Grupo 59026" transform="translate(41.653 195.078)">
          <g id="Grupo_59025" data-name="Grupo 59025">
            <path id="Trazado_115648" data-name="Trazado 115648" d="M256.272,620.252c-2.947,1.667-7.615,7.11-9.32,15.6-1.233,6.137-6.02,7.371-8.585,7.723a1.327,1.327,0,0,1-1.434-1.741A82.587,82.587,0,0,0,240.04,630.2c5.659-9.4,9.987-18.326,17.376-25.568,5.536-5.427,1.817-17.057-4.225-12.2-9.2,7.391-16.71,16.582-23.023,26.576q-.991-.426-2.013-.924a129.842,129.842,0,0,1,18.916-23.67c5.528-5.437,2.7-16.518-3.448-11.8q-2.367,1.816-4.6,3.784a6.551,6.551,0,0,0,.443-1.445c.008-.043.013-.086.02-.129.028-.173.055-.345.069-.518.019-.206.026-.412.026-.617,0-.046,0-.09,0-.135,0-.221-.021-.44-.046-.657v-.013h0c-.488-4.086-4.544-7.378-8.586-4.1a91.939,91.939,0,0,0-10.275,9.732,4.617,4.617,0,0,0-.455-1.444c-1.04-3.507-4.106-5.814-6.982-2.75-13.025,13.875-17.346,32.55-22.243,51.473-1.822,7.038-5.509,13.718-6.515,20.972l-.009.033-1.5,4.149c-2.5-.389-4.011-.477-4.011-.477l-30.723,52.476h60.408l16.285-27.829-.025-.038.085-.167a43.338,43.338,0,0,0-5.05-6.549c.2-.756.39-1.511.6-2.265l2.36-4.084,2.9-.533a15.573,15.573,0,0,0,7.462-3.621l18.279-16.074a14.065,14.065,0,0,0,3.977-5.886l5.883-21.906A3.479,3.479,0,0,0,256.272,620.252Z" transform="translate(-142.511 -574.749)" fill="#d9d9d9" opacity="0.47" style="mix-blend-mode: multiply;isolation: isolate"/>
            <g id="Grupo_59017" data-name="Grupo 59017" transform="translate(39.987 5.444)">
              <g id="Grupo_59016" data-name="Grupo 59016">
                <path id="Trazado_115649" data-name="Trazado 115649" d="M240,668.021a176.567,176.567,0,0,1,4.823-28c4.147-16.947,7.924-30.008,19.819-44.5,4.454-5.424-.88-15.274-5.682-10.158-13.025,13.875-19.5,32.01-24.4,50.934a173.842,173.842,0,0,0-5.266,29.757c-.232,2.957,1.238,5.755,4.374,6.333,2.688.494,6.1-1.416,6.332-4.374Z" transform="translate(-229.273 -583.942)" fill="#ffd2b9"/>
              </g>
            </g>
            <path id="Trazado_115650" data-name="Trazado 115650" d="M267.728,605.012c2.218-2.7,3.5-8.677,2.126-11.194-14.908,15.9-20.126,32.133-25.584,48.777a200.345,200.345,0,0,0-8.128,32.374,7.106,7.106,0,0,0,.945,4.947,5.7,5.7,0,0,0,1.01.286c2.689.494,6.1-1.417,6.332-4.374a176.584,176.584,0,0,1,4.823-28C253.4,630.885,255.832,619.5,267.728,605.012Z" transform="translate(-193.197 -584.199)" fill="#d36f54" opacity="0.5"/>
            <g id="Grupo_59019" data-name="Grupo 59019" transform="translate(42.852)">
              <g id="Grupo_59018" data-name="Grupo 59018">
                <path id="Trazado_115651" data-name="Trazado 115651" d="M247.713,662.174a195.066,195.066,0,0,1,8.694-30.151c6.61-18.1,15.885-36.484,30.5-49.628,5.764-5.185-.3-14.874-6.32-9.992-19.227,15.594-27.852,35.088-34.994,54.291a200.334,200.334,0,0,0-9.394,32.03c-.613,3.218.66,6.469,4.033,7.483,2.892.869,6.87-.814,7.483-4.033Z" transform="translate(-236.049 -571.067)" fill="#ffd2b9"/>
              </g>
            </g>
            <path id="Trazado_115652" data-name="Trazado 115652" d="M298.073,589.855a6.708,6.708,0,0,0,2.261-5.933c-15.571,13.341-26.032,31.931-34,50.557a192.9,192.9,0,0,0-10.724,31.61,6.588,6.588,0,0,0,1.552,6.335,4.773,4.773,0,0,0,1.722-2.79,195.1,195.1,0,0,1,8.694-30.151C274.185,621.381,283.46,603,298.073,589.855Z" transform="translate(-204.358 -578.487)" fill="#ffad76" opacity="0.5"/>
            <g id="Grupo_59021" data-name="Grupo 59021" transform="translate(59.579 13.826)">
              <g id="Grupo_59020" data-name="Grupo 59020">
                <path id="Trazado_115653" data-name="Trazado 115653" d="M284.542,691.506c2.521-10.127,11.641-20.049,15.754-29.62,7.607-17.7,17.373-32.779,29.592-44.757,5.536-5.427,1.818-17.057-4.224-12.2-16.4,13.173-27.438,32.07-35.871,51.037A192.908,192.908,0,0,0,278.63,687.42c-.792,3.179-5.1,6.5-1.784,7.7,2.839,1.029,6.9-.43,7.7-3.61Z" transform="translate(-275.61 -603.767)" fill="#ffd2b9"/>
              </g>
            </g>
            <path id="Trazado_115654" data-name="Trazado 115654" d="M266.578,667.482A195.075,195.075,0,0,1,277.6,638.1c8-17.53,17.425-32.121,30.089-44.576,5.528-5.436,2.7-16.517-3.447-11.8-16.689,12.8-28.152,31.445-37.009,50.218a192.89,192.89,0,0,0-11.867,31.2c-.863,3.161.152,6.5,3.436,7.775,2.815,1.093,6.912-.275,7.775-3.436Z" transform="translate(-204.178 -576.561)" fill="#ffd2b9"/>
            <g id="Grupo_59022" data-name="Grupo 59022" transform="translate(34.101 33.33)">
              <path id="Trazado_115655" data-name="Trazado 115655" d="M292.885,660.988c-2.947,1.667-8.693,4.953-10.4,13.438-1.234,6.138-6.02,7.371-8.585,7.723a1.327,1.327,0,0,1-1.435-1.742c2.453-7.223,4.134-14.6,3.854-20.816-10.637,1.807-18.974-12.889-41.678-9.059L221.7,699.594l-6.346,15.125,31.871,15.263,11.2-19.388,2.895-.534a15.575,15.575,0,0,0,7.463-3.621l18.279-16.074a14.061,14.061,0,0,0,3.977-5.886L298,664.73A3.479,3.479,0,0,0,292.885,660.988Z" transform="translate(-215.352 -649.895)" fill="#ffd2b9"/>
            </g>
            <path id="Trazado_115656" data-name="Trazado 115656" d="M193.154,787.019l12.016-19.867a49.273,49.273,0,0,1,38.993,19.475l-8.791,15.928Z" transform="translate(-168.439 -684.234)" fill="#fff"/>
            <g id="Grupo_59023" data-name="Grupo 59023" transform="translate(0 88.418)">
              <path id="Trazado_115657" data-name="Trazado 115657" d="M210.134,804.288,194.389,829.96H134.7l31.621-49.779S196.123,781.893,210.134,804.288Z" transform="translate(-134.701 -780.181)" fill="#4b4051"/>
            </g>
            <g id="Grupo_59024" data-name="Grupo 59024" transform="translate(49.441 105.501)">
              <path id="Trazado_115658" data-name="Trazado 115658" d="M251.631,853.281l20.515-32.7a37.655,37.655,0,0,1,5.537,6.818l-15.8,25.878Z" transform="translate(-251.631 -820.585)" fill="#392d3b"/>
            </g>
          </g>
        </g>
        <g id="Grupo_59029" data-name="Grupo 59029" transform="translate(11.15 146.612)">
          <path id="Trazado_115659" data-name="Trazado 115659" d="M126.031,575.219l-.414-3.845h0l-.774-7.191-53.77-95.608-3.9,2.261-1.789-.4-2.825-.781.714,3.441,53.77,95.608,8.988,6.514Z" transform="translate(-62.559 -463.444)" fill="#d9d9d9" opacity="0.47" style="mix-blend-mode: multiply;isolation: isolate"/>
          <g id="Grupo_59027" data-name="Grupo 59027" transform="translate(0.535 0)">
            <path id="Trazado_115660" data-name="Trazado 115660" d="M63.824,460.945l7.81-4.5,53.631,95.688-7.81,4.505Z" transform="translate(-63.824 -456.44)" fill="#ea2f2f"/>
          </g>
          <g id="Grupo_59028" data-name="Grupo 59028" transform="translate(2.731 1.267)">
            <path id="Trazado_115661" data-name="Trazado 115661" d="M69.019,461.408l3.417-1.971,53.631,95.688L122.65,557.1Z" transform="translate(-69.019 -459.437)" fill="#ff715a"/>
          </g>
          <path id="Trazado_115662" data-name="Trazado 115662" d="M190.664,687.254l7.81-4.5,1.163,11.039Z" transform="translate(-136.499 -587.061)" fill="#ffd3b6"/>
          <path id="Trazado_115663" data-name="Trazado 115663" d="M204.493,701.331l2.721-1.57.405,3.846Z" transform="translate(-144.48 -596.88)" fill="#d3004c"/>
        </g>
        <g id="Grupo_59032" data-name="Grupo 59032" transform="translate(0 221.597)">
          <path id="Trazado_115664" data-name="Trazado 115664" d="M107.614,696.775l-1.939-3.346h0l-3.626-6.258L42.742,644.164l-2.647,3.65-1.45-.429-2.456,1.352,1.259,2.727L96.755,694.47l10.858,2.305Z" transform="translate(-36.19 -639.776)" fill="#d9d9d9" opacity="0.47" style="mix-blend-mode: multiply;isolation: isolate"/>
          <g id="Grupo_59030" data-name="Grupo 59030" transform="translate(0.662 0)">
            <rect id="Rectángulo_5878" data-name="Rectángulo 5878" width="9.016" height="73.259" transform="matrix(0.587, -0.81, 0.81, 0.587, 0, 7.299)" fill="#0058d8"/>
          </g>
          <g id="Grupo_59031" data-name="Grupo 59031" transform="translate(2.151 2.053)">
            <rect id="Rectángulo_5879" data-name="Rectángulo 5879" width="3.945" height="73.259" transform="matrix(0.587, -0.81, 0.81, 0.587, 0, 3.193)" fill="#20a4ed"/>
          </g>
          <path id="Trazado_115665" data-name="Trazado 115665" d="M178.019,742.8l5.293-7.3,5.565,9.6Z" transform="translate(-118.051 -692.492)" fill="#ffd3b6"/>
          <path id="Trazado_115666" data-name="Trazado 115666" d="M194.753,752.843,196.6,750.3l1.939,3.346Z" transform="translate(-127.709 -701.035)" fill="#0058d8"/>
        </g>
      </g>
    </g>
    <rect id="Rectángulo_34398" data-name="Rectángulo 34398" width="332.5" height="14.875" rx="7.438" transform="translate(234 2241.963)" fill="#ff6e33"/>
  </g>
</svg>
