<svg xmlns="http://www.w3.org/2000/svg" width="64.012" height="64.012" viewBox="0 0 64.012 64.012">
  <g id="Grupo_1008128" data-name="Grupo 1008128" transform="translate(-307 -3932)">
    <path id="Trazado_716195" data-name="Trazado 716195" d="M32.006,0A32.006,32.006,0,1,1,0,32.006,32.006,32.006,0,0,1,32.006,0Z" transform="translate(307 3932)" fill="#ff6e33"/>
    <g id="video-svgrepo-com" transform="translate(311.801 3942.402)">
      <path id="Trazado_735317" data-name="Trazado 735317" d="M759.3,352h6.656c1.224,0,2.219.726,2.219,1.619v21.895c0,.892-.995,1.619-2.219,1.619h-5.551" transform="translate(-711.508 -342.62)" fill="#9f0925"/>
      <path id="Trazado_735318" data-name="Trazado 735318" d="M765.948,356.24h-5.543v-3.908h5.543a1.06,1.06,0,0,0,.261-.032V331.14a1.173,1.173,0,0,0-.261-.032H759.3V327.2h6.656c2.337,0,4.169,1.571,4.169,3.577v21.895C770.125,354.677,768.285,356.24,765.948,356.24Z" transform="translate(-711.508 -319.778)" fill="#333"/>
      <path id="Trazado_735319" data-name="Trazado 735319" d="M180.75,258h41.926a1.949,1.949,0,0,1,1.95,1.95V296.1a1.949,1.949,0,0,1-1.95,1.95H180.75a1.949,1.949,0,0,1-1.95-1.95V259.95A1.944,1.944,0,0,1,180.75,258Z" transform="translate(-176.841 -256.042)" fill="#fff"/>
      <path id="Trazado_735320" data-name="Trazado 735320" d="M199.834,277.163H157.908A3.912,3.912,0,0,1,154,273.255V237.108a3.912,3.912,0,0,1,3.908-3.908h41.926a3.912,3.912,0,0,1,3.908,3.908v36.146A3.912,3.912,0,0,1,199.834,277.163Zm-41.926-40.055v36.146h41.926V237.108Z" transform="translate(-154 -233.2)" fill="#333"/>
      <path id="Trazado_735321" data-name="Trazado 735321" d="M403.855,376.32l-14.907,10.643a.979.979,0,0,1-1.548-.8V364.879a.979.979,0,0,1,1.548-.8l14.907,10.643a.976.976,0,0,1,.229,1.366A1.049,1.049,0,0,1,403.855,376.32Z" transform="translate(-368.972 -353.58)" fill="#9f0925"/>
      <path id="Trazado_735322" data-name="Trazado 735322" d="M365.637,366.345a3.411,3.411,0,0,1-.49-.039,2.884,2.884,0,0,1-1.9-1.192,2.923,2.923,0,0,1-.545-1.705V342.129a2.932,2.932,0,0,1,4.635-2.384l14.907,10.643a2.936,2.936,0,0,1,.679,4.09,2.838,2.838,0,0,1-.687.687l-14.907,10.643A2.9,2.9,0,0,1,365.637,366.345Zm.963-22.313v17.489l12.246-8.74L366.6,344.032Zm13.367,7.943Z" transform="translate(-346.222 -330.831)" fill="#333"/>
    </g>
  </g>
</svg>
