<svg xmlns="http://www.w3.org/2000/svg" width="132" height="133" viewBox="0 0 132 133">
  <g id="Grupo_58817" data-name="Grupo 58817" transform="translate(-1147 -1927)">
    <ellipse id="Elipse_154" data-name="Elipse 154" cx="56" cy="56.5" rx="56" ry="56.5" transform="translate(1157 1937)" fill="#fff"/>
    <g id="Elipse_157" data-name="Elipse 157" transform="translate(1157 1937)" fill="none" stroke="#fff" stroke-linejoin="round" stroke-width="10" opacity="0.29">
      <ellipse cx="56" cy="56.5" rx="56" ry="56.5" stroke="none"/>
      <ellipse cx="56" cy="56.5" rx="61" ry="61.5" fill="none"/>
    </g>
    <g id="Grupo_58807" data-name="Grupo 58807" transform="translate(1178 1958)">
      <path id="Trazado_115237" data-name="Trazado 115237" d="M761.312-206.164l-13.671-13.671a.817.817,0,0,1,0-1.155l4.621-4.621a.817.817,0,0,1,1.155,0l13.671,13.671a.817.817,0,0,1,0,1.155l-4.621,4.621A.817.817,0,0,1,761.312-206.164Z" transform="translate(-698.639 274.614)" fill="#f78e36"/>
      <path id="Trazado_115238" data-name="Trazado 115238" d="M764.775-225.611l-2.888,2.888a.817.817,0,0,1,1.155,0l13.671,13.671a.817.817,0,0,1,0,1.155l2.888-2.888a.817.817,0,0,0,0-1.155L765.93-225.611A.817.817,0,0,0,764.775-225.611Z" transform="translate(-711.152 274.614)" fill="#f86f1b"/>
      <path id="Trazado_115239" data-name="Trazado 115239" d="M709.216-261.073l2.888-2.888,6.294,6.294-2.888,2.888Z" transform="translate(-665.652 307.536)" fill="#4380a0"/>
      <path id="Trazado_115240" data-name="Trazado 115240" d="M767.815-199.574l5.776-5.776,2.888,2.888-5.776,5.776Z" transform="translate(-716.273 256.905)" fill="#7be492"/>
      <path id="Trazado_115241" data-name="Trazado 115241" d="M789.026-202.461l2.888-2.888,2.888,2.888-2.888,2.888Z" transform="translate(-734.596 256.904)" fill="#45d987"/>
      <ellipse id="Elipse_4247" data-name="Elipse 4247" cx="26.55" cy="26.55" rx="26.55" ry="26.55" transform="translate(1.021 1.022)" fill="#43809f"/>
      <path id="Trazado_115242" data-name="Trazado 115242" d="M578.794-576.5q-1.031,0-2.042.077a26.552,26.552,0,0,1,24.507,26.472,26.552,26.552,0,0,1-24.507,26.472q1.011.077,2.042.077a26.55,26.55,0,0,0,26.55-26.55A26.55,26.55,0,0,0,578.794-576.5Z" transform="translate(-551.224 577.522)" fill="#3a7190"/>
      <ellipse id="Elipse_4248" data-name="Elipse 4248" cx="22.465" cy="22.465" rx="22.465" ry="22.465" transform="translate(5.106 5.106)" fill="#f3f3f3"/>
      <path id="Trazado_115243" data-name="Trazado 115243" d="M578.794-546.5c-.688,0-1.369.033-2.042.094a22.5,22.5,0,0,1,20.423,22.371,22.5,22.5,0,0,1-20.423,22.371c.673.061,1.354.094,2.042.094a22.491,22.491,0,0,0,22.465-22.465A22.491,22.491,0,0,0,578.794-546.5Z" transform="translate(-551.224 551.606)" fill="#e4e4e4"/>
      <g id="Grupo_58805" data-name="Grupo 58805" transform="translate(15.657 10.348)">
        <path id="Trazado_115244" data-name="Trazado 115244" d="M512.421-457.474h-8.169v-11.981A.545.545,0,0,1,504.8-470h7.08a.545.545,0,0,1,.545.545Z" transform="translate(-504.252 475.174)" fill="#29cef6"/>
        <path id="Trazado_115245" data-name="Trazado 115245" d="M534.252-470v12.526h4.085v-11.981a.545.545,0,0,0-.545-.545Z" transform="translate(-530.167 475.174)" fill="#22b5ed"/>
        <path id="Trazado_115246" data-name="Trazado 115246" d="M632.421-424.648h-8.169v-6.808A.545.545,0,0,1,624.8-432h7.08a.545.545,0,0,1,.545.545Z" transform="translate(-607.914 442.348)" fill="#7be492"/>
        <path id="Trazado_115247" data-name="Trazado 115247" d="M654.252-432v7.352h4.085v-6.808a.545.545,0,0,0-.545-.545Z" transform="translate(-633.829 442.348)" fill="#45d987"/>
        <path id="Trazado_115248" data-name="Trazado 115248" d="M572.421-490.3h-8.169v-17.155A.545.545,0,0,1,564.8-508h7.08a.545.545,0,0,1,.545.545Z" transform="translate(-556.083 508)" fill="#f78e36"/>
        <path id="Trazado_115249" data-name="Trazado 115249" d="M594.252-508v17.7h4.085v-17.155a.545.545,0,0,0-.545-.545Z" transform="translate(-581.998 508)" fill="#f86f1b"/>
      </g>
      <g id="Grupo_58806" data-name="Grupo 58806" transform="translate(0 0)">
        <path id="Trazado_115250" data-name="Trazado 115250" d="M458.423-522.049l-.994-.995a1.021,1.021,0,0,0-1.444,0,1.021,1.021,0,0,0,0,1.444l.85.85-4.332,4.332-7.365-7.365,4.332-4.332,3.436,3.436a1.021,1.021,0,0,0,1.444,0,1.021,1.021,0,0,0,0-1.444l-4.156-4.156,0,0-2.888-2.888,0,0-2.549-2.549a1.826,1.826,0,0,0-1.3-.539,1.826,1.826,0,0,0-1.3.538l-.144.145-3.654-3.655a27.481,27.481,0,0,0,5.413-11.355h7.195a1.021,1.021,0,0,0,1.021-1.021,1.021,1.021,0,0,0-1.021-1.021H444.13q.135-.974.2-1.969h11.5a1.021,1.021,0,0,0,1.021-1.021,1.021,1.021,0,0,0-1.021-1.021H444.391q-.007-.991-.082-1.969h6.654a1.021,1.021,0,0,0,1.021-1.021,1.021,1.021,0,0,0-1.021-1.021h-6.887a27.237,27.237,0,0,0-5.624-12.878,1.021,1.021,0,0,0-1.434-.167,1.021,1.021,0,0,0-.167,1.435,25.263,25.263,0,0,1,5.5,15.832A25.557,25.557,0,0,1,416.823-530.9a25.557,25.557,0,0,1-25.528-25.529,25.557,25.557,0,0,1,25.528-25.529,25.467,25.467,0,0,1,17.164,6.632,1.021,1.021,0,0,0,1.442-.069,1.021,1.021,0,0,0-.069-1.443A27.5,27.5,0,0,0,416.823-584a27.6,27.6,0,0,0-27.571,27.571,27.616,27.616,0,0,0,22.362,27.075v6.889a1.021,1.021,0,0,0,1.021,1.021,1.021,1.021,0,0,0,1.021-1.021v-6.576q.975.112,1.969.155v11.223a1.021,1.021,0,0,0,1.021,1.021,1.021,1.021,0,0,0,1.021-1.021v-11.21q.993-.03,1.969-.128v6.536a1.021,1.021,0,0,0,1.021,1.021,1.021,1.021,0,0,0,1.021-1.021v-6.822a27.463,27.463,0,0,0,12.343-5.611l3.655,3.654-.144.144a1.826,1.826,0,0,0-.539,1.3,1.826,1.826,0,0,0,.538,1.3l2.55,2.55v0l2.888,2.888,0,0,8.229,8.229a1.825,1.825,0,0,0,1.3.539,1.826,1.826,0,0,0,1.3-.538l4.621-4.621a1.826,1.826,0,0,0,.538-1.3,1.825,1.825,0,0,0-.538-1.3ZM437.017-537.68l3.547,3.548-1.444,1.444-3.548-3.547q.749-.7,1.445-1.445Zm6.677,12.454-1.444-1.444L446.581-531l1.444,1.444Zm-.241-8.905,1.685,1.685-4.332,4.332L439.12-529.8Z" transform="translate(-389.252 584)"/>
        <path id="Trazado_115251" data-name="Trazado 115251" d="M428.51-511.821a23.953,23.953,0,0,0,14.22,4.794,23.513,23.513,0,0,0,23.486-23.486A23.513,23.513,0,0,0,442.73-554a23.209,23.209,0,0,0-16.552,6.888,23.728,23.728,0,0,0-6.934,16.587,22.955,22.955,0,0,0,5.909,15.631,1.021,1.021,0,0,0,1.442.076,1.021,1.021,0,0,0,.076-1.442,20.917,20.917,0,0,1-5.385-14.243,21.7,21.7,0,0,1,6.339-15.168,21.18,21.18,0,0,1,15.1-6.287,21.468,21.468,0,0,1,21.444,21.444,21.466,21.466,0,0,1-21.432,21.444,21.917,21.917,0,0,1-13.005-4.384,1.021,1.021,0,0,0-1.43.2,1.021,1.021,0,0,0,.2,1.43Z" transform="translate(-415.159 558.085)"/>
        <path id="Trazado_115252" data-name="Trazado 115252" d="M498.417-515.5h-7.08a1.568,1.568,0,0,0-1.566,1.566v3.608h-6.6a1.568,1.568,0,0,0-1.566,1.566v10.96h-1.367a1.021,1.021,0,0,0-1.021,1.021,1.021,1.021,0,0,0,1.021,1.021h29.283a1.021,1.021,0,0,0,1.021-1.021,1.021,1.021,0,0,0-1.021-1.021h-1.367v-5.786a1.568,1.568,0,0,0-1.566-1.566h-6.6v-8.782A1.568,1.568,0,0,0,498.417-515.5Zm-14.772,7.216h6.127V-497.8h-6.127Zm8.169-5.174h6.127V-497.8h-6.127Zm14.3,10.348v5.31h-6.127v-5.31Z" transform="translate(-466.966 524.826)"/>
        <path id="Trazado_115253" data-name="Trazado 115253" d="M528.24-346.486h-4.807l-2.184-5.583a1.022,1.022,0,0,0-.96-.649,1.021,1.021,0,0,0-.948.666L516.355-344l-2.086-5.912a1.021,1.021,0,0,0-.876-.678,1.021,1.021,0,0,0-.978.52l-2,3.588h-4.795a1.021,1.021,0,0,0-1.021,1.021,1.021,1.021,0,0,0,1.021,1.021h5.394a1.021,1.021,0,0,0,.892-.523L513.1-347.1l2.272,6.441a1.021,1.021,0,0,0,.955.681h.008a1.021,1.021,0,0,0,.957-.666l3.034-8.181,1.461,3.736a1.021,1.021,0,0,0,.951.649h5.5a1.021,1.021,0,0,0,1.021-1.021A1.021,1.021,0,0,0,528.24-346.486Z" transform="translate(-488.892 384.208)"/>
      </g>
    </g>
  </g>
</svg>
