<svg xmlns="http://www.w3.org/2000/svg" width="83.894" height="72.841" viewBox="0 0 83.894 72.841">
  <g id="Grupo_58631" data-name="Grupo 58631" transform="translate(0 0)">
    <path id="Trazado_114243" data-name="Trazado 114243" d="M2965.854,1175.659h-49.531l1.193-15.069h0c0-.034.006-.071.006-.107l0-1.41c.382.313.759.633,1.139.958a22.166,22.166,0,0,0,12.441,5.942,17.383,17.383,0,0,0,2.866.244,13.945,13.945,0,0,0,10.9-4.92,1.381,1.381,0,1,0-2.208-1.66l0,0c-.036.048-3.726,4.838-11.1,3.609a19.589,19.589,0,0,1-11.1-5.319,35.193,35.193,0,0,0-2.926-2.317l.005-3.418a4.148,4.148,0,0,0-4.134-4.15h-.009a4.143,4.143,0,0,0-4.143,4.136v.956a14.124,14.124,0,0,0-8.382,4.118c-3.216,3.216-5.067,8-5.354,13.848a37.564,37.564,0,0,0,.068,4.555h-9.821a1.381,1.381,0,0,0-1.381,1.381v27.62a1.376,1.376,0,0,0,.4.977l13.81,13.81a1.382,1.382,0,0,0,.977.4h66.286a1.381,1.381,0,0,0,1.382-1.381V1177.04a1.382,1.382,0,0,0-1.382-1.381Zm-53.844-23.472a1.381,1.381,0,0,1,1.381-1.379h0a1.383,1.383,0,0,1,1.378,1.383l0,1.851c-.283-.129-.574-.257-.879-.38a8.273,8.273,0,0,0-1.881-.489Zm-.006,3.792a4.907,4.907,0,0,1,.861.248,15.549,15.549,0,0,1,1.9.913l0,1.957-2.763-.006Zm2.642,5.879-1.092,13.8h-.418l-1.031-13.806Zm-11.828-2.649a11.39,11.39,0,0,1,6.425-3.264l-.007,4.521c0,.035,0,.07.005.1h0l1.127,15.087h-12.024c-.714-9.265,2.109-14.083,4.476-16.448Zm-5.734,54.822-8.776-8.776a16.128,16.128,0,0,1,9.385.2A16.439,16.439,0,0,0,2897.083,1214.032Zm67.39,3.056H2900.6c-1.443-5.08-1.379-8.841.188-11.779a1.381,1.381,0,0,0-.569-1.868,1.346,1.346,0,0,0-.137-.064,19.279,19.279,0,0,0-12.941-.659v-24.3h8.726a78.491,78.491,0,0,0,5.182,18.466,1.381,1.381,0,0,0,2.583-.981l-.018-.043a76.072,76.072,0,0,1-4.967-17.441h11.928l1.348,18.063a1.382,1.382,0,0,0,1.375,1.277h0a1.314,1.314,0,0,0,.16-.011,1.379,1.379,0,0,0,1.3-1.377,1.509,1.509,0,0,1,.286-.4c.365-.365,1.351-.977,3.856-.977,3.759,0,4.122,1.337,4.145,1.45a1.381,1.381,0,0,0,2.76-.069c0-.014.374-1.381,4.143-1.381s4.122,1.337,4.145,1.45a1.381,1.381,0,0,0,2.76-.069,1.51,1.51,0,0,1,.286-.4c.365-.365,1.351-.977,3.856-.977,3.758,0,4.122,1.337,4.145,1.45a1.381,1.381,0,0,0,2.76-.069,1.509,1.509,0,0,1,.286-.4c.365-.365,1.351-.977,3.856-.977,3.905,0,4.144,1.443,4.146,1.458a.336.336,0,0,1,0-.077v.006a1.381,1.381,0,1,0,2.762,0v-.006c0-.169-.079-4.143-6.905-4.143-2.866,0-4.543.7-5.524,1.526-.981-.825-2.658-1.526-5.524-1.526s-4.543.7-5.523,1.526c-.981-.825-2.658-1.526-5.524-1.526s-4.543.7-5.524,1.526c-.981-.825-2.658-1.526-5.524-1.526a10.978,10.978,0,0,0-3.937.615l1.141-14.426h48.368Zm-41.429-20.715c0,.021,0,.042,0,.062A.264.264,0,0,1,2923.044,1196.373Zm11.048,0c0,.021,0,.042,0,.062A.277.277,0,0,1,2934.092,1196.373Zm11.048,0c0,.021,0,.042,0,.062A.24.24,0,0,1,2945.14,1196.373Z" transform="translate(-2883.859 -1147.527)" fill="#ea526f"/>
    <path id="Trazado_114244" data-name="Trazado 114244" d="M2913.181,1147.827a4.148,4.148,0,0,1,4.134,4.15l-.005,3.418a35.207,35.207,0,0,1,2.926,2.317,19.589,19.589,0,0,0,11.1,5.319,14.366,14.366,0,0,0,2.371.2,11.29,11.29,0,0,0,8.726-3.811v0a1.381,1.381,0,1,1,2.208,1.66,13.945,13.945,0,0,1-10.9,4.92,17.407,17.407,0,0,1-2.866-.244,22.165,22.165,0,0,1-12.441-5.942c-.38-.325-.757-.645-1.139-.958l0,1.41c0,.036,0,.072-.005.107h0l-1.193,15.07h49.531a1.382,1.382,0,0,1,1.382,1.381v41.43a1.381,1.381,0,0,1-1.382,1.381h-66.286a1.382,1.382,0,0,1-.977-.4l-13.81-13.81a1.375,1.375,0,0,1-.4-.977v-27.62a1.381,1.381,0,0,1,1.381-1.381h9.821a37.666,37.666,0,0,1-.068-4.555c.286-5.843,2.138-10.632,5.354-13.848a14.126,14.126,0,0,1,8.382-4.118v-.956a4.143,4.143,0,0,1,4.143-4.136h.009m1.369,6,0-1.851a1.383,1.383,0,0,0-1.378-1.383h0a1.381,1.381,0,0,0-1.381,1.379v.986a8.286,8.286,0,0,1,1.881.489c.305.122.6.25.879.38m-5.527,1.9a11.392,11.392,0,0,0-6.425,3.264h0c-2.367,2.366-5.19,7.184-4.476,16.448h12.024l-1.127-15.087h0c0-.035,0-.07,0-.1l.007-4.521m5.519,3.151,0-1.957a15.515,15.515,0,0,0-1.9-.913,4.89,4.89,0,0,0-.861-.248l-.005,3.111,2.763.006m-1.625,16.562h.417l1.092-13.8-2.541-.006,1.032,13.806m1.828,17.187a10.982,10.982,0,0,1,3.938-.615c2.867,0,4.543.7,5.524,1.526.981-.826,2.658-1.526,5.523-1.526s4.543.7,5.524,1.526c.981-.826,2.658-1.526,5.523-1.526s4.543.7,5.524,1.526c.981-.826,2.658-1.526,5.523-1.526,6.827,0,6.905,3.973,6.905,4.143v.006a1.381,1.381,0,0,1-2.76.061v.009h0l0-.014c0-.018,0-.037,0-.055v-.006a.328.328,0,0,0,0,.062v.006c-.027-.124-.4-1.448-4.145-1.448-2.506,0-3.491.612-3.856.977a1.509,1.509,0,0,0-.286.4,1.381,1.381,0,0,1-1.312,1.38h-.07a1.381,1.381,0,0,1-1.378-1.312c-.023-.113-.387-1.45-4.145-1.45-2.506,0-3.492.612-3.856.977a1.509,1.509,0,0,0-.286.4,1.381,1.381,0,0,1-1.312,1.38h-.07a1.381,1.381,0,0,1-1.378-1.312c-.023-.113-.386-1.45-4.145-1.45s-4.143,1.367-4.143,1.381a1.381,1.381,0,0,1-1.312,1.38h-.07a1.381,1.381,0,0,1-1.378-1.312c-.023-.113-.386-1.45-4.145-1.45-2.506,0-3.492.612-3.856.977a1.509,1.509,0,0,0-.286.4,1.379,1.379,0,0,1-1.3,1.377,1.342,1.342,0,0,1-.16.011h0a1.382,1.382,0,0,1-1.375-1.278l-1.349-18.063h-11.928a76.071,76.071,0,0,0,4.968,17.441c.006.015.012.03.018.044a1.381,1.381,0,0,1-2.583.981,78.476,78.476,0,0,1-5.182-18.466h-8.726v24.3a19.35,19.35,0,0,1,5.525-.817,19.85,19.85,0,0,1,7.417,1.476,1.383,1.383,0,0,1,.706,1.932c-1.568,2.938-1.631,6.7-.188,11.779h63.875V1178.2h-48.368l-1.142,14.426m30.178,3.589c0-.02,0-.041,0-.062a.239.239,0,0,0,0,.062m-11.048,0c0-.02,0-.041,0-.062a.262.262,0,0,0,0,.062m-11.048,0c0-.02,0-.041,0-.062a.262.262,0,0,0,0,.062m-25.963,17.6a16.441,16.441,0,0,1,.609-8.579,16.121,16.121,0,0,0-9.385-.2l8.776,8.776m16.319-66.5h-.011a4.668,4.668,0,0,0-4.661,4.653v.5a14.7,14.7,0,0,0-8.234,4.207c-3.305,3.305-5.209,8.212-5.5,14.186a38.367,38.367,0,0,0,.03,4.063h-9.266a1.9,1.9,0,0,0-1.9,1.9v27.62a1.885,1.885,0,0,0,.556,1.342l13.81,13.81a1.885,1.885,0,0,0,1.343.556h66.286a1.9,1.9,0,0,0,1.9-1.9v-41.43a1.9,1.9,0,0,0-1.9-1.9h-48.97l1.148-14.511.034-.427.26.221a22.606,22.606,0,0,0,12.692,6.059,18,18,0,0,0,2.95.25,14.519,14.519,0,0,0,11.311-5.126,1.9,1.9,0,0,0-.377-2.658,1.879,1.879,0,0,0-1.14-.381,1.91,1.91,0,0,0-1.519.757,10.861,10.861,0,0,1-8.314,3.607,13.912,13.912,0,0,1-2.286-.195,19.149,19.149,0,0,1-10.852-5.2c-.871-.768-1.795-1.505-2.745-2.189l.005-3.151a4.674,4.674,0,0,0-4.65-4.669Zm-.875,5.205v-.546a.863.863,0,1,1,1.726,0l0,1.06-.168-.069a8.784,8.784,0,0,0-1.556-.449Zm-13.7,22.407c-.564-8.68,2.046-13.251,4.36-15.564h0a10.952,10.952,0,0,1,5.538-3.009l-.006,3.489h-.036l.041.557,1.085,14.53Zm13.693-16.567,0-1.922c.053.018.1.037.156.057a15.031,15.031,0,0,1,1.569.735l0,1.133-1.727,0Zm.837,13.045-.691-9.247,1.422,0-.731,9.244Zm3.23,7.32h47.373v37.631h-62.965c-1.3-4.757-1.216-8.266.252-11.017a1.9,1.9,0,0,0-.782-2.569c-.061-.032-.125-.062-.188-.088a20.437,20.437,0,0,0-7.609-1.513,19.816,19.816,0,0,0-5.007.653v-23.1h7.756a80.1,80.1,0,0,0,5.152,18.136,1.91,1.91,0,0,0,1.774,1.221,1.9,1.9,0,0,0,1.774-2.573c-.007-.019-.015-.037-.022-.056a77.629,77.629,0,0,1-4.847-16.727h10.848l1.313,17.583a1.907,1.907,0,0,0,1.889,1.756,1.843,1.843,0,0,0,.21-.012,1.9,1.9,0,0,0,1.766-1.752,1,1,0,0,1,.142-.181c.245-.245,1.082-.823,3.488-.823,3.042,0,3.568.885,3.633,1.029a1.9,1.9,0,0,0,1.89,1.734c.032,0,.064,0,.1,0a1.9,1.9,0,0,0,1.8-1.78c.115-.184.781-.98,3.628-.98,3.042,0,3.568.885,3.632,1.029a1.9,1.9,0,0,0,1.891,1.734c.032,0,.064,0,.1,0a1.9,1.9,0,0,0,1.8-1.756,1,1,0,0,1,.142-.181c.245-.245,1.082-.823,3.488-.823,3.042,0,3.568.885,3.632,1.029a1.9,1.9,0,0,0,1.891,1.734c.032,0,.064,0,.1,0a1.9,1.9,0,0,0,1.8-1.756,1,1,0,0,1,.142-.181c.245-.245,1.082-.823,3.488-.823,3.033,0,3.564.88,3.632,1.027a1.9,1.9,0,0,0,3.791-.157c0-.2-.084-4.667-7.423-4.667a11.676,11.676,0,0,1-11.048,0,11.676,11.676,0,0,1-11.048,0,11.676,11.676,0,0,1-11.048,0,12.781,12.781,0,0,0-3.36.4l1.042-13.175Zm-27.264,26.6a15.611,15.611,0,0,1,7.7.252,16.254,16.254,0,0,0-.645,6.8l-7.058-7.057Z" transform="translate(-2883.64 -1147.309)" fill="#ea526f"/>
  </g>
</svg>
