<svg id="Grupo_58632" data-name="Grupo 58632" xmlns="http://www.w3.org/2000/svg" width="103.104" height="64.565" viewBox="0 0 103.104 64.565">
  <rect id="BG-6" width="103.104" height="64.565" fill="#0ce6ea" opacity="0"/>
  <g id="Grupo_58631" data-name="Grupo 58631" transform="translate(21.692 6.107)">
    <path id="Trazado_114243" data-name="Trazado 114243" d="M2942.376,1167.7h-35.259l.849-10.727h0c0-.024,0-.051,0-.076l0-1c.272.223.54.451.811.682a15.779,15.779,0,0,0,8.856,4.23,12.381,12.381,0,0,0,2.04.174,9.928,9.928,0,0,0,7.756-3.5.983.983,0,1,0-1.572-1.182v0a8.269,8.269,0,0,1-7.9,2.569,13.944,13.944,0,0,1-7.9-3.786,25.079,25.079,0,0,0-2.083-1.649l0-2.433a2.952,2.952,0,0,0-2.943-2.954h-.007a2.949,2.949,0,0,0-2.949,2.944v.681a10.054,10.054,0,0,0-5.967,2.931c-2.29,2.289-3.607,5.7-3.811,9.858a26.762,26.762,0,0,0,.049,3.243h-6.991a.983.983,0,0,0-.983.983v19.661a.981.981,0,0,0,.288.7l9.831,9.83a.982.982,0,0,0,.7.288h47.186a.983.983,0,0,0,.983-.983v-29.492a.984.984,0,0,0-.983-.983Zm-38.329-16.709a.983.983,0,0,1,.983-.982h0a.984.984,0,0,1,.981.984l0,1.317c-.2-.092-.408-.183-.626-.27a5.89,5.89,0,0,0-1.339-.348Zm0,2.7a3.5,3.5,0,0,1,.613.176,11.084,11.084,0,0,1,1.352.65l0,1.393-1.967,0Zm1.88,4.185-.777,9.824h-.3l-.734-9.828Zm-8.42-1.885a8.11,8.11,0,0,1,4.574-2.324l0,3.218c0,.025,0,.05,0,.075h0l.8,10.74h-8.56c-.509-6.6,1.5-10.025,3.186-11.709Zm-4.081,39.026-6.248-6.247a11.48,11.48,0,0,1,6.681.14A11.7,11.7,0,0,0,2893.422,1195.018Zm47.972,2.176h-45.47c-1.027-3.616-.982-6.293.134-8.385a.985.985,0,0,0-.5-1.375,13.724,13.724,0,0,0-9.212-.469v-17.3h6.211a55.882,55.882,0,0,0,3.689,13.145.983.983,0,0,0,1.839-.7l-.013-.031a54.138,54.138,0,0,1-3.536-12.416h8.491l.96,12.858a.984.984,0,0,0,.979.909h0a.931.931,0,0,0,.114-.008.982.982,0,0,0,.925-.98,1.075,1.075,0,0,1,.2-.288c.26-.26.961-.7,2.745-.7,2.676,0,2.934.951,2.95,1.032a.983.983,0,0,0,1.965-.049c0-.01.266-.983,2.949-.983s2.934.951,2.95,1.032a.983.983,0,0,0,1.965-.049,1.081,1.081,0,0,1,.2-.288c.26-.26.961-.7,2.745-.7,2.675,0,2.934.951,2.95,1.032a.983.983,0,0,0,1.965-.049,1.08,1.08,0,0,1,.2-.288c.26-.26.961-.7,2.745-.7,2.78,0,2.95,1.027,2.951,1.037a.255.255,0,0,1,0-.055v0a.983.983,0,0,0,1.966,0v0c0-.121-.056-2.949-4.915-2.949a7.661,7.661,0,0,1-7.865,0,7.661,7.661,0,0,1-7.865,0,7.661,7.661,0,0,1-7.865,0,7.816,7.816,0,0,0-2.8.438l.813-10.269h34.431Zm-29.491-14.746c0,.015,0,.03,0,.044A.178.178,0,0,1,2911.9,1182.448Zm7.864,0c0,.015,0,.03,0,.044A.191.191,0,0,1,2919.767,1182.448Zm7.865,0c0,.015,0,.03,0,.044A.167.167,0,0,1,2927.631,1182.448Z" transform="translate(-2884.008 -1147.677)" fill="#0ce6ea"/>
    <path id="Trazado_114244" data-name="Trazado 114244" d="M2904.668,1147.677a2.953,2.953,0,0,1,2.943,2.954l0,2.433a25.068,25.068,0,0,1,2.083,1.649,13.947,13.947,0,0,0,7.9,3.786,10.234,10.234,0,0,0,1.688.144,8.037,8.037,0,0,0,6.212-2.713v0a.983.983,0,1,1,1.571,1.182,9.926,9.926,0,0,1-7.756,3.5,12.406,12.406,0,0,1-2.04-.174,15.778,15.778,0,0,1-8.856-4.23c-.271-.231-.539-.459-.811-.682l0,1c0,.026,0,.052,0,.076h0l-.849,10.727h35.259a.983.983,0,0,1,.984.983v29.492a.983.983,0,0,1-.984.983h-47.186a.982.982,0,0,1-.7-.288l-9.831-9.83a.979.979,0,0,1-.288-.7v-19.661a.983.983,0,0,1,.983-.983h6.991a26.764,26.764,0,0,1-.049-3.243c.2-4.16,1.522-7.568,3.811-9.857a10.056,10.056,0,0,1,5.967-2.932v-.681a2.949,2.949,0,0,1,2.949-2.944h.006m.975,4.268,0-1.317a.985.985,0,0,0-.981-.985h0a.983.983,0,0,0-.983.982v.7a5.9,5.9,0,0,1,1.339.348c.217.087.425.178.626.27m-3.935,1.355a8.11,8.11,0,0,0-4.573,2.324h0c-1.685,1.684-3.695,5.114-3.187,11.709h8.56l-.8-10.74h0c0-.025,0-.05,0-.075l0-3.218m3.929,2.243,0-1.393a11.064,11.064,0,0,0-1.351-.65,3.489,3.489,0,0,0-.613-.176l0,2.215,1.967,0m-1.157,11.79h.3l.777-9.824-1.809,0,.734,9.828m1.3,12.235a7.82,7.82,0,0,1,2.8-.438,7.658,7.658,0,0,0,7.864,0,7.659,7.659,0,0,0,7.865,0,7.659,7.659,0,0,0,7.865,0c4.86,0,4.916,2.828,4.916,2.949v0a.983.983,0,0,1-1.965.043v.006h0v-.01c0-.013,0-.026,0-.039v0a.221.221,0,0,0,0,.044v0c-.019-.088-.288-1.031-2.951-1.031-1.784,0-2.485.435-2.745.7a1.073,1.073,0,0,0-.2.288.983.983,0,0,1-.934.982h-.05a.983.983,0,0,1-.981-.934c-.017-.081-.275-1.032-2.951-1.032-1.784,0-2.486.435-2.745.7a1.073,1.073,0,0,0-.2.288.983.983,0,0,1-.934.982h-.05a.983.983,0,0,1-.981-.934c-.017-.081-.275-1.032-2.951-1.032s-2.949.973-2.949.983a.983.983,0,0,1-.934.982h-.05a.984.984,0,0,1-.981-.934c-.017-.081-.275-1.032-2.95-1.032-1.784,0-2.486.435-2.745.7a1.072,1.072,0,0,0-.2.288.982.982,0,0,1-.925.98.931.931,0,0,1-.114.008h0a.984.984,0,0,1-.979-.909l-.96-12.858h-8.491a54.152,54.152,0,0,0,3.536,12.416l.013.031a.983.983,0,0,1-1.839.7,55.866,55.866,0,0,1-3.689-13.145h-6.211v17.3a13.774,13.774,0,0,1,3.933-.582,14.131,14.131,0,0,1,5.28,1.051.959.959,0,0,1,.1.046.983.983,0,0,1,.405,1.33c-1.116,2.092-1.161,4.769-.134,8.385h45.47V1169.3h-34.431l-.812,10.269m21.482,2.555c0-.015,0-.029,0-.044a.166.166,0,0,0,0,.044m-7.865,0c0-.015,0-.029,0-.044a.19.19,0,0,0,0,.044m-7.865,0c0-.015,0-.029,0-.044a.19.19,0,0,0,0,.044m-18.482,12.526a11.7,11.7,0,0,1,.433-6.107,11.476,11.476,0,0,0-6.68-.14l6.247,6.247m11.617-47.341h-.008a3.323,3.323,0,0,0-3.318,3.312v.359a10.466,10.466,0,0,0-5.862,2.995c-2.353,2.353-3.708,5.845-3.916,10.1a27.347,27.347,0,0,0,.022,2.892h-6.6a1.353,1.353,0,0,0-1.352,1.351v19.661a1.342,1.342,0,0,0,.4.955l9.831,9.831a1.342,1.342,0,0,0,.956.4h47.186a1.353,1.353,0,0,0,1.352-1.352v-29.492a1.353,1.353,0,0,0-1.352-1.351h-34.86l.817-10.33.024-.3.185.158a16.093,16.093,0,0,0,9.035,4.313,12.816,12.816,0,0,0,2.1.178,10.335,10.335,0,0,0,8.052-3.649,1.353,1.353,0,0,0-.268-1.892,1.338,1.338,0,0,0-.812-.271,1.359,1.359,0,0,0-1.081.539,7.732,7.732,0,0,1-5.918,2.568,9.912,9.912,0,0,1-1.627-.139,13.632,13.632,0,0,1-7.725-3.7c-.62-.547-1.278-1.072-1.954-1.558l0-2.243a3.327,3.327,0,0,0-3.31-3.323Zm-.623,3.705v-.388a.614.614,0,1,1,1.229,0l0,.754-.12-.049a6.264,6.264,0,0,0-1.108-.319Zm-9.755,15.951c-.4-6.179,1.456-9.432,3.1-11.079h0a7.8,7.8,0,0,1,3.942-2.142l0,2.484h-.025l.029.4.773,10.344Zm9.748-11.793,0-1.368c.038.013.074.027.111.041a10.688,10.688,0,0,1,1.117.524v.807l-1.229,0Zm.6,9.286-.492-6.583,1.012,0-.521,6.581Zm2.3,5.211h33.722v26.788h-44.822c-.924-3.386-.865-5.884.18-7.843a1.353,1.353,0,0,0-.557-1.829c-.043-.023-.089-.044-.134-.062a14.547,14.547,0,0,0-5.417-1.077,14.107,14.107,0,0,0-3.564.465v-16.442h5.521a57.024,57.024,0,0,0,3.667,12.91,1.36,1.36,0,0,0,1.263.869,1.352,1.352,0,0,0,1.263-1.832c0-.013-.01-.027-.016-.04a55.257,55.257,0,0,1-3.45-11.907h7.722l.935,12.516a1.358,1.358,0,0,0,1.345,1.25,1.307,1.307,0,0,0,.15-.009,1.352,1.352,0,0,0,1.257-1.247.7.7,0,0,1,.1-.129c.175-.175.77-.586,2.483-.586,2.165,0,2.54.63,2.586.732a1.35,1.35,0,0,0,1.345,1.234l.069,0a1.351,1.351,0,0,0,1.282-1.267c.082-.131.556-.7,2.583-.7,2.166,0,2.54.63,2.586.732a1.351,1.351,0,0,0,1.346,1.234l.069,0a1.35,1.35,0,0,0,1.28-1.25.717.717,0,0,1,.1-.129c.174-.175.77-.586,2.483-.586,2.165,0,2.54.63,2.586.732a1.351,1.351,0,0,0,1.346,1.234l.068,0a1.35,1.35,0,0,0,1.281-1.25.715.715,0,0,1,.1-.129c.175-.175.77-.586,2.483-.586,2.159,0,2.537.626,2.585.731a1.352,1.352,0,0,0,2.7-.112c0-.14-.06-3.322-5.284-3.322a8.313,8.313,0,0,1-7.865,0,8.313,8.313,0,0,1-7.865,0,8.312,8.312,0,0,1-7.864,0,9.1,9.1,0,0,0-2.392.285l.742-9.378Zm-19.408,18.933a11.114,11.114,0,0,1,5.483.18,11.567,11.567,0,0,0-.459,4.844l-5.024-5.024Z" transform="translate(-2883.64 -1147.309)" fill="#0ce6ea"/>
  </g>
</svg>
