<svg xmlns="http://www.w3.org/2000/svg" width="78.544" height="61.184" viewBox="0 0 78.544 61.184">
  <g id="Grupo_58628" data-name="Grupo 58628" transform="translate(0 0)">
    <path id="Trazado_114239" data-name="Trazado 114239" d="M2746.492,1205.463a4.957,4.957,0,0,0-6.317-3.042l-17.7,6.194h-12.512V1200.3a1.726,1.726,0,0,0-1.726-1.726h-2.26v-13.312l-.032.037a10.657,10.657,0,0,0-2.863-6.52v-9.524a7.768,7.768,0,0,0-15.536,0v9.453a10.691,10.691,0,0,0,6.391,18v1.863h-2.023a1.726,1.726,0,0,0-1.726,1.726v8.312h-10.019l-3.282-5.221a1.726,1.726,0,0,0-2.38-.543l-5.472,3.44a1.726,1.726,0,0,0-.543,2.38l4.74,7.541a4.931,4.931,0,0,0,4.2,2.319h45.889a4.94,4.94,0,0,0,1.638-.278l18.494-6.473a4.962,4.962,0,0,0,3.042-6.317Zm-46.086-24.486a7.263,7.263,0,0,1,1.085,8.863l-9.949-9.949a7.262,7.262,0,0,1,8.863,1.086Zm-5.093-16.034a4.321,4.321,0,0,1,4.316,4.316v7.069a10.758,10.758,0,0,0-8.631-.03v-7.039A4.32,4.32,0,0,1,2695.313,1164.943Zm-6.219,17.382,9.965,9.965a7.249,7.249,0,0,1-9.965-9.965Zm8.294,14.267a10.641,10.641,0,0,0,5.136-2.614v4.6h-5.136Zm-3.749,5.438h12.872v6.586h-12.872Zm48.671,6.492-18.494,6.473a1.5,1.5,0,0,1-.5.084h-45.889a1.5,1.5,0,0,1-1.275-.7l-3.821-6.079,2.549-1.6,2.871,4.567a1.727,1.727,0,0,0,1.461.807h43.554a1.713,1.713,0,0,0,.571-.1l17.976-6.291a1.506,1.506,0,0,1,.995,2.842Z" transform="translate(-2668.227 -1157.347)" fill="#ea526f"/>
    <path id="Trazado_114240" data-name="Trazado 114240" d="M2733.574,1195.124v7.082a1.726,1.726,0,0,0,3.453,0v-7.077h2.072a1.726,1.726,0,0,0,0-3.452h-2.072v-8.286h11.048a8.717,8.717,0,0,0,0-17.435h-.69a3.453,3.453,0,1,1,0-6.905h2.243a1.726,1.726,0,1,0,0-3.452h-2.243a6.9,6.9,0,1,0,0,13.81h.69a5.265,5.265,0,0,1,0,10.53h-11.048v-2.072h3.452a1.726,1.726,0,0,0,1.726-1.726v-.69h1.208a1.726,1.726,0,1,0,0-3.452H2742.2v-.69a1.726,1.726,0,0,0-1.726-1.726h-.635v-8.113a1.727,1.727,0,0,0-1.726-1.727h-5.634a1.727,1.727,0,0,0-1.726,1.727v8.113h-.635a1.726,1.726,0,0,0-1.726,1.726v4.833a1.726,1.726,0,0,0,1.726,1.726h3.452v2.076a7.593,7.593,0,0,0,0,15.182Zm.635-31.931h2.182v6.387h-2.182Zm-2.362,9.839h6.905v1.381h-6.905Zm1.726,10.362v8.277a4.142,4.142,0,0,1,0-8.277Z" transform="translate(-2685.424 -1155.598)" fill="#ea526f"/>
    <path id="Trazado_114241" data-name="Trazado 114241" d="M2706.021,1172.964a1.727,1.727,0,1,0-1.22-.506A1.743,1.743,0,0,0,2706.021,1172.964Z" transform="translate(-2678.935 -1159.729)" fill="#ea526f"/>
  </g>
</svg>
