<svg xmlns="http://www.w3.org/2000/svg" width="104.323" height="40.414" viewBox="0 0 104.323 40.414">
  <g id="Grupo_58634" data-name="Grupo 58634" transform="translate(0 0)">
    <g id="Grupo_58633" data-name="Grupo 58633" transform="translate(7.637 6.818)">
      <path id="Trazado_114245" data-name="Trazado 114245" d="M2533.671,1213.751H2443.35a1.813,1.813,0,0,1-1.812-1.813v-15.527a1.813,1.813,0,0,1,1.813-1.813h5.436c-.043-5.02-.226-11.2-.28-12.332a1.813,1.813,0,0,1,3.52-.69c.232.407,1.888,2.677,13.471,13.023h3.486c-.042-5.016-.226-11.2-.28-12.332a1.812,1.812,0,0,1,3.519-.69c.233.407,1.889,2.677,13.471,13.023h2.464c-.042-5.016-.226-11.2-.28-12.332a1.812,1.812,0,0,1,3.519-.69c.233.407,1.889,2.677,13.471,13.023h3.486c-.042-5.022-.227-11.2-.281-12.332a1.813,1.813,0,0,1,3.52-.69c.232.407,1.888,2.677,13.471,13.023h8.609a1.813,1.813,0,0,1,1.813,1.813v15.527A1.813,1.813,0,0,1,2533.671,1213.751Zm-88.508-3.625h86.7v-11.9h-7.487a1.814,1.814,0,0,1-1.206-.46c-5.644-5.03-9.138-8.315-11.314-10.5.07,2.853.134,6.333.135,9.142a1.813,1.813,0,0,1-1.812,1.814h-6a1.811,1.811,0,0,1-1.206-.46c-5.644-5.03-9.139-8.315-11.315-10.5.07,2.855.134,6.337.135,9.142a1.813,1.813,0,0,1-1.812,1.814H2485a1.812,1.812,0,0,1-1.206-.46c-5.644-5.03-9.139-8.315-11.315-10.5.07,2.855.134,6.337.135,9.142a1.813,1.813,0,0,1-1.812,1.814h-6a1.815,1.815,0,0,1-1.206-.459c-5.645-5.031-9.139-8.316-11.314-10.5.07,2.854.133,6.335.135,9.143a1.813,1.813,0,0,1-1.812,1.813h-5.444Zm66.464-28.44v0Zm-20.2,0v0Zm-19.174,0v0Zm-20.2,0v0Zm20.146-.14Zm-20.2,0Z" transform="translate(-2441.537 -1180.155)" fill="#ea526f"/>
      <path id="Trazado_114246" data-name="Trazado 114246" d="M2453.248,1183.9a1.813,1.813,0,0,1-1.743-1.32,2.184,2.184,0,0,1-.086-.6,1.82,1.82,0,0,1,1.772-1.919,1.843,1.843,0,0,1,1.868,1.938,1.814,1.814,0,0,1-1.812,1.9Zm-1.8-1.727a1.812,1.812,0,0,0,3.6-.212,1.431,1.431,0,0,0-.05-.366l-1.745.493Z" transform="translate(-2444.471 -1180.066)" fill="#ea526f"/>
      <path id="Trazado_114247" data-name="Trazado 114247" d="M2481.973,1183.9a1.812,1.812,0,0,1-1.743-1.32,2.184,2.184,0,0,1-.086-.6,1.82,1.82,0,0,1,1.772-1.919,1.843,1.843,0,0,1,1.869,1.938,1.815,1.815,0,0,1-1.812,1.9Zm-1.8-1.727a1.812,1.812,0,0,0,3.6-.212,1.412,1.412,0,0,0-.051-.366l-1.744.493Z" transform="translate(-2453 -1180.066)" fill="#ea526f"/>
      <path id="Trazado_114248" data-name="Trazado 114248" d="M2509.244,1183.9a1.812,1.812,0,0,1-1.743-1.32,2.175,2.175,0,0,1-.086-.6,1.82,1.82,0,0,1,1.772-1.919,1.843,1.843,0,0,1,1.868,1.938,1.814,1.814,0,0,1-1.812,1.9Zm-1.8-1.727a1.812,1.812,0,0,0,3.6-.212,1.44,1.44,0,0,0-.05-.366l-1.744.493Z" transform="translate(-2461.096 -1180.066)" fill="#ea526f"/>
      <path id="Trazado_114249" data-name="Trazado 114249" d="M2537.968,1183.9a1.813,1.813,0,0,1-1.743-1.32,2.175,2.175,0,0,1-.086-.6,1.82,1.82,0,0,1,1.772-1.919,1.842,1.842,0,0,1,1.868,1.938,1.814,1.814,0,0,1-1.812,1.9Zm-1.8-1.727a1.812,1.812,0,0,0,3.6-.212,1.434,1.434,0,0,0-.051-.366l-1.744.493Z" transform="translate(-2469.624 -1180.066)" fill="#ea526f"/>
    </g>
    <path id="Trazado_114250" data-name="Trazado 114250" d="M2523.231,1183.5c-4.827,0-8.332-1.323-10.439-3.943-3.731-4.642-5.633-5.076-6.279-5.048-1.109.049-2.174,1.643-3.2,3.184-1.247,1.866-2.659,3.981-4.993,4.25a5.471,5.471,0,0,1-4.349-1.785c-5.606-5.253-7.817-5.534-8.508-5.41s-1.2,1.057-1.911,2.468c-.778,1.551-1.744,3.482-3.826,3.946-2.008.448-3.839-.759-5.041-1.707-4.687-3.692-7.229-4.329-8.536-4.215-1.248.11-2,.927-3.128,2.249a8.041,8.041,0,0,1-3.266,2.663c-1.695.6-3.487.173-5.482-1.31-4.69-3.488-9.455-4.275-14.16-2.339a17.27,17.27,0,0,0-5.795,3.994,2.072,2.072,0,0,1-3.133-2.711,21.172,21.172,0,0,1,7.352-5.114c4.224-1.737,10.812-2.653,18.209,2.846.734.546,1.356.825,1.625.73a5.784,5.784,0,0,0,1.5-1.446c1.231-1.446,2.917-3.425,5.919-3.689,3.073-.271,6.714,1.346,11.463,5.088a4.138,4.138,0,0,0,1.56.907,8.15,8.15,0,0,0,1.041-1.748c.886-1.77,2.1-4.193,4.886-4.69,3-.536,6.725,1.458,12.069,6.466.711.666,1.043.693,1.046.693.448-.084,1.549-1.731,2.019-2.435,1.453-2.175,3.26-4.881,6.466-5.022,2.888-.128,5.973,1.967,9.69,6.592,3.039,3.78,12.053,2.292,16.4.978a2.084,2.084,0,0,1,2.583,1.332l-3.937,1.29,1.969-.645.593,1.985a41.042,41.042,0,0,1-8.175,1.511Q2524.3,1183.5,2523.231,1183.5Z" transform="translate(-2430.676 -1170.368)" fill="#ea526f"/>
  </g>
</svg>
