<svg xmlns="http://www.w3.org/2000/svg" width="62.145" height="69.92" viewBox="0 0 62.145 69.92">
  <g id="Grupo_58626" data-name="Grupo 58626" transform="translate(0 0)">
    <path id="Trazado_114237" data-name="Trazado 114237" d="M2055.81,1177.556a31.177,31.177,0,0,0-25.494-20.175l-3.031-5.388a5.112,5.112,0,0,0-8.911,5.012l.621,1.1a31.055,31.055,0,1,0,36.814,19.446Zm-4.219-1.133h-10.564l-8.537-15.176A27.748,27.748,0,0,1,2051.591,1176.423Zm-29.575-23.37a1.66,1.66,0,0,1,2.26.633l12.791,22.737h-3.808l-11.875-21.11A1.661,1.661,0,0,1,2022.016,1153.053ZM1999,1188.234a27.628,27.628,0,0,1,21.755-26.993l8.541,15.183h-21.662a1.727,1.727,0,0,0-1.524.914,23.243,23.243,0,0,0,0,21.793,1.726,1.726,0,0,0,1.524.915h28.549v14.111A27.645,27.645,0,0,1,1999,1188.234Zm9.7,8.359a19.809,19.809,0,0,1,0-16.717h3.779v16.717Zm33.911,14.165a27.754,27.754,0,0,1-2.976,1.845v-12.558h11.957a27.554,27.554,0,0,1-8.981,10.713Zm10.343-14.165h-37.021v-16.717h37.021a27.783,27.783,0,0,1,0,16.717Z" transform="translate(-1995.549 -1149.386)" fill="#ea526f"/>
    <path id="Trazado_114238" data-name="Trazado 114238" d="M2036.827,1194.818a6.9,6.9,0,1,0,6.905,6.9A6.913,6.913,0,0,0,2036.827,1194.818Zm0,10.357a3.453,3.453,0,1,1,3.453-3.452A3.456,3.456,0,0,1,2036.827,1205.175Z" transform="translate(-2005.754 -1162.875)" fill="#ea526f"/>
  </g>
</svg>
