<svg xmlns="http://www.w3.org/2000/svg" width="103" height="65" viewBox="0 0 103 65">
  <g id="Grupo_58625" data-name="Grupo 58625" transform="translate(-0.161 -0.084)">
    <rect id="BG" width="103" height="65" transform="translate(0.161 0.084)" fill="#0ce6ea" opacity="0"/>
    <g id="Grupo_58624" data-name="Grupo 58624" transform="translate(23.111 5.325)">
      <path id="Trazado_114232" data-name="Trazado 114232" d="M1743.749,1170.614a3.1,3.1,0,0,0-3.1,3.1v6.419a3.1,3.1,0,1,0,6.2,0v-6.419A3.105,3.105,0,0,0,1743.749,1170.614Zm0,2.458a.644.644,0,0,1,.644.644v1.933h-1.287v-1.933A.644.644,0,0,1,1743.749,1173.072Zm0,7.706a.644.644,0,0,1-.644-.644v-2.028h1.287v2.028A.644.644,0,0,1,1743.749,1180.778Z" transform="translate(-1734.999 -1157.954)" fill="#0ce6ea"/>
      <path id="Trazado_114233" data-name="Trazado 114233" d="M1785.016,1158.693h-3.088a6.971,6.971,0,0,0-6.8-5.5h-3.8v-4.3a1.229,1.229,0,0,0-1.229-1.229h-.644v-1.12a1.229,1.229,0,1,0-2.458,0v1.12h-.644a1.229,1.229,0,0,0-1.229,1.229v4.3h-.885v-4.3a1.229,1.229,0,0,0-1.229-1.229h-.644v-1.12a1.229,1.229,0,1,0-2.458,0v1.12h-.643a1.229,1.229,0,0,0-1.229,1.229v4.3h-18.691v-1.854a1.229,1.229,0,0,0-2.458,0v1.855h-.56a6.968,6.968,0,0,0-6.961,6.96v14a1.229,1.229,0,0,0,1.229,1.229h2.867v2.428a1.229,1.229,0,0,0,1.229,1.229h2.2v3.344H1733.3a3.943,3.943,0,0,0-3.938,3.938v11.614a1.229,1.229,0,0,0,1.229,1.229h50.265a1.229,1.229,0,0,0,1.229-1.229v-25.015h2.931a1.229,1.229,0,0,0,1.229-1.229v-11.768A1.229,1.229,0,0,0,1785.016,1158.693Zm-17.439-8.567h1.287v3.07h-1.287Zm-7.088,0h1.287v3.07h-1.287Zm-24.574,25.255h4.392v1.2h-4.392Zm3.425,3.657h2.2a1.229,1.229,0,0,0,1.229-1.229v-2.428h2.867a1.229,1.229,0,0,0,1.229-1.229v-2.532a1.645,1.645,0,0,1,1.644-1.644h9.751a1.645,1.645,0,0,1,1.643,1.644v10.762h-20.559v-3.344Zm-6.041,5.8h27.828a1.229,1.229,0,0,0,1.229-1.229V1171.62a4.106,4.106,0,0,0-4.1-4.1h-9.751a4.106,4.106,0,0,0-4.1,4.1v1.3h-12.585v-12.767a4.508,4.508,0,0,1,4.5-4.5h38.8a4.508,4.508,0,0,1,4.5,4.5v32.594h-47.808v-6.43a1.482,1.482,0,0,1,1.481-1.481Zm-1.481,11.865v-1.5h47.808v1.5Zm51.968-26.243h-1.7v-9.31h1.7Z" transform="translate(-1729.362 -1145.32)" fill="#0ce6ea"/>
      <path id="Trazado_114234" data-name="Trazado 114234" d="M1777.971,1170.614a3.944,3.944,0,1,0,3.944,3.944,3.949,3.949,0,0,0-3.944-3.944Zm0,5.431a1.487,1.487,0,1,1,1.487-1.486,1.488,1.488,0,0,1-1.487,1.486Z" transform="translate(-1751.672 -1157.954)" fill="#0ce6ea"/>
      <path id="Trazado_114235" data-name="Trazado 114235" d="M1800.551,1174.558a3.944,3.944,0,1,0-3.944,3.945A3.949,3.949,0,0,0,1800.551,1174.558Zm-5.431,0a1.487,1.487,0,1,1,1.486,1.486A1.488,1.488,0,0,1,1795.12,1174.558Z" transform="translate(-1760.98 -1157.954)" fill="#0ce6ea"/>
      <path id="Trazado_114236" data-name="Trazado 114236" d="M1799.142,1214.339v2a1.229,1.229,0,0,0,1.229,1.229h10.665a1.229,1.229,0,0,0,1.229-1.229v-2a3.493,3.493,0,0,0-3.489-3.489h-6.146a3.492,3.492,0,0,0-3.488,3.489Zm10.665,0v.775H1801.6v-.775a1.032,1.032,0,0,1,1.031-1.031h6.146A1.032,1.032,0,0,1,1809.807,1214.339Z" transform="translate(-1764.217 -1178.052)" fill="#0ce6ea"/>
    </g>
  </g>
</svg>
