<svg xmlns="http://www.w3.org/2000/svg" width="79.909" height="75.637" viewBox="0 0 79.909 75.637">
  <g id="Grupo_58624" data-name="Grupo 58624" transform="translate(0 0)">
    <path id="Trazado_114232" data-name="Trazado 114232" d="M1745,1170.614a4.362,4.362,0,0,0-4.356,4.356v9.017a4.356,4.356,0,0,0,8.713,0v-9.017A4.362,4.362,0,0,0,1745,1170.614Zm0,3.452a.905.905,0,0,1,.9.9v2.715H1744.1v-2.715A.905.905,0,0,1,1745,1174.066Zm0,10.826a.905.905,0,0,1-.9-.9v-2.849h1.808v2.849A.905.905,0,0,1,1745,1184.892Z" transform="translate(-1732.713 -1152.83)" fill="#ea526f"/>
    <path id="Trazado_114233" data-name="Trazado 114233" d="M1807.544,1164.106h-4.337a9.793,9.793,0,0,0-9.559-7.722h-5.342v-6.039a1.726,1.726,0,0,0-1.726-1.726h-.9v-1.573a1.726,1.726,0,1,0-3.452,0v1.573h-.9a1.726,1.726,0,0,0-1.726,1.726v6.038h-1.244v-6.038a1.726,1.726,0,0,0-1.726-1.726h-.9v-1.573a1.726,1.726,0,1,0-3.452,0v1.573h-.9a1.727,1.727,0,0,0-1.727,1.726v6.038H1743.38v-2.6a1.726,1.726,0,0,0-3.452,0v2.606h-.787a9.788,9.788,0,0,0-9.779,9.778v19.661a1.726,1.726,0,0,0,1.726,1.726h4.028v3.411a1.726,1.726,0,0,0,1.726,1.726h3.085v4.7h-5.033a5.539,5.539,0,0,0-5.532,5.532v16.315a1.726,1.726,0,0,0,1.726,1.726H1801.7a1.726,1.726,0,0,0,1.726-1.726v-35.14h4.118a1.727,1.727,0,0,0,1.727-1.726v-16.532A1.727,1.727,0,0,0,1807.544,1164.106Zm-24.5-12.035h1.808v4.312h-1.808Zm-9.957,0h1.808v4.312h-1.808Zm-34.521,35.478h6.17v1.685h-6.17Zm4.811,5.138h3.085a1.726,1.726,0,0,0,1.726-1.726v-3.411h4.028a1.727,1.727,0,0,0,1.726-1.727v-3.557a2.311,2.311,0,0,1,2.309-2.309h13.7a2.311,2.311,0,0,1,2.308,2.309v15.118H1743.38v-4.7Zm-8.486,8.15h39.093a1.726,1.726,0,0,0,1.726-1.726v-16.845a5.768,5.768,0,0,0-5.761-5.761h-13.7a5.768,5.768,0,0,0-5.761,5.761v1.832h-17.679v-17.935a6.333,6.333,0,0,1,6.326-6.326h54.507a6.333,6.333,0,0,1,6.326,6.326v45.787h-67.16v-9.033a2.082,2.082,0,0,1,2.08-2.08Zm-2.08,16.668v-2.1h67.16v2.1Zm73-36.866h-2.392v-13.079h2.392Z" transform="translate(-1729.362 -1145.32)" fill="#ea526f"/>
    <path id="Trazado_114234" data-name="Trazado 114234" d="M1779.568,1170.614a5.541,5.541,0,1,0,5.541,5.541,5.548,5.548,0,0,0-5.541-5.541Zm0,7.629a2.089,2.089,0,1,1,2.088-2.088,2.091,2.091,0,0,1-2.088,2.088Z" transform="translate(-1742.623 -1152.83)" fill="#ea526f"/>
    <path id="Trazado_114235" data-name="Trazado 114235" d="M1803.744,1176.155a5.541,5.541,0,1,0-5.541,5.541A5.547,5.547,0,0,0,1803.744,1176.155Zm-7.629,0a2.089,2.089,0,1,1,2.088,2.088A2.091,2.091,0,0,1,1796.115,1176.155Z" transform="translate(-1748.156 -1152.83)" fill="#ea526f"/>
    <path id="Trazado_114236" data-name="Trazado 114236" d="M1799.142,1215.751v2.815a1.726,1.726,0,0,0,1.726,1.726h14.982a1.727,1.727,0,0,0,1.727-1.726v-2.815a4.906,4.906,0,0,0-4.9-4.9h-8.634a4.906,4.906,0,0,0-4.9,4.9Zm14.982,0v1.089h-11.529v-1.089a1.45,1.45,0,0,1,1.448-1.448h8.633A1.45,1.45,0,0,1,1814.124,1215.751Z" transform="translate(-1750.08 -1164.776)" fill="#ea526f"/>
  </g>
</svg>
