<svg id="Grupo_58635" data-name="Grupo 58635" xmlns="http://www.w3.org/2000/svg" width="103.104" height="64.565" viewBox="0 0 103.104 64.565">
  <rect id="BG-5" width="103.104" height="64.565" transform="translate(0)" fill="#0ce6ea" opacity="0"/>
  <g id="Grupo_58634" data-name="Grupo 58634" transform="translate(14.42 17.648)">
    <g id="Grupo_58633" data-name="Grupo 58633" transform="translate(5.436 4.854)">
      <path id="Trazado_114245" data-name="Trazado 114245" d="M2507.123,1204.132h-64.3a1.291,1.291,0,0,1-1.29-1.29v-11.053a1.291,1.291,0,0,1,1.29-1.29h3.869c-.031-3.574-.161-7.973-.2-8.779a1.29,1.29,0,0,1,2.505-.491c.165.29,1.344,1.906,9.589,9.27h2.481c-.03-3.571-.161-7.972-.2-8.779a1.29,1.29,0,0,1,2.505-.491c.166.29,1.345,1.906,9.59,9.27h1.754c-.03-3.571-.161-7.972-.2-8.779a1.29,1.29,0,0,1,2.5-.491c.166.29,1.345,1.906,9.59,9.27h2.482c-.03-3.575-.161-7.974-.2-8.779a1.29,1.29,0,0,1,2.505-.491c.165.29,1.344,1.906,9.589,9.27h6.128a1.29,1.29,0,0,1,1.291,1.29v11.053A1.29,1.29,0,0,1,2507.123,1204.132Zm-63-2.581h61.715v-8.472h-5.33a1.292,1.292,0,0,1-.858-.327c-4.018-3.581-6.5-5.919-8.054-7.472.05,2.031.1,4.508.1,6.508a1.291,1.291,0,0,1-1.29,1.291h-4.27a1.29,1.29,0,0,1-.858-.327c-4.018-3.581-6.505-5.919-8.055-7.472.05,2.032.1,4.511.1,6.508a1.29,1.29,0,0,1-1.29,1.291h-3.542a1.29,1.29,0,0,1-.859-.327c-4.018-3.581-6.505-5.919-8.054-7.472.05,2.032.1,4.511.1,6.508a1.29,1.29,0,0,1-1.29,1.291h-4.27a1.292,1.292,0,0,1-.858-.327c-4.018-3.581-6.506-5.919-8.054-7.472.05,2.032.094,4.51.1,6.509a1.291,1.291,0,0,1-1.29,1.291h-3.875Zm47.313-20.245v0Zm-14.377,0v0Zm-13.649,0v0Zm-14.377,0v0Zm14.341-.1Zm-14.377,0Z" transform="translate(-2441.537 -1180.217)" fill="#0ce6ea"/>
      <path id="Trazado_114246" data-name="Trazado 114246" d="M2452.721,1182.8a1.29,1.29,0,0,1-1.241-.939,1.555,1.555,0,0,1-.061-.426,1.3,1.3,0,0,1,1.262-1.366,1.312,1.312,0,0,1,1.33,1.38,1.291,1.291,0,0,1-1.29,1.352Zm-1.282-1.229a1.29,1.29,0,0,0,2.561-.151,1,1,0,0,0-.036-.261l-1.242.351Z" transform="translate(-2446.473 -1180.066)" fill="#0ce6ea"/>
      <path id="Trazado_114247" data-name="Trazado 114247" d="M2481.446,1182.8a1.29,1.29,0,0,1-1.241-.939,1.555,1.555,0,0,1-.061-.426,1.3,1.3,0,0,1,1.261-1.366,1.312,1.312,0,0,1,1.33,1.38,1.292,1.292,0,0,1-1.29,1.352Zm-1.283-1.229a1.29,1.29,0,0,0,2.561-.151,1.006,1.006,0,0,0-.036-.261l-1.241.351Z" transform="translate(-2460.821 -1180.066)" fill="#0ce6ea"/>
      <path id="Trazado_114248" data-name="Trazado 114248" d="M2508.717,1182.8a1.29,1.29,0,0,1-1.241-.939,1.555,1.555,0,0,1-.061-.426,1.3,1.3,0,0,1,1.262-1.366,1.312,1.312,0,0,1,1.33,1.38,1.291,1.291,0,0,1-1.29,1.352Zm-1.282-1.229a1.29,1.29,0,0,0,2.561-.151,1.021,1.021,0,0,0-.036-.261l-1.241.351Z" transform="translate(-2474.443 -1180.066)" fill="#0ce6ea"/>
      <path id="Trazado_114249" data-name="Trazado 114249" d="M2537.441,1182.8a1.29,1.29,0,0,1-1.241-.939,1.537,1.537,0,0,1-.061-.426,1.3,1.3,0,0,1,1.262-1.366,1.311,1.311,0,0,1,1.33,1.38,1.291,1.291,0,0,1-1.29,1.352Zm-1.282-1.229a1.29,1.29,0,0,0,2.561-.151,1.028,1.028,0,0,0-.036-.261l-1.242.351Z" transform="translate(-2488.79 -1180.066)" fill="#0ce6ea"/>
    </g>
    <path id="Trazado_114250" data-name="Trazado 114250" d="M2496.562,1179.719c-3.437,0-5.932-.942-7.431-2.807-2.656-3.3-4.01-3.614-4.469-3.594-.789.035-1.548,1.17-2.281,2.267-.887,1.328-1.893,2.834-3.554,3.025a3.894,3.894,0,0,1-3.1-1.271c-3.991-3.739-5.565-3.939-6.057-3.851s-.858.752-1.361,1.757c-.553,1.1-1.242,2.478-2.724,2.809a4.457,4.457,0,0,1-3.589-1.215c-3.336-2.628-5.146-3.082-6.076-3-.888.079-1.425.66-2.227,1.6a5.724,5.724,0,0,1-2.325,1.9,4.077,4.077,0,0,1-3.9-.932c-3.339-2.483-6.73-3.043-10.08-1.665a12.289,12.289,0,0,0-4.125,2.843,1.475,1.475,0,0,1-2.23-1.93,15.073,15.073,0,0,1,5.233-3.641c3.007-1.237,7.7-1.889,12.962,2.026.522.388.966.588,1.157.52a4.11,4.11,0,0,0,1.065-1.029,6.163,6.163,0,0,1,4.213-2.626c2.187-.193,4.779.958,8.16,3.622a2.944,2.944,0,0,0,1.11.646,5.8,5.8,0,0,0,.741-1.244c.631-1.26,1.5-2.984,3.479-3.339,2.139-.382,4.787,1.038,8.591,4.6.506.474.743.493.745.493.319-.06,1.1-1.232,1.437-1.733,1.034-1.548,2.321-3.475,4.6-3.575,2.056-.091,4.252,1.4,6.9,4.693,2.163,2.691,8.58,1.632,11.671.7a1.484,1.484,0,0,1,1.838.948l-2.8.918,1.4-.459.422,1.413a29.211,29.211,0,0,1-5.82,1.075Q2497.321,1179.719,2496.562,1179.719Z" transform="translate(-2430.676 -1170.368)" fill="#0ce6ea"/>
  </g>
</svg>
