<svg id="Grupo_58629" data-name="Grupo 58629" xmlns="http://www.w3.org/2000/svg" width="103.104" height="64.565" viewBox="0 0 103.104 64.565">
  <rect id="BG-3" width="103.104" height="64.565" transform="translate(0)" fill="#0ce6ea" opacity="0"/>
  <g id="Grupo_58628" data-name="Grupo 58628" transform="translate(23.596 10.255)">
    <path id="Trazado_114239" data-name="Trazado 114239" d="M2723.94,1192.793a3.529,3.529,0,0,0-4.5-2.165l-12.6,4.41h-8.907v-5.917a1.229,1.229,0,0,0-1.229-1.229H2695.1v-9.477l-.023.026a7.587,7.587,0,0,0-2.038-4.641v-6.78a5.53,5.53,0,0,0-11.059,0v6.729a7.61,7.61,0,0,0,4.549,12.816v1.326h-1.44a1.229,1.229,0,0,0-1.229,1.229v5.917h-7.132l-2.336-3.717a1.229,1.229,0,0,0-1.694-.386l-3.9,2.448a1.229,1.229,0,0,0-.387,1.694l3.375,5.368a3.51,3.51,0,0,0,2.988,1.651h32.666a3.518,3.518,0,0,0,1.166-.2l13.165-4.608a3.533,3.533,0,0,0,2.165-4.5Zm-32.807-17.431a5.17,5.17,0,0,1,.773,6.309l-7.082-7.082a5.169,5.169,0,0,1,6.309.773Zm-3.625-11.414a3.076,3.076,0,0,1,3.072,3.072v5.032a7.658,7.658,0,0,0-6.144-.021v-5.011A3.075,3.075,0,0,1,2687.508,1163.948Zm-4.427,12.374,7.094,7.094a5.16,5.16,0,0,1-7.094-7.094Zm5.9,10.156a7.576,7.576,0,0,0,3.656-1.86v3.274h-3.656Zm-2.668,3.871h9.163v4.688h-9.163Zm34.646,4.621-13.165,4.608a1.065,1.065,0,0,1-.354.06h-32.667a1.066,1.066,0,0,1-.907-.5l-2.72-4.327,1.815-1.141,2.043,3.251a1.23,1.23,0,0,0,1.04.575h31a1.219,1.219,0,0,0,.406-.069l12.8-4.478a1.072,1.072,0,0,1,.708,2.023Z" transform="translate(-2668.227 -1158.541)" fill="#0ce6ea"/>
    <path id="Trazado_114240" data-name="Trazado 114240" d="M2731.435,1183.735v5.041a1.229,1.229,0,1,0,2.458,0v-5.038h1.475a1.229,1.229,0,0,0,0-2.458h-1.475v-5.9h7.865a6.206,6.206,0,0,0,0-12.411h-.492a2.458,2.458,0,1,1,0-4.915h1.6a1.229,1.229,0,0,0,0-2.458h-1.6a4.915,4.915,0,1,0,0,9.83h.492a3.748,3.748,0,0,1,0,7.5h-7.865v-1.475h2.458a1.229,1.229,0,0,0,1.229-1.229v-.492h.86a1.229,1.229,0,0,0,0-2.458h-.86v-.491a1.229,1.229,0,0,0-1.229-1.229h-.452v-5.775a1.229,1.229,0,0,0-1.229-1.229h-4.01a1.229,1.229,0,0,0-1.229,1.229v5.775h-.452a1.229,1.229,0,0,0-1.229,1.229v3.441a1.229,1.229,0,0,0,1.229,1.229h2.458v1.478a5.4,5.4,0,0,0,0,10.807Zm.452-22.73h1.553v4.547h-1.553Zm-1.681,7h4.916v.983h-4.916Zm1.229,7.376v5.892a2.949,2.949,0,0,1,0-5.892Z" transform="translate(-2697.159 -1155.598)" fill="#0ce6ea"/>
    <path id="Trazado_114241" data-name="Trazado 114241" d="M2705.524,1171.969a1.229,1.229,0,1,0-.869-.36A1.24,1.24,0,0,0,2705.524,1171.969Z" transform="translate(-2686.243 -1162.547)" fill="#0ce6ea"/>
  </g>
</svg>
