<svg xmlns="http://www.w3.org/2000/svg" width="73.965" height="77.121" viewBox="0 0 73.965 77.121">
  <path id="Trazado_114242" data-name="Trazado 114242" d="M2293.528,1158.366a7.677,7.677,0,1,0-11.035-10.666l-.71.781-.715-.715a11.953,11.953,0,0,0-16.9,16.905l1.52,1.52-3.064,3.371q-6.448,7.091-12.715,14.416l-4.265-4.266a11.177,11.177,0,0,0-15.806,15.808l5.765,5.765q-6.846,8.578-13.373,17.344a1.726,1.726,0,0,0,2.461,2.379q8.477-6.767,16.771-13.862l5.4,5.4a1.726,1.726,0,0,0,2.441-2.442l-5.218-5.218q5.855-5.06,11.591-10.258l6.474,6.474a15.319,15.319,0,1,0,21.664-21.664l-5.89-5.89,12.03-11.706a6.655,6.655,0,0,1-1.048,8.05l-.555.555a1.726,1.726,0,0,0,2.441,2.441l.555-.555a10.1,10.1,0,0,0,1.128-12.946l1.053-1.024Zm-26.923,3.864a8.5,8.5,0,1,1,12.021-12.023l.832.832-11.449,12.595Zm-1.431,9.654,16.728-18.4,1.664,1.664-3.5,3.624a1.726,1.726,0,1,0,2.482,2.4l7.167-7.414a1.726,1.726,0,0,0-2.483-2.4l-1.263,1.307-1.74-1.739.821-.9a4.193,4.193,0,0,1,2.99-1.381l.141,0a4.224,4.224,0,0,1,2.942,7.252l-21.174,20.6q-6.956,6.771-14.159,13.363l-3.433-3.433Q2258.668,1179.046,2265.174,1171.885Zm-32.9,21.194a7.724,7.724,0,0,1,10.923-10.925l4.462,4.462q-5.013,5.92-9.887,11.961Zm1.593,15.969q7.911-10.139,16.242-19.983l3.122,3.122q-9.514,8.62-19.363,16.861Zm47.5-27.166a11.866,11.866,0,0,1-16.781,16.782l-6.36-6.36q7.176-6.575,14.123-13.333l3.1-3.012,5.923,5.924Z" transform="translate(-2221.885 -1144.265)" fill="#ea526f"/>
</svg>
