<svg id="Grupo_58630" data-name="Grupo 58630" xmlns="http://www.w3.org/2000/svg" width="103.104" height="64.565" viewBox="0 0 103.104 64.565">
  <rect id="BG-2" width="103.104" height="64.565" fill="#0ce6ea" opacity="0"/>
  <path id="Trazado_114242" data-name="Trazado 114242" d="M2272.884,1154.3a5.465,5.465,0,1,0-7.855-7.593l-.506.556-.509-.509a8.509,8.509,0,0,0-12.033,12.034l1.082,1.082-2.181,2.4q-4.589,5.048-9.051,10.262l-3.036-3.037a7.956,7.956,0,0,0-11.251,11.253l4.1,4.1q-4.874,6.106-9.52,12.346a1.229,1.229,0,0,0,1.752,1.694q6.034-4.817,11.939-9.868l3.846,3.846a1.229,1.229,0,0,0,1.738-1.738l-3.715-3.714q4.168-3.6,8.251-7.3l4.609,4.609a10.9,10.9,0,1,0,15.422-15.422l-4.193-4.193,8.563-8.333a4.737,4.737,0,0,1-.746,5.73l-.4.395a1.229,1.229,0,0,0,1.738,1.738l.4-.4a7.192,7.192,0,0,0,.8-9.215l.75-.729Zm-19.165,2.751a6.051,6.051,0,1,1,8.557-8.559l.592.592-8.15,8.966Zm-1.019,6.872,11.908-13.1,1.185,1.185-2.494,2.58a1.229,1.229,0,1,0,1.767,1.708l5.1-5.278a1.229,1.229,0,0,0-1.767-1.708l-.9.93-1.238-1.238.584-.643a2.984,2.984,0,0,1,2.128-.983h.1a3.007,3.007,0,0,1,2.094,5.163l-15.073,14.667q-4.952,4.82-10.079,9.513l-2.444-2.443Q2248.069,1169.024,2252.7,1163.926Zm-23.419,15.087a5.5,5.5,0,0,1,7.776-7.777l3.176,3.176q-3.568,4.214-7.038,8.515Zm1.134,11.368q5.631-7.218,11.562-14.225l2.222,2.222q-6.773,6.136-13.784,12Zm33.816-19.338a8.447,8.447,0,0,1-11.946,11.946l-4.527-4.528q5.108-4.68,10.054-9.491l2.2-2.144,4.216,4.217Z" transform="translate(-2196.659 -1139.682)" fill="#0ce6ea"/>
</svg>
