<svg xmlns="http://www.w3.org/2000/svg" width="47.767" height="47.767" viewBox="0 0 47.767 47.767">
  <g id="Grupo_80234" data-name="Grupo 80234" transform="translate(0)">
    <g id="layer1" transform="translate(0 0)">
      <path id="path15777-4" d="M46.968,284.035H.794v35.029a1.589,1.589,0,0,0,1.592,1.592h42.99a1.589,1.589,0,0,0,1.592-1.592Z" transform="translate(0.002 -273.687)" fill="#dbe9ee"/>
      <path id="rect2181-6" d="M2.386,280.86a1.589,1.589,0,0,0-1.592,1.592v7.961H46.968v-7.961a1.589,1.589,0,0,0-1.592-1.592Z" transform="translate(0.002 -280.066)" fill="#33658a"/>
      <g id="Grupo_80233" data-name="Grupo 80233" transform="translate(3.981 3.98)">
        <path id="path2185-5" d="M5.037,283.511a1.592,1.592,0,1,1-1.592-1.592A1.592,1.592,0,0,1,5.037,283.511Z" transform="translate(-1.852 -281.919)" fill="#5b91b8"/>
        <path id="circle2187-5" d="M7.153,283.511a1.592,1.592,0,1,1-1.592-1.592,1.592,1.592,0,0,1,1.592,1.592Z" transform="translate(2.4 -281.919)" fill="#5b91b8"/>
        <path id="circle2189-2" d="M9.27,283.511a1.592,1.592,0,1,1-1.592-1.592,1.592,1.592,0,0,1,1.592,1.592Z" transform="translate(6.652 -281.919)" fill="#5b91b8"/>
      </g>
      <path id="rect2197-2" d="M9.79,281.919H25.712V285.1H9.79Z" transform="translate(18.074 -277.938)" fill="#dbe9ee"/>
      <path id="rect2118" d="M2.381,285.623H39v20.7H2.381Z" transform="translate(3.192 -270.497)" fill="#ff6b6b"/>
      <path id="path2126" d="M7.408,295.7l6.369-3.981-6.369-3.98Z" transform="translate(13.291 -266.246)" fill="#dbe9ee"/>
      <path id="path13073-4" d="M2.916,280.6a2.4,2.4,0,0,0-2.387,2.385V325.97a2.4,2.4,0,0,0,2.387,2.393H45.911A2.4,2.4,0,0,0,48.3,325.97V282.981a2.4,2.4,0,0,0-2.385-2.385Zm0,1.592H45.911a.772.772,0,0,1,.793.793v7.163H2.123v-7.163a.772.772,0,0,1,.793-.793ZM6.1,283.78a2.386,2.386,0,1,0,2.393,2.387A2.4,2.4,0,0,0,6.1,283.78Zm6.37,0a2.386,2.386,0,1,0,2.387,2.387A2.4,2.4,0,0,0,12.471,283.78Zm6.37,0a2.386,2.386,0,1,0,2.387,2.387A2.4,2.4,0,0,0,18.841,283.78Zm9.513,0a.8.8,0,0,0-.756.793v3.186a.8.8,0,0,0,.793.793H44.319a.8.8,0,0,0,.793-.793v-3.186a.8.8,0,0,0-.793-.793ZM6.1,285.374a.8.8,0,1,1-.793.793A.784.784,0,0,1,6.1,285.374Zm6.37,0a.8.8,0,0,1,0,1.592.8.8,0,1,1,0-1.592Zm6.37,0a.8.8,0,0,1,0,1.592.8.8,0,1,1,0-1.592Zm10.349,0H43.518v1.592H29.191ZM2.123,291.739H46.7V325.97a.779.779,0,0,1-.793.8H2.916a.779.779,0,0,1-.793-.8ZM6.1,294.926a.8.8,0,0,0-.8.793v20.705a.8.8,0,0,0,.8.793H42.722a.8.8,0,0,0,.8-.793V295.719a.8.8,0,0,0-.8-.793ZM6.9,296.52H41.929v19.105H6.9ZM21.2,301.3a.8.8,0,0,0-.765.793v7.964a.8.8,0,0,0,1.217.675l6.37-3.984a.8.8,0,0,0,0-1.347l-6.37-3.984a.8.8,0,0,0-.452-.118Zm.827,2.228,4.079,2.55-4.079,2.545ZM14.049,318.8a.8.8,0,0,0-.782.8v.8H6.062a.8.8,0,1,0,0,1.592h7.205v.793a.8.8,0,1,0,1.592,0V319.6A.8.8,0,0,0,14.049,318.8Zm3.2,3.2H42.722a.8.8,0,1,0,0-1.592H17.208A.8.8,0,0,0,17.246,322Z" transform="translate(-0.529 -280.596)"/>
    </g>
  </g>
</svg>
