<svg xmlns="http://www.w3.org/2000/svg" width="400" height="348.525" viewBox="0 0 400 348.525">
  <g id="Grupo_1015073" data-name="Grupo 1015073" transform="translate(-1020 -972.77)">
    <rect id="Rectángulo_346728" data-name="Rectángulo 346728" width="55" height="134" rx="27.5" transform="translate(1299.5 972.77)" fill="#0a59a8"/>
    <path id="Trazado_735675" data-name="Trazado 735675" d="M7.438,0H325.063a7.438,7.438,0,0,1,0,14.875H7.438A7.438,7.438,0,0,1,7.438,0Z" transform="translate(1034.25 1306.42)" fill="#0b59a8"/>
    <g id="MAINTANCE" transform="translate(694.5 600.174)">
      <path id="Trazado_735574" data-name="Trazado 735574" d="M1189.35,522.02c-3.212-1.341-6.413-2.726-9.541-4.247a3.9,3.9,0,0,1-1.717-2.038c-1.148-3.206-2.171-6.462-3.141-9.731a3.088,3.088,0,0,1,.133-2.118c1.81-3.428,3.775-6.773,5.575-10.206a2.21,2.21,0,0,0-.138-1.978c-2.468-2.995-5.082-5.873-7.587-8.839a1.6,1.6,0,0,0-2.179-.5c-3.47,1.453-6.961,2.862-10.485,4.177a3.491,3.491,0,0,1-2.265-.06q-4.782-2.074-9.447-4.409a3.6,3.6,0,0,1-1.722-1.8c-1.114-3.365-2.092-6.778-3.024-10.2-.378-1.388-.921-1.9-3.149-1.628a25.739,25.739,0,0,1-8.985-.6c-2-.472-2.692-.1-3.24,1.229-1.336,3.214-2.815,6.366-4.14,9.582-.556,1.349-1.385,1.74-3.146,2.085a30.023,30.023,0,0,0-7.615,2.494c-1.612.8-2.494.864-3.707.151-3.175-1.86-6.423-3.6-9.6-5.447-1.182-.689-1.855-.436-3.06.96a35.145,35.145,0,0,1-7.25,6.337c-1.516,1-1.552,1.722-1.049,2.922,1.419,3.4,2.8,6.807,4.065,10.266a3.42,3.42,0,0,1-.217,2.434q-2.356,4.649-4.983,9.16a4.013,4.013,0,0,1-2.012,1.753c-3.577,1.106-7.2,2.064-10.827,3-1.3.334-1.805.895-1.67,2.7a34.767,34.767,0,0,1-.569,9.46c-.373,1.85-.209,2.567,1.111,3.086,3.545,1.4,7.081,2.831,10.548,4.412a3.978,3.978,0,0,1,1.727,2.048c1.244,3.1,2.226,6.314,3.535,9.387a3.227,3.227,0,0,1-.138,3.277c-1.75,3.011-3.368,6.1-5.108,9.115a1.836,1.836,0,0,0,.24,2.565c1.667,1.8,2.943,3.214,4.552,5.069l2.192,2.366a3.861,3.861,0,0,0,3.692,1.143,12.961,12.961,0,0,0,1.965-.611c2.671-1.07,4.944-1.949,7.6-3.06a2.871,2.871,0,0,1,2.888.258c3.008,1.732,6.167,3.206,9.207,4.886a3.382,3.382,0,0,1,1.49,1.771c1.106,3.645,2.108,7.323,3.066,11.012.36,1.383,1.08,1.688,3.068,1.495a25.638,25.638,0,0,1,8.547.493c2.366.574,3.079.344,3.658-1.13,1.37-3.485,2.812-6.942,4.365-10.35a3.676,3.676,0,0,1,1.884-1.664c3.3-1.291,6.634-2.484,9.995-3.6a3.252,3.252,0,0,1,2.293.1c3.718,1.944,7.368,4.01,11.179,6.113,3.277-2.922,6.546-5.779,9.715-8.742a2.254,2.254,0,0,0,.305-1.98c-1.307-3.509-2.781-6.955-4.1-10.459a3.206,3.206,0,0,1-.013-2.168c1.38-3.287,2.836-6.548,4.4-9.752a3.623,3.623,0,0,1,1.829-1.6c3.365-1.117,6.775-2.108,10.2-3.055a2.051,2.051,0,0,0,1.5-1.886c.172-3.754.4-7.508.718-11.252A1.882,1.882,0,0,0,1189.35,522.02Zm-34.917,5.533a21.935,21.935,0,1,1-20.3-23.295A21.888,21.888,0,0,1,1154.433,527.553Z" transform="translate(-552.103 -50.496)" fill="#00e6eb"/>
      <path id="Trazado_735575" data-name="Trazado 735575" d="M1431.578,956.087c-4.159-1.524-8.307-3.1-12.369-4.858a4.935,4.935,0,0,1-2.3-2.491c-1.644-4.012-3.128-8.093-4.547-12.189a3.933,3.933,0,0,1,.05-2.7c2.108-4.459,4.411-8.823,6.506-13.29a2.814,2.814,0,0,0-.287-2.507c-3.308-3.668-6.793-7.175-10.143-10.8a2.032,2.032,0,0,0-2.8-.506c-4.328,2.045-8.685,4.036-13.089,5.9a4.471,4.471,0,0,1-2.883.055q-6.2-2.364-12.259-5.066a4.572,4.572,0,0,1-2.291-2.194c-1.607-4.216-3.045-8.5-4.425-12.794-.558-1.745-1.278-2.361-4.1-1.891a32.76,32.76,0,0,1-11.456-.248c-2.572-.485-3.426.029-4.049,1.745-1.516,4.161-3.217,8.252-4.717,12.416-.629,1.745-1.659,2.291-3.882,2.828a38.223,38.223,0,0,0-9.536,3.6c-2,1.109-3.12,1.239-4.7.4-4.14-2.184-8.369-4.2-12.515-6.376-1.542-.809-2.385-.449-3.835,1.393a44.736,44.736,0,0,1-8.855,8.469c-1.871,1.362-1.873,2.278-1.166,3.775,2,4.237,3.953,8.495,5.748,12.815a4.334,4.334,0,0,1-.138,3.1q-2.728,6.042-5.81,11.925a5.1,5.1,0,0,1-2.455,2.343c-4.482,1.61-9.035,3.034-13.592,4.425-1.638.5-2.246,1.242-1.97,3.53a44.112,44.112,0,0,1-.185,12.056c-.368,2.372-.117,3.274,1.589,3.859,4.586,1.573,9.16,3.2,13.657,5.006a5.059,5.059,0,0,1,2.311,2.5c1.756,3.874,3.188,7.9,5.027,11.729a4.116,4.116,0,0,1,.013,4.174c-2.053,3.926-3.932,7.944-5.974,11.878a2.337,2.337,0,0,0,.449,3.245c2.22,2.2,3.924,3.916,6.074,6.186l2.919,2.883a4.917,4.917,0,0,0,4.756,1.242,16.508,16.508,0,0,0,2.463-.887c3.334-1.511,6.173-2.758,9.483-4.323a3.659,3.659,0,0,1,3.687.162c3.924,2.03,8.022,3.723,11.983,5.687a4.3,4.3,0,0,1,2,2.165c1.612,4.571,3.094,9.188,4.524,13.822.537,1.738,1.469,2.084,3.984,1.724a32.687,32.687,0,0,1,10.892.141c3.04.595,3.932.261,4.584-1.644,1.542-4.508,3.18-8.985,4.959-13.4a4.673,4.673,0,0,1,2.3-2.223q6.175-2.743,12.5-5.145a4.15,4.15,0,0,1,2.919,0c4.834,2.257,9.593,4.678,14.558,7.135,4-3.9,7.991-7.717,11.85-11.664a2.862,2.862,0,0,0,.274-2.536c-1.86-4.385-3.929-8.685-5.81-13.063a4.094,4.094,0,0,1-.141-2.755c1.568-4.258,3.23-8.484,5.033-12.645a4.587,4.587,0,0,1,2.233-2.139c4.214-1.612,8.492-3.066,12.784-4.461a2.6,2.6,0,0,0,1.8-2.481c.005-4.782.083-9.567.274-14.344A2.387,2.387,0,0,0,1431.578,956.087Zm-72.533,36.371a27.909,27.909,0,1,1,28.466-27.346A27.813,27.813,0,0,1,1359.046,992.458Z" transform="translate(-707.984 -362.906)" fill="#00e6eb"/>
      <path id="Trazado_735576" data-name="Trazado 735576" d="M1224.326,993.359s.1,14.02.412,16.467,1.043,5.972,4.26,6.908a44.024,44.024,0,0,0,9.353,1.461c3.681.321,11.312-.3,13.861-2.763s1.931-22.747,1.931-22.747l1.161.138.532-1.31s1.125-5.839.736-8.356-1.422-9.945-6.173-12-14.876-7.91-23.446,1.745a6.873,6.873,0,0,0-5.127,6.7,109.483,109.483,0,0,0,.548,13.232Z" transform="translate(-662.449 -419.954)" fill="#ff6e23"/>
      <path id="Trazado_735577" data-name="Trazado 735577" d="M1073.623,1202.883s-27.5.086-38.3,23.822-11.691,33.566-12.246,38.011-5.659,30.057,12.794,34.315h10.681l101.765.519s12.635-4.344,13.073-18.7a102.969,102.969,0,0,0-5.166-34.015c-2.121-6.238-7.774-23.256-12.995-28.474s-11.184-10.321-21.873-13.311-12.168-2.267-12.168-2.267Z" transform="translate(-514.799 -593.782)" fill="#ff6e23"/>
      <circle id="Elipse_5966" data-name="Elipse 5966" cx="88.58" cy="88.58" r="88.58" transform="translate(325.5 410.65)" fill="#ff6e23"/>
      <path id="Trazado_735578" data-name="Trazado 735578" d="M453.614,703.25a10.462,10.462,0,0,0-14.8,0l-4.033,4.033a10.455,10.455,0,0,0,0,14.8l29.486,29.489a10.46,10.46,0,0,0,14.8,0l60.7-59.219a10.47,10.47,0,0,0,0-14.8l-4.039-4.039a10.466,10.466,0,0,0-14.8,0L471.66,721.3Z" transform="translate(-78.501 -200.386)" fill="#fff"/>
      <path id="Trazado_735579" data-name="Trazado 735579" d="M516.2,1051.53s-16.749.326-28.486,17.508c0,0-3.5,4.821-6.561,14.952s-6.368,27.962-6.368,27.962-2.494,10.77-2.1,17.827,3.165,16.723,15.265,18.346l-.391,39.689h86.662l-.391-39.689s10.5.4,14.693-6.17,4.56-14.049,3.41-22.282-6.7-31.161-8.15-36.952-6.608-15.63-12.476-21.116-13.89-9.41-21.672-10.073Z" transform="translate(-108.757 -482.048)" fill="#00e6eb"/>
      <path id="Trazado_735580" data-name="Trazado 735580" d="M657.178,911.409v1.242s6.475-1.268,7.242,4.072c0,0,.222,7.555-7.6,4.66,0,0-1.08,8.02-3.866,10.412l-.047,1.124,6.684,6.788-3.131,18.868-7.331.091-5.982-8.4-5.734,8.257-7.161.055-3.877-18.414,7.459-6.561v-1.8a15.9,15.9,0,0,1-3.981-9.734l-.631-.183s-5.9,1.649-6.89-4.649,7.135-4.581,7.135-4.581v-3.316s3.692-4.6,4.866-8.855c0,0,8.257.712,14.127,4.654S657.178,911.409,657.178,911.409Z" transform="translate(-219.326 -370.405)" fill="#fff"/>
      <path id="Trazado_735581" data-name="Trazado 735581" d="M579.137,1129.23s-5.912,2.9-6.757,8.325.154,12.637,9.4,16.334l.217-22.437Z" transform="translate(-182.294 -539.477)" fill="#fff"/>
      <path id="Trazado_735582" data-name="Trazado 735582" d="M620.9,1118.35l1.059,1.2h3.107A15.457,15.457,0,0,0,620.9,1118.35Z" transform="translate(-218.333 -531.435)" fill="#fff"/>
      <path id="Trazado_735583" data-name="Trazado 735583" d="M742.027,1146.72v7.219a33.311,33.311,0,0,1-7.9,1.13c-3.256-.123-7.968.584-8.93,3.882s1.51,3.78,1.51,3.78-2.956,1.085-3.136,3.681,1.4,3.439,1.4,3.439a5.3,5.3,0,0,0-.717,3.319c.347,1.568,1.372,3.859,7.527,4.1s11.4-.06,14.659-1.871,4.284-1.268,5.792-7.18,1.508-11.886-.543-14.539S749.75,1147.056,742.027,1146.72Z" transform="translate(-294.207 -552.404)" fill="#fff"/>
      <path id="Trazado_735584" data-name="Trazado 735584" d="M654.352,1187.954H612.367a3.286,3.286,0,0,1-3.277-3.277v-57.8a3.286,3.286,0,0,1,3.277-3.277h41.985a3.286,3.286,0,0,1,3.277,3.277v57.8A3.286,3.286,0,0,1,654.352,1187.954Z" transform="translate(-209.604 -535.315)" fill="#fff"/>
      <path id="Trazado_735585" data-name="Trazado 735585" d="M596.567,1106.522l-6.421-6.222-3.817,3.817,6.154,5.951S593.311,1106.16,596.567,1106.522Z" transform="translate(-192.782 -518.094)" fill="#00e6eb"/>
      <path id="Trazado_735586" data-name="Trazado 735586" d="M1264.568,1029.051l-.493,11.171s-1.062,2.058-2.455,1.894c-5.458-.65-7.174,1.823-10.013,1.025-1.931-.543-2.716.509-5.173-.271-2.173-.689-1.931-.992-4-.817s-3.947.185-4.537-1.628l-.47-11.377s2.343-5.758,2.528-8.048c0,0,5.609,3.827,12.251,2.972a85.317,85.317,0,0,0,9.891-1.722Z" transform="translate(-674.017 -459.483)" fill="#fff"/>
      <path id="Trazado_735587" data-name="Trazado 735587" d="M1257.407,1168.39l-7.321-6.2-.4-5.69a24.6,24.6,0,0,1-9.549,1.093,92.408,92.408,0,0,1-10.574-1.427l-.18,6.543-6.838,5.6,5.823,29.969h1.2l5.573.365,1.542-5.5-2.424-4.86,5.669-12.077,5.779,12.429c-.764,1.787-1.839,4.362-1.839,4.362l1.651,5.489h5.155l-.12-.326,1.025.115Z" transform="translate(-663.019 -559.388)" fill="#fff"/>
      <path id="Trazado_735588" data-name="Trazado 735588" d="M1193.124,1385.5h-87.268a5.956,5.956,0,0,1-5.956-5.956v-54.6a5.956,5.956,0,0,1,5.956-5.956h87.268a5.956,5.956,0,0,1,5.956,5.956v54.6A5.956,5.956,0,0,1,1193.124,1385.5Z" transform="translate(-572.367 -679.73)" fill="#00e6eb"/>
      <circle id="Elipse_5967" data-name="Elipse 5967" cx="6.997" cy="6.997" r="6.997" transform="translate(568.404 668.351)" fill="#fff"/>
      <path id="Trazado_735589" data-name="Trazado 735589" d="M639.273,882.931s-4.315-15.077,4.01-16.707c0,0,2.445-5.494,10.95-5.416s13.506,2.849,15.758,8.3.806,12.984.806,12.984l-1.855,1.242v-1.242s-8.915-10.25-22.309-11.064c0,0-3.488,7.756-5.411,8.99v3.316Z" transform="translate(-231.086 -341.082)" fill="#00e6eb"/>
      <path id="Trazado_735590" data-name="Trazado 735590" d="M680.37,1099.557l5.471-8.257,5.972,7.973Z" transform="translate(-262.288 -511.442)" fill="#ff6e23"/>
      <path id="Trazado_735591" data-name="Trazado 735591" d="M580.572,1098.019l3.817-3.817-1.907-2.152-3.942,3.934Z" transform="translate(-187.024 -511.997)" fill="#fff"/>
      <g id="Grupo_1010075" data-name="Grupo 1010075" transform="translate(576.982 583.664)">
        <g id="Grupo_1010074" data-name="Grupo 1010074">
          <path id="Trazado_735592" data-name="Trazado 735592" d="M1289.482,1110.861c-.3-1.4,1.07-2.118,2.473-1.738s1.615.287,2.011.073.59-.342,1.044-1.722,1.8-2.134,2.81-1.117.587,4.717-2.066,6.149C1292.795,1114.1,1289.782,1112.262,1289.482,1110.861Z" transform="translate(-1289.44 -1105.888)" fill="#fff"/>
        </g>
      </g>
      <path id="Trazado_735593" data-name="Trazado 735593" d="M789.97,1363.311s2.056,16.282,18.719,20.9l-.321-6.115a21.279,21.279,0,0,1-12.165-6.28c-5.6-5.714-5.421-9.139-5.421-9.139Z" transform="translate(-343.295 -712.022)" fill="#ff6e23"/>
      <path id="Trazado_735594" data-name="Trazado 735594" d="M553.363,1365.906s-1.312,17.6-22.053,20.222l.321-6.115s8.26.835,13.861-4.879,7.06-9.864,7.06-9.864Z" transform="translate(-152.116 -713.936)" fill="#ff6e23"/>
      <path id="Trazado_735595" data-name="Trazado 735595" d="M638.827,925.04l-.057.219a34.037,34.037,0,0,0,.957,5.145l1.693.344.253-.031v-3.232a4.7,4.7,0,0,0,1.012-1.033A3.466,3.466,0,0,1,638.827,925.04Z" transform="translate(-231.541 -388.558)" fill="#fff"/>
      <path id="Trazado_735596" data-name="Trazado 735596" d="M727.75,921.03s7.007,2.254,9.723.686l-.457,5.726-1.855.4V926.6Z" transform="translate(-297.307 -385.594)" fill="#fff"/>
      <path id="Trazado_735597" data-name="Trazado 735597" d="M1277.355,971.163c-3.162-1.367-8.7-4.414-14.586-3.454,4.665.845,11.815,2.951,12.5,7.975,1.025,7.514-11.623,8.959-17.018,6.971l14.6,11.046,5.066,4.7s-.363,7.874-.542,11.763c-.138,3-3.955,6.632-9.457,8.106,3.918-.073,9.207-.861,11.244-2.833,2.549-2.465,1.931-22.747,1.931-22.747l1.161.138.532-1.31s1.125-5.839.736-8.356S1282.106,973.217,1277.355,971.163Z" transform="translate(-689.405 -419.959)" fill="#fff"/>
      <path id="Trazado_735598" data-name="Trazado 735598" d="M1282.12,1237.2l4.336,8-1.448,4.73,1.026,5.528,3.525-.183-1.651-5.489,1.837-4.362-5.779-12.429Z" transform="translate(-707.048 -616.167)" fill="#fff"/>
      <g id="Grupo_1010076" data-name="Grupo 1010076" transform="translate(562.936 566.597)">
        <path id="Trazado_735599" data-name="Trazado 735599" d="M1241.512,1055.351c-3.261,0-5.912-3.337-5.912-7.44s2.651-7.441,5.912-7.441,5.912,3.339,5.912,7.441S1244.77,1055.351,1241.512,1055.351Zm0-13.926c-2.731,0-4.957,2.909-4.957,6.488s2.226,6.486,4.957,6.486,4.957-2.909,4.957-6.486S1244.243,1041.425,1241.512,1041.425Z" transform="translate(-1235.6 -1040.47)"/>
      </g>
      <g id="Grupo_1010077" data-name="Grupo 1010077" transform="translate(582.57 569.091)">
        <path id="Trazado_735600" data-name="Trazado 735600" d="M1311.338,1064.186a.477.477,0,0,1-.188-.916,5.268,5.268,0,0,1,3.157-.177l.263.044a3.255,3.255,0,0,0,3.313-1.492c.188-.611.522-8.531.483-11.13a.477.477,0,0,1,.955-.016c.023,1.461-.214,10.947-.613,11.625a4.2,4.2,0,0,1-4.286,1.951l-.269-.044a4.4,4.4,0,0,0-2.625.112A.477.477,0,0,1,1311.338,1064.186Z" transform="translate(-1310.86 -1050.03)"/>
      </g>
      <g id="Grupo_1010082" data-name="Grupo 1010082" transform="translate(391.038 579.345)">
        <g id="Grupo_1010080" data-name="Grupo 1010080" transform="translate(0 0)">
          <g id="Grupo_1010078" data-name="Grupo 1010078" transform="translate(2.027 2.029)">
            <path id="Trazado_735601" data-name="Trazado 735601" d="M590.906,1108.191a.486.486,0,0,1-.339-.138l-5.948-5.954a.485.485,0,0,1,0-.678l4.174-4.169a.493.493,0,0,1,.344-.138.48.48,0,0,1,.339.149l6.066,6.431a.478.478,0,1,1-.694.657l-5.729-6.073-3.488,3.483,5.612,5.617a.476.476,0,0,1-.337.814Z" transform="translate(-584.48 -1097.111)"/>
          </g>
          <g id="Grupo_1010079" data-name="Grupo 1010079">
            <path id="Trazado_735602" data-name="Trazado 735602" d="M579.22,1096.493a.487.487,0,0,1-.339-.138l-2.032-2.035a.485.485,0,0,1,0-.678l4.174-4.169a.485.485,0,0,1,.676,0l2.032,2.035a.478.478,0,0,1-.676.676l-1.7-1.7-3.5,3.493,1.7,1.7a.48.48,0,0,1,0,.676A.465.465,0,0,1,579.22,1096.493Z" transform="translate(-576.71 -1089.335)"/>
          </g>
        </g>
        <g id="Grupo_1010081" data-name="Grupo 1010081" transform="translate(11.051 7.165)">
          <path id="Trazado_735603" data-name="Trazado 735603" d="M624.024,1119.049a.476.476,0,0,1-.24-.065,9.443,9.443,0,0,0-4.237-1.229.477.477,0,0,1,0-.955,10.346,10.346,0,0,1,4.717,1.357.478.478,0,0,1-.24.892Z" transform="translate(-619.07 -1116.8)"/>
        </g>
      </g>
      <g id="Grupo_1010083" data-name="Grupo 1010083" transform="translate(527.055 638.78)">
        <path id="Trazado_735604" data-name="Trazado 735604" d="M1191.771,1384.616H1104.5a6.442,6.442,0,0,1-6.434-6.436v-54.6a6.44,6.44,0,0,1,6.434-6.433h87.268a6.44,6.44,0,0,1,6.434,6.433v54.6A6.442,6.442,0,0,1,1191.771,1384.616ZM1104.5,1318.1a5.485,5.485,0,0,0-5.479,5.479v54.6a5.485,5.485,0,0,0,5.479,5.481h87.268a5.485,5.485,0,0,0,5.479-5.481v-54.6a5.485,5.485,0,0,0-5.479-5.479Z" transform="translate(-1098.07 -1317.15)"/>
      </g>
      <g id="Grupo_1010084" data-name="Grupo 1010084" transform="translate(569.768 665.471)">
        <path id="Trazado_735605" data-name="Trazado 735605" d="M1269.264,1434.412a7.476,7.476,0,1,1,7.477-7.475A7.482,7.482,0,0,1,1269.264,1434.412Zm0-14a6.521,6.521,0,1,0,6.522,6.522A6.527,6.527,0,0,0,1269.264,1420.415Z" transform="translate(-1261.79 -1419.46)"/>
      </g>
      <g id="Grupo_1010085" data-name="Grupo 1010085" transform="translate(593.913 608.522)">
        <path id="Trazado_735606" data-name="Trazado 735606" d="M1388.2,1298.9a.477.477,0,0,1,0-.955c8.221,0,13.751-3.678,16.441-10.929,7.618-20.54-10.248-65.233-18.967-72.731-10.425-8.964-20.146-10.477-28.721-11.811-.749-.117-1.487-.229-2.218-.349a.478.478,0,1,1,.151-.944c.728.117,1.466.232,2.212.349,8.7,1.354,18.565,2.888,29.2,12.03,9.1,7.821,27.151,52.452,19.24,73.787C1402.7,1295.008,1396.863,1298.9,1388.2,1298.9Z" transform="translate(-1354.337 -1201.172)"/>
      </g>
      <g id="Grupo_1010086" data-name="Grupo 1010086" transform="translate(506.895 608.521)">
        <path id="Trazado_735607" data-name="Trazado 735607" d="M1039.952,1298.893c-8.573,0-14.357-3.872-17.185-11.508-7.936-21.4,10.021-66.034,19.092-73.832,10.631-9.139,20.493-10.673,29.2-12.03.746-.117,1.484-.23,2.212-.35a.478.478,0,1,1,.151.944c-.73.117-1.469.232-2.218.35-8.575,1.333-18.3,2.846-28.721,11.81-8.693,7.474-26.459,52.173-18.818,72.775,2.677,7.221,8.158,10.884,16.29,10.884a.477.477,0,1,1,0,.955Z" transform="translate(-1020.793 -1201.169)"/>
      </g>
      <g id="Grupo_1010087" data-name="Grupo 1010087" transform="translate(558.966 602.321)">
        <path id="Trazado_735608" data-name="Trazado 735608" d="M1226.847,1214.817a.479.479,0,0,1-.47-.386l-5.985-30.258a.479.479,0,0,1,.149-.449l6.924-6.2a.48.48,0,0,1,.365-.12.472.472,0,0,1,.334.188l10.229,13.595,9.7-13.584a.475.475,0,0,1,.329-.2.445.445,0,0,1,.368.11l7.321,6.2a.47.47,0,0,1,.159.454l-5.8,30.258a.466.466,0,0,1-.558.378.477.477,0,0,1-.378-.558l5.747-29.982-6.71-5.68-9.776,13.692a.474.474,0,0,1-.384.2.484.484,0,0,1-.386-.188l-10.31-13.7-6.334,5.669,5.933,29.989a.476.476,0,0,1-.376.561A.371.371,0,0,1,1226.847,1214.817Z" transform="translate(-1220.383 -1177.404)"/>
      </g>
      <g id="Grupo_1010088" data-name="Grupo 1010088" transform="translate(566.082 616.442)">
        <path id="Trazado_735609" data-name="Trazado 735609" d="M1248.138,1254.822a.453.453,0,0,1-.2-.044.473.473,0,0,1-.229-.634l10.43-22.337a.477.477,0,0,1,.866,0l10.357,22.337a.477.477,0,0,1-.866.4l-9.927-21.409-10,21.409A.472.472,0,0,1,1248.138,1254.822Z" transform="translate(-1247.661 -1231.53)"/>
      </g>
      <g id="Grupo_1010089" data-name="Grupo 1010089" transform="translate(571.051 628.138)">
        <path id="Trazado_735610" data-name="Trazado 735610" d="M1269.338,1282.469a.478.478,0,0,1-.441-.292l-2.152-5.155a.476.476,0,0,1,.256-.624.47.47,0,0,1,.624.256l2.027,4.86,6.541-.013,1.735-4.2a.477.477,0,0,1,.882.365l-1.858,4.492a.471.471,0,0,1-.438.295l-7.174.013Z" transform="translate(-1266.708 -1276.359)"/>
      </g>
      <g id="Grupo_1010090" data-name="Grupo 1010090" transform="translate(571.879 633.293)">
        <path id="Trazado_735611" data-name="Trazado 735611" d="M1270.358,1302.562a.415.415,0,0,1-.112-.013.481.481,0,0,1-.352-.577l1.325-5.486a.478.478,0,1,1,.929.224l-1.325,5.487A.481.481,0,0,1,1270.358,1302.562Z" transform="translate(-1269.881 -1296.121)"/>
      </g>
      <g id="Grupo_1010091" data-name="Grupo 1010091" transform="translate(580.379 633.282)">
        <path id="Trazado_735612" data-name="Trazado 735612" d="M1304.594,1302.53a.482.482,0,0,1-.459-.339l-1.651-5.5a.478.478,0,0,1,.916-.274l1.651,5.5a.473.473,0,0,1-.457.613Z" transform="translate(-1302.463 -1296.077)"/>
      </g>
      <g id="Grupo_1010094" data-name="Grupo 1010094" transform="translate(585.012 519.467)">
        <g id="Grupo_1010092" data-name="Grupo 1010092">
          <path id="Trazado_735613" data-name="Trazado 735613" d="M1387.906,1012.879c-.047,0-.1,0-.143,0q-2.978-.067-5.964-.07a.477.477,0,0,1,0-.955q2.994.008,5.985.07c1.333-.01,1.769-.329,2.194-1.654,1.589-4.944,3.152-9.431,4.785-13.72a5.212,5.212,0,0,1,2.536-2.565c3.986-1.863,8.111-3.65,12.606-5.468a4.651,4.651,0,0,1,3.337-.052c3.723,1.654,7.331,3.368,11.156,5.184l3.459,1.638,2.5-2.528c3-3.021,6.1-6.147,9.053-9.288a2.514,2.514,0,0,0,.141-2.056c-1.038-2.327-2.157-4.67-3.238-6.934-.983-2.064-1.967-4.125-2.909-6.207a4.617,4.617,0,0,1-.209-3.146c1.625-4.686,3.209-8.891,4.834-12.857a5.11,5.11,0,0,1,2.531-2.572c3.692-1.492,7.673-2.966,12.911-4.779a1.814,1.814,0,0,0,1.461-2.118c-.094-5.241-.094-10,0-14.558.023-1.281-.363-1.805-1.659-2.254-3.527-1.216-8.155-2.852-12.669-4.7a5.477,5.477,0,0,1-2.637-2.737c-1.529-3.538-3.073-7.451-4.855-12.309a4.436,4.436,0,0,1,.013-3.1c1-2.218,2.04-4.412,3.084-6.606,1.088-2.288,2.215-4.652,3.261-7a2.447,2.447,0,0,0-.25-2.017c-1.944-2.079-3.984-4.138-5.954-6.131-1.521-1.539-3.044-3.076-4.542-4.639a1.607,1.607,0,0,0-2.293-.365c-4.855,2.408-9.149,4.446-13.128,6.225a4.837,4.837,0,0,1-3.339.151c-4.24-1.526-8.466-3.18-12.562-4.918a5.148,5.148,0,0,1-2.625-2.442c-1.495-3.712-2.958-7.7-4.743-12.922-.407-1.19-.791-1.7-2.069-1.7h-.125c-4.634.117-9.4.117-14.558.005h-.12c-1.184,0-1.69.407-2.126,1.672-.707,2.066-1.458,4.114-2.212,6.167-.785,2.131-1.594,4.339-2.335,6.522a4.2,4.2,0,0,1-3.013,2.9c-4.1,1.422-8.051,3.005-11.753,4.7a4.269,4.269,0,0,1-4.161-.042c-2.178-1.1-4.378-2.147-6.577-3.2-2.087-1-4.174-2-6.243-3.031a1.759,1.759,0,0,0-2.51.438c-3.736,3.9-7.107,7.263-10.3,10.29-1,.944-.918,1.581-.344,2.737a.477.477,0,1,1-.855.423c-.694-1.4-.845-2.536.545-3.853,3.183-3.016,6.543-6.371,10.269-10.258a2.679,2.679,0,0,1,3.629-.631c2.063,1.033,4.146,2.027,6.227,3.024,2.207,1.054,4.412,2.111,6.6,3.209a3.324,3.324,0,0,0,3.334.029c3.728-1.712,7.712-3.3,11.839-4.738a3.284,3.284,0,0,0,2.418-2.3c.746-2.194,1.558-4.406,2.343-6.546.751-2.043,1.5-4.085,2.207-6.144a2.885,2.885,0,0,1,3.167-2.317c5.147.107,9.9.107,14.513-.005.047,0,.094,0,.141,0,1.811,0,2.486.9,2.982,2.348,1.779,5.21,3.235,9.178,4.725,12.872a4.169,4.169,0,0,0,2.111,1.92c4.08,1.73,8.291,3.379,12.512,4.9a3.969,3.969,0,0,0,2.63-.123c3.966-1.774,8.249-3.8,13.092-6.209a2.523,2.523,0,0,1,3.407.558c1.495,1.56,3.011,3.094,4.529,4.628,1.975,2,4.02,4.059,5.974,6.146a3.325,3.325,0,0,1,.425,3.058c-1.052,2.358-2.178,4.733-3.272,7.023-1.041,2.189-2.082,4.378-3.076,6.588a3.53,3.53,0,0,0,.013,2.379c1.779,4.842,3.316,8.737,4.84,12.259a4.477,4.477,0,0,0,2.121,2.231c4.492,1.842,9.1,3.472,12.622,4.686a2.88,2.88,0,0,1,2.3,3.175c-.1,4.542-.1,9.29,0,14.521a2.724,2.724,0,0,1-2.1,3.039c-5.22,1.808-9.186,3.277-12.865,4.761a4.1,4.1,0,0,0-2,2.051c-1.62,3.945-3.2,8.135-4.816,12.807a3.661,3.661,0,0,0,.18,2.442c.939,2.074,1.92,4.13,2.9,6.188,1.083,2.272,2.2,4.618,3.246,6.958a3.328,3.328,0,0,1-.318,3.1c-2.961,3.146-6.068,6.277-9.068,9.306l-2.742,2.766a.469.469,0,0,1-.542.1L1424,994.507c-3.817-1.813-7.422-3.525-11.135-5.173a3.705,3.705,0,0,0-2.591.063c-4.479,1.811-8.589,3.6-12.562,5.45a4.256,4.256,0,0,0-2.045,2.037c-1.625,4.273-3.186,8.745-4.769,13.671C1390.348,1012.237,1389.534,1012.879,1387.906,1012.879Z" transform="translate(-1320.221 -859.82)"/>
        </g>
        <g id="Grupo_1010093" data-name="Grupo 1010093" transform="translate(31.533 46.882)">
          <path id="Trazado_735614" data-name="Trazado 735614" d="M1469.85,1097.127a28.864,28.864,0,0,1-20.383-49.2,28.889,28.889,0,0,1,47.511,10.558.479.479,0,0,1-.9.326,27.823,27.823,0,1,0-6.705,29.449.478.478,0,0,1,.668.683,28.734,28.734,0,0,1-20.18,8.182A.025.025,0,0,0,1469.85,1097.127Z" transform="translate(-1441.09 -1039.52)"/>
        </g>
      </g>
      <g id="Grupo_1010097" data-name="Grupo 1010097" transform="translate(517.348 426.217)">
        <g id="Grupo_1010095" data-name="Grupo 1010095" transform="translate(0)">
          <path id="Trazado_735615" data-name="Trazado 735615" d="M1123.535,621.617a8.861,8.861,0,0,1-1.964-.3,25.256,25.256,0,0,0-8.388-.483c-1.959.2-3.1-.047-3.577-1.847-1.124-4.318-2.095-7.811-3.06-10.994a2.9,2.9,0,0,0-1.265-1.49c-1.344-.744-2.713-1.448-4.08-2.147-1.7-.871-3.452-1.774-5.134-2.742a2.415,2.415,0,0,0-2.468-.23c-1.918.806-3.639,1.49-5.455,2.21l-2.147.856a13.773,13.773,0,0,1-2.038.634,4.384,4.384,0,0,1-4.146-1.286l-2.191-2.366c-1.651-1.907-2.919-3.3-4.55-5.072a2.31,2.31,0,0,1-.3-3.128c.843-1.458,1.654-2.935,2.468-4.409.869-1.576,1.737-3.151,2.643-4.709a2.777,2.777,0,0,0,.112-2.849c-.738-1.727-1.38-3.522-2-5.257-.491-1.364-.994-2.776-1.542-4.14a3.544,3.544,0,0,0-1.479-1.792c-3.666-1.667-7.375-3.162-10.524-4.4-1.672-.66-1.785-1.737-1.406-3.626a34.248,34.248,0,0,0,.561-9.329c-.144-1.917.407-2.784,2.027-3.2,3.488-.895,7.208-1.878,10.809-2.99a3.538,3.538,0,0,0,1.738-1.539c1.722-2.953,3.394-6.027,4.967-9.134a2.935,2.935,0,0,0,.2-2.053c-1.32-3.629-2.789-7.216-4.054-10.245-.558-1.336-.537-2.338,1.226-3.5a34.775,34.775,0,0,0,7.154-6.253c1.19-1.378,2.124-1.957,3.66-1.059s3.094,1.766,4.649,2.635c1.657.926,3.316,1.855,4.954,2.813,1.051.616,1.753.577,3.256-.167a30.62,30.62,0,0,1,7.733-2.533c1.779-.347,2.353-.717,2.8-1.8.686-1.667,1.417-3.316,2.144-4.965.676-1.534,1.354-3.071,2-4.618.67-1.615,1.662-2.011,3.791-1.511a25.413,25.413,0,0,0,8.818.587c2.306-.282,3.185.206,3.671,1.978,1.111,4.1,2.043,7.237,3.016,10.175a3.15,3.15,0,0,0,1.479,1.526c3.071,1.539,6.243,3.016,9.423,4.4a3.027,3.027,0,0,0,1.91.05c3.151-1.174,6.577-2.538,10.467-4.169a2.064,2.064,0,0,1,2.729.629c1.083,1.281,2.184,2.546,3.285,3.812,1.427,1.636,2.9,3.329,4.3,5.032a2.668,2.668,0,0,1,.193,2.5c-.931,1.774-1.9,3.525-2.878,5.275-.913,1.638-1.824,3.277-2.7,4.933a2.63,2.63,0,0,0-.1,1.758c1.137,3.833,2.134,6.919,3.133,9.705a3.416,3.416,0,0,0,1.477,1.769c3.331,1.62,6.679,3.052,9.515,4.237a2.348,2.348,0,0,1,1.688,2.677c-.3,3.53-.535,7.206-.717,11.234a2.527,2.527,0,0,1-1.852,2.325c-2.794.772-6.473,1.818-10.172,3.047a3.129,3.129,0,0,0-1.547,1.357c-1.453,2.982-2.888,6.162-4.388,9.729a2.78,2.78,0,0,0,.021,1.816c.621,1.644,1.278,3.279,1.933,4.913.738,1.844,1.479,3.689,2.17,5.549a2.707,2.707,0,0,1-.425,2.5c-2.442,2.285-4.991,4.547-7.459,6.736l-2.267,2.011a.473.473,0,0,1-.548.063L1152,609.175c-2.857-1.586-5.557-3.084-8.341-4.54a2.8,2.8,0,0,0-1.92-.07c-3.571,1.187-6.83,2.361-9.971,3.593a3.218,3.218,0,0,0-1.62,1.419c-1.474,3.23-2.9,6.608-4.354,10.326A2.234,2.234,0,0,1,1123.535,621.617Zm-7.48-1.884a24.449,24.449,0,0,1,5.742.65c2.325.566,2.666.261,3.1-.837,1.464-3.733,2.893-7.125,4.372-10.373a4.143,4.143,0,0,1,2.145-1.912c3.154-1.237,6.431-2.418,10.015-3.611a3.735,3.735,0,0,1,2.666.13c2.794,1.461,5.5,2.961,8.364,4.553l2.531,1.4,2.014-1.79c2.463-2.184,5.006-4.443,7.441-6.718a1.842,1.842,0,0,0,.183-1.466c-.689-1.855-1.427-3.689-2.163-5.526-.66-1.638-1.317-3.279-1.941-4.931a3.676,3.676,0,0,1-.008-2.523c1.505-3.582,2.948-6.78,4.412-9.776a4.072,4.072,0,0,1,2.105-1.844c3.72-1.234,7.414-2.285,10.219-3.06a1.574,1.574,0,0,0,1.153-1.448c.185-4.041.423-7.728.723-11.271.078-.939-.17-1.325-1.106-1.714-2.849-1.19-6.214-2.627-9.564-4.26a4.354,4.354,0,0,1-1.956-2.306c-1.007-2.8-2.006-5.9-3.152-9.755a3.575,3.575,0,0,1,.17-2.476c.877-1.662,1.792-3.308,2.706-4.952.97-1.743,1.941-3.488,2.867-5.254a1.793,1.793,0,0,0-.083-1.453c-1.4-1.693-2.867-3.381-4.286-5.012-1.106-1.268-2.21-2.536-3.292-3.822a1.136,1.136,0,0,0-1.631-.363c-3.9,1.636-7.339,3.005-10.5,4.182a4,4,0,0,1-2.622-.068c-3.2-1.385-6.384-2.872-9.47-4.42a4.094,4.094,0,0,1-1.959-2.079c-.978-2.956-1.912-6.11-3.032-10.224-.282-1.044-.506-1.534-2.632-1.278a26.245,26.245,0,0,1-9.152-.605c-1.9-.446-2.278-.055-2.69.944-.647,1.555-1.328,3.1-2.006,4.639-.725,1.641-1.448,3.285-2.131,4.944-.644,1.56-1.641,2.009-3.5,2.372a29.649,29.649,0,0,0-7.493,2.452c-1.779.882-2.828.913-4.161.136-1.633-.958-3.287-1.881-4.939-2.8-1.56-.871-3.12-1.745-4.665-2.643-.884-.519-1.317-.464-2.457.858a35.781,35.781,0,0,1-7.347,6.423c-1.323.876-1.289,1.338-.871,2.34,1.268,3.039,2.745,6.637,4.072,10.287a3.894,3.894,0,0,1-.243,2.812c-1.583,3.123-3.261,6.214-4.993,9.183a4.519,4.519,0,0,1-2.283,1.97c-3.619,1.119-7.352,2.105-10.85,3-1.007.258-1.438.545-1.312,2.2a35.235,35.235,0,0,1-.577,9.59c-.365,1.805-.151,2.165.819,2.549,3.159,1.245,6.885,2.742,10.569,4.42a4.438,4.438,0,0,1,1.972,2.3c.553,1.38,1.062,2.8,1.552,4.174.616,1.722,1.252,3.5,1.977,5.2a3.677,3.677,0,0,1-.164,3.7c-.9,1.55-1.766,3.12-2.63,4.691-.816,1.482-1.633,2.961-2.478,4.425a1.375,1.375,0,0,0,.177,2c1.6,1.732,2.919,3.186,4.56,5.082l2.181,2.353a3.405,3.405,0,0,0,3.235,1,12.744,12.744,0,0,0,1.894-.587l2.147-.856c1.811-.72,3.525-1.4,5.439-2.2a3.331,3.331,0,0,1,3.313.284c1.664.958,3.41,1.855,5.1,2.721,1.375.707,2.752,1.414,4.106,2.163a3.856,3.856,0,0,1,1.717,2.048c.971,3.2,1.944,6.7,3.071,11.03.25.963.553,1.328,2.559,1.137A29.379,29.379,0,0,1,1116.056,619.734Z" transform="translate(-1060.863 -502.391)"/>
        </g>
        <g id="Grupo_1010096" data-name="Grupo 1010096" transform="translate(38.117 36.545)">
          <path id="Trazado_735616" data-name="Trazado 735616" d="M1229.367,687.288c-.477,0-.955-.016-1.437-.047a22.456,22.456,0,0,1-13.4-39.209,22.432,22.432,0,1,1,14.839,39.256Zm-1.377-1a21.386,21.386,0,1,0-14.743-7.224,21.472,21.472,0,0,0,14.743,7.224Z" transform="translate(-1206.966 -642.47)"/>
        </g>
      </g>
      <g id="Grupo_1010098" data-name="Grupo 1010098" transform="translate(405.728 469.588)">
        <path id="Trazado_735617" data-name="Trazado 735617" d="M658.431,720.868a.472.472,0,0,1-.342-.144.48.48,0,0,1,.008-.676l30.122-29.384a10,10,0,0,0-.005-14.117l-4.039-4.039a9.983,9.983,0,0,0-14.125,0l-36.225,35.139a.478.478,0,0,1-.665-.686l36.217-35.131a10.947,10.947,0,0,1,15.476.005l4.039,4.039a10.967,10.967,0,0,1,0,15.476l-30.13,29.381A.466.466,0,0,1,658.431,720.868Z" transform="translate(-633.017 -668.63)"/>
      </g>
      <g id="Grupo_1010099" data-name="Grupo 1010099" transform="translate(353.068 499.658)">
        <path id="Trazado_735618" data-name="Trazado 735618" d="M434.715,806.744a.476.476,0,0,1-.336-.138,10.931,10.931,0,0,1,0-15.473l4.033-4.033a10.937,10.937,0,0,1,15.479,0l6.136,6.139a.48.48,0,0,1,0,.676.485.485,0,0,1-.676,0l-6.136-6.139a9.977,9.977,0,0,0-14.125,0l-4.033,4.033a9.974,9.974,0,0,0,0,14.119.478.478,0,0,1,0,.676A.489.489,0,0,1,434.715,806.744Z" transform="translate(-431.17 -783.89)"/>
      </g>
      <g id="Grupo_1010100" data-name="Grupo 1010100" transform="translate(579.043 566.597)">
        <path id="Trazado_735619" data-name="Trazado 735619" d="M1303.252,1055.351c-3.261,0-5.912-3.337-5.912-7.44s2.651-7.441,5.912-7.441,5.912,3.339,5.912,7.441S1306.513,1055.351,1303.252,1055.351Zm0-13.926c-2.731,0-4.957,2.909-4.957,6.488s2.225,6.486,4.957,6.486,4.957-2.909,4.957-6.486S1305.983,1041.425,1303.252,1041.425Z" transform="translate(-1297.34 -1040.47)"/>
      </g>
      <g id="Grupo_1010101" data-name="Grupo 1010101" transform="translate(573.916 572.303)">
        <path id="Trazado_735620" data-name="Trazado 735620" d="M1283.095,1064.549a.488.488,0,0,1-.329-.13,3.34,3.34,0,0,0-2.468-1.117,2.709,2.709,0,0,0-1.758.918.478.478,0,0,1-.749-.595,3.678,3.678,0,0,1,2.426-1.276,4.235,4.235,0,0,1,3.206,1.375.477.477,0,0,1-.329.824Z" transform="translate(-1277.689 -1062.343)"/>
      </g>
      <g id="Grupo_1010102" data-name="Grupo 1010102" transform="translate(406.968 562.276)">
        <path id="Trazado_735621" data-name="Trazado 735621" d="M641.721,1050.28a.48.48,0,0,1-.47-.386l-3.475-18.142a.484.484,0,0,1,.13-.428l7.041-7.091a.46.46,0,0,1,.4-.138.478.478,0,0,1,.352.235l9.123,15.9,9.186-16.076a.479.479,0,0,1,.352-.235.468.468,0,0,1,.4.138l6.635,6.726a.481.481,0,0,1,.13.417l-3.232,18.633a.468.468,0,0,1-.553.389.476.476,0,0,1-.389-.55l3.191-18.39-6.021-6.1-9.29,16.254a.479.479,0,0,1-.83,0l-9.225-16.076-6.421,6.467,3.426,17.894a.475.475,0,0,1-.378.558A.456.456,0,0,1,641.721,1050.28Z" transform="translate(-637.768 -1023.909)"/>
      </g>
      <g id="Grupo_1010103" data-name="Grupo 1010103" transform="translate(417.6 579.078)">
        <path id="Trazado_735622" data-name="Trazado 735622" d="M690.906,1097.825a.476.476,0,0,1-.391-.2l-5.57-8-5.552,8a.478.478,0,0,1-.785-.545l5.943-8.56a.478.478,0,0,1,.391-.206.471.471,0,0,1,.391.206l5.961,8.56a.478.478,0,0,1-.12.665A.467.467,0,0,1,690.906,1097.825Z" transform="translate(-678.522 -1088.31)"/>
      </g>
      <path id="Trazado_735623" data-name="Trazado 735623" d="M675.8,947.141c.381-.06.637.1.746,1.477.123,1.531-.274,1.8-.618,1.787s-.689-.485-.67-1.581S675.3,947.219,675.8,947.141Z" transform="translate(-258.509 -404.885)"/>
      <path id="Trazado_735624" data-name="Trazado 735624" d="M723.261,947.141c.381-.06.636.1.746,1.477.123,1.531-.274,1.8-.618,1.787s-.689-.485-.671-1.581S722.76,947.219,723.261,947.141Z" transform="translate(-293.587 -404.885)"/>
      <g id="Grupo_1010104" data-name="Grupo 1010104" transform="translate(402.522 541.369)">
        <path id="Trazado_735625" data-name="Trazado 735625" d="M626.186,954.681c-.115,0-.23,0-.344-.01a5.458,5.458,0,0,1-5.1-5.787,5.459,5.459,0,0,1,7.464-4.727.477.477,0,0,1,.266.621.484.484,0,0,1-.621.266,4.431,4.431,0,0,0-1.385-.31,4.5,4.5,0,1,0,1.79,8.487.478.478,0,1,1,.441.848A5.421,5.421,0,0,1,626.186,954.681Z" transform="translate(-620.728 -943.771)"/>
      </g>
      <g id="Grupo_1010105" data-name="Grupo 1010105" transform="translate(406.053 543.534)">
        <path id="Trazado_735626" data-name="Trazado 735626" d="M635.091,958.361a.485.485,0,0,1-.378-.185.478.478,0,0,1,.086-.671l2.859-2.207-3.2-2.369a.477.477,0,0,1,.569-.767l3.713,2.745a.48.48,0,0,1,.193.378.472.472,0,0,1-.185.384l-3.36,2.593A.477.477,0,0,1,635.091,958.361Z" transform="translate(-634.261 -952.068)"/>
      </g>
      <g id="Grupo_1010106" data-name="Grupo 1010106" transform="translate(437.35 541.372)">
        <path id="Trazado_735627" data-name="Trazado 735627" d="M756.992,954.688a5.463,5.463,0,0,1-2.51-.613.478.478,0,0,1,.441-.848,4.5,4.5,0,1,0,.313-8.137.477.477,0,1,1-.376-.876,5.456,5.456,0,1,1,2.473,10.467C757.219,954.686,757.1,954.688,756.992,954.688Z" transform="translate(-754.225 -943.781)"/>
      </g>
      <g id="Grupo_1010107" data-name="Grupo 1010107" transform="translate(437.377 543.534)">
        <path id="Trazado_735628" data-name="Trazado 735628" d="M758.165,958.361a.471.471,0,0,1-.292-.1l-3.358-2.593a.472.472,0,0,1-.185-.384.481.481,0,0,1,.193-.378l3.71-2.745a.477.477,0,1,1,.569.767l-3.2,2.369,2.859,2.207a.478.478,0,0,1,.086.671A.485.485,0,0,1,758.165,958.361Z" transform="translate(-754.33 -952.068)"/>
      </g>
      <g id="Grupo_1010108" data-name="Grupo 1010108" transform="translate(591.241 572.391)">
        <path id="Trazado_735629" data-name="Trazado 735629" d="M1346.862,1073.59a5.415,5.415,0,0,1-2.51-.613.478.478,0,1,1,.441-.848,4.362,4.362,0,0,0,2.353.5,4.5,4.5,0,0,0,2.7-7.866,4.39,4.39,0,0,0-3.261-1.116,4.434,4.434,0,0,0-1.474.347.477.477,0,1,1-.376-.876,5.456,5.456,0,1,1,2.473,10.467C1347.094,1073.585,1346.977,1073.59,1346.862,1073.59Z" transform="translate(-1344.095 -1062.68)"/>
      </g>
      <g id="Grupo_1010109" data-name="Grupo 1010109" transform="translate(591.268 574.556)">
        <path id="Trazado_735630" data-name="Trazado 735630" d="M1348.038,1077.271a.476.476,0,0,1-.292-.1l-3.36-2.593a.472.472,0,0,1-.185-.384.48.48,0,0,1,.193-.378l3.71-2.745a.477.477,0,1,1,.569.767l-3.2,2.369,2.859,2.207a.478.478,0,0,1,.086.67A.471.471,0,0,1,1348.038,1077.271Z" transform="translate(-1344.2 -1070.977)"/>
      </g>
      <g id="Grupo_1010110" data-name="Grupo 1010110" transform="translate(554.157 572.389)">
        <path id="Trazado_735631" data-name="Trazado 735631" d="M1207.411,1073.586c-.117,0-.229,0-.344-.01a5.457,5.457,0,0,1,.681-10.892,5.491,5.491,0,0,1,1.792.423.477.477,0,0,1-.376.877,4.476,4.476,0,0,0-1.477-.347,4.369,4.369,0,0,0-3.259,1.117,4.5,4.5,0,0,0,5.048,7.37.478.478,0,1,1,.441.848A5.4,5.4,0,0,1,1207.411,1073.586Z" transform="translate(-1201.95 -1062.674)"/>
      </g>
      <g id="Grupo_1010111" data-name="Grupo 1010111" transform="translate(557.687 574.556)">
        <path id="Trazado_735632" data-name="Trazado 735632" d="M1216.311,1077.271a.478.478,0,0,1-.292-.856l2.859-2.207-3.2-2.369a.477.477,0,0,1,.569-.767l3.71,2.745a.481.481,0,0,1,.193.378.473.473,0,0,1-.185.384l-3.36,2.593A.458.458,0,0,1,1216.311,1077.271Z" transform="translate(-1215.481 -1070.977)"/>
      </g>
      <g id="Grupo_1010112" data-name="Grupo 1010112" transform="translate(409.657 538.452)">
        <path id="Trazado_735633" data-name="Trazado 735633" d="M663.389,959h-1.912a13.106,13.106,0,0,1-8.573-2.844c-2.1-1.8-3.491-4.7-4.25-8.844-.5-2.737-.613-11.414-.569-14.252a.477.477,0,0,1,.955.013c-.044,3.052.089,11.518.556,14.065.717,3.929,2,6.64,3.932,8.294a12.179,12.179,0,0,0,7.952,2.614h1.912a12.18,12.18,0,0,0,7.952-2.614c1.928-1.654,3.214-4.365,3.932-8.294a88.283,88.283,0,0,0,.483-11.99.476.476,0,1,1,.952-.016,89.715,89.715,0,0,1-.5,12.178c-.759,4.151-2.15,7.044-4.25,8.844A13.106,13.106,0,0,1,663.389,959Z" transform="translate(-648.076 -932.59)"/>
      </g>
      <g id="Grupo_1010113" data-name="Grupo 1010113" transform="translate(414.009 560.911)">
        <path id="Trazado_735634" data-name="Trazado 735634" d="M665.237,1021.181a.486.486,0,0,1-.477-.483l.016-1.547a.476.476,0,0,1,.477-.472.466.466,0,0,1,.477.483l-.016,1.547A.478.478,0,0,1,665.237,1021.181Z" transform="translate(-664.76 -1018.678)"/>
      </g>
      <g id="Grupo_1010114" data-name="Grupo 1010114" transform="translate(433.098 560.912)">
        <path id="Trazado_735635" data-name="Trazado 735635" d="M738.406,1021a.478.478,0,0,1-.477-.5l.049-1.367a.478.478,0,0,1,.955.036l-.05,1.367A.476.476,0,0,1,738.406,1021Z" transform="translate(-737.929 -1018.68)"/>
      </g>
      <g id="Grupo_1010115" data-name="Grupo 1010115" transform="translate(406.6 519.256)">
        <path id="Trazado_735636" data-name="Trazado 735636" d="M669.566,882.09a.491.491,0,0,1-.472-.55c1.059-6.783.052-10.968-1.072-14.166-2.356-6.708-12.207-8.179-18.448-7.083a12.3,12.3,0,0,0-7.378,4.686.481.481,0,0,1-.3.2,4.946,4.946,0,0,0-2.275,1.111c-.034.026-2.3,2-2.311,7.034a35.241,35.241,0,0,0,1.1,8.155.478.478,0,1,1-.921.253,35.913,35.913,0,0,1-1.13-8.411c.01-5.513,2.541-7.67,2.648-7.759a5.806,5.806,0,0,1,2.512-1.276,13.044,13.044,0,0,1,7.892-4.931c6.569-1.158,16.971.475,19.515,7.707,1.164,3.311,2.2,7.636,1.114,14.628A.483.483,0,0,1,669.566,882.09Z" transform="translate(-636.36 -859.012)"/>
      </g>
      <g id="Grupo_1010116" data-name="Grupo 1010116" transform="translate(464.597 665.472)">
        <path id="Trazado_735637" data-name="Trazado 735637" d="M859.926,1460.237a.478.478,0,0,1-.478-.478c0-.295-.008-29.6-.783-39.783a.475.475,0,0,1,.438-.511.469.469,0,0,1,.511.438c.777,10.216.785,39.561.785,39.856A.472.472,0,0,1,859.926,1460.237Z" transform="translate(-858.664 -1419.463)"/>
      </g>
      <g id="Grupo_1010117" data-name="Grupo 1010117" transform="translate(378.322 665.472)">
        <path id="Trazado_735638" data-name="Trazado 735638" d="M528.447,1460.238a.478.478,0,0,1-.477-.477c0-.295.008-29.64.788-39.856a.488.488,0,0,1,.511-.438.473.473,0,0,1,.438.511c-.775,10.18-.785,39.488-.785,39.783A.474.474,0,0,1,528.447,1460.238Z" transform="translate(-527.97 -1419.464)"/>
      </g>
      <g id="Grupo_1010118" data-name="Grupo 1010118" transform="translate(413.512 537.418)">
        <path id="Trazado_735639" data-name="Trazado 735639" d="M663.332,931.994a.455.455,0,0,1-.164-.029.481.481,0,0,1-.287-.613c.858-2.359,4.133-3.031,6.066-2.6a.479.479,0,0,1,.363.571.485.485,0,0,1-.571.363c-1.6-.36-4.323.24-4.96,2A.47.47,0,0,1,663.332,931.994Z" transform="translate(-662.852 -928.627)"/>
      </g>
      <g id="Grupo_1010119" data-name="Grupo 1010119" transform="translate(427.209 537.421)">
        <path id="Trazado_735640" data-name="Trazado 735640" d="M721.347,932a.479.479,0,0,1-.449-.313c-.637-1.753-3.36-2.351-4.959-2a.486.486,0,0,1-.571-.363.481.481,0,0,1,.363-.571c1.933-.425,5.207.243,6.068,2.6a.479.479,0,0,1-.287.613A.612.612,0,0,1,721.347,932Z" transform="translate(-715.356 -928.64)"/>
      </g>
      <g id="Grupo_1010120" data-name="Grupo 1010120" transform="translate(439.778 569.002)">
        <path id="Trazado_735641" data-name="Trazado 735641" d="M790.328,1147.247c-7.229,0-15.2-4.487-19.713-15.536a.478.478,0,1,1,.884-.363c5.3,12.99,15.52,16.545,23.282,14.32,16.723-4.8,12.123-26.016,10.61-32.99l-1.174-5.447c-1.74-8.1-3.54-16.486-5.653-24.61-4.782-18.354-18.038-30.607-34.594-31.98a.475.475,0,0,1-.436-.514.456.456,0,0,1,.514-.436c16.971,1.406,30.553,13.931,35.437,32.692,2.121,8.145,3.924,16.535,5.664,24.649l1.174,5.445c1.557,7.188,6.3,29.066-11.281,34.111A17.075,17.075,0,0,1,790.328,1147.247Z" transform="translate(-763.533 -1049.69)"/>
      </g>
      <g id="Grupo_1010121" data-name="Grupo 1010121" transform="translate(428.583 610.161)">
        <path id="Trazado_735642" data-name="Trazado 735642" d="M729.486,1217.052c-.6,0-1.164-.018-1.675-.055-2.935-.214-5.09-1.044-6.233-2.39a4.107,4.107,0,0,1-.934-3.152,4.664,4.664,0,0,1,3.679-4,.478.478,0,0,1,.2.937,3.738,3.738,0,0,0-2.925,3.152,3.176,3.176,0,0,0,.712,2.444c.971,1.148,2.9,1.86,5.57,2.053,4.391.331,12.948-.968,13.034-.981a.468.468,0,0,1,.543.4.475.475,0,0,1-.4.542A95.944,95.944,0,0,1,729.486,1217.052Z" transform="translate(-720.621 -1207.452)"/>
      </g>
      <g id="Grupo_1010122" data-name="Grupo 1010122" transform="translate(430.278 599.938)">
        <path id="Trazado_735643" data-name="Trazado 735643" d="M738.7,1181.471c-4.3,0-8.007-.8-10.023-2.309a3.4,3.4,0,0,1-1.529-2.4,4.728,4.728,0,0,1,1.169-3.783q2.387-2.6,9.512-2.583h.1a23.689,23.689,0,0,0,9.747-2.09.469.469,0,0,1,.629.24.476.476,0,0,1-.24.629,25.478,25.478,0,0,1-10.237,2.173h-.164c-4.349,0-7.255.765-8.638,2.272a3.764,3.764,0,0,0-.921,3.05,2.508,2.508,0,0,0,1.148,1.717c2.479,1.852,9.045,2.919,16.8,1.38a.477.477,0,1,1,.185.937A38.709,38.709,0,0,1,738.7,1181.471Z" transform="translate(-727.117 -1168.267)"/>
      </g>
      <g id="Grupo_1010123" data-name="Grupo 1010123" transform="translate(409.665 529.389)">
        <path id="Trazado_735644" data-name="Trazado 735644" d="M676.255,909.94a.472.472,0,0,1-.326-.128,43.918,43.918,0,0,0-22.009-10.955c-.506,1.432-2.416,6.473-5.012,8.883a.478.478,0,1,1-.65-.7c2.794-2.6,4.863-8.8,4.884-8.86a.484.484,0,0,1,.506-.326,44.59,44.59,0,0,1,22.932,11.26.478.478,0,0,1,.023.676A.472.472,0,0,1,676.255,909.94Z" transform="translate(-648.106 -897.85)"/>
      </g>
      <g id="Grupo_1010124" data-name="Grupo 1010124" transform="translate(419.7 539.814)">
        <path id="Trazado_735645" data-name="Trazado 735645" d="M691.087,951.54a5.636,5.636,0,0,1-4.117-1.886,1.5,1.5,0,0,1-.326-1.458,11.307,11.307,0,0,1,.976-1.839,17.414,17.414,0,0,0,2.878-8.1.464.464,0,0,1,.516-.436.476.476,0,0,1,.436.514,18.5,18.5,0,0,1-3.011,8.518,10.712,10.712,0,0,0-.9,1.667c-.065.183.091.43.188.561a4.664,4.664,0,0,0,3.572,1.5.487.487,0,0,1,.509.446.478.478,0,0,1-.446.509C691.275,951.537,691.181,951.54,691.087,951.54Z" transform="translate(-686.572 -937.812)"/>
      </g>
      <g id="Grupo_1010125" data-name="Grupo 1010125" transform="translate(355.635 705.291)">
        <path id="Trazado_735646" data-name="Trazado 735646" d="M738.32,1573.045H441.313c-.167,0-.3-.214-.3-.477s.136-.478.3-.478h297c.167,0,.3.214.3.478S738.487,1573.045,738.32,1573.045Z" transform="translate(-441.01 -1572.09)"/>
      </g>
      <g id="Grupo_1010126" data-name="Grupo 1010126" transform="translate(565.891 596.638)">
        <path id="Trazado_735647" data-name="Trazado 735647" d="M1247.407,1162.784a.478.478,0,0,1-.477-.477V1156.1a.477.477,0,1,1,.955,0v6.209A.478.478,0,0,1,1247.407,1162.784Z" transform="translate(-1246.93 -1155.62)"/>
      </g>
      <g id="Grupo_1010127" data-name="Grupo 1010127" transform="translate(586.29 596.735)">
        <path id="Trazado_735648" data-name="Trazado 735648" d="M1325.929,1162.538a.479.479,0,0,1-.477-.449l-.334-5.6a.478.478,0,0,1,.449-.5.492.492,0,0,1,.506.449l.334,5.6a.48.48,0,0,1-.449.506A.1.1,0,0,0,1325.929,1162.538Z" transform="translate(-1325.117 -1155.99)"/>
      </g>
      <g id="Grupo_1010128" data-name="Grupo 1010128" transform="translate(558.879 547.247)">
        <path id="Trazado_735649" data-name="Trazado 735649" d="M1221.345,991.94a.479.479,0,0,1-.475-.428c-.008-.081-.853-8.069-.817-12.228a8.411,8.411,0,0,1,2.836-6.436,6.4,6.4,0,0,1,2.5-1.271,13.059,13.059,0,0,1,7.892-4.931c7.146-1.252,16.233.858,19.781,7.326,1.685,3.073,4.234,7.714,1.753,17.6a.467.467,0,0,1-.579.347.477.477,0,0,1-.347-.579c2.39-9.517-.05-13.963-1.664-16.906-3.334-6.073-11.972-8.041-18.779-6.846a12.289,12.289,0,0,0-7.381,4.683.471.471,0,0,1-.3.2,5.433,5.433,0,0,0-2.293,1.127c-2.577,2.043-2.476,5.635-2.473,5.672-.034,4.125.806,12.061.814,12.142a.481.481,0,0,1-.425.527A.164.164,0,0,1,1221.345,991.94Z" transform="translate(-1220.051 -966.303)"/>
      </g>
      <g id="Grupo_1010129" data-name="Grupo 1010129" transform="translate(561.425 572.253)">
        <path id="Trazado_735650" data-name="Trazado 735650" d="M1243.83,1088.6c-5.142,0-11.124-1.148-12.792-4.485-1.6-3.206-1.184-20.756-1.166-21.5.008-.264.209-.415.491-.464a.476.476,0,0,1,.464.49c-.125,5.012-.18,18.565,1.064,21.051,1.516,3.021,7.741,4.14,13.274,3.929a.494.494,0,0,1,.5.459.476.476,0,0,1-.459.5C1244.753,1088.591,1244.294,1088.6,1243.83,1088.6Z" transform="translate(-1229.809 -1062.15)"/>
      </g>
      <g id="Grupo_1010131" data-name="Grupo 1010131" transform="translate(576.503 583.178)">
        <g id="Grupo_1010130" data-name="Grupo 1010130" transform="translate(0 0)">
          <path id="Trazado_735651" data-name="Trazado 735651" d="M1291.992,1112.226a5.387,5.387,0,0,1-2.257-.5,3.509,3.509,0,0,1-2.077-2.142,1.854,1.854,0,0,1,.511-1.808,2.714,2.714,0,0,1,2.557-.493c1.244.334,1.377.266,1.659.112s.412-.224.817-1.453a2.706,2.706,0,0,1,1.816-1.865,1.845,1.845,0,0,1,1.79.563,3.34,3.34,0,0,1,.577,2.794,5.416,5.416,0,0,1-5.393,4.787Zm-3.4-2.838a2.662,2.662,0,0,0,1.544,1.477,4.493,4.493,0,0,0,4.039-.151,4.615,4.615,0,0,0,2.267-3.41,2.538,2.538,0,0,0-.313-1.985.923.923,0,0,0-.892-.305,1.78,1.78,0,0,0-1.125,1.234c-.477,1.453-.728,1.7-1.271,1.993s-.887.37-2.364-.029a1.782,1.782,0,0,0-1.649.261.915.915,0,0,0-.237.916Z" transform="translate(-1287.606 -1104.029)"/>
        </g>
      </g>
      <g id="Grupo_1010132" data-name="Grupo 1010132" transform="translate(399.204 587.807)">
        <path id="Trazado_735652" data-name="Trazado 735652" d="M652.727,1187.078H612.591a4.587,4.587,0,0,1-4.581-4.581v-56.146a4.587,4.587,0,0,1,4.581-4.581h3.258a.477.477,0,1,1,0,.955h-3.258a3.633,3.633,0,0,0-3.629,3.629V1182.5a3.633,3.633,0,0,0,3.629,3.629h40.135a3.633,3.633,0,0,0,3.629-3.629v-24.067a.477.477,0,0,1,.955,0V1182.5A4.591,4.591,0,0,1,652.727,1187.078Z" transform="translate(-608.01 -1121.77)"/>
      </g>
      <g id="Grupo_1010133" data-name="Grupo 1010133" transform="translate(406.566 587.804)">
        <path id="Trazado_735653" data-name="Trazado 735653" d="M677.688,1135.965a.478.478,0,0,1-.477-.477v-9.144a3.633,3.633,0,0,0-3.629-3.629H636.707a.477.477,0,1,1,0-.955h36.877a4.587,4.587,0,0,1,4.581,4.581v9.144A.475.475,0,0,1,677.688,1135.965Z" transform="translate(-636.23 -1121.76)"/>
      </g>
      <g id="Grupo_1010134" data-name="Grupo 1010134" transform="translate(429.454 593.838)">
        <path id="Trazado_735654" data-name="Trazado 735654" d="M735.347,1176.766c-.271,0-.543-.005-.814-.013-2.619-.07-8.077-.219-9.864-3.264-.042-.073-.076-.138-.107-.2-1.479-3.068.219-4.62.292-4.686a.471.471,0,0,1,.673.042.476.476,0,0,1-.042.673c-.044.044-1.216,1.169-.065,3.553l.076.141c1.516,2.58,6.807,2.724,9.063,2.786a29.583,29.583,0,0,0,12.857-2.575c3.321-1.495,4.652-5.458,5.147-7.688a22.957,22.957,0,0,0-.639-11.777c-2.705-8.5-9.275-7.918-9.345-7.9a.479.479,0,0,1-.1-.952c.06,0,7.412-.663,10.352,8.565a23.946,23.946,0,0,1,.663,12.277c-.535,2.406-1.988,6.687-5.69,8.351A30.514,30.514,0,0,1,735.347,1176.766Z" transform="translate(-723.958 -1144.887)"/>
      </g>
      <g id="Grupo_1010135" data-name="Grupo 1010135" transform="translate(457.815 603.58)">
        <path id="Trazado_735655" data-name="Trazado 735655" d="M846.709,1218.61a.479.479,0,0,1-.464-.365c-6.227-25.974-13.4-35.152-13.472-35.241a.477.477,0,1,1,.746-.595c.3.371,7.367,9.389,13.655,35.617a.48.48,0,0,1-.355.577A.761.761,0,0,1,846.709,1218.61Z" transform="translate(-832.668 -1182.228)"/>
      </g>
      <g id="Grupo_1010136" data-name="Grupo 1010136" transform="translate(363.364 568.999)">
        <path id="Trazado_735656" data-name="Trazado 735656" d="M488.4,1147.238a17.157,17.157,0,0,1-4.719-.657c-17.581-5.046-12.838-26.921-11.281-34.111q.6-2.775,1.2-5.557c1.735-8.077,3.527-16.428,5.64-24.537,4.886-18.758,18.466-31.286,35.437-32.692a.448.448,0,0,1,.514.436.473.473,0,0,1-.436.514c-16.559,1.372-29.812,13.626-34.594,31.98-2.105,8.088-3.9,16.431-5.63,24.5q-.595,2.782-1.2,5.557c-1.511,6.974-6.113,28.192,10.61,32.989,7.761,2.226,17.98-1.331,23.282-14.32a.478.478,0,1,1,.884.362C503.6,1142.751,495.628,1147.238,488.4,1147.238Z" transform="translate(-470.633 -1049.678)"/>
      </g>
      <g id="Grupo_1010137" data-name="Grupo 1010137" transform="translate(375.369 598.734)">
        <path id="Trazado_735657" data-name="Trazado 735657" d="M517.131,1204.881a.41.41,0,0,1-.112-.013.481.481,0,0,1-.355-.577c6.277-26.183,13.843-40.247,13.916-40.388a.479.479,0,0,1,.84.459c-.076.138-7.581,14.106-13.827,40.151A.471.471,0,0,1,517.131,1204.881Z" transform="translate(-516.651 -1163.653)"/>
      </g>
      <g id="Grupo_1010138" data-name="Grupo 1010138" transform="translate(389.22 589.001)">
        <path id="Trazado_735658" data-name="Trazado 735658" d="M580,1152.236a.613.613,0,0,1-.1-.008,10.515,10.515,0,0,1-5.7-3.306c-6.089-6.094-5.207-13.788-1.811-18.359a14.573,14.573,0,0,1,4.868-4.151.478.478,0,0,1,.488.822,13.609,13.609,0,0,0-4.592,3.9c-3.159,4.252-3.971,11.424,1.722,17.114a9.639,9.639,0,0,0,5.207,3.045.48.48,0,0,1,.373.564A.469.469,0,0,1,580,1152.236Z" transform="translate(-569.742 -1126.348)"/>
      </g>
      <g id="Grupo_1010139" data-name="Grupo 1010139" transform="translate(706.745 462.561)">
        <path id="Trazado_735659" data-name="Trazado 735659" d="M1787.3,709.2a.453.453,0,0,1-.23-.06.482.482,0,0,1-.188-.65c.548-1,1.406-2.638,2.379-4.764a.477.477,0,1,1,.866.4c-.984,2.152-1.855,3.812-2.411,4.826A.474.474,0,0,1,1787.3,709.2Zm4.472-9.734a.477.477,0,0,1-.446-.647c.639-1.672,1.231-3.366,1.758-5.03a.477.477,0,1,1,.908.29c-.53,1.683-1.13,3.392-1.777,5.082A.475.475,0,0,1,1791.774,699.47Zm3.219-10.211a.435.435,0,0,1-.115-.016.478.478,0,0,1-.35-.579c.428-1.724.8-3.475,1.106-5.2a.486.486,0,0,1,.553-.386.476.476,0,0,1,.386.553c-.31,1.751-.686,3.525-1.122,5.27A.469.469,0,0,1,1794.994,689.259Zm1.857-10.54a.487.487,0,0,1-.475-.527c.183-1.79.3-3.574.342-5.306a.478.478,0,1,1,.955.023c-.044,1.756-.159,3.566-.344,5.38A.482.482,0,0,1,1796.851,678.719Zm.253-10.694a.48.48,0,0,1-.478-.449c-.1-1.769-.289-3.545-.55-5.28a.477.477,0,0,1,.4-.543.462.462,0,0,1,.542.4c.266,1.764.454,3.569.561,5.366a.478.478,0,0,1-.449.506A.054.054,0,0,0,1797.1,668.025Zm-1.6-10.574a.481.481,0,0,1-.464-.363c-.428-1.719-.942-3.428-1.526-5.079a.476.476,0,1,1,.9-.321c.6,1.68,1.122,3.418,1.555,5.168a.476.476,0,0,1-.349.579A.4.4,0,0,1,1795.505,657.451Zm-3.577-10.07a.481.481,0,0,1-.433-.274c-.743-1.581-1.578-3.159-2.484-4.688a.478.478,0,1,1,.822-.488c.921,1.555,1.771,3.159,2.526,4.769a.48.48,0,0,1-.23.637A.5.5,0,0,1,1791.928,647.381Z" transform="translate(-1786.827 -641.698)"/>
      </g>
      <g id="Grupo_1010140" data-name="Grupo 1010140" transform="translate(628.876 432.105)">
        <path id="Trazado_735660" data-name="Trazado 735660" d="M1552.85,538.547a.493.493,0,0,1-.292-.1c-.832-.644-1.7-1.273-2.562-1.873a.478.478,0,1,1,.545-.785c.879.61,1.753,1.25,2.6,1.9a.475.475,0,0,1-.29.853Zm-7.106-4.743a.472.472,0,0,1-.235-.063c-1.537-.877-3.125-1.688-4.725-2.418a.477.477,0,0,1,.4-.869c1.625.741,3.24,1.568,4.8,2.458a.481.481,0,0,1,.18.652A.489.489,0,0,1,1545.744,533.8Zm-56.916-2.909a.479.479,0,0,1-.2-.916,47.916,47.916,0,0,1,5.106-1.816.477.477,0,0,1,.277.913,48.238,48.238,0,0,0-4.993,1.774A.412.412,0,0,1,1488.828,530.9Zm47.187-1.526a.406.406,0,0,1-.156-.029c-1.651-.579-3.36-1.093-5.082-1.529a.477.477,0,0,1-.347-.579.488.488,0,0,1,.579-.347c1.75.444,3.488.965,5.166,1.555a.478.478,0,0,1-.159.929Zm-36.958-1.633a.478.478,0,0,1-.1-.944c1.738-.391,3.519-.728,5.3-1a.46.46,0,0,1,.543.4.475.475,0,0,1-.4.543c-1.753.266-3.511.6-5.228.984A.371.371,0,0,1,1499.058,527.736Zm26.595-.991c-1.81-.287-3.584-.5-5.353-.634a.477.477,0,0,1-.438-.514.489.489,0,0,1,.511-.441c1.795.138,3.6.352,5.356.636a.479.479,0,0,1-.076.952Zm-16.013-.61a.478.478,0,0,1-.036-.955c1.8-.141,3.613-.214,5.385-.219a.479.479,0,0,1,.005.957c-1.748,0-3.535.076-5.312.217Z" transform="translate(-1488.351 -524.96)"/>
      </g>
      <g id="Grupo_1010141" data-name="Grupo 1010141" transform="translate(333.415 399.33)">
        <path id="Trazado_735661" data-name="Trazado 735661" d="M372.448,539.842a.484.484,0,0,1-.391-.2,89.062,89.062,0,1,1,161.59-58.705.477.477,0,0,1-.436.516.455.455,0,0,1-.516-.436c-3.752-45.27-42.316-80.732-87.8-80.732a88.109,88.109,0,0,0-72.06,138.8.477.477,0,0,1-.115.665A.449.449,0,0,1,372.448,539.842Z" transform="translate(-355.84 -399.33)"/>
      </g>
      <g id="Grupo_1010142" data-name="Grupo 1010142" transform="translate(423.545 659.319)">
        <path id="Trazado_735662" data-name="Trazado 735662" d="M701.787,1424.346a.477.477,0,0,1-.477-.477v-27.511a.477.477,0,1,1,.955,0v27.511A.477.477,0,0,1,701.787,1424.346Z" transform="translate(-701.31 -1395.88)"/>
      </g>
      <g id="Grupo_1010143" data-name="Grupo 1010143" transform="translate(423.195 551.94)">
        <path id="Trazado_735663" data-name="Trazado 735663" d="M702.111,990.617a7,7,0,0,1-1.787-.253.478.478,0,0,1,.245-.924,3.814,3.814,0,0,0,3.5-.412c1.623-1.3,1.516-4.208,1.513-4.24a.478.478,0,0,1,.457-.5.489.489,0,0,1,.5.457c.008.138.128,3.42-1.868,5.025A3.955,3.955,0,0,1,702.111,990.617Z" transform="translate(-699.969 -984.29)"/>
      </g>
      <g id="Grupo_1010144" data-name="Grupo 1010144" transform="translate(562.939 569.091)">
        <path id="Trazado_735664" data-name="Trazado 735664" d="M1245.093,1065.292a.463.463,0,0,1-.334-.138,3.914,3.914,0,0,0-4.057-1.122l-.266.044a4.21,4.21,0,0,1-4.286-1.951c-.407-.689-.556-10.373-.535-11.625a.477.477,0,0,1,.955.016c-.039,2.526.211,10.493.43,11.182a3.221,3.221,0,0,0,3.287,1.44l.263-.044a4.859,4.859,0,0,1,4.881,1.383.478.478,0,0,1,.005.676A.5.5,0,0,1,1245.093,1065.292Z" transform="translate(-1235.612 -1050.03)"/>
      </g>
      <g id="Grupo_1010145" data-name="Grupo 1010145" transform="translate(576.439 572.255)">
        <path id="Trazado_735665" data-name="Trazado 735665" d="M1289.733,1088.622c-.684,0-1.328-.016-1.915-.039a.478.478,0,0,1-.459-.5.465.465,0,0,1,.5-.459c7.075.274,11.855-.963,13.086-3.423,1.2-2.4,1.3-15.152,1.195-21.56a.474.474,0,0,1,.47-.485.459.459,0,0,1,.485.47c.013.767.311,18.8-1.294,22.006C1300.13,1087.967,1294.155,1088.622,1289.733,1088.622Z" transform="translate(-1287.359 -1062.16)"/>
      </g>
      <g id="Grupo_1010146" data-name="Grupo 1010146" transform="translate(562.674 557.482)">
        <path id="Trazado_735666" data-name="Trazado 735666" d="M1262.474,1018.1a.48.48,0,0,1-.428-.261,58.735,58.735,0,0,1-2.113-6.5c-.973.271-3.2.879-4.117,1.054-15.81,3.058-21.109-6.052-21.158-6.146a.479.479,0,0,1,.183-.65.474.474,0,0,1,.65.183c.05.089,5.056,8.6,20.146,5.677,1.117-.217,4.466-1.158,4.5-1.166a.484.484,0,0,1,.365.044.489.489,0,0,1,.224.29,67.732,67.732,0,0,0,2.173,6.783.475.475,0,0,1-.425.691Z" transform="translate(-1234.598 -1005.531)"/>
      </g>
      <g id="Grupo_1010147" data-name="Grupo 1010147" transform="translate(562.936 560.765)">
        <path id="Trazado_735667" data-name="Trazado 735667" d="M1236.08,1027.4a.473.473,0,0,1-.344-.149.478.478,0,0,1,.016-.676c.733-.7,1.852-5.322,2.39-8.067a.462.462,0,0,1,.561-.376.475.475,0,0,1,.376.561c-.24,1.234-1.5,7.456-2.667,8.575A.475.475,0,0,1,1236.08,1027.4Z" transform="translate(-1235.603 -1018.117)"/>
      </g>
      <g id="Grupo_1010148" data-name="Grupo 1010148" transform="translate(572.733 569.848)">
        <path id="Trazado_735668" data-name="Trazado 735668" d="M1278.01,1067.223a5.89,5.89,0,0,1-4.378-2.166,2.094,2.094,0,0,1-.428-1.727c.3-1.127,3.545-9.723,3.684-10.088a.478.478,0,1,1,.895.336c-.034.091-3.365,8.917-3.655,10a1.233,1.233,0,0,0,.287.931,4.9,4.9,0,0,0,3.634,1.761.477.477,0,0,1-.039.952Z" transform="translate(-1273.153 -1052.932)"/>
      </g>
      <g id="Grupo_1010149" data-name="Grupo 1010149" transform="translate(408.732 602.007)">
        <path id="Trazado_735669" data-name="Trazado 735669" d="M672.14,1177.155H645.007a.477.477,0,0,1,0-.955H672.14a.477.477,0,1,1,0,.955Z" transform="translate(-644.53 -1176.2)"/>
      </g>
      <g id="Grupo_1010150" data-name="Grupo 1010150" transform="translate(408.732 611.146)">
        <path id="Trazado_735670" data-name="Trazado 735670" d="M665.782,1212.185H645.007a.477.477,0,1,1,0-.955h20.775a.477.477,0,0,1,0,.955Z" transform="translate(-644.53 -1211.23)"/>
      </g>
      <g id="Grupo_1010151" data-name="Grupo 1010151" transform="translate(408.732 620.288)">
        <path id="Trazado_735671" data-name="Trazado 735671" d="M665.73,1247.225H645.007a.477.477,0,1,1,0-.955H665.73a.477.477,0,1,1,0,.955Z" transform="translate(-644.53 -1246.27)"/>
      </g>
      <g id="Grupo_1010152" data-name="Grupo 1010152" transform="translate(408.732 629.429)">
        <path id="Trazado_735672" data-name="Trazado 735672" d="M672.14,1282.265H645.007a.477.477,0,0,1,0-.955H672.14a.477.477,0,1,1,0,.955Z" transform="translate(-644.53 -1281.31)"/>
      </g>
      <g id="Grupo_1010153" data-name="Grupo 1010153" transform="translate(411.561 524.478)">
        <path id="Trazado_735673" data-name="Trazado 735673" d="M657.006,882.4a.486.486,0,0,1-.433-.271l-1.153-2.421a.478.478,0,0,1,.864-.412l1.153,2.421a.48.48,0,0,1-.431.684Z" transform="translate(-655.373 -879.028)"/>
      </g>
      <g id="Grupo_1010154" data-name="Grupo 1010154" transform="translate(694.207 443.874)">
        <path id="Trazado_735674" data-name="Trazado 735674" d="M1746.576,585.684a7.807,7.807,0,1,1,7.806-7.808A7.816,7.816,0,0,1,1746.576,585.684Zm0-14.659a6.851,6.851,0,1,0,6.851,6.851A6.859,6.859,0,0,0,1746.576,571.025Z" transform="translate(-1738.77 -570.07)"/>
      </g>
    </g>
  </g>
</svg>
