<svg xmlns="http://www.w3.org/2000/svg" width="132" height="133" viewBox="0 0 132 133">
  <g id="Grupo_58815" data-name="Grupo 58815" transform="translate(-321 -1927)">
    <ellipse id="Elipse_4103" data-name="Elipse 4103" cx="56" cy="56.5" rx="56" ry="56.5" transform="translate(331 1937)" fill="#fff"/>
    <g id="Elipse_4102" data-name="Elipse 4102" transform="translate(331 1937)" fill="none" stroke="#fff" stroke-linejoin="round" stroke-width="10" opacity="0.29">
      <ellipse cx="56" cy="56.5" rx="56" ry="56.5" stroke="none"/>
      <ellipse cx="56" cy="56.5" rx="61" ry="61.5" fill="none"/>
    </g>
    <g id="Grupo_58812" data-name="Grupo 58812" transform="translate(352 1958)">
      <path id="Trazado_115254" data-name="Trazado 115254" d="M-190.461-571.654v41.135c0,.082,0,.164-.005.246a5.311,5.311,0,0,1-5.306,5.063h-29.857a5.311,5.311,0,0,1-5.311-5.31v-47.626a5.313,5.313,0,0,1,4.112-5.176,5.337,5.337,0,0,1,1.2-.135h23.717a5.294,5.294,0,0,1,2.307.528c1.435.691,1.839,1.563,4.417,4.2,2.966,3.221,3.674,3.551,4.279,4.946A5.252,5.252,0,0,1-190.461-571.654Z" transform="translate(245.369 584.551)" fill="#e4e4e4"/>
      <path id="Trazado_115255" data-name="Trazado 115255" d="M-164.405-571.655v41.135c0,.082,0,.164-.005.246a5.332,5.332,0,0,1-1.2.135h-29.857a5.311,5.311,0,0,1-5.311-5.31v-47.626c0-.083,0-.166.005-.248a5.334,5.334,0,0,1,1.2-.135h23.716a5.293,5.293,0,0,1,2.307.528,5.306,5.306,0,0,1,1.574,1.158l2.843,3.042,3.255,3.406a5.233,5.233,0,0,1,1.024,1.54A5.252,5.252,0,0,1-164.405-571.655Z" transform="translate(219.313 584.552)" fill="#f3f3f3"/>
      <path id="Trazado_115256" data-name="Trazado 115256" d="M-52.535-409.1v29.86a7.466,7.466,0,0,1-1.454,4.439,7.493,7.493,0,0,1-6.052,3.066h-19.5a7.506,7.506,0,0,1-7.505-7.505V-409.1a7.508,7.508,0,0,1,4.557-6.9,7.474,7.474,0,0,1,2.949-.6h19.5A7.5,7.5,0,0,1-52.535-409.1Z" transform="translate(121.069 440.417)" fill="#4cba68"/>
      <path id="Trazado_115257" data-name="Trazado 115257" d="M-32.846-409.1v29.86A7.466,7.466,0,0,1-34.3-374.8a7.474,7.474,0,0,1-2.948.6h-19.5a7.506,7.506,0,0,1-7.505-7.505v-29.86A7.466,7.466,0,0,1-62.8-416a7.474,7.474,0,0,1,2.948-.6h19.5A7.5,7.5,0,0,1-32.846-409.1Z" transform="translate(101.38 440.417)" fill="#7ccc92"/>
      <path id="Trazado_115258" data-name="Trazado 115258" d="M24.328-224.409v3.507a1.122,1.122,0,0,1-1.121,1.122H19.7a1.122,1.122,0,0,1-1.122-1.122v-3.507a1.122,1.122,0,0,1,1.122-1.122h3.508A1.122,1.122,0,0,1,24.328-224.409Z" transform="translate(29.825 275.359)" fill="#2c733f"/>
      <path id="Trazado_115259" data-name="Trazado 115259" d="M-24.968-382v3.758a2.42,2.42,0,0,1-2.42,2.42H-46.746a2.421,2.421,0,0,1-2.42-2.42V-382a2.421,2.421,0,0,1,2.42-2.42h19.358A2.42,2.42,0,0,1-24.968-382Z" transform="translate(88.343 412.616)" fill="#1e81ce"/>
      <path id="Trazado_115260" data-name="Trazado 115260" d="M1.087-382v3.758a2.42,2.42,0,0,1-2.42,2.42H-16.585a2.421,2.421,0,0,1-2.42-2.42V-382a2.421,2.421,0,0,1,2.42-2.42H-1.333A2.42,2.42,0,0,1,1.087-382Z" transform="translate(62.289 412.616)" fill="#3d9ae2"/>
      <g id="Grupo_58808" data-name="Grupo 58808" transform="translate(39.177 40.656)">
        <path id="Trazado_115261" data-name="Trazado 115261" d="M-43.413-224.409v3.507a1.122,1.122,0,0,1-1.122,1.122h-3.508a1.123,1.123,0,0,1-1.122-1.122v-3.507a1.123,1.123,0,0,1,1.122-1.122h3.508A1.122,1.122,0,0,1-43.413-224.409Z" transform="translate(49.166 234.702)" fill="#2c733f"/>
        <path id="Trazado_115262" data-name="Trazado 115262" d="M24.328-291.77v3.507a1.122,1.122,0,0,1-1.121,1.122H19.7a1.122,1.122,0,0,1-1.122-1.122v-3.507a1.122,1.122,0,0,1,1.122-1.122h3.508A1.122,1.122,0,0,1,24.328-291.77Z" transform="translate(-9.353 292.892)" fill="#2c733f"/>
      </g>
      <path id="Trazado_115263" data-name="Trazado 115263" d="M92.885-291.77v3.507a1.122,1.122,0,0,1-1.122,1.122H88.255a1.122,1.122,0,0,1-1.122-1.122v-3.507a1.122,1.122,0,0,1,1.122-1.122h3.507A1.122,1.122,0,0,1,92.885-291.77Z" transform="translate(-29.398 333.548)" fill="#ee8700"/>
      <g id="Grupo_58809" data-name="Grupo 58809" transform="translate(39.177 40.656)">
        <path id="Trazado_115264" data-name="Trazado 115264" d="M-43.413-291.77v3.507a1.122,1.122,0,0,1-1.122,1.122h-3.508a1.123,1.123,0,0,1-1.122-1.122v-3.507a1.123,1.123,0,0,1,1.122-1.122h3.508A1.122,1.122,0,0,1-43.413-291.77Z" transform="translate(49.166 292.892)" fill="#2c733f"/>
        <path id="Trazado_115265" data-name="Trazado 115265" d="M24.328-160.348v3.508a1.122,1.122,0,0,1-1.121,1.122H19.7a1.122,1.122,0,0,1-1.122-1.122v-3.508a1.122,1.122,0,0,1,1.122-1.121h3.508A1.122,1.122,0,0,1,24.328-160.348Z" transform="translate(-9.353 179.363)" fill="#2c733f"/>
        <path id="Trazado_115266" data-name="Trazado 115266" d="M-43.413-160.348v3.508a1.122,1.122,0,0,1-1.122,1.122h-3.508a1.123,1.123,0,0,1-1.122-1.122v-3.508a1.123,1.123,0,0,1,1.122-1.121h3.508A1.122,1.122,0,0,1-43.413-160.348Z" transform="translate(49.166 179.363)" fill="#2c733f"/>
      </g>
      <path id="Trazado_115267" data-name="Trazado 115267" d="M92.885-223.865v10.892a1.914,1.914,0,0,1-1.914,1.915H89.047a1.914,1.914,0,0,1-1.914-1.915v-10.892a1.668,1.668,0,0,1,1.667-1.667h2.417A1.667,1.667,0,0,1,92.885-223.865Z" transform="translate(-29.398 275.359)" fill="#ee8700"/>
      <g id="Grupo_58810" data-name="Grupo 58810" transform="translate(39.177 40.656)">
        <path id="Trazado_115268" data-name="Trazado 115268" d="M24.328-224.409v1.043a1.122,1.122,0,0,1-1.121,1.122H19.7a1.122,1.122,0,0,1-1.122-1.122v-1.043a1.122,1.122,0,0,1,1.122-1.122h3.508A1.122,1.122,0,0,1,24.328-224.409Z" transform="translate(-9.353 234.702)" fill="#317f46"/>
        <path id="Trazado_115269" data-name="Trazado 115269" d="M-43.413-224.409v1.043a1.122,1.122,0,0,1-1.122,1.122h-3.508a1.123,1.123,0,0,1-1.122-1.122v-1.043a1.123,1.123,0,0,1,1.122-1.122h3.508A1.122,1.122,0,0,1-43.413-224.409Z" transform="translate(49.166 234.702)" fill="#317f46"/>
        <path id="Trazado_115270" data-name="Trazado 115270" d="M24.328-291.77v1.043a1.122,1.122,0,0,1-1.121,1.122H19.7a1.122,1.122,0,0,1-1.122-1.122v-1.043a1.122,1.122,0,0,1,1.122-1.122h3.508A1.122,1.122,0,0,1,24.328-291.77Z" transform="translate(-9.353 292.892)" fill="#317f46"/>
      </g>
      <path id="Trazado_115271" data-name="Trazado 115271" d="M92.885-291.77v1.043a1.122,1.122,0,0,1-1.122,1.122H88.255a1.122,1.122,0,0,1-1.122-1.122v-1.043a1.122,1.122,0,0,1,1.122-1.122h3.507A1.122,1.122,0,0,1,92.885-291.77Z" transform="translate(-29.398 333.548)" fill="#ff9811"/>
      <g id="Grupo_58811" data-name="Grupo 58811" transform="translate(39.177 40.656)">
        <path id="Trazado_115272" data-name="Trazado 115272" d="M-43.413-291.77v1.043a1.122,1.122,0,0,1-1.122,1.122h-3.508a1.123,1.123,0,0,1-1.122-1.122v-1.043a1.123,1.123,0,0,1,1.122-1.122h3.508A1.122,1.122,0,0,1-43.413-291.77Z" transform="translate(49.166 292.892)" fill="#317f46"/>
        <path id="Trazado_115273" data-name="Trazado 115273" d="M24.328-160.348v1.044a1.122,1.122,0,0,1-1.121,1.122H19.7a1.122,1.122,0,0,1-1.122-1.122v-1.044a1.122,1.122,0,0,1,1.122-1.121h3.508A1.122,1.122,0,0,1,24.328-160.348Z" transform="translate(-9.353 179.363)" fill="#317f46"/>
        <path id="Trazado_115274" data-name="Trazado 115274" d="M-43.413-160.348v1.044a1.122,1.122,0,0,1-1.122,1.122h-3.508a1.123,1.123,0,0,1-1.122-1.122v-1.044a1.123,1.123,0,0,1,1.122-1.121h3.508A1.122,1.122,0,0,1-43.413-160.348Z" transform="translate(49.166 179.363)" fill="#317f46"/>
      </g>
      <path id="Trazado_115275" data-name="Trazado 115275" d="M92.885-223.865v8.428a1.914,1.914,0,0,1-1.914,1.915H89.047a1.914,1.914,0,0,1-1.914-1.915v-8.428a1.668,1.668,0,0,1,1.667-1.667h2.417A1.667,1.667,0,0,1,92.885-223.865Z" transform="translate(-29.398 275.359)" fill="#ff9811"/>
      <path id="Trazado_115276" data-name="Trazado 115276" d="M7.894-570.431H1.239A2.042,2.042,0,0,1-.8-572.473v-7.1a5.305,5.305,0,0,1,1.574,1.157l2.844,3.042,3.255,3.406A5.258,5.258,0,0,1,7.894-570.431Z" transform="translate(46.565 581.199)" fill="#e4e4e4"/>
      <path id="Trazado_115277" data-name="Trazado 115277" d="M-246.872-127.248a2.6,2.6,0,0,1-.764,1.837,2.6,2.6,0,0,1-1.837.764h-15.933a2.608,2.608,0,0,1-2.6-2.6,2.6,2.6,0,0,1,.764-1.837,2.6,2.6,0,0,1,1.837-.764h15.933A2.608,2.608,0,0,1-246.872-127.248Z" transform="translate(277.389 192.704)" fill="#aa6100"/>
      <path id="Trazado_115278" data-name="Trazado 115278" d="M-246.872-165.453a2.6,2.6,0,0,1-.764,1.837,2.6,2.6,0,0,1-1.837.764h-15.933a2.608,2.608,0,0,1-2.6-2.6,2.6,2.6,0,0,1,.764-1.837,2.6,2.6,0,0,1,1.837-.764h15.933A2.608,2.608,0,0,1-246.872-165.453Z" transform="translate(277.389 225.707)" fill="#cc7400"/>
      <path id="Trazado_115279" data-name="Trazado 115279" d="M-246.872-203.657a2.6,2.6,0,0,1-.764,1.837,2.6,2.6,0,0,1-1.837.764h-15.933a2.608,2.608,0,0,1-2.6-2.6,2.6,2.6,0,0,1,.764-1.837,2.6,2.6,0,0,1,1.837-.764h15.933A2.608,2.608,0,0,1-246.872-203.657Z" transform="translate(277.389 258.71)" fill="#ee8700"/>
      <path id="Trazado_115280" data-name="Trazado 115280" d="M-246.872-241.863a2.6,2.6,0,0,1-.764,1.837,2.6,2.6,0,0,1-1.837.764h-15.933a2.608,2.608,0,0,1-2.6-2.6,2.58,2.58,0,0,1,.405-1.388,2.589,2.589,0,0,1,.359-.449,2.6,2.6,0,0,1,1.837-.764h15.933A2.609,2.609,0,0,1-246.872-241.863Z" transform="translate(277.389 291.714)" fill="#ff9811"/>
      <path id="Trazado_115281" data-name="Trazado 115281" d="M-249.473-277.464h-15.933a2.608,2.608,0,0,1-2.6-2.6h0a2.608,2.608,0,0,1,2.6-2.6h15.933a2.608,2.608,0,0,1,2.6,2.6h0A2.608,2.608,0,0,1-249.473-277.464Z" transform="translate(277.389 324.714)" fill="#ffa733"/>
      <path id="Trazado_115282" data-name="Trazado 115282" d="M-308.573-205.77a8.476,8.476,0,0,0-6.525-7.889,8.473,8.473,0,0,0-2.294-.215h-3.316a8.475,8.475,0,0,0-5.265,14.8,8.444,8.444,0,0,0,5.99,2.132h2.591v0c.237.01.475.012.716,0a8.611,8.611,0,0,0,1.574-.215,8.474,8.474,0,0,0,6.531-7.943v-.01C-308.563-205.329-308.563-205.548-308.573-205.77Z" transform="translate(329.94 265.295)" fill="#cc7400"/>
      <path id="Trazado_115283" data-name="Trazado 115283" d="M-262.842-203.7v.01a8.474,8.474,0,0,1-6.531,7.943,8.477,8.477,0,0,1-6.522-7.887c0-.019,0-.037,0-.056v-.01a8.476,8.476,0,0,1,6.529-8.547,8.476,8.476,0,0,1,6.525,7.889C-262.833-204.135-262.833-203.916-262.842-203.7Z" transform="translate(284.21 263.881)" fill="#ee8700"/>
      <path id="Trazado_115284" data-name="Trazado 115284" d="M-275.886-568.714h-5.025V-578.6a6.422,6.422,0,0,0-1.775-4.425l-3.247-3.4c-2.755-2.839-3.1-3.641-4.744-4.438a6.42,6.42,0,0,0-2.78-.637h-23.716a6.414,6.414,0,0,0-6.406,6.406v34.547h-1.351a3.7,3.7,0,0,0-3.7,3.7,3.682,3.682,0,0,0,1.073,2.6,3.683,3.683,0,0,0-1.073,2.6,3.791,3.791,0,0,0,.073.731,9.324,9.324,0,0,0-5.345,16.13,9.254,9.254,0,0,0,6.677,2.446l18.225-.007a3.7,3.7,0,0,0,3.7-3.7,3.682,3.682,0,0,0-1.073-2.6,3.677,3.677,0,0,0,1.068-2.417h1.387v.741a8.541,8.541,0,0,0,8.532,8.532h19.5a8.541,8.541,0,0,0,8.532-8.532v-29.86A8.541,8.541,0,0,0-275.886-568.714Zm-14.17-18.913c4.3,4.546,5.27,5.571,5.452,5.764,0,0,0,0,0,0h0a.03.03,0,0,0,.005.007h0a.023.023,0,0,0,.008.008l0,.005s0,0,0,0,0,0,0,0,0,0,.005.005h-5.488v-5.8Zm-34.875,39.271H-309a1.508,1.508,0,0,1,1.506,1.506A1.507,1.507,0,0,1-309-545.345h-15.933a1.508,1.508,0,0,1-1.506-1.506A1.508,1.508,0,0,1-324.931-548.357Zm0,5.2H-309a1.508,1.508,0,0,1,1.506,1.506A1.507,1.507,0,0,1-309-540.144H-320a8.917,8.917,0,0,0-1.387-.5,9.232,9.232,0,0,0-2.19-.322c-.215-.005-.43,0-.645.005h-2.044a1.48,1.48,0,0,1-.168-.689A1.508,1.508,0,0,1-324.931-543.155Zm17.439,6.707A1.507,1.507,0,0,1-309-534.942h-6.128a9.212,9.212,0,0,0-1.859-3.011H-309A1.508,1.508,0,0,1-307.492-536.448Zm-22.767-1.966a9.451,9.451,0,0,0-1.725,2.212h-1.276A7.232,7.232,0,0,1-330.259-538.413Zm-4.165,4.265h1.595a9.455,9.455,0,0,0-.3,1.641h-1.685A7.2,7.2,0,0,1-334.424-534.148Zm.177,5.428a7.182,7.182,0,0,1-.515-1.733h1.673a8.258,8.258,0,0,0,.391,1.733Zm1.366,2.053c.672,0,1.062,0,1.154,0a9.246,9.246,0,0,0,1.473,1.782A7.234,7.234,0,0,1-332.882-526.667Zm9.344,2.274a7.258,7.258,0,0,1-7.568-6.947A7.268,7.268,0,0,1-318.936-537,7.273,7.273,0,0,1-323.538-524.393Zm14.54-.145h-8.839a9.38,9.38,0,0,0,2.353-3.011H-309a1.508,1.508,0,0,1,1.506,1.506A1.508,1.508,0,0,1-309-524.539Zm1.493-6.524A1.506,1.506,0,0,1-309-529.74h-5.73a9.408,9.408,0,0,0,.133-3.011h5.6A1.507,1.507,0,0,1-307.5-531.063Zm3.584-2.19H-305.9a3.632,3.632,0,0,0-.478-.594,3.688,3.688,0,0,0,0-5.2,3.682,3.682,0,0,0,1.073-2.6,3.682,3.682,0,0,0-1.073-2.6,3.7,3.7,0,0,0-2.623-6.3H-321.39v-34.547a4.221,4.221,0,0,1,4.216-4.216h24.928v8.579a1.1,1.1,0,0,0,1.1,1.1h7.92c.229.887.088.594.13,10.922h-12.288a8.541,8.541,0,0,0-8.532,8.532v26.929Zm34.514,2.931a6.486,6.486,0,0,1-6.479,6.479h-19.5a6.487,6.487,0,0,1-6.479-6.479v-29.86a6.487,6.487,0,0,1,6.479-6.479h19.5a6.486,6.486,0,0,1,6.479,6.479v29.86Z" transform="translate(336.914 591.5)"/>
      <path id="Trazado_115285" data-name="Trazado 115285" d="M-49.535-383.364h-3.725a1.4,1.4,0,0,1-1.394-1.394v-3.758a1.4,1.4,0,0,1,1.394-1.393H-33.9a1.4,1.4,0,0,1,1.394,1.393v3.758a1.4,1.4,0,0,1-1.394,1.394H-45.108a1.027,1.027,0,0,0-1.027,1.027,1.027,1.027,0,0,0,1.027,1.027H-33.9a3.45,3.45,0,0,0,3.447-3.447v-3.758a3.45,3.45,0,0,0-3.447-3.447H-53.259a3.447,3.447,0,0,0-3.447,3.447v3.758a3.447,3.447,0,0,0,3.447,3.447h3.724a1.027,1.027,0,0,0,1.027-1.027A1.027,1.027,0,0,0-49.535-383.364Z" transform="translate(94.857 419.13)"/>
      <path id="Trazado_115286" data-name="Trazado 115286" d="M-54.557-225.266h3.508a2.151,2.151,0,0,0,2.149-2.149v-3.507a2.151,2.151,0,0,0-2.149-2.149h-3.508a2.152,2.152,0,0,0-2.149,2.149v3.507A2.152,2.152,0,0,0-54.557-225.266Zm-.1-5.656a.1.1,0,0,1,.1-.1h3.508a.1.1,0,0,1,.1.1v3.507a.1.1,0,0,1-.1.1h-3.508a.1.1,0,0,1-.1-.1Z" transform="translate(94.857 281.872)"/>
      <path id="Trazado_115287" data-name="Trazado 115287" d="M85.249-300.432H81.742a2.151,2.151,0,0,0-2.149,2.149v3.507a2.151,2.151,0,0,0,2.149,2.149h3.507a2.151,2.151,0,0,0,2.149-2.149v-3.507A2.151,2.151,0,0,0,85.249-300.432Zm.1,5.656a.1.1,0,0,1-.1.1H81.742a.1.1,0,0,1-.1-.1c.042-3.47-.089-3.6.1-3.6h3.507a.1.1,0,0,1,.1.1Z" transform="translate(-22.885 340.062)"/>
      <path id="Trazado_115288" data-name="Trazado 115288" d="M-54.557-292.627h3.508a2.151,2.151,0,0,0,2.149-2.149v-3.507a2.151,2.151,0,0,0-2.149-2.149h-3.508a2.152,2.152,0,0,0-2.149,2.149v3.507A2.152,2.152,0,0,0-54.557-292.627Zm-.1-5.656a.1.1,0,0,1,.1-.1h3.508a.1.1,0,0,1,.1.1v3.507a.1.1,0,0,1-.1.1h-3.508a.1.1,0,0,1-.1-.1Z" transform="translate(94.857 340.062)"/>
      <path id="Trazado_115289" data-name="Trazado 115289" d="M-49.463-168.285a2.148,2.148,0,0,0-1.608-.724H-54.58a2.143,2.143,0,0,0-1.607.724,2.936,2.936,0,0,0-.542,2.19v2.742A2.152,2.152,0,0,0-54.58-161.2h3.508a2.151,2.151,0,0,0,2.149-2.149v-2.742A2.961,2.961,0,0,0-49.463-168.285Zm-1.608,5.028c-3.466-.042-3.6.089-3.6-.1,0-3.714-.041-3.6.1-3.6h3.508c.168,0,.064.234.1.861A14.6,14.6,0,0,1-51.072-163.257Z" transform="translate(94.88 226.532)"/>
      <path id="Trazado_115290" data-name="Trazado 115290" d="M84.7-233.072H82.286a2.7,2.7,0,0,0-2.694,2.694v10.892a2.945,2.945,0,0,0,2.94,2.942h1.925a2.944,2.944,0,0,0,2.94-2.942v-10.892A2.7,2.7,0,0,0,84.7-233.072Zm.641,13.586a.888.888,0,0,1-.887.888H82.532a.889.889,0,0,1-.887-.888v-10.892a.641.641,0,0,1,.64-.641H84.7a.641.641,0,0,1,.641.641v10.892Z" transform="translate(-22.884 281.873)"/>
      <path id="Trazado_115291" data-name="Trazado 115291" d="M-170.407-417.167h0c-1.252-.46-2.156-.792-2.156-1.952,0-1.057.7-1.593,2.086-1.593,1.469,0,1.865.647,2.383.647a.986.986,0,0,0,.875-1.011c0-.855-1.4-1.279-2.642-1.391v-.771a.974.974,0,0,0-.973-.973.974.974,0,0,0-.973.973v.894a3.182,3.182,0,0,0-2.642,3.328c0,2.389,1.759,3.051,3.173,3.582,1.384.52,2.478.931,2.478,2.511,0,1.305-.725,1.967-2.154,1.967-2.092,0-2.112-1.413-2.91-1.413a1.026,1.026,0,0,0-.892,1.011c0,.809,1.2,1.872,2.949,2.148v.745a.974.974,0,0,0,.973.973.974.974,0,0,0,.973-.973v-.765a3.514,3.514,0,0,0,2.949-3.8C-166.913-415.884-168.85-416.6-170.407-417.167Z" transform="translate(196.834 446.989)"/>
      <path id="Trazado_115292" data-name="Trazado 115292" d="M16.672-169.009H13.164a2.148,2.148,0,0,0-1.608.724,2.948,2.948,0,0,0-.541,2.19v2.742a2.151,2.151,0,0,0,2.149,2.149h3.508a2.15,2.15,0,0,0,2.148-2.149v-3.508a2.141,2.141,0,0,0-.658-1.545A2.14,2.14,0,0,0,16.672-169.009Zm0,5.752c-3.466-.042-3.6.089-3.6-.1v-3.508a.1.1,0,0,1,.1-.094h3.508a.1.1,0,0,1,.094.094C16.725-163.387,16.854-163.257,16.672-163.257Z" transform="translate(36.359 226.532)"/>
      <path id="Trazado_115293" data-name="Trazado 115293" d="M16.693-300.432H13.185a2.151,2.151,0,0,0-2.149,2.149v3.507a2.151,2.151,0,0,0,2.149,2.149h3.508a2.117,2.117,0,0,0,.782-.148,2.152,2.152,0,0,0,1.366-2v-3.507A2.152,2.152,0,0,0,16.693-300.432Zm.094,5.656a.1.1,0,0,1-.094.1H13.185a.1.1,0,0,1-.1-.1v-3.507c0-.185.127-.055,3.6-.1a.1.1,0,0,1,.094.1v3.507Z" transform="translate(36.338 340.062)"/>
      <path id="Trazado_115294" data-name="Trazado 115294" d="M17.475-232.924a2.117,2.117,0,0,0-.782-.148H13.185a2.151,2.151,0,0,0-2.149,2.149v3.507a2.151,2.151,0,0,0,2.149,2.149h3.508a2.15,2.15,0,0,0,2.148-2.149v-3.507A2.151,2.151,0,0,0,17.475-232.924Zm-.687,5.508a.1.1,0,0,1-.094.1H13.185a.1.1,0,0,1-.1-.1v-3.507a.1.1,0,0,1,.1-.1h3.508a.1.1,0,0,1,.094.1Z" transform="translate(36.338 281.873)"/>
      <path id="Trazado_115295" data-name="Trazado 115295" d="M-16.389-486.4h2.579a1.026,1.026,0,0,0,1.027-1.027,1.027,1.027,0,0,0-1.027-1.027h-2.579a1.027,1.027,0,0,0-1.027,1.027A1.026,1.026,0,0,0-16.389-486.4Z" transform="translate(60.916 502.487)"/>
      <path id="Trazado_115296" data-name="Trazado 115296" d="M-180.266-486.4h18.206a1.026,1.026,0,0,0,1.027-1.027,1.027,1.027,0,0,0-1.027-1.027h-18.206a1.027,1.027,0,0,0-1.027,1.027A1.026,1.026,0,0,0-180.266-486.4Z" transform="translate(202.481 502.487)"/>
      <path id="Trazado_115297" data-name="Trazado 115297" d="M-177-448.975A1.027,1.027,0,0,0-175.977-450,1.027,1.027,0,0,0-177-451.028h-3.263A1.027,1.027,0,0,0-181.293-450a1.027,1.027,0,0,0,1.027,1.027Z" transform="translate(202.481 470.154)"/>
      <path id="Trazado_115298" data-name="Trazado 115298" d="M-107.589-450a1.027,1.027,0,0,0-1.027-1.027h-17.521A1.027,1.027,0,0,0-127.164-450a1.027,1.027,0,0,0,1.027,1.027h17.521A1.027,1.027,0,0,0-107.589-450Z" transform="translate(155.722 470.154)"/>
      <path id="Trazado_115299" data-name="Trazado 115299" d="M-257.865-189.644c0-.258.1-.332.184-.381a1.764,1.764,0,0,1,1.488.1,1.174,1.174,0,0,0,.556.169c1.013,0,1.813-1.882-.605-2.3v-.065a1.042,1.042,0,0,0-1.04-1.04,1.042,1.042,0,0,0-1.04,1.04v.2a2.334,2.334,0,0,0-1.587,2.338c0,1.751,1.272,2.229,2.2,2.578.886.333,1.192.479,1.192,1.081,0,.377-.1.725-.838.725-1.073,0-.945-.848-1.748-.848a1.073,1.073,0,0,0-.992,1.063c0,.711.74,1.386,1.771,1.66v.078a1.042,1.042,0,0,0,1.04,1.04,1.041,1.041,0,0,0,1.04-1.04v-.105a2.572,2.572,0,0,0,1.771-2.635C-254.471-189.1-257.865-188.636-257.865-189.644Z" transform="translate(270.553 247.393)"/>
    </g>
  </g>
</svg>
