<svg id="Grupo_58627" data-name="Grupo 58627" xmlns="http://www.w3.org/2000/svg" width="103.104" height="64.565" viewBox="0 0 103.104 64.565">
  <rect id="BG-4" width="103.104" height="64.565" fill="#0ce6ea" opacity="0"/>
  <g id="Grupo_58626" data-name="Grupo 58626" transform="translate(29.433 7.146)">
    <path id="Trazado_114237" data-name="Trazado 114237" d="M2038.446,1169.439a22.194,22.194,0,0,0-18.148-14.361l-2.157-3.835a3.639,3.639,0,0,0-6.343,3.568l.442.786a22.106,22.106,0,1,0,26.207,13.843Zm-3-.807h-7.52l-6.077-10.8A19.753,19.753,0,0,1,2035.443,1168.632ZM2014.389,1152a1.182,1.182,0,0,1,1.609.45l9.105,16.185h-2.711l-8.453-15.027A1.183,1.183,0,0,1,2014.389,1152Zm-16.383,25.043a19.667,19.667,0,0,1,15.487-19.215l6.08,10.808h-15.421a1.229,1.229,0,0,0-1.084.651,16.546,16.546,0,0,0,0,15.514,1.228,1.228,0,0,0,1.084.651h20.323v10.045a19.679,19.679,0,0,1-26.468-18.453Zm6.905,5.95a14.1,14.1,0,0,1,0-11.9h2.69v11.9Zm24.139,10.084a19.749,19.749,0,0,1-2.119,1.313v-8.939h8.512a19.614,19.614,0,0,1-6.393,7.626Zm7.363-10.084H2010.06v-11.9h26.354a19.778,19.778,0,0,1,0,11.9Z" transform="translate(-1995.549 -1149.386)" fill="#0ce6ea"/>
    <path id="Trazado_114238" data-name="Trazado 114238" d="M2034.837,1194.818a4.915,4.915,0,1,0,4.915,4.915A4.921,4.921,0,0,0,2034.837,1194.818Zm0,7.373a2.458,2.458,0,1,1,2.458-2.457A2.46,2.46,0,0,1,2034.837,1202.191Z" transform="translate(-2012.718 -1172.079)" fill="#0ce6ea"/>
  </g>
</svg>
