<svg xmlns="http://www.w3.org/2000/svg" width="295" height="386" viewBox="0 0 295 386">
  <g id="Grupo_1015070" data-name="Grupo 1015070" transform="translate(-1125 -538)">
    <g id="Rectángulo_346738" data-name="Rectángulo 346738" transform="translate(1125 538)" fill="#fff" stroke="#9b1f36" stroke-width="1">
      <rect width="295" height="386" rx="17" stroke="none"/>
      <rect x="0.5" y="0.5" width="294" height="385" rx="16.5" fill="none"/>
    </g>
    <g id="Grupo_1010061" data-name="Grupo 1010061" transform="translate(29 6)">
      <path id="Trazado_116310" data-name="Trazado 116310" d="M5824.767-10950l6.466,15.1h7.534l3.566,22.666-22,7.334-14.667-24.434,7.767-20.667Z" transform="translate(-4630 11700)" fill="#fff"/>
      <g id="Grupo_59911" data-name="Grupo 59911" transform="translate(493.163 140.977)">
        <path id="Trazado_116204" data-name="Trazado 116204" d="M687.994,589.375l0-.648s-.015-3.021-.015-5.846c0-.426.03-.826.056-1.209a4.132,4.132,0,0,0-.1-1.779l-2.558-6.917a.569.569,0,0,1,1.068-.392l2.546,6.888a4.95,4.95,0,0,1,.178,2.279c-.026.356-.053.735-.053,1.131,0,2.023.008,4.148.012,5.19l5.564-.775a.581.581,0,0,1,.642.485.568.568,0,0,1-.487.641Z" transform="translate(20.245 37.645)" fill="#8f4730"/>
        <path id="Trazado_116205" data-name="Trazado 116205" d="M694.552,591.519a.951.951,0,0,1-.949-.949V584.8a11.385,11.385,0,0,0-1.2-5.235l-6.242-15.349a.948.948,0,0,1,1.758-.711l6.183,15.227h0a12.871,12.871,0,0,1,1.4,6.069v5.775A.951.951,0,0,1,694.552,591.519Z" transform="translate(20.463 34.935)" fill="#8f4730"/>
        <path id="Trazado_116206" data-name="Trazado 116206" d="M688.733,578.5a.38.38,0,0,1-.044-.757l3.454-.414a.408.408,0,0,1,.424.333.385.385,0,0,1-.334.422l-3.454.416Z" transform="translate(21.122 39.136)" fill="#8f4730"/>
        <path id="Trazado_116207" data-name="Trazado 116207" d="M677.653,496.413l-.377-30.022,1.9-.022.378,30.021Zm-16.32-9.872-.378-19.76,1.9-.037.378,19.76Z" transform="translate(13.141 6.817)" fill="#8f4730"/>
        <path id="Trazado_116208" data-name="Trazado 116208" d="M665.429,496.977l-.3-29.413,1.142-.015.3,29.413Z" transform="translate(14.356 7.161)" fill="#8f4730"/>
        <path id="Trazado_116209" data-name="Trazado 116209" d="M665.733,486.3l-.378-14.629-13.593,1.214s-2.657,1.139-2.657,3.041.3,37.923.3,37.923l9.488,45.222,8.924,8.742v9.576l12.791,31.121,15.415-1.977-.3-15.161-.759-3.8-5.315-11.022-.948-72.582a6.459,6.459,0,0,0-1.708-4.179l-3.041-4.749-21.1,1.481-5.507-9.654Z" transform="translate(9.69 8.363)" fill="#fff"/>
        <path id="Trazado_116210" data-name="Trazado 116210" d="M680.226,609.783l-13.141-32.157V568.45l-8.844-8.663-9.549-45.5c-.022-.549-.323-36.237-.323-38.12,0-2.459,2.9-3.771,3.233-3.911l.289-.074,14.6-1.3.426,16.546-7.788.531,4.463,7.817,21.07-1.479,3.347,5.222,0,0a7.2,7.2,0,0,1,1.857,4.7l.945,72.359,5.3,11.057.761,3.8.341,16.18Zm-11.243-32.345,12.444,30.276,13.848-1.779-.285-14.307-.715-3.515-5.36-11.313-.948-72.582a5.565,5.565,0,0,0-1.432-3.525l-2.861-4.429-21.139,1.486-6.553-11.487,9-.612-.331-12.706-12.421,1.108c-.622.3-1.958,1.153-1.958,2.11,0,1.875.3,37.557.3,37.916l9.411,44.752,9,8.819Z" transform="translate(9.476 8.13)" fill="#8f4730"/>
        <path id="Trazado_116211" data-name="Trazado 116211" d="M682.367,612.464l-.141-1.127,14.279-1.819.141,1.127Zm-2.727-4.915-.453-17.411-5.237-12.587L673.3,567.2l-5.864.208-.019-.571-.571.007-.753-63.7L650.482,475.61l.994-.563,15.757,27.938.748,63.259,6.388-.226.678,10.849,14.127-1.857.148,1.127-13.993,1.843,4.823,11.505,13.877-1.934.156,1.126-13.845,1.932.442,16.91ZM668.4,503.752l-.059-1.134,18.6-.953L687,502.8Z" transform="translate(10.091 9.345)" fill="#8f4730"/>
        <g id="Grupo_59909" data-name="Grupo 59909" transform="translate(668.505 584.726)">
          <path id="Trazado_116212" data-name="Trazado 116212" d="M713.818,648.281,723.5,668.5a13.949,13.949,0,0,1-.266,2.468c-.3,1.825-.683,2.584-1.708,2.85-.409.106-24.79,4.1-24.79,4.1a2.93,2.93,0,0,1-2.846-1.518l-16.515-32.111-19.928-69.921-.08-19.7,8.051-1.12,5.5,9.8,8.127,22.429a8.658,8.658,0,0,1,.908,4.171v6.46" transform="translate(-656.41 -552.517)" fill="#fff"/>
          <path id="Trazado_116213" data-name="Trazado 116213" d="M696.729,679.105a3.7,3.7,0,0,1-3.5-2.083l-16.492-32.064L656.71,574.608l-.085-20.535,9.515-1.323,5.82,10.371,8.2,22.568h0a9.419,9.419,0,0,1,.965,4.5v6.46a.949.949,0,1,1-1.9,0v-6.46a7.99,7.99,0,0,0-.771-3.689l-8.207-22.588-5.122-9.1-6.587.916.077,18.745L678.5,644.265,694.946,676.2a2.019,2.019,0,0,0,1.92,1c6.583-1.083,24-3.945,24.657-4.082.334-.089.671-.174.987-2.083a17.044,17.044,0,0,0,.252-2.1l-9.585-20.02a.95.95,0,0,1,1.712-.824l9.775,20.592a14.257,14.257,0,0,1-.281,2.661c-.271,1.649-.664,3.165-2.406,3.614-.4.107-17.53,2.917-24.876,4.122C696.985,679.1,696.862,679.105,696.729,679.105Z" transform="translate(-656.625 -552.749)" fill="#8f4730"/>
        </g>
        <path id="Trazado_116214" data-name="Trazado 116214" d="M697.71,671.952a3.358,3.358,0,0,1-3.184-1.865l-12.7-24.742a.574.574,0,0,1,.248-.768.584.584,0,0,1,.768.249L695.552,669.6a2.374,2.374,0,0,0,2.287,1.216c16.047-2.721,21.169-3.588,22.863-3.681a.423.423,0,0,1,.093-.059l.03.053c.664-.019.711.1.771.274l.152.467-.442.222a.839.839,0,0,1-.307.059c-1.153.119-14.289,2.317-23.012,3.791A2.5,2.5,0,0,1,697.71,671.952ZM663.08,562.681a.571.571,0,0,1-.081-1.135l6.339-.93a.569.569,0,0,1,.163,1.126l-6.339.931A.584.584,0,0,1,663.08,562.681Z" transform="translate(13.595 34.266)" fill="#8f4730"/>
        <path id="Trazado_116215" data-name="Trazado 116215" d="M681.057,642.66l-9.49-46.361-.016-6c0-3.077-1.045-4.171-1.056-4.181l-.141-.23L663.5,565.2l-6.361-10.272.971-.6,6.418,10.393,6.872,20.687c.345.4,1.3,1.791,1.3,4.886v5.889l9.475,46.246Zm-1.728-35.135-2.257-10.65,1.112-.237,2.043,9.62,18.663-2.543-2.661-9.63,1.1-.3,3.01,10.883Z" transform="translate(12.029 32.437)" fill="#8f4730"/>
        <rect id="Rectángulo_5953" data-name="Rectángulo 5953" width="1.899" height="44.583" transform="matrix(0.964, -0.266, 0.266, 0.964, 712.394, 626.554)" fill="#8f4730"/>
        <path id="Trazado_116216" data-name="Trazado 116216" d="M669.182,588.411l-.141-1.127,7.44-.949.141,1.127Z" transform="translate(15.497 41.76)" fill="#8f4730"/>
        <rect id="Rectángulo_5954" data-name="Rectángulo 5954" width="3.292" height="0.762" transform="matrix(0.992, -0.126, 0.126, 0.992, 686.458, 619.919)" fill="#8f4730"/>
        <line id="Línea_698" data-name="Línea 698" y1="1.708" x2="16.511" transform="translate(699.34 556.685)" fill="#fff"/>
        <path id="Trazado_116217" data-name="Trazado 116217" d="M680.717,533.906a.95.95,0,0,1-.1-1.894l16.513-1.708a.918.918,0,0,1,1.042.848.955.955,0,0,1-.848,1.042L680.814,533.9A.816.816,0,0,1,680.717,533.906Z" transform="translate(18.621 25.436)" fill="#8f4730"/>
        <line id="Línea_699" data-name="Línea 699" y1="1.712" x2="16.511" transform="translate(699.34 543.765)" fill="#fff"/>
        <path id="Trazado_116218" data-name="Trazado 116218" d="M680.717,523.9a.95.95,0,0,1-.1-1.894l16.513-1.712a.935.935,0,0,1,1.042.848.954.954,0,0,1-.848,1.042L680.814,523.9A.8.8,0,0,1,680.717,523.9Z" transform="translate(18.621 22.522)" fill="#8f4730"/>
        <path id="Trazado_116219" data-name="Trazado 116219" d="M715.514,595.279l-3.432-3.266-15.127,1.661-.208-1.883,16-1.757,3.4,3.236,2.528-.367v-9.712l-6.453-7.981v-9.956l-9.067-15.331-22.533,2.409-.2-1.891,23.749-2.535,9.949,16.829v9.8l6.454,7.981v12.025Z" transform="translate(18.813 30.566)" fill="#8f4730"/>
        <path id="Trazado_116220" data-name="Trazado 116220" d="M693.42,578.684a.57.57,0,0,1-.055-1.138l22.589-2.28a.6.6,0,0,1,.622.513.572.572,0,0,1-.511.622l-22.589,2.279C693.458,578.68,693.439,578.684,693.42,578.684Z" transform="translate(22.432 38.535)" fill="#8f4730"/>
        <path id="Trazado_116221" data-name="Trazado 116221" d="M709.39,584.778h-1.142v-3l-2.977.315-.119-1.134,4.237-.449Z" transform="translate(26.015 40.063)" fill="#8f4730"/>
        <path id="Trazado_116222" data-name="Trazado 116222" d="M693.785,579.879a.571.571,0,0,1-.059-1.139l22.211-2.357a.613.613,0,0,1,.626.507.569.569,0,0,1-.507.626l-22.211,2.358C693.826,579.875,693.8,579.879,693.785,579.879Zm-1.138-3.04a.571.571,0,0,1-.063-1.139l20.691-2.356a.6.6,0,0,1,.63.5.573.573,0,0,1-.5.63l-20.69,2.358C692.687,576.836,692.669,576.84,692.647,576.84Zm-1.139-3.04a.57.57,0,0,1-.056-1.138l19.932-1.976a.612.612,0,0,1,.622.511.572.572,0,0,1-.511.622L691.564,573.8C691.546,573.8,691.528,573.8,691.508,573.8Zm-4.556-8.929a.571.571,0,0,1-.059-1.139l22.207-2.354a.6.6,0,0,1,.628.509.572.572,0,0,1-.509.626l-22.207,2.354C686.994,564.867,686.972,564.871,686.953,564.871Z" transform="translate(20.548 34.49)" fill="#8f4730"/>
        <path id="Trazado_116223" data-name="Trazado 116223" d="M688.729,588.644a.95.95,0,0,1-.916-.7L684.8,576.938a.95.95,0,0,1,1.831-.5l3.014,11.009a.951.951,0,0,1-.664,1.167A1.013,1.013,0,0,1,688.729,588.644Z" transform="translate(20.077 38.673)" fill="#8f4730"/>
        <path id="Trazado_116224" data-name="Trazado 116224" d="M691.675,500.124l1.37,76.647,2.274,12.78,2.069-13.061-.729-72.775" transform="translate(22.089 16.649)" fill="#fff"/>
        <path id="Trazado_116225" data-name="Trazado 116225" d="M694.6,589.721l-2.276-12.781-1.383-76.793,1.9-.037,1.368,76.645,1.271,7.095,1.186-7.5-.741-72.615,1.9-.022.73,72.775L696.471,589.7Z" transform="translate(21.876 16.645)" fill="#8f4730"/>
        <path id="Trazado_116226" data-name="Trazado 116226" d="M697.327,491.094a5.882,5.882,0,0,1-3.765-1.909l-5.9-7.436.89-.711,5.883,7.409h0a4.8,4.8,0,0,0,2.9,1.51,2.043,2.043,0,0,0,.214-.012l18.89-1.994.119,1.134-18.894,1.995C697.547,491.091,697.436,491.094,697.327,491.094Z" transform="translate(20.919 11.09)" fill="#8f4730"/>
        <path id="Trazado_116227" data-name="Trazado 116227" d="M688.448,500.709a.573.573,0,0,1-.571-.559l-.761-33.632a.575.575,0,0,1,.56-.581.56.56,0,0,1,.581.559l.761,33.631a.577.577,0,0,1-.56.582Z" transform="translate(20.762 6.691)" fill="#8f4730"/>
        <path id="Trazado_116228" data-name="Trazado 116228" d="M712.451,464.353l.566,17.529,6.881,8.384a5.883,5.883,0,0,1,1.424,3.325l.474,18.93c.239,2.85-1.9,5.227-3.8,5.462l-21.116,2.376s-7.732-.205-10.443-4.274c-.949-1.427-.235-2.141,1.188-2.376a7.435,7.435,0,0,1,4.984,1.188s2.607,2.137,5.219,1.9l16.132-1.663a2.849,2.849,0,0,0,2.611-2.85" transform="translate(20.44 6.23)" fill="#fff"/>
        <path id="Trazado_116229" data-name="Trazado 116229" d="M697.206,521.514c-.467,0-8.392-.259-11.339-4.689a2.491,2.491,0,0,1-.434-2.428,2.715,2.715,0,0,1,2.261-1.413,8.374,8.374,0,0,1,5.727,1.383c.034.022,2.362,1.93,4.538,1.694l16.124-1.661a1.861,1.861,0,0,0,1.76-1.906.949.949,0,1,1,1.9,0,3.738,3.738,0,0,1-3.477,3.8l-16.12,1.661c-2.947.278-5.8-2.009-5.915-2.11a6.693,6.693,0,0,0-4.222-.985,1.531,1.531,0,0,0-.838.3h0a1.223,1.223,0,0,0,.274.612c2.4,3.61,9.6,3.851,9.679,3.851l20.983-2.368c1.305-.163,3.158-2.02,2.958-4.445l-.478-18.982a4.967,4.967,0,0,0-1.149-2.681l-7.147-8.7-.575-17.852a.952.952,0,0,1,.919-.979,1.021,1.021,0,0,1,.979.919l.553,17.206,6.68,8.136h0a6.812,6.812,0,0,1,1.631,3.822l.482,19.009c.274,3.288-2.213,6.127-4.627,6.427Z" transform="translate(20.225 6.016)" fill="#8f4730"/>
        <path id="Trazado_116230" data-name="Trazado 116230" d="M703.159,501.856a6.365,6.365,0,0,1-.648-.034,4.949,4.949,0,0,1-3.384-1.756,5.066,5.066,0,0,1-.912-4.393,7.7,7.7,0,0,1,2.717-4.237,7.42,7.42,0,0,1,5.412-1.761,4.971,4.971,0,0,1,3.395,1.761c1.932,2.376,1.12,6.246-1.805,8.63A7.685,7.685,0,0,1,703.159,501.856Zm2.539-10.883a6.711,6.711,0,0,0-6.187,4.99,3.772,3.772,0,0,0,.646,3.266h0a3.593,3.593,0,0,0,2.491,1.274,6.27,6.27,0,0,0,4.448-1.468c2.357-1.92,3.08-4.952,1.611-6.761a3.6,3.6,0,0,0-2.5-1.274A4.764,4.764,0,0,0,705.7,490.973Z" transform="translate(23.951 13.595)" fill="#8f4730"/>
        <path id="Trazado_116231" data-name="Trazado 116231" d="M699.77,514.576a6.268,6.268,0,0,1-4.052-2.035l-5.763-7.258c-1.468-.607-8.659-3.858-9.138-9.351l-.718-29.747,1.9-.045.715,29.688c.416,4.756,8.092,7.755,8.17,7.785l.242.092,6.046,7.615a3.894,3.894,0,0,0,2.768,1.352l18.89-1.994.2,1.89-18.9,2C700.008,514.572,699.889,514.576,699.77,514.576Z" transform="translate(18.718 6.75)" fill="#8f4730"/>
        <path id="Trazado_116232" data-name="Trazado 116232" d="M715.733,507.108l-.571-19.242-4.007-4.982-19.3,1.65-2.747-1.245.467-1.038,2.48,1.127,19.609-1.679,4.63,5.753.007.189.578,19.431Z" transform="translate(21.34 11.282)" fill="#8f4730"/>
        <path id="Trazado_116233" data-name="Trazado 116233" d="M672.271,610.874" transform="translate(16.438 48.907)" fill="#fff"/>
        <path id="Trazado_116234" data-name="Trazado 116234" d="M672.271,610.874" transform="translate(16.438 48.907)" fill="none" stroke="#8f4730" stroke-width="1.47"/>
        <path id="Trazado_116235" data-name="Trazado 116235" d="M630.447,614.366" transform="translate(4.255 49.924)" fill="none" stroke="#8f4730" stroke-width="1.47"/>
        <path id="Trazado_116236" data-name="Trazado 116236" d="M696.442,599.86l-.082-1.134.79-.056-.456-1.483,1.09-.334.878,2.847Z" transform="translate(23.454 44.823)" fill="#8f4730"/>
        <path id="Trazado_116237" data-name="Trazado 116237" d="M673.8,647l24.3-8.361,27.6-3.421L735.11,654.6l3.61,3.041,1.468,4.957s1.2,1.746,2.9,1.529l12.47-1.928v-4.153c0-3.636-3.743-5.727-3.743-5.727l-3.226.38-1.139-3.193-5.5.916-20.31-53.964-5.219.683-.838,2.273-47.47,6.924-37.585,10.644L642.2,651.783l6.171,10.032c.949,1.522,3.432,1.09,3.432,1.09l26.369-4.244s3.226-1.973.114-5.586L671.9,645.1" transform="translate(4.278 44.707)" fill="#fff"/>
        <path id="Trazado_116238" data-name="Trazado 116238" d="M743.082,665.32a4.567,4.567,0,0,1-3.4-1.96l-.127-.263-1.393-4.686-3.63-3.165-9.119-18.771-26.922,3.337-23.13,7.98,3.933,4.922a5.178,5.178,0,0,1,1.516,4.179,4.311,4.311,0,0,1-1.872,2.812l-.344.13-26.37,4.24c-.119.022-3.113.511-4.389-1.52l-6.175-10.042-12.081-35.944,38.543-10.913,47.032-6.869L716,596.5l6.535-.856.267.7,20.035,53.237,5.519-.919,1.153,3.23,2.776-.327.27.149c.17.1,4.23,2.413,4.23,6.557v4.964l-13.274,2.053A3.218,3.218,0,0,1,743.082,665.32Zm-1.757-2.927a2.452,2.452,0,0,0,1.916,1.023l11.643-1.8v-3.341c0-2.528-2.257-4.241-3.014-4.744l-3.648.426L747.1,650.8l-5.49.912-.278-.729-20.046-53.262-3.9.515-.834,2.261-48.029,7.005-36.508,10.346,11.358,33.865,6.079,9.838c.581.926,2.442.648,2.465.648L678.073,658a2.344,2.344,0,0,0,.866-1.413,3.493,3.493,0,0,0-1.1-2.657l-6.4-8a.95.95,0,0,1,1.484-1.185l1.181,1.482,23.965-8.247,28.461-3.551,9.626,19.812,3.67,3.1Z" transform="translate(4.003 44.472)" fill="#8f4730"/>
        <path id="Trazado_116239" data-name="Trazado 116239" d="M681,608.507l18.409-1.9L705.223,622l-18.907,1.366-23.158,6.992" transform="translate(13.783 47.664)" fill="#fff"/>
        <path id="Trazado_116240" data-name="Trazado 116240" d="M663.5,631.493l-.549-1.816,23.156-6.991,17.844-1.309-5.1-13.522-17.681,1.827-.193-1.891,19.134-1.976,6.52,17.27-20.18,1.453Z" transform="translate(13.722 47.434)" fill="#8f4730"/>
        <path id="Trazado_116241" data-name="Trazado 116241" d="M640.906,633.39l-.156-.934,26.288-4.474,2.7,1.5,22.963-6.935,17.774-1.29-4.856-12.425-10.279.738-.067-.949,10.976-.782,5.178,13.244-.319.126.6-.044.067.949-18.908,1.364-23.245,7.028-2.762-1.531Z" transform="translate(7.257 48.023)" fill="#8f4730"/>
        <path id="Trazado_116242" data-name="Trazado 116242" d="M685.816,624.932V607.673c0-1.677-1.358-4.57-3.037-6.46a4.148,4.148,0,0,0-2.147-1.526l-8.351,1.139c-.551-.068-.892.307-.892,1.147v8.741" transform="translate(16.181 45.648)" fill="#fff"/>
        <path id="Trazado_116243" data-name="Trazado 116243" d="M686.978,625.146h-1.9V607.887c0-1.294-1.124-3.947-2.8-5.83a4.112,4.112,0,0,0-1.471-1.191l-8.251,1.123a1.317,1.317,0,0,0-.012.2v8.741h-1.9v-8.741a2.175,2.175,0,0,1,.638-1.708,1.439,1.439,0,0,1,1.179-.39l8.366-1.142.123.016a4.85,4.85,0,0,1,2.747,1.835c1.835,2.069,3.272,5.182,3.272,7.09Z" transform="translate(15.967 45.433)" fill="#8f4730"/>
        <path id="Trazado_116244" data-name="Trazado 116244" d="M677.443,625.4H676.3V608.294c0-1.535-1.323-4.319-2.891-6.079l.852-.757c1.783,2,3.18,5,3.18,6.836Z" transform="translate(16.769 46.164)" fill="#8f4730"/>
        <path id="Trazado_116245" data-name="Trazado 116245" d="M661.2,603.2l14.34-1.894,1.9.569c1.677,1.887,2.991,4.782,2.991,6.46v4.182L666.2,614.8" transform="translate(13.213 46.121)" fill="#fff"/>
        <path id="Trazado_116246" data-name="Trazado 116246" d="M666.336,615.721l-.238-1.5,13.593-2.176v-3.536a11.127,11.127,0,0,0-2.659-5.794l-1.534-.46-14.174,1.871-.2-1.5,14.5-1.916,2.257.682.145.16c1.786,2,3.184,5.059,3.184,6.961v4.833Z" transform="translate(13.191 45.946)" fill="#8f4730"/>
        <path id="Trazado_116247" data-name="Trazado 116247" d="M670.27,629.935V610.173c0-1.677-1.36-4.57-3.037-6.46a4.14,4.14,0,0,0-2.149-1.525l-11.766,1.9c-.55-.068-.892.307-.892,1.151v13.3" transform="translate(10.657 46.377)" fill="#fff"/>
        <path id="Trazado_116248" data-name="Trazado 116248" d="M671.433,630.153h-1.9V610.391c0-1.293-1.123-3.944-2.8-5.83a4.17,4.17,0,0,0-1.464-1.193L653.6,605.251a1.438,1.438,0,0,0-.01.2v13.3h-1.9v-13.3a2.181,2.181,0,0,1,.634-1.706,1.637,1.637,0,0,1,1.167-.4l11.791-1.9.134.018a4.871,4.871,0,0,1,2.739,1.839c1.839,2.073,3.277,5.186,3.277,7.09Z" transform="translate(10.443 46.16)" fill="#8f4730"/>
        <path id="Trazado_116249" data-name="Trazado 116249" d="M647.286,628.468l-.2-1.12,12.4-2.205V610.8c0-1.528-1.326-4.315-2.9-6.083l.852-.757c1.786,2.013,3.188,5.015,3.188,6.84v15.3Z" transform="translate(9.102 46.893)" fill="#8f4730"/>
        <path id="Trazado_116250" data-name="Trazado 116250" d="M647,625.116c-1.959.194-4-4.235-4.563-9.895s.57-10.4,2.528-10.6l11.4-1.757c1.955-.2,4,4.231,4.56,9.895s-.569,10.4-2.528,10.6Z" transform="translate(7.705 46.571)" fill="#fff"/>
        <path id="Trazado_116251" data-name="Trazado 116251" d="M647.081,626.284c-.968,0-2.3-.622-3.537-3.311a24.177,24.177,0,0,1-1.843-7.447c-.548-5.56.434-11.343,3.378-11.638l11.353-1.75a2.606,2.606,0,0,1,1.961.644c1.776,1.453,3.224,5.416,3.688,10.094s-.178,8.84-1.635,10.616a2.579,2.579,0,0,1-1.746,1.02l-11.394,1.76A2.167,2.167,0,0,1,647.081,626.284Zm9.623-22.267a.077.077,0,0,0-.03,0l-11.354,1.75c-.93.1-2.324,3.551-1.728,9.571a22.226,22.226,0,0,0,1.676,6.838c.808,1.754,1.528,2.206,1.823,2.206h.008l11.365-1.757a.84.84,0,0,0,.515-.341c.916-1.116,1.688-4.477,1.212-9.226s-1.883-7.895-3-8.81A.93.93,0,0,0,656.7,604.017Z" transform="translate(7.491 46.359)" fill="#8f4730"/>
        <path id="Trazado_116252" data-name="Trazado 116252" d="M646.411,607.165l-.148-.938,11.4-1.761.148.938Z" transform="translate(8.862 47.041)" fill="#8f4730"/>
        <path id="Trazado_116253" data-name="Trazado 116253" d="M645.148,612.158" transform="translate(8.537 49.281)" fill="none" stroke="#8f4730" stroke-width="1.47"/>
        <path id="Trazado_116254" data-name="Trazado 116254" d="M646.462,625.413l-.111-1.134a1.11,1.11,0,0,0,.719-.471c1.179-1.433,1.712-5.345,1.3-9.508-.594-6-2.639-9.518-3.941-9.381l-.111-1.135a1.825,1.825,0,0,1,.186-.006c2.58,0,4.492,5.293,5,10.411.456,4.578-.152,8.641-1.549,10.342A2.21,2.21,0,0,1,646.462,625.413Z" transform="translate(8.295 46.84)" fill="#8f4730"/>
        <path id="Trazado_116255" data-name="Trazado 116255" d="M647.609,621.754l-.147-.934,11.4-1.765.148.935Zm.653-4.066-.148-.937,11.4-1.757.148.938Zm-.1-3.965-.148-.939,11.4-1.76.147.937Zm-.775-3.6-.149-.937,11.4-1.761.147.935Z" transform="translate(9.146 47.901)" fill="#8f4730"/>
        <path id="Trazado_116256" data-name="Trazado 116256" d="M634.668,614.578v-6.27a2.029,2.029,0,0,1,1.652-1.719l9.49-1.519c.55.069,1.959-.646,2.718.957,1.677,1.889,2.276,5.161,2.276,6.84v14.746" transform="translate(5.485 47.187)" fill="#fff"/>
        <path id="Trazado_116257" data-name="Trazado 116257" d="M651.967,627.827h-1.9V613.08c0-1.512-.553-4.536-2.035-6.208l-.149-.222c-.27-.571-.527-.568-1.231-.467a5.418,5.418,0,0,1-.586.052l-9.514,1.524-.134-.014c-.133.066-.589.567-.589.777v6.272h-1.9v-6.272a2.84,2.84,0,0,1,1.027-1.99,2.458,2.458,0,0,1,1.516-.682h.008l9.527-1.528.137.018c.04,0,.129-.018.234-.034a2.727,2.727,0,0,1,3.157,1.4,12.7,12.7,0,0,1,2.429,7.369Z" transform="translate(5.271 46.974)" fill="#8f4730"/>
        <path id="Trazado_116258" data-name="Trazado 116258" d="M651.55,657.249a5.423,5.423,0,0,1-3.161-1.056l-.1-.119-5.17-8.281-.953-3.042a46.157,46.157,0,0,1-2.295-17.1l0-14.019c0-3.02-1-5.422-2.677-6.431a1.224,1.224,0,0,0-.844-.3,1.436,1.436,0,0,0-.923.727l-.793-.527a2.32,2.32,0,0,1,1.605-1.142,1.991,1.991,0,0,1,1.516.478c1.894,1.127,3.065,3.838,3.065,7.191V627.7a45.266,45.266,0,0,0,2.249,16.762l.939,2.991,5.041,8.041a4.34,4.34,0,0,0,2.861.793l24.728-4.163.155.935-24.76,4.166A4.028,4.028,0,0,1,651.55,657.249Z" transform="translate(5.472 47.472)" fill="#8f4730"/>
        <path id="Trazado_116259" data-name="Trazado 116259" d="M630.854,617.287c-.554.027-1.233-1.237-1.513-2.82s-.058-2.885.5-2.907l8.441-1.284c.554-.026,1.233,1.237,1.515,2.82s.057,2.885-.5,2.908Z" transform="translate(3.898 48.733)" fill="#fff"/>
        <path id="Trazado_116260" data-name="Trazado 116260" d="M631.046,618.447c-1.316,0-2.131-1.924-2.428-3.6-.13-.745-.353-2.574.4-3.5a1.335,1.335,0,0,1,1-.523l8.336-1.272c1.413-.044,2.287,1.888,2.592,3.592.129.745.351,2.568-.4,3.5a1.362,1.362,0,0,1-1,.523l-8.422,1.282Zm-.6-5.775a4.908,4.908,0,0,0,.037,1.845,5.032,5.032,0,0,0,.726,2l7.9-1.2a4.944,4.944,0,0,0-.038-1.841,5.005,5.005,0,0,0-.733-2.005Zm8.911,2.606a.337.337,0,0,0-.059.006l.063-.006Zm-9.1-2.577-.063.008h0A.327.327,0,0,0,630.257,612.7Z" transform="translate(3.684 48.521)" fill="#8f4730"/>
        <path id="Trazado_116261" data-name="Trazado 116261" d="M630.746,617.692l-.045-1.134a.189.189,0,0,0-.123.044,3.749,3.749,0,0,0,.085-2.287,4.1,4.1,0,0,0-.993-2.358l.012-1.126a.167.167,0,0,1,.044,0c1.161,0,1.839,2.057,2.057,3.288.1.541.352,2.368-.315,3.2A.957.957,0,0,1,630.746,617.692Z" transform="translate(4.029 48.894)" fill="#8f4730"/>
        <rect id="Rectángulo_5955" data-name="Rectángulo 5955" width="1.9" height="14.302" transform="matrix(0.956, -0.292, 0.292, 0.956, 684.004, 660.818)" fill="#8f4730"/>
        <path id="Trazado_116262" data-name="Trazado 116262" d="M644,638.762l-.156-.934,24.105-4.066.156.934Z" transform="translate(8.157 55.573)" fill="#8f4730"/>
        <path id="Trazado_116263" data-name="Trazado 116263" d="M731.894,653.673v-.664c0-4.377-3.962-7.072-4-7.1l-.133-.089-9.493-20.509-29.391,3.557-26.081,8.719-.363-1.082,26.2-8.741,30.32-3.684,9.712,20.975a10.554,10.554,0,0,1,4.352,7.292l12.274-1.883.17,1.126Zm1.4-7.7-.141-1.127,6.075-.764.141,1.127Z" transform="translate(13.571 52.754)" fill="#8f4730"/>
        <path id="Trazado_116264" data-name="Trazado 116264" d="M650.221,500.727" transform="translate(10.015 16.824)" fill="none" stroke="#8f4730" stroke-width="0.735"/>
        <rect id="Rectángulo_5956" data-name="Rectángulo 5956" width="1.898" height="9.689" transform="translate(674.474 494.667)" fill="#8f4730"/>
        <path id="Trazado_116265" data-name="Trazado 116265" d="M662.737,493.032l-1.746.152v8.779l-5.508-5.7V483.531l4.6-.38" transform="translate(11.548 11.705)" fill="#fff"/>
        <path id="Trazado_116266" data-name="Trazado 116266" d="M662.154,504.522l-7.406-7.666V482.871l5.467-.452.156,1.891-3.725.311v11.472l3.61,3.736v-7.3l2.613-.226.163,1.89-.879.078Z" transform="translate(11.334 11.492)" fill="#8f4730"/>
        <path id="Trazado_116267" data-name="Trazado 116267" d="M660.6,511.207c1.837-.061,3.121-6.236,2.867-13.8s-1.951-13.634-3.789-13.574l-8.366.524c-1.832.065-3.116,6.241-2.865,13.8s1.951,13.638,3.789,13.574Z" transform="translate(9.489 11.904)" fill="#fff"/>
        <path id="Trazado_116268" data-name="Trazado 116268" d="M652.439,512.893a2.058,2.058,0,0,1-1.437-.615c-2.013-1.876-3.1-8.322-3.289-13.875-.181-5.434.412-14.657,3.781-14.779l8.34-.523h.071c1.419,0,2.521,1.516,3.388,4.623a43.852,43.852,0,0,1,1.338,9.867c.185,5.556-.471,12.058-2.35,14.067a2.074,2.074,0,0,1-1.42.713l-8.351.522ZM659.9,485l-8.311.523c-.826.311-2.239,4.992-1.976,12.817s1.983,12.407,2.832,12.662l8.322-.526c.83-.341,2.227-5.015,1.968-12.815C662.469,489.833,660.745,485.256,659.9,485Z" transform="translate(9.276 11.691)" fill="#8f4730"/>
        <path id="Trazado_116269" data-name="Trazado 116269" d="M651.6,512.194l-.028-.949a.686.686,0,0,0,.44-.26c1.153-1.231,2.2-6.105,1.965-13.048-.275-8.151-2.094-13.114-3.285-13.114h-.014l-.03-.949h.04c2.469,0,4,7.04,4.237,14.034.219,6.558-.674,12.073-2.22,13.726A1.586,1.586,0,0,1,651.6,512.194Z" transform="translate(10.14 11.916)" fill="#8f4730"/>
        <path id="Trazado_116270" data-name="Trazado 116270" d="M650.9,510.551c0-17.862,2.278-23.369,2.278-23.369l1.67-.27-1.29-2.581-1.708.38s-2.466,4.37-2.656,20.9Z" transform="translate(9.716 12.048)" fill="#fff"/>
        <path id="Trazado_116271" data-name="Trazado 116271" d="M650.56,510.831l-1.734-5.1c.189-16.461,2.617-20.947,2.721-21.128l.1-.186,2.273-.5,1.75,3.488-2.035.329c-.412,1.242-2.154,7.433-2.154,22.948Zm-.785-5.178.779,2.249c.214-15.568,2.206-20.565,2.295-20.78l.1-.244,1.294-.208L653.4,485l-1.116.244C651.854,486.222,649.946,491.348,649.775,505.653Z" transform="translate(9.609 11.926)" fill="#8f4730"/>
        <path id="Trazado_116272" data-name="Trazado 116272" d="M690.1,477.677c-2.168-3.189-.748-7.941,3.173-10.613s8.863-2.254,11.03.934l1.875,2.46c2.168,3.188.749,7.94-3.173,10.612s-8.859,2.256-11.03-.934Z" transform="translate(21.337 6.506)" fill="#fff"/>
        <path id="Trazado_116273" data-name="Trazado 116273" d="M697.757,483.993c-.263,0-.522-.01-.785-.034a7.284,7.284,0,0,1-5.564-3.076l-1.876-2.457c-2.457-3.614-.922-8.967,3.426-11.933a10.434,10.434,0,0,1,7.68-1.772,7.19,7.19,0,0,1,4.671,2.958l1.841,2.416c2.488,3.659.953,9.008-3.391,11.97A10.719,10.719,0,0,1,697.757,483.993Zm-6.668-6.656,1.861,2.439a5.448,5.448,0,0,0,4.185,2.293,8.717,8.717,0,0,0,5.556-1.571c3.481-2.372,4.789-6.542,2.921-9.292l-1.843-2.417a5.275,5.275,0,0,0-3.484-2.2,8.429,8.429,0,0,0-6.26,1.479C690.551,470.43,689.239,474.586,691.089,477.336Z" transform="translate(21.124 6.292)" fill="#8f4730"/>
        <path id="Trazado_116274" data-name="Trazado 116274" d="M702.442,480.535a34.425,34.425,0,0,1-1.475-3.507l-.13-.353.315-.207a16.934,16.934,0,0,0,4.648-4.875l.816.482a17.7,17.7,0,0,1-4.63,4.974,31.713,31.713,0,0,0,1.3,3.043l.059.234h-.475Zm-11.172-.5c-2.069-3.043-1.1-7.413,2.083-10.316l-1.027-1.2,3.319-1.954.823,1.153a9.38,9.38,0,0,1,4.581-.771,6.82,6.82,0,0,1,5.212,2.873l-.786.533a4.928,4.928,0,0,0-.4-.519,20.872,20.872,0,0,1-4.527,4.585l-.44.327-.256-.486a31.908,31.908,0,0,0-3.6-5.231l-.089-.119a9.882,9.882,0,0,0-1.054.63c-.137.093-.27.19-.4.289a34.539,34.539,0,0,1,3.521,5.245l.223.42-.42.222a55.307,55.307,0,0,1-6.208,2.832l-.327-.89a54.507,54.507,0,0,0,5.665-2.558,34.848,34.848,0,0,0-3.184-4.667c-2.828,2.588-3.715,6.42-1.916,9.063Zm5.772-11.525a32.03,32.03,0,0,1,3.377,4.819,20.216,20.216,0,0,0,3.878-4.04l.726.493a6.049,6.049,0,0,0-4.055-1.887A8.586,8.586,0,0,0,697.042,468.509Zm-3.255.256.3.345c.156-.121.319-.236.485-.351a10.921,10.921,0,0,1,1.03-.624l-.222-.307Z" transform="translate(21.653 6.875)" fill="#8f4730"/>
        <path id="Trazado_116275" data-name="Trazado 116275" d="M699.619,473.9a31.7,31.7,0,0,0-3.667-5.319l-1.09-1.525-2.455,1.446,1.165,1.351a34.08,34.08,0,0,1,3.583,5.307" transform="translate(22.303 7.017)" fill="#fff"/>
        <path id="Trazado_116276" data-name="Trazado 116276" d="M696.9,475.523a33.524,33.524,0,0,0-3.529-5.219l-1.531-1.783,3.319-1.954,1.342,1.88a31.347,31.347,0,0,1,3.7,5.37l-.838.445a31.9,31.9,0,0,0-3.6-5.231l-.868-1.2-1.591.937.794.923a34.261,34.261,0,0,1,3.643,5.39Z" transform="translate(22.138 6.875)" fill="#8f4730"/>
        <path id="Trazado_116277" data-name="Trazado 116277" d="M699.756,479.537l-1.432-3.466a36.987,36.987,0,0,1-5.66,2.388l-.274-.912a37.187,37.187,0,0,0,5.953-2.554l.464-.245,1.823,4.426Z" transform="translate(22.298 9.257)" fill="#8f4730"/>
        <g id="Grupo_59910" data-name="Grupo 59910" transform="translate(615.837 442.965)">
          <path id="Trazado_116278" data-name="Trazado 116278" d="M616.411,443.424l22.778,28.5s2.657,2.66,5.693,2.66,124.522-5.7,124.522-5.7" transform="translate(-615.67 -442.831)" fill="none"/>
          <path id="Trazado_116279" data-name="Trazado 116279" d="M645.049,475.666c-3.392,0-6.246-2.821-6.365-2.94L615.837,444.15l1.482-1.185,22.778,28.5h0c.008,0,2.388,2.306,4.952,2.306,2.98,0,123.261-5.642,124.477-5.7l.089,1.9C764.656,470.2,648.074,475.666,645.049,475.666Z" transform="translate(-615.837 -442.965)" fill="#8f4730"/>
        </g>
        <path id="Trazado_116280" data-name="Trazado 116280" d="M659.995,605.682c.888,0,1.609-.36,1.609-.8s-.721-.808-1.609-.808-1.613.36-1.613.808S659.1,605.682,659.995,605.682Z" transform="translate(12.392 46.925)" fill="#fff"/>
        <path id="Trazado_116281" data-name="Trazado 116281" d="M660.1,606.266c-1.191,0-2.087-.549-2.087-1.28s.878-1.286,2.087-1.286,2.083.541,2.083,1.286S661.288,606.266,660.1,606.266Zm0-1.617a1.467,1.467,0,0,0-1.141.352,1.712,1.712,0,0,0,1.141.315,1.478,1.478,0,0,0,1.138-.349A1.673,1.673,0,0,0,660.1,604.649Z" transform="translate(12.285 46.817)" fill="#8f4730"/>
        <path id="Trazado_116282" data-name="Trazado 116282" d="M659.631,604.7" transform="translate(12.756 47.107)" fill="#fff"/>
        <path id="Trazado_116283" data-name="Trazado 116283" d="M659.631,604.7" transform="translate(12.756 47.107)" fill="none" stroke="#8f4730" stroke-width="0.735"/>
        <path id="Trazado_116284" data-name="Trazado 116284" d="M642.061,608.037c.888,0,1.609-.36,1.609-.8s-.721-.81-1.609-.81-1.614.362-1.614.81S641.169,608.037,642.061,608.037Z" transform="translate(7.168 47.611)" fill="#fff"/>
        <path id="Trazado_116285" data-name="Trazado 116285" d="M642.17,608.618c-1.213,0-2.091-.537-2.091-1.278s.878-1.282,2.091-1.282,2.083.541,2.083,1.282S643.378,608.618,642.17,608.618Zm0-1.611a1.479,1.479,0,0,0-1.145.349,1.725,1.725,0,0,0,1.145.315,1.477,1.477,0,0,0,1.138-.349A1.689,1.689,0,0,0,642.17,607.006Z" transform="translate(7.061 47.504)" fill="#8f4730"/>
        <path id="Trazado_116286" data-name="Trazado 116286" d="M641.7,607.05" transform="translate(7.532 47.793)" fill="#fff"/>
        <path id="Trazado_116287" data-name="Trazado 116287" d="M641.7,607.05" transform="translate(7.532 47.793)" fill="none" stroke="#8f4730" stroke-width="0.735"/>
        <path id="Trazado_116288" data-name="Trazado 116288" d="M855.086,622.845V508.461H735.122v97.664l-53.148-4.562,53.148,21.282Z" transform="translate(19.264 19.077)" fill="#fff"/>
        <path id="Trazado_116289" data-name="Trazado 116289" d="M856.115,624.008l-121.267-.067L681.7,602.66l.434-1.827,52.117,4.47V507.726H856.115Zm-120.732-1.9H854.216V509.624H736.149v97.748l-47.821-4.1Z" transform="translate(19.184 18.863)" fill="#8f4730"/>
        <path id="Trazado_116290" data-name="Trazado 116290" d="M763.992,620.393l-14.423-36.861V561.87c0-1.708,1.9-1.9,1.9-1.9l6.908-.38v-8.21l-2.353-.38-3.8-1.517-10.631-13.073-4.935-21.283v-6.081" transform="translate(35.192 19.248)" fill="#fff"/>
        <path id="Trazado_116291" data-name="Trazado 116291" d="M763.323,620.739l-14.489-37.205V561.871a2.918,2.918,0,0,1,2.754-2.844l6.05-.333v-6.505l-1.557-.248-4.225-1.668-10.972-13.645-4.934-21.284-.026-6.294h1.9v6.078l4.86,20.855,10.338,12.71,3.566,1.427,2.951.452v9.916l-7.8.434c-.2.022-1,.178-1,.949v21.484l14.356,36.694Z" transform="translate(34.978 19.249)" fill="#8f4730"/>
        <path id="Trazado_116292" data-name="Trazado 116292" d="M765.224,610.054l-7.547-18.718V580.312a14.657,14.657,0,0,0-1.1-4.753c-.071-.192-6.295-17.192-8.17-22.837a14.417,14.417,0,0,0-1.123-2.731,2.6,2.6,0,0,0-.041.329l-.948-.052c.03-.507.17-1.375.8-1.46.674-.1,1.167.493,2.208,3.618,1.876,5.626,8.092,22.614,8.156,22.786a15.226,15.226,0,0,1,1.171,5.1v10.7l7.08-.529.074.948-6.868.513,7.195,17.755Zm-6.091-32.5-.066-.949,5.5-.378.066.949Z" transform="translate(37.997 30.826)" fill="#8f4730"/>
        <path id="Trazado_116293" data-name="Trazado 116293" d="M808.3,594.972l-3.785-6.591-17.929,1.326a.882.882,0,0,1-1.016-.874.946.946,0,0,1,.875-1.016l19.122-1.415,3.808,6.635,3.072-.1V582.677l-2.657-5.546v-7.536l-12.722-22.267-27.508,1.49a.9.9,0,0,1-1-.9.955.955,0,0,1,.9-1l28.679-1.549,13.552,23.719v7.817l2.657,5.546v12.317Z" transform="translate(44.483 29.828)" fill="#8f4730"/>
        <path id="Trazado_116294" data-name="Trazado 116294" d="M769.738,528.662a.664.664,0,0,1-.041-1.327l19.36-1.142a.623.623,0,0,1,.7.622.667.667,0,0,1-.624.705l-19.36,1.141Z" transform="translate(44.633 24.242)" fill="#8f4730"/>
        <path id="Trazado_116295" data-name="Trazado 116295" d="M778.365,566.369a.475.475,0,0,1-.034-.949l29.272-2.087c.283.037.489.178.509.442a.476.476,0,0,1-.442.507L778.4,566.369Z" transform="translate(47.201 35.06)" fill="#8f4730"/>
        <path id="Trazado_116296" data-name="Trazado 116296" d="M763.8,591.863a.663.663,0,0,1-.664-.664v-13.3h0a21.719,21.719,0,0,0-1.827-6.161L753,548.863a.661.661,0,0,1,.4-.848.647.647,0,0,1,.848.4l8.277,22.8a22.034,22.034,0,0,1,1.936,6.609l0,13.378A.662.662,0,0,1,763.8,591.863Z" transform="translate(39.94 30.584)" fill="#8f4730"/>
        <path id="Trazado_116297" data-name="Trazado 116297" d="M804.917,587.354a.473.473,0,0,1-.474-.475v-6.3l-3.3.164h-.022a.475.475,0,0,1-.022-.949l4.292-.216v7.3A.474.474,0,0,1,804.917,587.354ZM782.48,577.7a.475.475,0,0,1-.032-.949l27-1.9a.507.507,0,0,1,.509.442.476.476,0,0,1-.442.507l-27,1.9Zm.19-2.929a.475.475,0,0,1-.03-.949l25.287-1.631a.489.489,0,0,1,.5.444.48.48,0,0,1-.446.5L782.7,574.773Zm-.19-2.162a.476.476,0,0,1-.474-.437.481.481,0,0,1,.438-.512l24.338-1.827h.037a.475.475,0,0,1,.037.949l-24.339,1.827Z" transform="translate(48.4 36.953)" fill="#8f4730"/>
        <path id="Trazado_116298" data-name="Trazado 116298" d="M777.237,588.366l0-11.451c.016-1.312.041-3.5-1.2-5.115l-2.317-3.785a.663.663,0,0,1,1.134-.69l2.276,3.725c1.479,1.916,1.449,4.4,1.431,5.879l0,.393v9.626l5.5-.367V576.527c.071-1.557-.163-3.989-.908-4.627l-.119-.133-3.989-5.931a.667.667,0,0,1,.182-.923.682.682,0,0,1,.923.182l3.94,5.864c1.453,1.371,1.32,5.164,1.3,5.6v11.271Z" transform="translate(45.96 35.489)" fill="#8f4730"/>
        <path id="Trazado_116299" data-name="Trazado 116299" d="M764.783,571.413l-.081-.949,11.39-.949.081.949Zm.767-4.222-.089-.941,9.868-.916.089.941Z" transform="translate(43.36 35.643)" fill="#8f4730"/>
        <path id="Trazado_116300" data-name="Trazado 116300" d="M763.174,601.081l-2.388-5.968,1.765-.7,1.867,4.671,13.427-1.02v-9.571a10.3,10.3,0,0,0-1.009-4.833L770.82,565.5V509.635h1.9v55.713l5.834,17.521v0a11.746,11.746,0,0,1,1.19,5.624v11.328Z" transform="translate(42.219 19.419)" fill="#8f4730"/>
        <path id="Trazado_116301" data-name="Trazado 116301" d="M762,583.158l-.1-1.327,19.249-1.372.1,1.327Z" transform="translate(42.545 40.048)" fill="#8f4730"/>
        <path id="Trazado_116302" data-name="Trazado 116302" d="M766.781,590.205h-1.142V578.044a10.736,10.736,0,0,0-1.056-5.035l-6.157-17.466V542.18l-5.831.478-.1-1.134,7.068-.582v14.5l6.042,17.085h0a11.462,11.462,0,0,1,1.171,5.513Z" transform="translate(39.806 28.538)" fill="#8f4730"/>
        <path id="Trazado_116303" data-name="Trazado 116303" d="M796.43,601.493l-8.885-18.619,1.714-.816,8.885,18.62Zm-28.683-1.449-7.368-17.86,1.756-.727,7.369,17.86Z" transform="translate(42.101 40.339)" fill="#8f4730"/>
        <rect id="Rectángulo_5957" data-name="Rectángulo 5957" width="1.142" height="39.677" transform="translate(786.844 529.054)" fill="#8f4730"/>
        <path id="Trazado_116304" data-name="Trazado 116304" d="M769.824,543.329a.664.664,0,0,1-.041-1.328l19.36-1.138h.041a.664.664,0,0,1,.04,1.326l-19.36,1.139Zm-.382-28.5a.664.664,0,0,1-.041-1.326l19.365-1.139h.04a.664.664,0,0,1,.041,1.327l-19.365,1.138Z" transform="translate(44.547 20.213)" fill="#8f4730"/>
        <path id="Trazado_116305" data-name="Trazado 116305" d="M782.521,509.934v62.891l2.471,15.578,2.467-15.578V509.934" transform="translate(48.55 19.506)" fill="#fff"/>
        <path id="Trazado_116306" data-name="Trazado 116306" d="M785.206,589.351a.952.952,0,0,1-.937-.8L781.8,572.975l-.012-63.041h1.9v62.893l1.52,9.533,1.534-9.682-.012-62.744h1.9v62.893l-2.479,15.724A.953.953,0,0,1,785.206,589.351Z" transform="translate(48.336 19.506)" fill="#8f4730"/>
        <path id="Trazado_116307" data-name="Trazado 116307" d="M753.689,543.115a.95.95,0,0,1-.1-1.894l5.237-.529a.919.919,0,0,1,1.042.848.955.955,0,0,1-.848,1.042l-5.239.53A.832.832,0,0,1,753.689,543.115Z" transform="translate(39.876 28.463)" fill="#8f4730"/>
        <path id="Trazado_116308" data-name="Trazado 116308" d="M761.981,583.1l-.067-.949,19.25-1.367.066.949Zm19.564-12.088-.089-.941,5.5-.531.089.941Z" transform="translate(42.548 36.869)" fill="#8f4730"/>
        <path id="Trazado_116309" data-name="Trazado 116309" d="M693.839,503.825l-.033-13.756h1.142l.033,13.756Z" transform="translate(22.71 13.72)" fill="#8f4730"/>
      </g>
    </g>
  </g>
</svg>
