<svg xmlns="http://www.w3.org/2000/svg" xmlns:xlink="http://www.w3.org/1999/xlink" width="110" height="110" viewBox="0 0 110 110">
  <defs>
    <filter id="Elipse_4252" x="0" y="0" width="110" height="110" filterUnits="userSpaceOnUse">
      <feOffset dy="3" input="SourceAlpha"/>
      <feGaussianBlur stdDeviation="3" result="blur"/>
      <feFlood flood-opacity="0.161"/>
      <feComposite operator="in" in2="blur"/>
      <feComposite in="SourceGraphic"/>
    </filter>
  </defs>
  <g id="Grupo_58976" data-name="Grupo 58976" transform="translate(-171 -2628)">
    <g id="Grupo_58963" data-name="Grupo 58963" transform="translate(-154 886)">
      <g transform="matrix(1, 0, 0, 1, 325, 1742)" filter="url(#Elipse_4252)">
        <g id="Elipse_4252-2" data-name="Elipse 4252" transform="translate(9 6)" fill="#fff" stroke="#ea526f" stroke-width="3">
          <circle cx="46" cy="46" r="46" stroke="none"/>
          <circle cx="46" cy="46" r="44.5" fill="none"/>
        </g>
      </g>
    </g>
    <g id="Grupo_58968" data-name="Grupo 58968" transform="translate(201 2655)">
      <g id="Grupo_58967" data-name="Grupo 58967" transform="translate(14.069 18.207)">
        <path id="Trazado_115457" data-name="Trazado 115457" d="M-560.978,136h9.931v4.965h-9.931Z" transform="translate(566.771 -136)" fill="#ed1c24"/>
        <path id="Trazado_115458" data-name="Trazado 115458" d="M-616.978,240h21.517v19.861h-21.517Z" transform="translate(616.978 -229.242)" fill="#ed1c24"/>
      </g>
      <path id="Trazado_115459" data-name="Trazado 115459" d="M-602.392,176h6.689a6.586,6.586,0,0,1,6.587,6.585h0v.035h-19.862v-.035A6.586,6.586,0,0,1-602.392,176Z" transform="translate(623.874 -153.655)" fill="#ed373d"/>
      <path id="Trazado_115460" data-name="Trazado 115460" d="M-524.013-14.621l14.069-14.069h4.138V-32H-511.6l-17.379,17.379Z" transform="translate(552.15 32.828)" fill="gray"/>
      <path id="Trazado_115461" data-name="Trazado 115461" d="M-326.492,40l-2.282,5.016a2.234,2.234,0,0,0,.526,2.575,2.591,2.591,0,0,0,3.511,0,2.234,2.234,0,0,0,.526-2.575Z" transform="translate(372.835 -31.724)" fill="#fcd770"/>
      <path id="Trazado_115462" data-name="Trazado 115462" d="M-556.84,105.1h-4.138v-3.565l4.138,1.91Z" transform="translate(580.84 -86.894)" fill="#333" stroke="#333" stroke-miterlimit="10" stroke-width="2"/>
      <path id="Trazado_115463" data-name="Trazado 115463" d="M-706.634-35.035a.828.828,0,0,0,.828-.828v-3.31a.828.828,0,0,0-.828-.828h-5.793a.828.828,0,0,0-.585.242L-728.6-24.174c-.013-.007-.021-.02-.036-.026l-3.657-1.688v-.043h-.094l-7.008-3.234a.828.828,0,0,0-1.1.4.828.828,0,0,0,.4,1.1l6.14,2.834v2.208h-13.241a5.8,5.8,0,0,0-5.793,5.793V-6.07a5.793,5.793,0,0,0,5.793,5.793,5.793,5.793,0,0,0,5.793-5.793v-9.1a2.483,2.483,0,0,1,2.483-2.483h4.027a7.441,7.441,0,0,0-3.979,5.793h-.048a.828.828,0,0,0-.828.828V8.826a.828.828,0,0,0,.828.828h21.517a.828.828,0,0,0,.828-.828V-11.035a.828.828,0,0,0-.828-.828h-.044a7.426,7.426,0,0,0-4.922-6.2v-3.734a.827.827,0,0,0-.542-.77l12.471-12.471Zm-19.034,10.273,1.313,1.313-.828.828h-2.625Zm-6.621.7,2.452,1.132-.312.312h-2.14Zm0,3.1h8.276v2.483h-8.276Zm-6.62,1.655a4.143,4.143,0,0,0-4.138,4.138v9.1a4.138,4.138,0,0,1-4.138,4.138,4.138,4.138,0,0,1-4.138-4.138V-16.828a4.143,4.143,0,0,1,4.138-4.138h13.241v1.655ZM-718.22,8h-19.862V-10.208h19.862Zm-.882-19.862h-18.1a5.767,5.767,0,0,1,5.7-4.965h6.69A5.767,5.767,0,0,1-719.1-11.863Zm7.745-24.584-11.828,11.828-1.313-1.313,12.413-12.413h4.623v1.655h-3.31A.827.827,0,0,0-711.357-36.447Z" transform="translate(752.978 40)"/>
      <path id="Trazado_115464" data-name="Trazado 115464" d="M-332.875,32.488a.827.827,0,0,0-1.1-.41.827.827,0,0,0-.41.41l-2.282,5.015a3.082,3.082,0,0,0,.712,3.52,3.43,3.43,0,0,0,4.645,0,3.082,3.082,0,0,0,.713-3.52Zm.434,7.331a1.754,1.754,0,0,1-2.376,0,1.407,1.407,0,0,1-.34-1.629l1.529-3.361,1.529,3.36a1.411,1.411,0,0,1-.341,1.629Z" transform="translate(379.971 -24.554)"/>
      <path id="Trazado_115465" data-name="Trazado 115465" d="M-448.978,264h1.655v14.9h-1.655Z" transform="translate(480.425 -232.552)"/>
    </g>
  </g>
</svg>
