<svg xmlns="http://www.w3.org/2000/svg" width="132" height="133" viewBox="0 0 132 133">
  <g id="Grupo_58816" data-name="Grupo 58816" transform="translate(-734 -1927)">
    <ellipse id="Elipse_4101" data-name="Elipse 4101" cx="56" cy="56.5" rx="56" ry="56.5" transform="translate(744 1937)" fill="#fff"/>
    <g id="Elipse_4100" data-name="Elipse 4100" transform="translate(744 1937)" fill="none" stroke="#fff" stroke-linejoin="round" stroke-width="10" opacity="0.29">
      <ellipse cx="56" cy="56.5" rx="56" ry="56.5" stroke="none"/>
      <ellipse cx="56" cy="56.5" rx="61" ry="61.5" fill="none"/>
    </g>
    <g id="Grupo_58814" data-name="Grupo 58814" transform="translate(776 1960)">
      <path id="Trazado_115300" data-name="Trazado 115300" d="M-806.581-547.915H-760.3v62.84h-46.286Z" transform="translate(807.534 548.868)" fill="#d5e8fe"/>
      <path id="Trazado_115301" data-name="Trazado 115301" d="M-764.612-510.3h27.33a4.357,4.357,0,0,0,4.357,4.357v43.885a4.357,4.357,0,0,0-4.357,4.357h-27.33a4.357,4.357,0,0,0-4.357-4.357v-43.885a4.357,4.357,0,0,0,4.357-4.357Z" transform="translate(775.043 516.377)" fill="#f3f3f3"/>
      <ellipse id="Elipse_4249" data-name="Elipse 4249" cx="9.289" cy="9.289" rx="9.289" ry="9.289" transform="translate(14.807 32.499)" fill="#ff9811"/>
      <path id="Trazado_115302" data-name="Trazado 115302" d="M-669.755-288.091l1.615,3.272,3.611.524-2.613,2.547.617,3.6-3.229-1.7-3.23,1.7.617-3.6-2.613-2.547,3.611-.524Z" transform="translate(693.852 324.42)" fill="#e6f8fc"/>
      <g id="Grupo_58813" data-name="Grupo 58813" transform="translate(0 0)">
        <path id="Trazado_115303" data-name="Trazado 115303" d="M-766.339-425.515a.952.952,0,0,0-.953.952h0v44.269h-44.383v-12.464a.953.953,0,0,0-.953-.953.953.953,0,0,0-.953.953v13.417a.953.953,0,0,0,.953.953h46.289a.953.953,0,0,0,.953-.953v-45.222a.953.953,0,0,0-.953-.953Z" transform="translate(813.581 443.133)"/>
        <path id="Trazado_115304" data-name="Trazado 115304" d="M-766.339-554.915h-46.289a.953.953,0,0,0-.953.953v36.683a.953.953,0,0,0,.953.953.953.953,0,0,0,.953-.953v-35.73h44.38v11.569a.953.953,0,0,0,.953.953.953.953,0,0,0,.953-.953v-12.522a.953.953,0,0,0-.95-.953Z" transform="translate(813.581 554.915)"/>
        <path id="Trazado_115305" data-name="Trazado 115305" d="M-812.628-242.514a.953.953,0,0,0,.953-.952h0v-2.451a.953.953,0,0,0-.953-.953.953.953,0,0,0-.953.953v2.451A.953.953,0,0,0-812.628-242.514Z" transform="translate(813.581 288.812)"/>
        <path id="Trazado_115306" data-name="Trazado 115306" d="M-771.612-463.752a.953.953,0,0,0,.953.953h27.33a.953.953,0,0,0,.953-.953,3.408,3.408,0,0,1,3.4-3.4.953.953,0,0,0,.953-.953v-43.885a.953.953,0,0,0-.953-.953,3.408,3.408,0,0,1-3.4-3.4.953.953,0,0,0-.953-.953h-27.33a.953.953,0,0,0-.953.953,3.408,3.408,0,0,1-3.4,3.4.953.953,0,0,0-.953.953v43.885a.953.953,0,0,0,.953.953,3.408,3.408,0,0,1,3.4,3.4Zm-2.451-47.376a5.326,5.326,0,0,0,4.271-4.27h25.6a5.326,5.326,0,0,0,4.271,4.27v42.153a5.326,5.326,0,0,0-4.271,4.27h-25.6a5.326,5.326,0,0,0-4.271-4.271Z" transform="translate(781.09 522.424)"/>
        <path id="Trazado_115307" data-name="Trazado 115307" d="M-670.444-291.3l-3.115-.453-1.393-2.823a.953.953,0,0,0-1.277-.432.953.953,0,0,0-.432.432l-1.393,2.823-3.115.453a.953.953,0,0,0-.807,1.079.952.952,0,0,0,.278.546l2.254,2.2-.532,3.1a.953.953,0,0,0,.778,1.1.953.953,0,0,0,.6-.1l2.786-1.466,2.786,1.465a.953.953,0,0,0,1.287-.4.954.954,0,0,0,.1-.6l-.532-3.1,2.254-2.2a.953.953,0,0,0,.018-1.347.954.954,0,0,0-.546-.278Zm-3.415,2.807a.953.953,0,0,0-.272.844l.29,1.693-1.52-.8a.955.955,0,0,0-.888,0l-1.52.8.29-1.693a.953.953,0,0,0-.272-.844l-1.23-1.2,1.7-.248a.953.953,0,0,0,.717-.521l.76-1.539.762,1.54a.953.953,0,0,0,.715.52l1.7.247Z" transform="translate(699.903 330.478)"/>
        <path id="Trazado_115308" data-name="Trazado 115308" d="M-701.583-323.219a10.242,10.242,0,0,0-10.242,10.242,10.242,10.242,0,0,0,10.242,10.242,10.242,10.242,0,0,0,10.242-10.242,10.254,10.254,0,0,0-10.242-10.242Zm0,18.578a8.336,8.336,0,0,1-8.336-8.336,8.336,8.336,0,0,1,8.336-8.336,8.336,8.336,0,0,1,8.336,8.336h0A8.345,8.345,0,0,1-701.583-304.641Z" transform="translate(725.679 354.765)"/>
        <path id="Trazado_115309" data-name="Trazado 115309" d="M-725.876-377.1h22.663a.953.953,0,0,0,.953-.953.953.953,0,0,0-.953-.953h-22.663a.953.953,0,0,0-.953.953A.953.953,0,0,0-725.876-377.1Z" transform="translate(738.64 402.961)"/>
        <path id="Trazado_115310" data-name="Trazado 115310" d="M-725.876-418.353h22.663a.953.953,0,0,0,.953-.953.953.953,0,0,0-.953-.953h-22.663a.953.953,0,0,0-.953.953A.953.953,0,0,0-725.876-418.353Z" transform="translate(738.64 438.593)"/>
        <path id="Trazado_115311" data-name="Trazado 115311" d="M-684.249-459.609h11.328a.953.953,0,0,0,.953-.953.953.953,0,0,0-.953-.953h-11.328a.953.953,0,0,0-.953.953.953.953,0,0,0,.953.953Z" transform="translate(702.681 474.232)"/>
      </g>
    </g>
  </g>
</svg>
