<svg xmlns="http://www.w3.org/2000/svg" width="468.089" height="312.469" viewBox="0 0 468.089 312.469">
  <g id="ILUSTRACION" transform="translate(-125.165 -346.873)">
    <path id="Trazado_735493" data-name="Trazado 735493" d="M652.877,1228.215l29.106,45.985a11.337,11.337,0,0,1-9.579,17.4H593.829a11.339,11.339,0,0,1-9.581-5.274l-33.036-52.2a11.337,11.337,0,0,1,9.579-17.4h78.575a11.332,11.332,0,0,1,9.579,5.274l3.932,6.211Z" transform="translate(-316.843 -649.603)" fill="#ff6e23"/>
    <path id="Trazado_735494" data-name="Trazado 735494" d="M751.213,1266.008s3.049-5.067,8.877-.772l32.735,29.491s3.089,4.38-3.244,4.94H746.273s-9.351.469-7.1-6.409Z" transform="translate(-458.275 -684.538)" fill="#fff"/>
    <path id="Trazado_735495" data-name="Trazado 735495" d="M805.862,705.919l70.916,112.046a27.624,27.624,0,0,1-23.341,42.4H661.992a27.616,27.616,0,0,1-23.341-12.85L558.16,720.337a27.624,27.624,0,0,1,23.341-42.4H772.943a27.619,27.619,0,0,1,23.341,12.85l9.579,15.129Z" transform="translate(-320.127 -247.239)" fill="#fff"/>
    <path id="Trazado_735496" data-name="Trazado 735496" d="M1147.482,971.868l-12.757-20.155L1133,948.988a5.564,5.564,0,0,0-4.72-2.6h-34.436a5.585,5.585,0,0,0-4.72,8.574l14.478,22.877a5.554,5.554,0,0,0,4.72,2.6h34.436a5.583,5.583,0,0,0,4.72-8.571Z" transform="translate(-719.225 -447.715)" fill="#ff6e23"/>
    <path id="Trazado_735497" data-name="Trazado 735497" d="M1465.321,764.753a11.848,11.848,0,0,1,6.535,0c3.613,1.018,4.818,3.459,5.107,7.151s-2.856,8.6-10.153,6.8c0,0-11.22,1.509-14.048,7s-2.846,6.391-2.846,6.391-2.127,8.333.988,12.463c0,0-12.678,1.765-14.7,6.414,0,0-7.125-2.38-9.685-3.12s-5.826-4.545-8.267-7.171-6.986-6.7-7.021-8.1.377-3.639,2.038-4.049,5.021-.22,8.584,3.935,5.869,5.277,6,4.484-4.788-6.573-9.219-10.07-11.007-8.632-11.974-9.756.441-4.249,1.821-4.887,3.5-1.119,7.282,1.651,6.788,5.176,6.788,5.176,5.127-4.216,10.888-.825a5.626,5.626,0,0,1,5.452-.514l.4-2.167s-5.328-4.788-5.107-6.591S1443.13,761,1443.13,761l1.831-13.671s2.874,8.267,10.3,13.088S1465.321,764.753,1465.321,764.753Z" transform="translate(-956.774 -299.059)" fill="#fff"/>
    <path id="Trazado_735498" data-name="Trazado 735498" d="M1079.54,1034.52s-4.411,2.77-2.914,7.649c0,0-4.32,2.486-2.334,9.751s4.583,13.235,9.5,18.125,12.448,8.87,12.951,10.612a79.435,79.435,0,0,1,10.156-8.91,72.563,72.563,0,0,1,10.994-6.9s-9.5-15.233-11.283-19.368-4.6-10.111-8.764-9.019-3.411,5.576-2.17,8.938,4.781,9.959,1.066,10.683-6.4-6.3-6.4-6.3-1.4-.562-4.37-5.707a69.063,69.063,0,0,0-6.432-9.2v-.354Z" transform="translate(-708.412 -513.53)" fill="#fff"/>
    <path id="Trazado_735499" data-name="Trazado 735499" d="M1562.1,688.681c6.766-6.452,15.975-4.213,20.976-2.233s8.8,3.5,10.9,6.176c0,0,7.971,2.669,11.825,5.044s6.611,7.295,5.431,14a35.193,35.193,0,0,1-5.411,12.6s-2.033,3.92.75,5.793,10.48,6.978,10.982,18.95-7.475,18.5-15.755,18.75-18.638-2.626-19.261-4.218c0,0-10.982,5-17.762-3.879s.043-21.766,4.125-23.918a18.629,18.629,0,0,1,8.417-1.99,17.6,17.6,0,0,0,3.869-6.287c.793-2.243-1.362-6.419-4.274-7.784a13.616,13.616,0,0,0-4.388-1.056s-9.452-2.286-14.334-14.9C1558.191,703.729,1555.332,695.135,1562.1,688.681Z" transform="translate(-1069.726 -252.065)" fill="#ff6e23"/>
    <path id="Trazado_735500" data-name="Trazado 735500" d="M1309.371,980.591s4.894,4.444,7.941,15.228c0,0,12.194,21.482,16.679,34.244s12.169,30.689,5.292,42.79a20.247,20.247,0,0,1-22.026,10.227,104.548,104.548,0,0,0-.271,18.851c.823,9.8,3.109,24.586,3.109,24.586h-97.158s2.289-10.179,2.917-14.286,1.448-11.131,1.448-11.131-8.31,5.358-25.734-2.975-33.279-33.231-36.89-39.566-10.549-20.52-10.549-20.52,16.005-17.33,30.749-22.14l27.318,30.364s7.358-16.235,12.757-28.313,12.721-29.886,20.651-36.084,11.111-7.766,16.947-8.485c0,0,3.33,6.381,9,7.239a16.856,16.856,0,0,0,9.68-1.266s9.05,4.677,16.633,4.355S1309.371,980.591,1309.371,980.591Z" transform="translate(-768.425 -467.871)" fill="#010d4f"/>
    <path id="Trazado_735501" data-name="Trazado 735501" d="M1200.019,420.434l12.756,20.155a4.969,4.969,0,0,1-4.2,7.627h-34.436a4.97,4.97,0,0,1-4.2-2.312l-14.478-22.877a4.969,4.969,0,0,1,4.2-7.627H1194.1a4.97,4.97,0,0,1,4.2,2.312l1.722,2.722Z" transform="translate(-768.84 -51.175)" fill="#010d4f"/>
    <path id="Trazado_735502" data-name="Trazado 735502" d="M507.326,500.5l33.927,53.6a13.216,13.216,0,0,1-11.166,20.284H438.5a13.214,13.214,0,0,1-11.166-6.148l-38.508-60.843a13.216,13.216,0,0,1,11.166-20.284h91.59a13.214,13.214,0,0,1,11.166,6.148l4.58,7.239Z" transform="translate(-195.352 -104.728)" fill="#ff6e23"/>
    <path id="Trazado_735503" data-name="Trazado 735503" d="M1404.905,863s-2.145,3.428,2.6,5.606l2.7-.856S1404.545,863.661,1404.905,863Z" transform="translate(-955.341 -385.44)" fill="#ccc"/>
    <path id="Trazado_735504" data-name="Trazado 735504" d="M433.506,472.092H555.513L547.5,459.936s-1.935-2.535-7.563-4.049-94.793.056-94.793.056S431.191,457.272,433.506,472.092Z" transform="translate(-230.074 -80.919)" fill="#010d4f"/>
    <path id="Trazado_735505" data-name="Trazado 735505" d="M783.1,474.34c-1.486,1.233-4.1.529-5.849-1.572s-1.955-4.806-.469-6.039,4.1-.529,5.849,1.572S784.582,473.107,783.1,474.34Z" transform="translate(-485.881 -89.054)" fill="#fff"/>
    <path id="Trazado_735506" data-name="Trazado 735506" d="M729.874,474.34c-1.486,1.233-4.1.529-5.849-1.572s-1.955-4.806-.471-6.039,4.1-.529,5.849,1.572S731.358,473.107,729.874,474.34Z" transform="translate(-446.135 -89.054)" fill="#fff"/>
    <path id="Trazado_735507" data-name="Trazado 735507" d="M146.417,914.9c-3.76,3.122-10.389,1.337-14.8-3.983s-4.95-12.164-1.19-15.284,10.389-1.337,14.8,3.983S150.177,911.781,146.417,914.9Z" transform="translate(-2.055 -408.665)" fill="#ff6e23"/>
    <path id="Trazado_735508" data-name="Trazado 735508" d="M1562.1,688.688c-6.766,6.452-3.91,15.046-3.91,15.046,4.879,12.62,14.334,14.9,14.334,14.9a14.5,14.5,0,0,1,1.752.238c-3.59-2.813-10.478-9.847-8-21.034,1.99-9,7.88-11.913,12.23-12.81C1573.511,683.9,1567.133,683.892,1562.1,688.688Z" transform="translate(-1069.73 -252.072)" fill="#fff"/>
    <path id="Trazado_735509" data-name="Trazado 735509" d="M1587.163,910.671c-16.083-9.516-4.694-27.432,1.246-31.081a18.261,18.261,0,0,0-6.788,1.924c-4.079,2.152-10.9,15.035-4.125,23.918A12.881,12.881,0,0,0,1587.163,910.671Z" transform="translate(-1082.448 -397.83)" fill="#fff"/>
    <path id="Trazado_735510" data-name="Trazado 735510" d="M1317.7,1410.731s16.458,12.7,31.755,6.517c0,0,9.493-3.889,12.658-7.583,0,0-5.188-13.367-21.543-12.926S1319.893,1405.816,1317.7,1410.731Z" transform="translate(-890.578 -784.025)" fill="#ff6e23"/>
    <g id="Grupo_1010001" data-name="Grupo 1010001" transform="translate(385.009 547.227)">
      <path id="Trazado_735511" data-name="Trazado 735511" d="M1216.006,1226.344c-24.862,0-50.585-32.924-64.568-64.991a.694.694,0,0,1,.086-.7,65.645,65.645,0,0,1,13.691-12.622c11.032-7.5,17.023-9.756,17.274-9.847a.7.7,0,0,1,.734.162c.322.322,32.294,32.453,42.141,52.186a.7.7,0,1,1-1.246.623c-9.217-18.466-38.163-48.064-41.556-51.5-1.532.638-7.292,3.226-16.562,9.528a64.826,64.826,0,0,0-13.116,12c14.521,33.087,41.5,66.981,66.667,63.53,26.729-3.656,38.049-38.27,50.072-83.135a.686.686,0,0,1,.853-.491.694.694,0,0,1,.491.851c-12.156,45.372-23.65,80.38-51.226,84.156A27.575,27.575,0,0,1,1216.006,1226.344Z" transform="translate(-1151.381 -1138.139)" fill="#010d4f"/>
    </g>
    <g id="Grupo_1010002" data-name="Grupo 1010002" transform="translate(443.459 505.101)">
      <path id="Trazado_735512" data-name="Trazado 735512" d="M1382.916,1046.337a.682.682,0,0,1-.286-.063.7.7,0,0,1-.349-.922c3.013-6.682,5.788-13.281,8.467-19.661,12.255-29.159,21.935-52.191,41.46-53.918a.708.708,0,0,1,.755.633.7.7,0,0,1-.633.755c-18.689,1.651-28.225,24.343-40.3,53.07-2.684,6.388-5.462,12.995-8.483,19.694A.694.694,0,0,1,1382.916,1046.337Z" transform="translate(-1382.219 -971.77)" fill="#010d4f"/>
    </g>
    <g id="Grupo_1010007" data-name="Grupo 1010007" transform="translate(364.519 520.649)">
      <g id="Grupo_1010003" data-name="Grupo 1010003" transform="translate(16.712 1.298)">
        <path id="Trazado_735513" data-name="Trazado 735513" d="M1164.712,1067.893a.7.7,0,0,1-.542-.258c-.038-.046-.947-1.18-5.434-7.761a54.041,54.041,0,0,1-4.421-7.657c-.545-1.175-1.026-2.378-1.507-3.583a45.2,45.2,0,0,0-2.264-5.077q-.41-.745-.876-1.448a6.423,6.423,0,0,0-1.849-1.962,3.3,3.3,0,0,0-2.924-.21,3.922,3.922,0,0,0-2.39,2.4c-.522,1.671.089,3.687.7,5.447.329.947.712,1.874,1.1,2.8.435,1.051.881,2.137,1.251,3.249.038.119.094.253.155.405.481,1.185,1.605,3.963-2.119,5.753-2.907,1.4-4.925-2.507-6.257-5.089-.284-.555-.542-1.053-.772-1.433a.7.7,0,1,1,1.19-.724c.243.4.519.932.823,1.519,1.377,2.671,2.849,5.226,4.416,4.472,2.545-1.223,1.927-2.747,1.431-3.973-.073-.185-.142-.349-.187-.491-.352-1.063-.792-2.127-1.215-3.155-.4-.952-.787-1.9-1.124-2.874-.686-1.97-1.365-4.246-.717-6.32a5.267,5.267,0,0,1,3.236-3.287,4.69,4.69,0,0,1,4.147.334,7.824,7.824,0,0,1,2.266,2.37c.337.5.648,1.021.942,1.552a46.455,46.455,0,0,1,2.337,5.231c.471,1.18.939,2.362,1.476,3.512a52.3,52.3,0,0,0,4.31,7.459c4.413,6.474,5.327,7.624,5.365,7.67a.7.7,0,0,1-.544,1.134Z" transform="translate(-1136.458 -1038.302)" fill="#010d4f"/>
      </g>
      <g id="Grupo_1010004" data-name="Grupo 1010004" transform="translate(2.998)">
        <path id="Trazado_735514" data-name="Trazado 735514" d="M1083.8,1043.318a.7.7,0,0,1-.615-.37,9.3,9.3,0,0,1-.656-6.047,4.408,4.408,0,0,1,3.17-3.692.7.7,0,1,1,.408,1.329c-1.058.324-1.8.886-2.223,2.681a7.935,7.935,0,0,0,.532,5.074.7.7,0,0,1-.289.942A.686.686,0,0,1,1083.8,1043.318Z" transform="translate(-1082.296 -1033.176)" fill="#010d4f"/>
      </g>
      <g id="Grupo_1010005" data-name="Grupo 1010005" transform="translate(3.811 8.752)">
        <path id="Trazado_735515" data-name="Trazado 735515" d="M1094.932,1084a.693.693,0,0,1-.552-.273,93.978,93.978,0,0,1-8.807-15.008.7.7,0,0,1,1.266-.582,92.386,92.386,0,0,0,8.645,14.744.7.7,0,0,1-.129.975A.683.683,0,0,1,1094.932,1084Z" transform="translate(-1085.51 -1067.738)" fill="#010d4f"/>
      </g>
      <g id="Grupo_1010006" data-name="Grupo 1010006" transform="translate(0 7.576)">
        <path id="Trazado_735516" data-name="Trazado 735516" d="M1094.272,1102.694a.7.7,0,0,1-.514-.226,14.313,14.313,0,0,0-4.028-3.048,27.339,27.339,0,0,1-6.93-5.348c-6-6.1-10.589-15.734-12.022-22.1-1.628-7.229,3.492-8.829,3.542-8.844a.7.7,0,0,1,.4,1.334c-.162.051-3.917,1.289-2.585,7.206,1.39,6.176,5.841,15.519,11.657,21.431a26.184,26.184,0,0,0,6.624,5.112,15.675,15.675,0,0,1,4.37,3.32.7.7,0,0,1-.043.982A.68.68,0,0,1,1094.272,1102.694Z" transform="translate(-1070.458 -1063.096)" fill="#010d4f"/>
      </g>
    </g>
    <g id="Grupo_1010008" data-name="Grupo 1010008" transform="translate(497.078 466.232)">
      <path id="Trazado_735517" data-name="Trazado 735517" d="M1600.916,834.826a8.292,8.292,0,0,1-6.816-3.59.7.7,0,1,1,1.147-.787,6.884,6.884,0,1,0,1.486-9.371.7.7,0,0,1-.977-.132.7.7,0,0,1,.132-.975,8.28,8.28,0,1,1,5.029,14.856Z" transform="translate(-1593.977 -818.262)" fill="#010d4f"/>
    </g>
    <g id="Grupo_1010009" data-name="Grupo 1010009" transform="translate(500.211 470.831)">
      <path id="Trazado_735518" data-name="Trazado 735518" d="M1610.732,844.686a.692.692,0,0,1-.562-.286l-3.684-5.057a.7.7,0,0,1,.37-1.079l6.277-1.813a.7.7,0,1,1,.387,1.337l-5.323,1.54,3.1,4.254a.693.693,0,0,1-.152.972A.713.713,0,0,1,1610.732,844.686Z" transform="translate(-1606.352 -836.425)" fill="#010d4f"/>
    </g>
    <g id="Grupo_1010010" data-name="Grupo 1010010" transform="translate(482.292 454.331)">
      <path id="Trazado_735519" data-name="Trazado 735519" d="M1545.784,811.037c-4.14-.38-7.042-1.894-8.68-4.5-3.056-4.859-.58-11.675-.473-11.964l5.571-22.778a.7.7,0,0,1,1.355.334l-5.593,22.854c-.048.142-2.367,6.545.324,10.819,1.4,2.221,3.945,3.517,7.563,3.851a.7.7,0,0,1-.066,1.388Z" transform="translate(-1535.583 -771.261)" fill="#010d4f"/>
    </g>
    <g id="Grupo_1010011" data-name="Grupo 1010011" transform="translate(480.121 456.282)">
      <path id="Trazado_735520" data-name="Trazado 735520" d="M1530.016,797.295a3.084,3.084,0,0,1-.813-.111,3.008,3.008,0,0,1-2.079-3.7l3.456-12.318a3.005,3.005,0,0,1,3.7-2.081,2.35,2.35,0,0,1,1.793,3.193.7.7,0,1,1-1.339-.377,1,1,0,0,0-.828-1.474,1.616,1.616,0,0,0-1.988,1.117l-3.456,12.318a1.611,1.611,0,0,0,3.1.874.7.7,0,0,1,1.342.375,2.99,2.99,0,0,1-1.421,1.805A3.028,3.028,0,0,1,1530.016,797.295Z" transform="translate(-1527.01 -778.967)" fill="#010d4f"/>
    </g>
    <g id="Grupo_1010012" data-name="Grupo 1010012" transform="translate(453.815 633.245)">
      <path id="Trazado_735521" data-name="Trazado 735521" d="M1423.815,1503.951a.67.67,0,0,1-.22-.038.7.7,0,0,1-.441-.881c1.284-3.833,3.494-16.927,4.335-24.558a.719.719,0,0,1,.767-.615.694.694,0,0,1,.615.767c-.775,7.032-2.963,20.563-4.4,24.847A.7.7,0,0,1,1423.815,1503.951Z" transform="translate(-1423.118 -1477.854)" fill="#010d4f"/>
    </g>
    <g id="Grupo_1010013" data-name="Grupo 1010013" transform="translate(547.808 527.25)">
      <path id="Trazado_735522" data-name="Trazado 735522" d="M1799.491,1148.656a10.7,10.7,0,0,1-4.8-.99.7.7,0,0,1,.656-1.228c.362.192,8.923,4.487,20.444-8.518,10.48-11.83-4.758-49.213-20.991-77.633a.7.7,0,1,1,1.208-.691c5.958,10.432,34.965,63.284,20.821,79.246C1809.682,1146.917,1803.494,1148.656,1799.491,1148.656Z" transform="translate(-1794.327 -1059.245)" fill="#010d4f"/>
    </g>
    <g id="Grupo_1010014" data-name="Grupo 1010014" transform="translate(540.665 512.223)">
      <path id="Trazado_735523" data-name="Trazado 735523" d="M1777.123,1147.014a.694.694,0,0,1-.678-.544c-.053-.238-5.335-24.285-2.667-50.4,5.591-54.657,3.289-83.953-7.462-95a.695.695,0,1,1,1-.97c11.214,11.516,13.564,40.257,7.849,96.107-2.646,25.89,2.588,49.715,2.638,49.953a.7.7,0,0,1-.527.831A.73.73,0,0,1,1777.123,1147.014Z" transform="translate(-1766.118 -999.898)" fill="#010d4f"/>
    </g>
    <g id="Grupo_1010015" data-name="Grupo 1010015" transform="translate(419.134 430.532)">
      <path id="Trazado_735524" data-name="Trazado 735524" d="M1351.872,704.707a.69.69,0,0,1-.587-.324l-8.374-13.23a26.717,26.717,0,0,0-22.687-12.491h-33.378a.7.7,0,0,1,0-1.393h33.375a28.1,28.1,0,0,1,23.862,13.139l8.374,13.23a.7.7,0,0,1-.215.96A.682.682,0,0,1,1351.872,704.707Z" transform="translate(-1286.15 -677.27)" fill="#010d4f"/>
    </g>
    <g id="Grupo_1010016" data-name="Grupo 1010016" transform="translate(317.684 430.532)">
      <path id="Trazado_735525" data-name="Trazado 735525" d="M949.736,678.663h-63.55a.7.7,0,0,1,0-1.393h63.55a.7.7,0,1,1,0,1.393Z" transform="translate(-885.49 -677.27)" fill="#010d4f"/>
    </g>
    <g id="Grupo_1010017" data-name="Grupo 1010017" transform="translate(237.621 471.66)">
      <path id="Trazado_735526" data-name="Trazado 735526" d="M744.142,981.859H674.25a28.1,28.1,0,0,1-23.862-13.136L569.4,840.765a.7.7,0,0,1,1.175-.744l80.986,127.958a26.722,26.722,0,0,0,22.687,12.491h69.9a.7.7,0,1,1,0,1.39Z" transform="translate(-569.294 -839.699)" fill="#010d4f"/>
    </g>
    <g id="Grupo_1010018" data-name="Grupo 1010018" transform="translate(202.381 374.272)">
      <path id="Trazado_735527" data-name="Trazado 735527" d="M574.156,543.748H482.568a13.848,13.848,0,0,1-11.756-6.472L432.3,476.433a13.912,13.912,0,0,1,11.754-21.353h91.59a13.84,13.84,0,0,1,11.754,6.472l4.583,7.239,33.927,53.6a13.912,13.912,0,0,1-11.756,21.353Zm-130.1-87.275a12.519,12.519,0,0,0-10.576,19.216l38.508,60.843a12.462,12.462,0,0,0,10.579,5.824h91.59a12.519,12.519,0,0,0,10.576-19.216L546.227,462.3a12.455,12.455,0,0,0-10.579-5.824Z" transform="translate(-430.119 -455.08)" fill="#010d4f"/>
    </g>
    <g id="Grupo_1010019" data-name="Grupo 1010019" transform="translate(231.893 558.644)">
      <path id="Trazado_735528" data-name="Trazado 735528" d="M557.475,1215.114a.691.691,0,0,1-.587-.324l-8.333-13.167a11.983,11.983,0,0,1,10.126-18.393h49.466a.7.7,0,0,1,0,1.393H558.68a10.593,10.593,0,0,0-8.951,16.259l8.333,13.167a.7.7,0,0,1-.215.959A.71.71,0,0,1,557.475,1215.114Z" transform="translate(-546.671 -1183.23)" fill="#010d4f"/>
    </g>
    <g id="Grupo_1010020" data-name="Grupo 1010020" transform="translate(259.729 612.429)">
      <path id="Trazado_735529" data-name="Trazado 735529" d="M751.905,1417.8H673.672a11.925,11.925,0,0,1-10.126-5.576l-6.834-10.8a.7.7,0,1,1,1.175-.744l6.834,10.8a10.54,10.54,0,0,0,8.951,4.93h78.236a10.593,10.593,0,0,0,8.951-16.259l-2.178-3.438a.7.7,0,1,1,1.175-.744l2.178,3.438a11.983,11.983,0,0,1-10.128,18.393Z" transform="translate(-656.604 -1395.644)" fill="#010d4f"/>
    </g>
    <g id="Grupo_1010021" data-name="Grupo 1010021" transform="translate(372.686 370.466)">
      <path id="Trazado_735530" data-name="Trazado 735530" d="M1157.307,474.258H1122.87a5.641,5.641,0,0,1-4.788-2.636L1103.6,448.745a5.666,5.666,0,0,1,4.786-8.7h34.439a5.633,5.633,0,0,1,4.786,2.636l14.478,22.877a5.666,5.666,0,0,1-4.786,8.7Zm-48.914-32.813a4.273,4.273,0,0,0-3.611,6.558l14.478,22.877a4.257,4.257,0,0,0,3.611,1.988h34.436a4.273,4.273,0,0,0,3.611-6.558l-12.756-20.155-1.722-2.722a4.257,4.257,0,0,0-3.611-1.988Z" transform="translate(-1102.714 -440.05)" fill="#010d4f"/>
    </g>
    <g id="Grupo_1010022" data-name="Grupo 1010022" transform="translate(372.686 370.466)">
      <path id="Trazado_735531" data-name="Trazado 735531" d="M1157.307,474.258H1122.87a5.641,5.641,0,0,1-4.788-2.636L1103.6,448.745a5.666,5.666,0,0,1,4.786-8.7h34.439a5.633,5.633,0,0,1,4.786,2.636l14.478,22.877a5.666,5.666,0,0,1-4.786,8.7Zm-48.914-32.813a4.273,4.273,0,0,0-3.611,6.558l14.478,22.877a4.257,4.257,0,0,0,3.611,1.988h34.436a4.273,4.273,0,0,0,3.611-6.558l-12.756-20.155-1.722-2.722a4.257,4.257,0,0,0-3.611-1.988Z" transform="translate(-1102.714 -440.05)" fill="#010d4f"/>
    </g>
    <g id="Grupo_1010023" data-name="Grupo 1010023" transform="translate(363.897 503.232)">
      <path id="Trazado_735532" data-name="Trazado 735532" d="M1093.434,998.6h-5.277a5.633,5.633,0,0,1-4.786-2.636l-14.478-22.877a5.664,5.664,0,0,1,4.786-8.7h34.436a5.641,5.641,0,0,1,4.788,2.636l1.722,2.722a.7.7,0,0,1-1.175.744l-1.722-2.722a4.257,4.257,0,0,0-3.611-1.988h-34.436a4.272,4.272,0,0,0-3.608,6.558l14.479,22.877a4.254,4.254,0,0,0,3.611,1.988h5.277a.7.7,0,0,1,.7.7A.7.7,0,0,1,1093.434,998.6Z" transform="translate(-1068.002 -964.39)" fill="#010d4f"/>
    </g>
    <g id="Grupo_1010024" data-name="Grupo 1010024" transform="translate(399.946 508.266)">
      <path id="Trazado_735533" data-name="Trazado 735533" d="M1228.915,1013.444h-17.849a.7.7,0,0,1,0-1.393h17.849a4.274,4.274,0,0,0,3.611-6.558l-12.757-20.155a.7.7,0,1,1,1.175-.744l12.757,20.155a5.666,5.666,0,0,1-4.786,8.7Z" transform="translate(-1210.37 -984.27)" fill="#010d4f"/>
    </g>
    <g id="Grupo_1010025" data-name="Grupo 1010025" transform="translate(387.117 452.852)">
      <path id="Trazado_735534" data-name="Trazado 735534" d="M1228.058,796.144h-52.082a9.529,9.529,0,0,1-8.095-4.456L1161.2,780.1a9.579,9.579,0,0,1,8.11-14.678h61.572a9.535,9.535,0,0,1,8.095,4.456l6.685,11.589a9.392,9.392,0,0,1,.615,9.052.7.7,0,1,1-1.266-.575,8.054,8.054,0,0,0-.539-7.756l-6.685-11.589a8.143,8.143,0,0,0-6.905-3.785h-61.572a8.188,8.188,0,0,0-6.92,12.567l6.685,11.589a8.136,8.136,0,0,0,6.9,3.785h52.082a.7.7,0,1,1,0,1.39Z" transform="translate(-1159.703 -765.42)" fill="#010d4f"/>
    </g>
    <g id="Grupo_1010029" data-name="Grupo 1010029" transform="translate(448.986 471.776)">
      <g id="Grupo_1010026" data-name="Grupo 1010026" transform="translate(0)">
        <path id="Trazado_735535" data-name="Trazado 735535" d="M1434.232,880.915a.724.724,0,0,1-.289-.063,43.412,43.412,0,0,0-5.13-1.517c-6.844-1.79-9.776-5.272-12.615-8.642l-.942-1.112a32.067,32.067,0,0,0-2.459-2.448c-2.109-1.962-4.1-3.813-4.087-6.016a4.523,4.523,0,0,1,1.775-3.327,3.893,3.893,0,0,1,2.947-1.02c3.244.187,6.728,3.75,8.077,5.274a31.557,31.557,0,0,0,3.185,3.185c-1.165-1.5-3.537-3.884-5.257-5.611l-1.509-1.522a78.256,78.256,0,0,0-7.482-6.026,50.086,50.086,0,0,1-5.687-4.588c-.993-1.132-.947-3.069.109-4.816a4.581,4.581,0,0,1,4.948-2.388c3.426.826,7.725,4.568,10.035,6.576.365.316.663.58.881.76.028-.028.058-.053.086-.081a6.147,6.147,0,0,1,3.358-1.752c4.1-.706,6.353.342,7.257.942a5.64,5.64,0,0,1,3.859-.79,19.384,19.384,0,0,1,3.35,1.01.7.7,0,1,1-.56,1.274,18.037,18.037,0,0,0-3.041-.914,4.5,4.5,0,0,0-3.2.823.7.7,0,0,1-.932-.056c-.01-.013-1.843-1.714-6.5-.914a4.768,4.768,0,0,0-2.641,1.4c-.362.337-.9.851-1.53.438-.215-.144-.676-.539-1.3-1.084-2.061-1.8-6.353-5.528-9.447-6.272a3.231,3.231,0,0,0-3.428,1.755c-.719,1.19-.825,2.524-.253,3.178a51.626,51.626,0,0,0,5.474,4.391,78.974,78.974,0,0,1,7.642,6.166l1.5,1.517c3.841,3.856,6.186,6.292,6.348,7.584a.98.98,0,0,1-.527,1.117c-.332.157-1.36.625-5.781-4.37-2.567-2.9-5.226-4.7-7.113-4.806a2.59,2.59,0,0,0-1.94.663,3.249,3.249,0,0,0-1.312,2.3c-.013,1.588,1.762,3.238,3.641,4.983a33.094,33.094,0,0,1,2.565,2.56l.954,1.124c2.818,3.35,5.482,6.512,11.9,8.191a41.847,41.847,0,0,1,5.36,1.6.7.7,0,0,1,.337.927A.714.714,0,0,1,1434.232,880.915Z" transform="translate(-1404.047 -840.158)" fill="#010d4f"/>
      </g>
      <g id="Grupo_1010027" data-name="Grupo 1010027" transform="translate(15.877 7.55)">
        <path id="Trazado_735536" data-name="Trazado 735536" d="M1476.579,880.007a.7.7,0,0,1-.58-.309c-2.165-3.256-8.905-8.419-8.976-8.472a.7.7,0,1,1,.846-1.107c.284.218,7,5.358,9.288,8.807a.695.695,0,0,1-.577,1.081Z" transform="translate(-1466.75 -869.977)" fill="#010d4f"/>
      </g>
      <g id="Grupo_1010028" data-name="Grupo 1010028" transform="translate(26.658 6.722)">
        <path id="Trazado_735537" data-name="Trazado 735537" d="M1516.547,873.732a.683.683,0,0,1-.509-.223,54.017,54.017,0,0,0-6.424-5.543.7.7,0,0,1,.82-1.127,54.438,54.438,0,0,1,6.621,5.72.7.7,0,0,1-.033.985A.708.708,0,0,1,1516.547,873.732Z" transform="translate(-1509.328 -866.707)" fill="#010d4f"/>
      </g>
    </g>
    <g id="Grupo_1010030" data-name="Grupo 1010030" transform="translate(251.027 657.947)">
      <path id="Trazado_735538" data-name="Trazado 735538" d="M963.773,1576.8H622.936a.7.7,0,1,1,0-1.393H963.77a.7.7,0,0,1,0,1.393Z" transform="translate(-622.24 -1575.41)" fill="#010d4f"/>
    </g>
    <g id="Grupo_1010031" data-name="Grupo 1010031" transform="translate(403.594 460.547)">
      <path id="Trazado_735539" data-name="Trazado 735539" d="M1277.047,797.2h-51.571a.7.7,0,1,1,0-1.393h51.571a.7.7,0,1,1,0,1.393Z" transform="translate(-1224.78 -795.81)" fill="#010d4f"/>
    </g>
    <g id="Grupo_1010032" data-name="Grupo 1010032" transform="translate(408.788 469.964)">
      <path id="Trazado_735540" data-name="Trazado 735540" d="M1297.554,834.393h-51.568a.7.7,0,0,1,0-1.393h51.568a.7.7,0,1,1,0,1.393Z" transform="translate(-1245.29 -833)" fill="#010d4f"/>
    </g>
    <g id="Grupo_1010033" data-name="Grupo 1010033" transform="translate(283.957 517.24)">
      <path id="Trazado_735541" data-name="Trazado 735541" d="M804.554,1021.1H752.986a.7.7,0,0,1,0-1.393h51.568a.7.7,0,0,1,0,1.393Z" transform="translate(-752.29 -1019.71)" fill="#010d4f"/>
    </g>
    <g id="Grupo_1010034" data-name="Grupo 1010034" transform="translate(289.148 526.657)">
      <path id="Trazado_735542" data-name="Trazado 735542" d="M825.057,1058.293H773.486a.7.7,0,1,1,0-1.393h51.571a.7.7,0,0,1,0,1.393Z" transform="translate(-772.79 -1056.9)" fill="#010d4f"/>
    </g>
    <g id="Grupo_1010035" data-name="Grupo 1010035" transform="translate(308.822 558.642)">
      <path id="Trazado_735543" data-name="Trazado 735543" d="M902.757,1184.613H851.186a.7.7,0,0,1,0-1.393h51.571a.7.7,0,0,1,0,1.393Z" transform="translate(-850.49 -1183.22)" fill="#010d4f"/>
    </g>
    <g id="Grupo_1010036" data-name="Grupo 1010036" transform="translate(314.013 568.058)">
      <path id="Trazado_735544" data-name="Trazado 735544" d="M923.257,1221.8H871.686a.7.7,0,0,1,0-1.393h51.571a.7.7,0,0,1,0,1.393Z" transform="translate(-870.99 -1220.41)" fill="#010d4f"/>
    </g>
    <g id="Grupo_1010037" data-name="Grupo 1010037" transform="translate(214.373 390.477)">
      <path id="Trazado_735545" data-name="Trazado 735545" d="M580.533,520.473H478.176a.7.7,0,1,1,0-1.393H580.533a.7.7,0,1,1,0,1.393Z" transform="translate(-477.48 -519.08)" fill="#010d4f"/>
    </g>
    <g id="Grupo_1010038" data-name="Grupo 1010038" transform="translate(283.858 408.47)">
      <path id="Trazado_735546" data-name="Trazado 735546" d="M796.669,591.533H752.6a.7.7,0,1,1,0-1.393h44.073a.7.7,0,1,1,0,1.393Z" transform="translate(-751.9 -590.14)" fill="#010d4f"/>
    </g>
    <g id="Grupo_1010039" data-name="Grupo 1010039" transform="translate(293.207 422.847)">
      <path id="Trazado_735547" data-name="Trazado 735547" d="M833.589,648.313H789.516a.7.7,0,1,1,0-1.393h44.071a.7.7,0,0,1,0,1.393Z" transform="translate(-788.82 -646.92)" fill="#010d4f"/>
    </g>
    <g id="Grupo_1010040" data-name="Grupo 1010040" transform="translate(302.043 437.224)">
      <path id="Trazado_735548" data-name="Trazado 735548" d="M868.489,705.093H824.416a.7.7,0,1,1,0-1.393h44.071a.7.7,0,0,1,0,1.393Z" transform="translate(-823.72 -703.7)" fill="#010d4f"/>
    </g>
    <g id="Grupo_1010041" data-name="Grupo 1010041" transform="translate(491.797 481.408)">
      <path id="Trazado_735549" data-name="Trazado 735549" d="M1588.314,910.519a18.732,18.732,0,0,1-3.059-.263c-6.049-1.013-12.412-5.819-12.123-16.269a18.339,18.339,0,0,1,9.665-15.727.7.7,0,0,1,.587,1.261,16.63,16.63,0,0,0-8.86,14.5c-.329,12.027,8.308,14.412,10.961,14.858,8.052,1.339,11.068-3.3,11.192-3.5a.7.7,0,0,1,1.185.732C1597.736,906.318,1595.07,910.519,1588.314,910.519Z" transform="translate(-1573.123 -878.196)" fill="#010d4f"/>
    </g>
    <g id="Grupo_1010042" data-name="Grupo 1010042" transform="translate(487.462 431.952)">
      <path id="Trazado_735550" data-name="Trazado 735550" d="M1597.729,767.928c-6.366,0-12.5-2.033-15.727-5.239a.695.695,0,0,1,.98-.985c3.054,3.028,8.933,4.907,15.187,4.829,5.5-.086,10.2-1.762,12.893-4.6,3.079-3.251,4.674-8.736,4.378-15.043a22.667,22.667,0,0,0-2.35-9.518c-1.155-2.2-2.983-3.664-4.922-5.216a32.237,32.237,0,0,1-3.38-2.985,5.156,5.156,0,0,1-1.653-3.13c-.089-1.59.843-3.332,1.593-4.73.149-.279.294-.547.42-.8l.547-1.071a42.509,42.509,0,0,0,1.975-4.211,22,22,0,0,0,1.377-11.777c-1.471-8.156-16.484-11.521-16.636-11.554a.7.7,0,0,1-.314-.16c-7.156-6.355-19.715-10.093-28.354-5.34-8.3,4.565-6.1,14.486-6.08,14.587.013.585.043,10.422,15.344,16.223a.7.7,0,1,1-.494,1.3c-15.7-5.955-16.218-16.18-16.226-17.3-.208-1.046-1.988-11.207,6.786-16.033,9.12-5.018,22.272-1.2,29.813,5.4,1.854.428,15.97,3.97,17.532,12.627a23.348,23.348,0,0,1-1.448,12.521,43.6,43.6,0,0,1-2.036,4.353l-.544,1.064c-.132.258-.279.537-.436.828-.668,1.243-1.5,2.793-1.431,3.993a3.961,3.961,0,0,0,1.276,2.256,31.006,31.006,0,0,0,3.236,2.854,18.46,18.46,0,0,1,5.285,5.657,23.98,23.98,0,0,1,2.509,10.1c.185,3.927-.187,11.237-4.758,16.063-2.947,3.112-8.006,4.95-13.883,5.039C1598.035,767.928,1597.881,767.928,1597.729,767.928Z" transform="translate(-1556.004 -682.878)" fill="#010d4f"/>
    </g>
    <path id="Trazado_735551" data-name="Trazado 735551" d="M837.614,474.34c-1.486,1.233-4.1.529-5.849-1.572s-1.955-4.806-.471-6.039,4.1-.529,5.849,1.572S839.1,473.107,837.614,474.34Z" transform="translate(-526.595 -89.054)" fill="#ff6e23"/>
    <g id="Grupo_1010043" data-name="Grupo 1010043" transform="translate(289.225 376.371)">
      <path id="Trazado_735552" data-name="Trazado 735552" d="M779.3,473.592a4.665,4.665,0,0,1-1.223-.17,6.8,6.8,0,0,1-3.375-2.264c-1.988-2.4-2.157-5.543-.38-7.019a3.732,3.732,0,0,1,3.451-.6,6.8,6.8,0,0,1,3.375,2.264c1.988,2.4,2.157,5.543.38,7.019A3.429,3.429,0,0,1,779.3,473.592Zm-2.745-8.829a2.068,2.068,0,0,0-1.347.448c-1.167.97-.912,3.287.56,5.059a5.4,5.4,0,0,0,2.666,1.81,2.387,2.387,0,0,0,2.2-.327c1.167-.97.911-3.287-.56-5.059a5.4,5.4,0,0,0-2.666-1.81A3.14,3.14,0,0,0,776.557,464.763Z" transform="translate(-773.094 -463.371)" fill="#010d4f"/>
    </g>
    <g id="Grupo_1010044" data-name="Grupo 1010044" transform="translate(377.095 468.491)">
      <path id="Trazado_735553" data-name="Trazado 735553" d="M1126.334,837.4a4.713,4.713,0,0,1-1.225-.17,6.8,6.8,0,0,1-3.375-2.264c-1.988-2.393-2.157-5.543-.38-7.019a3.739,3.739,0,0,1,3.451-.6,6.784,6.784,0,0,1,3.375,2.266c1.988,2.393,2.157,5.543.38,7.019A3.424,3.424,0,0,1,1126.334,837.4Zm-2.745-8.829a2.065,2.065,0,0,0-1.344.448c-1.167.97-.912,3.287.56,5.059a5.4,5.4,0,0,0,2.666,1.81,2.4,2.4,0,0,0,2.2-.327c1.167-.97.911-3.287-.56-5.059a5.4,5.4,0,0,0-2.666-1.81A3.167,3.167,0,0,0,1123.589,828.575Z" transform="translate(-1120.124 -827.183)" fill="#010d4f"/>
    </g>
    <g id="Grupo_1010045" data-name="Grupo 1010045" transform="translate(247.008 488.218)">
      <path id="Trazado_735554" data-name="Trazado 735554" d="M616.434,916.06c-1.486,1.233-4.1.529-5.849-1.572s-1.955-4.806-.471-6.039,4.1-.529,5.849,1.573S617.918,914.827,616.434,916.06Z" transform="translate(-608.427 -907.145)" fill="#fff"/>
      <path id="Trazado_735555" data-name="Trazado 735555" d="M612.6,915.3a6.271,6.271,0,0,1-4.608-2.421,6.777,6.777,0,0,1-1.605-3.737,3.524,3.524,0,0,1,4.679-3.882,7.179,7.179,0,0,1,4.981,6,3.741,3.741,0,0,1-1.226,3.284A3.409,3.409,0,0,1,612.6,915.3Zm-2.75-8.817a2.068,2.068,0,0,0-1.347.448,2.4,2.4,0,0,0-.727,2.1,5.411,5.411,0,0,0,1.289,2.955c1.474,1.772,3.7,2.448,4.869,1.481a2.4,2.4,0,0,0,.727-2.1A5.8,5.8,0,0,0,610.7,906.6,3.376,3.376,0,0,0,609.847,906.484Z" transform="translate(-606.368 -905.092)" fill="#010d4f"/>
    </g>
    <g id="Grupo_1010046" data-name="Grupo 1010046" transform="translate(125.165 484.734)">
      <path id="Trazado_735556" data-name="Trazado 735556" d="M139.847,915.059c-3.618,0-7.751-2.053-10.827-5.758a16.093,16.093,0,0,1-3.818-8.86,7.861,7.861,0,0,1,10.5-8.718,16.129,16.129,0,0,1,8,5.386c4.654,5.606,5.148,12.9,1.1,16.266A7.621,7.621,0,0,1,139.847,915.059Zm-6.951-22.33a6.26,6.26,0,0,0-4.084,1.38,7.091,7.091,0,0,0-2.223,6.226,14.754,14.754,0,0,0,3.5,8.077c4.168,5.016,10.369,6.758,13.825,3.892s2.884-9.288-1.281-14.306a14.727,14.727,0,0,0-7.295-4.93A9.394,9.394,0,0,0,132.9,892.729Z" transform="translate(-125.165 -891.335)" fill="#010d4f"/>
    </g>
    <g id="Grupo_1010047" data-name="Grupo 1010047" transform="translate(309.008 346.873)">
      <path id="Trazado_735557" data-name="Trazado 735557" d="M865.907,370.6c-3.618,0-7.751-2.054-10.827-5.758a16.112,16.112,0,0,1-3.818-8.857,7.861,7.861,0,0,1,10.5-8.72,16.123,16.123,0,0,1,8,5.383c4.654,5.606,5.148,12.9,1.1,16.266A7.621,7.621,0,0,1,865.907,370.6Zm-6.953-22.33a6.272,6.272,0,0,0-4.084,1.377,7.089,7.089,0,0,0-2.223,6.229,14.734,14.734,0,0,0,3.5,8.077c4.165,5.016,10.366,6.758,13.825,3.892s2.884-9.288-1.281-14.3a14.727,14.727,0,0,0-7.292-4.93A9.434,9.434,0,0,0,858.954,348.267Z" transform="translate(-851.225 -346.873)" fill="#010d4f"/>
    </g>
    <g id="Grupo_1010048" data-name="Grupo 1010048" transform="translate(230.869 601.985)">
      <path id="Trazado_735558" data-name="Trazado 735558" d="M548.857,1364.6a6.267,6.267,0,0,1-4.608-2.421,6.8,6.8,0,0,1-1.605-3.735,3.74,3.74,0,0,1,1.225-3.284c1.78-1.481,4.844-.729,6.829,1.664a6.8,6.8,0,0,1,1.605,3.735,3.74,3.74,0,0,1-1.226,3.284A3.422,3.422,0,0,1,548.857,1364.6Zm-2.757-8.812a2.067,2.067,0,0,0-1.339.443,2.4,2.4,0,0,0-.727,2.1,5.393,5.393,0,0,0,1.289,2.955c1.474,1.775,3.7,2.446,4.869,1.481a2.4,2.4,0,0,0,.727-2.1,5.394,5.394,0,0,0-1.289-2.955A4.932,4.932,0,0,0,546.1,1355.786Z" transform="translate(-542.628 -1354.398)" fill="#010d4f"/>
    </g>
    <g id="Grupo_1010049" data-name="Grupo 1010049" transform="translate(351.407 520.624)">
      <path id="Trazado_735559" data-name="Trazado 735559" d="M1024.9,1043.273a6.267,6.267,0,0,1-4.608-2.421,6.488,6.488,0,0,1-1.6-4.565,3.509,3.509,0,0,1,1.223-2.454c1.78-1.479,4.844-.727,6.829,1.664a6.8,6.8,0,0,1,1.605,3.735,3.739,3.739,0,0,1-1.226,3.284A3.437,3.437,0,0,1,1024.9,1043.273Zm-2.757-8.814a2.068,2.068,0,0,0-1.339.443,2.2,2.2,0,0,0-.727,1.511,5.1,5.1,0,0,0,1.286,3.548c1.471,1.772,3.7,2.448,4.869,1.481a2.4,2.4,0,0,0,.727-2.1,5.411,5.411,0,0,0-1.289-2.955A4.932,4.932,0,0,0,1022.143,1034.459Z" transform="translate(-1018.672 -1033.075)" fill="#010d4f"/>
    </g>
    <g id="Grupo_1010050" data-name="Grupo 1010050" transform="translate(275.744 376.381)">
      <path id="Trazado_735560" data-name="Trazado 735560" d="M726.072,473.61a6.271,6.271,0,0,1-4.608-2.421c-1.988-2.4-2.157-5.543-.38-7.019s4.841-.732,6.829,1.664,2.157,5.543.38,7.019A3.417,3.417,0,0,1,726.072,473.61Zm-2.757-8.814a2.054,2.054,0,0,0-1.339.443c-1.167.97-.911,3.287.56,5.059s3.707,2.448,4.869,1.481.912-3.287-.56-5.059A4.946,4.946,0,0,0,723.314,464.8Z" transform="translate(-719.854 -463.41)" fill="#010d4f"/>
    </g>
    <g id="Grupo_1010051" data-name="Grupo 1010051" transform="translate(342.807 473.521)">
      <path id="Trazado_735561" data-name="Trazado 735561" d="M993.295,893.858a.692.692,0,0,1-.575-.3,47.281,47.281,0,0,1-3.95-7.1.7.7,0,0,1,1.269-.57,45.8,45.8,0,0,0,3.831,6.895.7.7,0,0,1-.185.967A.71.71,0,0,1,993.295,893.858Zm-6.55-14.547a.7.7,0,0,1-.673-.522,46.628,46.628,0,0,1-1.357-8.011.694.694,0,0,1,.638-.75.7.7,0,0,1,.75.638,45.145,45.145,0,0,0,1.317,7.771.694.694,0,0,1-.5.848A.6.6,0,0,1,986.744,879.311Zm-1.162-15.879a.561.561,0,0,1-.144-.015.692.692,0,0,1-.537-.823,13.459,13.459,0,0,1,4.175-7.148.7.7,0,1,1,.944,1.02,12.1,12.1,0,0,0-3.76,6.414A.688.688,0,0,1,985.582,863.432Zm10.754-10.966a.7.7,0,0,1-.268-1.337,45.4,45.4,0,0,1,7.776-2.4.7.7,0,1,1,.3,1.357,44.176,44.176,0,0,0-7.538,2.324A.685.685,0,0,1,996.336,852.466Zm15.582-3.608a.7.7,0,0,1-.071-1.39c3.7-.377,6.6-.418,7.68-.418l.436,0a.7.7,0,0,1-.018,1.393l-.418,0c-1.056,0-3.9.041-7.538.413Z" transform="translate(-984.711 -847.05)" fill="#010d4f"/>
    </g>
    <g id="Grupo_1010052" data-name="Grupo 1010052" transform="translate(155.482 494.114)">
      <path id="Trazado_735562" data-name="Trazado 735562" d="M333.735,929.773h-8.011a.7.7,0,0,1,0-1.393h8.011a.7.7,0,0,1,0,1.393Zm-16.025,0H309.7a.7.7,0,1,1,0-1.393h8.011a.7.7,0,0,1,0,1.393Zm-16.023,0h-8.014a.7.7,0,1,1,0-1.393h8.014a.7.7,0,0,1,0,1.393Zm-16.025,0H277.65a.7.7,0,0,1,0-1.393h8.011a.7.7,0,0,1,0,1.393Zm-16.025,0h-8.011a.7.7,0,0,1,0-1.393h8.011a.7.7,0,0,1,0,1.393Zm-16.025,0H245.6a.7.7,0,0,1,0-1.393h8.014a.7.7,0,0,1,0,1.393Z" transform="translate(-244.9 -928.38)" fill="#010d4f"/>
    </g>
    <g id="Grupo_1010053" data-name="Grupo 1010053" transform="translate(204.665 606.389)">
      <path id="Trazado_735563" data-name="Trazado 735563" d="M462.081,1373.183h-8.011a.7.7,0,1,1,0-1.393h8.011a.7.7,0,0,1,0,1.393Zm-16.025,0h-6.219a.7.7,0,0,1,0-1.393h6.219a.7.7,0,0,1,0,1.393Z" transform="translate(-439.14 -1371.79)" fill="#010d4f"/>
    </g>
    <g id="Grupo_1010054" data-name="Grupo 1010054" transform="translate(143.297 509.426)">
      <path id="Trazado_735564" data-name="Trazado 735564" d="M258.842,1087.205a.7.7,0,0,1-.59-.324l-1.38-2.18a.7.7,0,0,1,1.175-.745l1.38,2.18a.7.7,0,0,1-.215.96A.662.662,0,0,1,258.842,1087.205Zm-5.664-8.951a.7.7,0,0,1-.59-.324l-4.287-6.768a.7.7,0,0,1,1.175-.744l4.287,6.768a.7.7,0,0,1-.215.96A.661.661,0,0,1,253.177,1078.255Zm-8.571-13.539a.7.7,0,0,1-.59-.324l-4.284-6.768a.7.7,0,1,1,1.175-.744l4.284,6.768a.7.7,0,0,1-.215.96A.682.682,0,0,1,244.606,1064.716Zm-8.569-13.542a.7.7,0,0,1-.59-.324l-4.284-6.768a.7.7,0,0,1,1.175-.744l4.284,6.768a.7.7,0,0,1-.215.96A.661.661,0,0,1,236.038,1051.174Zm-8.571-13.541a.7.7,0,0,1-.59-.324l-4.284-6.771a.7.7,0,0,1,1.175-.744l4.284,6.771a.7.7,0,0,1-.215.96A.661.661,0,0,1,227.467,1037.633Zm-8.571-13.539a.7.7,0,0,1-.59-.324L214.022,1017a.7.7,0,0,1,1.175-.745l4.284,6.771a.7.7,0,0,1-.215.96A.684.684,0,0,1,218.9,1024.094Zm-8.569-13.541a.7.7,0,0,1-.59-.324l-4.284-6.771a.7.7,0,1,1,1.175-.744l4.284,6.771a.7.7,0,0,1-.215.96A.661.661,0,0,1,210.327,1010.552Zm-8.571-13.539a.7.7,0,0,1-.59-.324l-4.284-6.771a.7.7,0,0,1,1.175-.744l4.284,6.771a.7.7,0,0,1-.215.96A.682.682,0,0,1,201.756,997.013Z" transform="translate(-196.774 -988.85)" fill="#010d4f"/>
    </g>
    <g id="Grupo_1010055" data-name="Grupo 1010055" transform="translate(276.1 569.104)">
      <path id="Trazado_735565" data-name="Trazado 735565" d="M729,1262.1c-1.261,0-5.135-.195-6.882-2.481a5.046,5.046,0,0,1-.481-4.846l12.07-27.318a6.317,6.317,0,0,1,3.953-2.806c1.874-.38,3.884.218,5.976,1.755l6.882,6.2a.7.7,0,1,1-.932,1.033l-6.829-6.151a6.206,6.206,0,0,0-4.824-1.469,4.94,4.94,0,0,0-2.993,2.081l-12,27.174a3.7,3.7,0,0,0,.286,3.5c1.621,2.122,6.09,1.929,6.145,1.929h39.834a.7.7,0,1,1,0,1.393h-39.8C729.379,1262.1,729.235,1262.1,729,1262.1Z" transform="translate(-721.259 -1224.542)" fill="#010d4f"/>
    </g>
    <g id="Grupo_1010056" data-name="Grupo 1010056" transform="translate(242.898 398.183)">
      <path id="Trazado_735566" data-name="Trazado 735566" d="M620.153,597.237a.691.691,0,0,1-.587-.324l-29.324-46.334a.7.7,0,1,1,1.175-.744l29.324,46.334a.7.7,0,0,1-.587,1.069Z" transform="translate(-590.134 -549.513)" fill="#010d4f"/>
    </g>
    <g id="Grupo_1010057" data-name="Grupo 1010057" transform="translate(327.565 368.214)">
      <path id="Trazado_735567" data-name="Trazado 735567" d="M965.806,452.216c-15.162,0-28.949-6.662-41.111-19.894a.694.694,0,1,1,1.023-.939c14.613,15.9,31.6,22.095,50.5,18.408a.7.7,0,0,1,.268,1.367A55.934,55.934,0,0,1,965.806,452.216Z" transform="translate(-924.511 -431.156)" fill="#010d4f"/>
    </g>
    <g id="Grupo_1010058" data-name="Grupo 1010058" transform="translate(474.215 405.233)">
      <path id="Trazado_735568" data-name="Trazado 735568" d="M1513.25,592.927a7.225,7.225,0,0,1-1.853-.256,11.111,11.111,0,0,1-7.687-9.262,5.239,5.239,0,0,1,6.983-5.8,11.108,11.108,0,0,1,7.69,9.262,5.592,5.592,0,0,1-1.818,4.915A5.1,5.1,0,0,1,1513.25,592.927Zm-4.406-14.18a3.734,3.734,0,0,0-2.431.815,4.256,4.256,0,0,0-1.319,3.737,9.727,9.727,0,0,0,6.662,8.027,3.861,3.861,0,0,0,5.234-4.343,9.726,9.726,0,0,0-6.662-8.027A5.6,5.6,0,0,0,1508.845,578.748Z" transform="translate(-1503.686 -577.357)" fill="#010d4f"/>
    </g>
    <g id="Grupo_1010059" data-name="Grupo 1010059" transform="translate(425.097 385.261)">
      <path id="Trazado_735569" data-name="Trazado 735569" d="M1361.351,519.878a.694.694,0,0,1-.516-.23c-14.742-16.342-31.2-22.477-50.3-18.755a.694.694,0,0,1-.818-.549.7.7,0,0,1,.55-.818c19.348-3.768,36.715,2.687,51.6,19.19a.7.7,0,0,1-.051.982A.681.681,0,0,1,1361.351,519.878Z" transform="translate(-1309.699 -498.482)" fill="#010d4f"/>
    </g>
    <g id="Grupo_1010060" data-name="Grupo 1010060" transform="translate(426.834 611.754)">
      <path id="Trazado_735570" data-name="Trazado 735570" d="M1317.257,1407.985a.712.712,0,0,1-.266-.053.7.7,0,0,1-.377-.909c3.573-8.662,12.3-14.043,22.768-14.043,10.093,0,18.745,5.221,22.573,13.628a.7.7,0,0,1-1.266.577c-3.6-7.9-11.767-12.812-21.307-12.812-9.9,0-18.127,5.052-21.482,13.185A.7.7,0,0,1,1317.257,1407.985Z" transform="translate(-1316.561 -1392.98)" fill="#010d4f"/>
    </g>
  </g>
</svg>
