<svg xmlns="http://www.w3.org/2000/svg" xmlns:xlink="http://www.w3.org/1999/xlink" width="110" height="110" viewBox="0 0 110 110">
  <defs>
    <filter id="Elipse_4254" x="0" y="0" width="110" height="110" filterUnits="userSpaceOnUse">
      <feOffset dy="3" input="SourceAlpha"/>
      <feGaussianBlur stdDeviation="3" result="blur"/>
      <feFlood flood-opacity="0.161"/>
      <feComposite operator="in" in2="blur"/>
      <feComposite in="SourceGraphic"/>
    </filter>
  </defs>
  <g id="Grupo_58955" data-name="Grupo 58955" transform="translate(-1165 -1742)">
    <g transform="matrix(1, 0, 0, 1, 1165, 1742)" filter="url(#Elipse_4254)">
      <g id="Elipse_4254-2" data-name="Elipse 4254" transform="translate(9 6)" fill="#fff" stroke="#ea526f" stroke-width="3">
        <circle cx="46" cy="46" r="46" stroke="none"/>
        <circle cx="46" cy="46" r="44.5" fill="none"/>
      </g>
    </g>
    <g id="Grupo_58933" data-name="Grupo 58933" transform="translate(632.001 1744.001)">
      <path id="Trazado_115425" data-name="Trazado 115425" d="M841.729,144.08l-4.245-4.244,10.883-9.327,2.689,2.689Z" transform="translate(-247.173 -96.656)" fill="#e5dcde"/>
      <path id="Trazado_115426" data-name="Trazado 115426" d="M868.486,130.508l-1.777,1.523,1.165,1.166-7.8,9.106,1.777,1.777,9.328-10.883Z" transform="translate(-267.292 -96.656)" fill="#b4b4b4"/>
      <path id="Trazado_115427" data-name="Trazado 115427" d="M779.984,178.176l8.79,8.79L782.2,193.54l-8.79-8.79Z" transform="translate(-190.098 -139.117)" fill="#e5dcde"/>
      <path id="Trazado_115428" data-name="Trazado 115428" d="M820.127,178.18l-1.65,1.65,7.14,7.14-4.923,4.923,1.65,1.65,6.573-6.574Z" transform="translate(-230.242 -139.12)" fill="#b4b4b4"/>
      <path id="Trazado_115429" data-name="Trazado 115429" d="M591.218,197.875l12.23,12.23-23.662,23.662-12.23-12.23Z" transform="translate(-6.73 -156.664)" fill="#dc8839"/>
      <path id="Trazado_115430" data-name="Trazado 115430" d="M677.485,197.875l-1.651,1.65,10.58,10.58L664.4,232.117l1.65,1.65,23.663-23.662Z" transform="translate(-92.998 -156.664)" fill="#ac5a28"/>
      <path id="Trazado_115431" data-name="Trazado 115431" d="M652.732,276.582l12.23,12.23-6.467,6.467-12.23-12.23Z" transform="translate(-76.843 -226.773)" fill="#f8c091"/>
      <path id="Trazado_115432" data-name="Trazado 115432" d="M692.006,276.586l-1.65,1.65,10.579,10.579-4.816,4.817,1.65,1.65,6.467-6.467Z" transform="translate(-116.117 -226.776)" fill="#e19a57"/>
      <path id="Trazado_115433" data-name="Trazado 115433" d="M991.54,73.245a2.61,2.61,0,1,1,2.13,4.765c-1.316.588-6.435.018-6.435.018S990.224,73.832,991.54,73.245Z" transform="translate(-380.564 -45.445)" fill="#ffe999"/>
      <path id="Trazado_115434" data-name="Trazado 115434" d="M936.512,31.636a2.1,2.1,0,0,1,4.193.031c-.009,1.158-2.132,4.711-2.132,4.711S936.5,32.794,936.512,31.636Z" transform="translate(-335.383 -6.73)" fill="#ffe999"/>
      <path id="Trazado_115435" data-name="Trazado 115435" d="M601.778,107.8a.826.826,0,0,0-1.121-.043l-.275.236a9.061,9.061,0,0,0-15.119,6.739q0,.322.023.643l-.215-.216a.826.826,0,0,0-1.167,0l-3.938,3.938a.825.825,0,1,0,1.167,1.167l3.354-3.354,9.586,9.587a.818.818,0,0,0,.487.487l.989.99-7.431,7.431-11.063-11.063,1.436-1.436a.825.825,0,0,0-1.167-1.167l-2.02,2.02h0l-1.23,1.23-13.835,13.835a.825.825,0,0,0,0,1.167l12.23,12.23a.826.826,0,0,0,1.167,0l2.856-2.856a.825.825,0,1,0-1.167-1.167l-2.273,2.273-11.063-11.063,7.431-7.431,11.063,11.063-2.3,2.3a.825.825,0,0,0,1.167,1.167l2.881-2.882,6.467-6.467h0l8.6-8.6a.825.825,0,0,0,0-1.167l-1.233-1.233,3.191-3.191a.825.825,0,0,0,0-1.167l-1.875-1.875,7.125-8.314a.825.825,0,0,0-.043-1.121Zm-31.188,23.007,5.3-5.3,11.063,11.063-5.3,5.3Zm23.735-23.487a7.355,7.355,0,0,1,4.791,1.758l-6.772,5.8-1.875-1.875a.825.825,0,0,0-1.167,0l-2.361,2.361c-.018-.211-.027-.424-.027-.637A7.42,7.42,0,0,1,594.325,107.322Zm.576,17.669-7.623-7.623,2.608-2.608,7.623,7.624Zm1.313-6.236-2.7-2.7,7.637-6.546,1.608,1.608Z" transform="translate(0 -74.533)"/>
      <path id="Trazado_115436" data-name="Trazado 115436" d="M989.011,67.486a3.434,3.434,0,0,0-4.537-1.735h0c-1.447.647-4.12,4.326-4.641,5.057a.825.825,0,0,0,.581,1.3,41.136,41.136,0,0,0,4.122.253,7.843,7.843,0,0,0,2.741-.338,3.434,3.434,0,0,0,1.734-4.537Zm-1.469,2.038a1.773,1.773,0,0,1-.938.992,14.719,14.719,0,0,1-4.571.088,14.708,14.708,0,0,1,3.115-3.346,1.784,1.784,0,0,1,2.395,2.266Z" transform="translate(-373.835 -38.705)"/>
      <path id="Trazado_115437" data-name="Trazado 115437" d="M931.837,30.472h.006a.825.825,0,0,0,.708-.4c.525-.879,2.239-3.846,2.248-5.128A2.925,2.925,0,0,0,931.9,22a2.922,2.922,0,0,0-2.943,2.9c-.009,1.283,1.66,4.275,2.172,5.161A.824.824,0,0,0,931.837,30.472Zm-.851-6.457a1.261,1.261,0,0,1,.892-.366h.01a1.273,1.273,0,0,1,1.262,1.281,11.179,11.179,0,0,1-1.292,3.024,11.547,11.547,0,0,1-1.251-3.044A1.26,1.26,0,0,1,930.986,24.015Z" transform="translate(-328.653)"/>
    </g>
  </g>
</svg>
