<svg xmlns="http://www.w3.org/2000/svg" width="85" height="85" viewBox="0 0 85 85">
  <g id="Grupo_1015069" data-name="Grupo 1015069" transform="translate(-179.5 -4131)">
    <g id="Elipse_4257" data-name="Elipse 4257" transform="translate(179.5 4131)" fill="#ff6e33" stroke="#fff" stroke-width="3">
      <circle cx="42.5" cy="42.5" r="42.5" stroke="none"/>
      <circle cx="42.5" cy="42.5" r="41" fill="none"/>
    </g>
    <g id="Grupo_59084" data-name="Grupo 59084" transform="translate(198.5 4150)">
      <g id="Grupo_59083" data-name="Grupo 59083" transform="translate(0 0)">
        <path id="Trazado_115692" data-name="Trazado 115692" d="M285.305,56h-4.976V53.353a6.328,6.328,0,0,0-.793-3.067c.072-4.222-.236-7.353.509-12.23.186-1.216.323-2.454.41-3.68a.677.677,0,1,0-1.351-.1c-.084,1.19-.218,2.391-.4,3.571a65.878,65.878,0,0,0-.524,10.749c-2.018-1.782-6.2-2.325-8.9-2.676a.487.487,0,0,1-.424-.482v-3.22a6.526,6.526,0,0,0,2.45-4.651h.286a1.9,1.9,0,0,0,1.894-1.894V34.33a1.9,1.9,0,0,0-.955-1.641v-3.63a5.622,5.622,0,0,0-.413-2.115h2.9a4.206,4.206,0,0,1,4.2,4.2.677.677,0,0,0,1.354,0,5.562,5.562,0,0,0-5.556-5.556h-3.682a5.644,5.644,0,0,0-4.456-2.182h-5.53a5.643,5.643,0,0,0-4.456,2.182h-3.68a5.562,5.562,0,0,0-5.555,5.556,45.962,45.962,0,0,0,.524,6.91c.744,4.879.437,8.012.509,12.23a6.327,6.327,0,0,0-.793,3.067V56h-4.976A1.919,1.919,0,0,0,241,57.918v1.225a1.918,1.918,0,0,0,1.241,1.791v6.814a1.852,1.852,0,0,0,1.85,1.85H284.13a1.852,1.852,0,0,0,1.85-1.85V60.934a1.918,1.918,0,0,0,1.241-1.791V57.918A1.919,1.919,0,0,0,285.305,56Zm-6.33-2.649V56h-3.031V48.769A4.985,4.985,0,0,1,278.975,53.353ZM267.542,56l3.444-8.458a34.406,34.406,0,0,1,3.6.761V56Zm-7.9-8.883,3.207,2.493a29.188,29.188,0,0,1-2.754,1.366l-1.483-3.642a3.307,3.307,0,0,0,1.03-.217Zm7.968,5.121L266.4,55.218l-.507-2.02.685-1.462a10.5,10.5,0,0,0,1.035.5Zm-4.135.212-.622-1.326,1.256-.634,1.256.634-.622,1.326Zm-1.831-.715.685,1.461-.507,2.02-1.213-2.978A10.528,10.528,0,0,0,261.646,51.737Zm1.929,2.069h1.073L265.2,56h-2.176Zm6.034-6.471-1.483,3.642a26.134,26.134,0,0,1-2.754-1.366l3.207-2.493a3.256,3.256,0,0,0,1.03.217Zm-1.972-1.2-3.526,2.741-3.526-2.741a1.837,1.837,0,0,0,.138-.693V43.089a7.59,7.59,0,0,0,3.38.814h.015a7.592,7.592,0,0,0,3.38-.814v2.353a1.837,1.837,0,0,0,.138.693Zm.632-5.185a6.206,6.206,0,0,1-8.315,0,5.45,5.45,0,0,1-1.719-4.064s0-.007,0-.011c-.006-4.482,0-2.847,0-3.219a2.042,2.042,0,0,0,1.116-1.811V29.261a.628.628,0,0,1,.627-.627h.281c1.079,0,1.747.675,3.92.675,2.133,0,2.863-.675,3.92-.675h.152a.628.628,0,0,1,.627.627v2.586a2.042,2.042,0,0,0,1.119,1.812v3.187c0,.041,0,.041,0,.052a5.444,5.444,0,0,1-1.724,4.053ZM256.094,34.33a.542.542,0,0,1,.423-.526.549.549,0,0,1,.117-.013h.244l0,2.427h-.246a.54.54,0,0,1-.539-.539Zm16.035,1.348a.54.54,0,0,1-.539.539h-.242V33.791h.242a.542.542,0,0,1,.539.539v1.348ZM261.345,24.762h5.53a4.3,4.3,0,0,1,4.3,4.3v3.377h-.6a.681.681,0,0,1-.346-.59V29.261a1.983,1.983,0,0,0-1.981-1.981H268.1c-1.462,0-1.877.675-3.92.675-2.018,0-2.468-.675-3.92-.675h-.281a1.983,1.983,0,0,0-1.981,1.981v2.586a.681.681,0,0,1-.346.59h-.6V29.059a4.3,4.3,0,0,1,4.3-4.3Zm-8.137,2.182h2.9a5.62,5.62,0,0,0-.412,2.115v3.63a1.9,1.9,0,0,0-.955,1.641v1.348a1.9,1.9,0,0,0,1.894,1.894h.291a6.423,6.423,0,0,0,2.446,4.651v3.22a.487.487,0,0,1-.424.482c-2.68.348-6.882.891-8.9,2.676a65.589,65.589,0,0,0-.524-10.749,44.606,44.606,0,0,1-.509-6.706,4.206,4.206,0,0,1,4.2-4.2Zm-3.961,26.409a4.985,4.985,0,0,1,3.037-4.587v1.891a.677.677,0,0,0,1.354,0V48.3a34.463,34.463,0,0,1,3.6-.76L260.681,56h-7.042V53.822a.677.677,0,0,0-1.354,0V56h-3.037Zm-6.892,4.565a.563.563,0,0,1,.562-.562h42.388a.563.563,0,0,1,.562.562v1.225a.563.563,0,0,1-.562.562H242.917a.563.563,0,0,1-.562-.562ZM284.13,68.244H244.092a.5.5,0,0,1-.5-.5V61.059h41.03v6.689a.5.5,0,0,1-.5.5Z" transform="translate(-241.001 -23.408)" fill="#fff"/>
      </g>
    </g>
  </g>
</svg>
