<svg xmlns="http://www.w3.org/2000/svg" xmlns:xlink="http://www.w3.org/1999/xlink" width="110" height="110" viewBox="0 0 110 110">
  <defs>
    <filter id="Elipse_4252" x="0" y="0" width="110" height="110" filterUnits="userSpaceOnUse">
      <feOffset dy="3" input="SourceAlpha"/>
      <feGaussianBlur stdDeviation="3" result="blur"/>
      <feFlood flood-opacity="0.161"/>
      <feComposite operator="in" in2="blur"/>
      <feComposite in="SourceGraphic"/>
    </filter>
  </defs>
  <g id="Grupo_59925" data-name="Grupo 59925" transform="translate(-1319 -2820)">
    <g id="Grupo_58975" data-name="Grupo 58975">
      <g transform="matrix(1, 0, 0, 1, 1319, 2820)" filter="url(#Elipse_4252)">
        <g id="Elipse_4252-2" data-name="Elipse 4252" transform="translate(9 6)" fill="#fff" stroke="#ea526f" stroke-width="3">
          <circle cx="46" cy="46" r="46" stroke="none"/>
          <circle cx="46" cy="46" r="44.5" fill="none"/>
        </g>
      </g>
    </g>
    <g id="Grupo_58980" data-name="Grupo 58980" transform="translate(379.5 2856.5)">
      <path id="Trazado_115501" data-name="Trazado 115501" d="M1015.567,46.064l-9.1-7.889A8.907,8.907,0,0,0,1000.63,36H985.45A2.449,2.449,0,0,0,983,38.447V84.54a2.449,2.449,0,0,0,2.45,2.447h30.735a2.448,2.448,0,0,0,2.449-2.447V52.78A8.886,8.886,0,0,0,1015.567,46.064Zm-.3,19.015a2.58,2.58,0,0,1-5.161,0V54.994a2.58,2.58,0,0,1,5.161,0Z" transform="translate(-6.66 -43.953)" fill="#e6e9ed"/>
      <g id="Grupo_58978" data-name="Grupo 58978" transform="translate(990.605 -7.953)">
        <path id="Trazado_115502" data-name="Trazado 115502" d="M1128.594,46.064l-9.1-7.889A8.907,8.907,0,0,0,1113.657,36h-3.366a8.907,8.907,0,0,1,5.834,2.175l9.1,7.889a8.887,8.887,0,0,1,3.068,6.716V84.54a2.448,2.448,0,0,1-2.449,2.447h3.366a2.448,2.448,0,0,0,2.449-2.447V52.78a8.887,8.887,0,0,0-3.068-6.716Z" transform="translate(-1110.291 -36)" fill="#ccd1d9"/>
      </g>
      <path id="Trazado_115503" data-name="Trazado 115503" d="M1042.935-1.293h-7.853V-5.1a.9.9,0,0,1,.9-.9h6.06a.9.9,0,0,1,.9.9v3.809Z" transform="translate(-52.905 -6.66)" fill="#497285"/>
      <path id="Trazado_115504" data-name="Trazado 115504" d="M1070.486-6h-3.366a.9.9,0,0,1,.9.9v3.81h3.366V-5.1A.9.9,0,0,0,1070.486-6Z" transform="translate(-81.353 -6.66)" fill="#426778"/>
      <path id="Trazado_115505" data-name="Trazado 115505" d="M1002.75,158.807H983V122.5h19.748a2.691,2.691,0,0,1,2.691,2.691v30.925A2.691,2.691,0,0,1,1002.75,158.807Z" transform="translate(-6.661 -120.76)" fill="#ff826e"/>
      <path id="Trazado_115506" data-name="Trazado 115506" d="M1036.638,182.43h-10.794a.773.773,0,0,1-.773-.773v-3.384a.773.773,0,0,1,.773-.773h10.794a.773.773,0,0,1,.773.773v3.384A.774.774,0,0,1,1036.638,182.43Z" transform="translate(-44.015 -169.596)" fill="#f1f1f1"/>
      <g id="Grupo_58979" data-name="Grupo 58979" transform="translate(975.5 -13.5)">
        <path id="Trazado_115507" data-name="Trazado 115507" d="M976.34-2.818a.84.84,0,0,0,.84-.84V-5.506a1.61,1.61,0,0,1,1.609-1.606h15.18a8.068,8.068,0,0,1,5.283,1.97.841.841,0,0,0,1.186-.085.84.84,0,0,0-.085-1.186,9.75,9.75,0,0,0-6.384-2.381h-3.1v-2.969a1.739,1.739,0,0,0-1.737-1.737h-6.06a1.739,1.739,0,0,0-1.737,1.737v2.969H978.79a3.293,3.293,0,0,0-3.29,3.287v1.848a.84.84,0,0,0,.84.84Zm6.677-8.945a.057.057,0,0,1,.057-.057h6.06a.057.057,0,0,1,.057.057v2.969h-6.173Z" transform="translate(-975.5 13.5)"/>
        <path id="Trazado_115508" data-name="Trazado 115508" d="M1002.9,142.263H978.79a1.61,1.61,0,0,1-1.609-1.606v-1.7h18.907a3.535,3.535,0,0,0,3.531-3.531V104.5a3.535,3.535,0,0,0-3.531-3.531H977.181v-.93a.84.84,0,0,0-1.681,0v40.618a3.293,3.293,0,0,0,3.29,3.287H1002.9a.84.84,0,1,0,0-1.681Zm-6.808-39.613a1.853,1.853,0,0,1,1.851,1.851v30.925a1.853,1.853,0,0,1-1.851,1.851H977.181V102.65Z" transform="translate(-975.5 -86.569)"/>
        <path id="Trazado_115509" data-name="Trazado 115509" d="M1217.374,75.067l-6.328-5.484a.841.841,0,0,0-1.1,1.27l6.328,5.484a8.042,8.042,0,0,1,2.778,6.08v31.76a1.61,1.61,0,0,1-1.609,1.606h-3.028a.84.84,0,1,0,0,1.681h3.028a3.293,3.293,0,0,0,3.29-3.287V82.417a9.722,9.722,0,0,0-3.358-7.35Z" transform="translate(-1183.416 -60.09)"/>
        <path id="Trazado_115510" data-name="Trazado 115510" d="M1220.828,191.92h0a3.423,3.423,0,0,0,3.419-3.419V178.418a3.421,3.421,0,0,0-6.842,0V188.5a3.423,3.423,0,0,0,3.419,3.419Zm-1.739-13.5a1.74,1.74,0,0,1,3.48,0V188.5a1.74,1.74,0,0,1-1.739,1.738h0a1.74,1.74,0,0,1-1.739-1.738Z" transform="translate(-1190.301 -153.876)"/>
        <path id="Trazado_115511" data-name="Trazado 115511" d="M1019.183,176.612h10.795a1.616,1.616,0,0,0,1.614-1.614v-3.384a1.616,1.616,0,0,0-1.614-1.614h-10.795a1.616,1.616,0,0,0-1.614,1.614V175A1.615,1.615,0,0,0,1019.183,176.612Zm.067-4.931h10.66v3.25h-10.66Z" transform="translate(-1012.855 -149.438)"/>
        <path id="Trazado_115512" data-name="Trazado 115512" d="M1018.408,260.181h12.341a.84.84,0,1,0,0-1.681h-12.341a.84.84,0,1,0,0,1.681Z" transform="translate(-1012.854 -228.02)"/>
        <path id="Trazado_115513" data-name="Trazado 115513" d="M1018.408,296.681h12.341a.84.84,0,1,0,0-1.681h-12.341a.84.84,0,1,0,0,1.681Z" transform="translate(-1012.854 -260.43)"/>
        <path id="Trazado_115514" data-name="Trazado 115514" d="M1018.408,333.181h12.341a.84.84,0,1,0,0-1.681h-12.341a.84.84,0,1,0,0,1.681Z" transform="translate(-1012.854 -292.839)"/>
      </g>
    </g>
  </g>
</svg>
